<svg width="25" height="23" viewBox="0 0 25 23" fill="none" xmlns="http://www.w3.org/2000/svg">
<path d="M4.1842 16.8409C4.51294 17.1574 4.67755 17.5981 4.63318 18.0431C4.53374 19.0401 4.30471 20.0778 4.01058 21.0417C6.19009 20.5581 7.52121 19.9972 8.12628 19.7028C8.46972 19.5357 8.86534 19.4963 9.23722 19.592C10.2651 19.8566 11.3606 20 12.5 20C18.7431 20 23.4375 15.7887 23.4375 11C23.4375 6.21132 18.7431 2 12.5 2C6.25688 2 1.5625 6.21132 1.5625 11C1.5625 13.2021 2.52704 15.2456 4.1842 16.8409ZM3.4139 22.6984C3.40337 22.7004 3.39284 22.7024 3.38228 22.7044C3.2388 22.7315 3.09253 22.7583 2.94347 22.7845C2.73437 22.8212 2.51976 22.857 2.29956 22.8916C1.9886 22.9405 1.75057 22.6282 1.8734 22.3496C1.95366 22.1676 2.03277 21.9769 2.10985 21.7791C2.15881 21.6535 2.20695 21.525 2.25404 21.3941C2.25607 21.3885 2.2581 21.3828 2.26012 21.3772C2.64722 20.2976 2.96245 19.0567 3.07779 17.9001C1.16103 16.0548 0 13.6413 0 11C0 5.20101 5.59644 0.5 12.5 0.5C19.4036 0.5 25 5.20101 25 11C25 16.799 19.4036 21.5 12.5 21.5C11.2238 21.5 9.99231 21.3394 8.83256 21.0408C8.02089 21.4357 6.2724 22.1545 3.4139 22.6984Z" fill="white"/>
<path d="M6.25 7.25C6.25 6.83579 6.59978 6.5 7.03125 6.5H17.9688C18.4002 6.5 18.75 6.83579 18.75 7.25C18.75 7.66421 18.4002 8 17.9688 8H7.03125C6.59978 8 6.25 7.66421 6.25 7.25ZM6.25 11C6.25 10.5858 6.59978 10.25 7.03125 10.25H17.9688C18.4002 10.25 18.75 10.5858 18.75 11C18.75 11.4142 18.4002 11.75 17.9688 11.75H7.03125C6.59978 11.75 6.25 11.4142 6.25 11ZM6.25 14.75C6.25 14.3358 6.59978 14 7.03125 14H13.2812C13.7127 14 14.0625 14.3358 14.0625 14.75C14.0625 15.1642 13.7127 15.5 13.2812 15.5H7.03125C6.59978 15.5 6.25 15.1642 6.25 14.75Z" fill="white"/>
</svg>
