<svg width="25" height="24" viewBox="0 0 25 24" fill="none" xmlns="http://www.w3.org/2000/svg">
<path d="M23.4375 21C23.4375 21 25 21 25 19.5C25 18 23.4375 13.5 17.1875 13.5C10.9375 13.5 9.375 18 9.375 19.5C9.375 21 10.9375 21 10.9375 21H23.4375ZM10.9724 19.5C10.967 19.4994 10.9594 19.4984 10.9502 19.497C10.9459 19.4963 10.9417 19.4955 10.9375 19.4948C10.9398 19.0987 11.1982 17.9504 12.1238 16.9137C12.9896 15.944 14.5042 15 17.1875 15C19.8708 15 21.3854 15.944 22.2512 16.9137C23.1768 17.9504 23.4352 19.0987 23.4375 19.4948C23.4333 19.4955 23.4291 19.4963 23.4248 19.497C23.4156 19.4984 23.408 19.4994 23.4026 19.5H10.9724Z" fill="white"/>
<path d="M17.1875 10.5C18.9134 10.5 20.3125 9.15685 20.3125 7.5C20.3125 5.84315 18.9134 4.5 17.1875 4.5C15.4616 4.5 14.0625 5.84315 14.0625 7.5C14.0625 9.15685 15.4616 10.5 17.1875 10.5ZM21.875 7.5C21.875 9.98528 19.7763 12 17.1875 12C14.5987 12 12.5 9.98528 12.5 7.5C12.5 5.01472 14.5987 3 17.1875 3C19.7763 3 21.875 5.01472 21.875 7.5Z" fill="white"/>
<path d="M10.8374 13.9199C10.2627 13.7435 9.62428 13.6152 8.91606 13.5496C8.56555 13.5171 8.19794 13.5 7.8125 13.5C1.5625 13.5 0 18 0 19.5C0 20.5 0.520833 21 1.5625 21H8.15056C7.93056 20.5739 7.8125 20.0687 7.8125 19.5C7.8125 17.9846 8.40194 16.437 9.51534 15.1443C9.89573 14.7026 10.3373 14.2907 10.8374 13.9199ZM7.68757 15.0007C6.75399 16.3704 6.25 17.932 6.25 19.5H1.5625C1.5625 19.1089 1.81913 17.955 2.74884 16.9137C3.60107 15.9592 5.08202 15.0295 7.68757 15.0007Z" fill="white"/>
<path d="M2.34375 8.25C2.34375 5.76472 4.44242 3.75 7.03125 3.75C9.62008 3.75 11.7188 5.76472 11.7188 8.25C11.7188 10.7353 9.62008 12.75 7.03125 12.75C4.44242 12.75 2.34375 10.7353 2.34375 8.25ZM7.03125 5.25C5.30536 5.25 3.90625 6.59315 3.90625 8.25C3.90625 9.90685 5.30536 11.25 7.03125 11.25C8.75714 11.25 10.1562 9.90685 10.1562 8.25C10.1562 6.59315 8.75714 5.25 7.03125 5.25Z" fill="white"/>
</svg>
