<svg width="25" height="25" viewBox="0 0 25 25" fill="none" xmlns="http://www.w3.org/2000/svg">
<path d="M23.4375 21.8C23.4375 21.8 25 21.8 25 20.3C25 18.8 23.4375 14.3 17.1875 14.3C10.9375 14.3 9.375 18.8 9.375 20.3C9.375 21.8 10.9375 21.8 10.9375 21.8H23.4375ZM10.9724 20.3C10.967 20.2994 10.9594 20.2985 10.9502 20.297C10.9459 20.2963 10.9417 20.2956 10.9375 20.2948C10.9398 19.8988 11.1982 18.7504 12.1238 17.7137C12.9896 16.7441 14.5042 15.8 17.1875 15.8C19.8708 15.8 21.3854 16.7441 22.2512 17.7137C23.1768 18.7504 23.4352 19.8988 23.4375 20.2948C23.4333 20.2956 23.4291 20.2963 23.4248 20.297C23.4156 20.2985 23.408 20.2994 23.4026 20.3H10.9724Z" fill="#1BAEA6"/>
<path d="M17.1875 11.3C18.9134 11.3 20.3125 9.9569 20.3125 8.30005C20.3125 6.64319 18.9134 5.30005 17.1875 5.30005C15.4616 5.30005 14.0625 6.64319 14.0625 8.30005C14.0625 9.9569 15.4616 11.3 17.1875 11.3ZM21.875 8.30005C21.875 10.7853 19.7763 12.8 17.1875 12.8C14.5987 12.8 12.5 10.7853 12.5 8.30005C12.5 5.81477 14.5987 3.80005 17.1875 3.80005C19.7763 3.80005 21.875 5.81477 21.875 8.30005Z" fill="#1BAEA6"/>
<path d="M10.8374 14.72C10.2627 14.5435 9.62428 14.4152 8.91606 14.3496C8.56555 14.3172 8.19794 14.3 7.8125 14.3C1.5625 14.3 0 18.8 0 20.3C0 21.3 0.520833 21.8 1.5625 21.8H8.15056C7.93056 21.3739 7.8125 20.8688 7.8125 20.3C7.8125 18.7846 8.40194 17.2371 9.51534 15.9443C9.89573 15.5027 10.3373 15.0907 10.8374 14.72ZM7.68757 15.8007C6.75399 17.1705 6.25 18.7321 6.25 20.3H1.5625C1.5625 19.909 1.81913 18.755 2.74884 17.7137C3.60107 16.7592 5.08202 15.8296 7.68757 15.8007Z" fill="#1BAEA6"/>
<path d="M2.34375 9.05005C2.34375 6.56477 4.44242 4.55005 7.03125 4.55005C9.62008 4.55005 11.7188 6.56477 11.7188 9.05005C11.7188 11.5353 9.62008 13.55 7.03125 13.55C4.44242 13.55 2.34375 11.5353 2.34375 9.05005ZM7.03125 6.05005C5.30536 6.05005 3.90625 7.39319 3.90625 9.05005C3.90625 10.7069 5.30536 12.05 7.03125 12.05C8.75714 12.05 10.1562 10.7069 10.1562 9.05005C10.1562 7.39319 8.75714 6.05005 7.03125 6.05005Z" fill="#1BAEA6"/>
</svg>
