<svg width="25" height="24" viewBox="0 0 25 24" fill="none" xmlns="http://www.w3.org/2000/svg">
<path fill-rule="evenodd" clip-rule="evenodd" d="M2.85674 13.3493L13.9053 2.74271C16.3461 0.399565 20.3033 0.399565 22.7441 2.74271C25.1849 5.08586 25.1849 8.88485 22.7441 11.228L11.6956 21.8346C9.25479 24.1777 5.29751 24.1777 2.85674 21.8346C0.41596 19.4915 0.415959 15.6925 2.85674 13.3493ZM17.1189 14.5069L21.6393 10.1673C23.4698 8.40997 23.4698 5.56073 21.6393 3.80337C19.8087 2.04601 16.8407 2.04601 15.0101 3.80337L10.4898 8.1429L17.1189 14.5069Z" fill="white"/>
<rect x="3.52564" y="1.84619" width="0.961538" height="2.76923" rx="0.480769" fill="white"/>
<rect x="1.92308" y="4.61548" width="0.923077" height="2.40385" rx="0.461538" transform="rotate(-90 1.92308 4.61548)" fill="white"/>
<path d="M7.19231 3.69231C7.19231 5.43633 5.71362 6.88461 3.84615 6.88461C1.97869 6.88461 0.5 5.43633 0.5 3.69231C0.5 1.94829 1.97869 0.5 3.84615 0.5C5.71362 0.5 7.19231 1.94829 7.19231 3.69231Z" stroke="white"/>
</svg>
