<svg width="25" height="24" viewBox="0 0 25 24" fill="none" xmlns="http://www.w3.org/2000/svg">
<path fill-rule="evenodd" clip-rule="evenodd" d="M2.85671 13.3493L13.9052 2.74271C16.346 0.399565 20.3033 0.399565 22.7441 2.74271C25.1849 5.08586 25.1849 8.88485 22.7441 11.228L11.6955 21.8346C9.25476 24.1777 5.29748 24.1777 2.85671 21.8346C0.415929 19.4915 0.415929 15.6925 2.85671 13.3493ZM17.1189 14.5069L21.6392 10.1673C23.4698 8.40997 23.4698 5.56073 21.6392 3.80337C19.8086 2.04601 16.8407 2.04601 15.0101 3.80337L10.4898 8.1429L17.1189 14.5069Z" fill="#1BAEA6"/>
<rect x="3.52563" y="1.84619" width="0.961538" height="2.76923" rx="0.480769" fill="#1BAEA6"/>
<rect x="1.9231" y="4.61548" width="0.923077" height="2.40385" rx="0.461538" transform="rotate(-90 1.9231 4.61548)" fill="#1BAEA6"/>
<path d="M7.19231 3.69231C7.19231 5.43633 5.71362 6.88461 3.84615 6.88461C1.97869 6.88461 0.5 5.43633 0.5 3.69231C0.5 1.94829 1.97869 0.5 3.84615 0.5C5.71362 0.5 7.19231 1.94829 7.19231 3.69231Z" stroke="#1BAEA6"/>
</svg>
