<svg width="22" height="22" viewBox="0 0 22 22" fill="none" xmlns="http://www.w3.org/2000/svg">
<path d="M0 3.4375C0 2.29841 0.923413 1.375 2.0625 1.375H17.1875C18.3266 1.375 19.25 2.29841 19.25 3.4375V17.9133C19.25 18.3249 19.1809 18.8134 18.9233 19.25H19.9375C20.3172 19.25 20.625 18.9422 20.625 18.5625V6.1875C20.625 5.8078 20.9328 5.5 21.3125 5.5C21.6922 5.5 22 5.8078 22 6.1875V18.5625C22 19.7016 21.0766 20.625 19.9375 20.625H2.05778C0.915618 20.625 0 19.6985 0 18.5625V3.4375ZM16.5 19.25C17.0078 19.25 17.3989 18.9592 17.673 18.6432C17.7991 18.4978 17.875 18.26 17.875 17.9133V3.4375C17.875 3.0578 17.5672 2.75 17.1875 2.75H2.0625C1.6828 2.75 1.375 3.0578 1.375 3.4375V18.5625C1.375 18.9453 1.68116 19.25 2.05778 19.25H16.5Z" fill="#1BAEA6"/>
<path d="M2.75 4.125H16.5V6.875H2.75V4.125Z" fill="#1BAEA6"/>
<path d="M2.75 8.25H8.25V12.375H2.75V8.25Z" fill="#1BAEA6"/>
<path d="M2.75 13.75H8.25V15.125H2.75V13.75Z" fill="#1BAEA6"/>
<path d="M2.75 16.5H8.25V17.875H2.75V16.5Z" fill="#1BAEA6"/>
<path d="M9.625 8.25H12.375V9.625H9.625V8.25Z" fill="#1BAEA6"/>
<path d="M13.75 8.25H16.5V9.625H13.75V8.25Z" fill="#1BAEA6"/>
<path d="M9.625 11H12.375V12.375H9.625V11Z" fill="#1BAEA6"/>
<path d="M13.75 11H16.5V12.375H13.75V11Z" fill="#1BAEA6"/>
<path d="M9.625 13.75H12.375V15.125H9.625V13.75Z" fill="#1BAEA6"/>
<path d="M13.75 13.75H16.5V15.125H13.75V13.75Z" fill="#1BAEA6"/>
<path d="M9.625 16.5H12.375V17.875H9.625V16.5Z" fill="#1BAEA6"/>
<path d="M13.75 16.5H16.5V17.875H13.75V16.5Z" fill="#1BAEA6"/>
</svg>
