<svg width="30" height="29" viewBox="0 0 30 29" fill="none" xmlns="http://www.w3.org/2000/svg">
<g filter="url(#filter0_d_960_5987)">
<path d="M4 3.4375C4 2.29841 4.92341 1.375 6.0625 1.375H21.1875C22.3266 1.375 23.25 2.29841 23.25 3.4375V17.9133C23.25 18.3249 23.1809 18.8134 22.9233 19.25H23.9375C24.3172 19.25 24.625 18.9422 24.625 18.5625V6.1875C24.625 5.8078 24.9328 5.5 25.3125 5.5C25.6922 5.5 26 5.8078 26 6.1875V18.5625C26 19.7016 25.0766 20.625 23.9375 20.625H6.05778C4.91562 20.625 4 19.6985 4 18.5625V3.4375ZM20.5 19.25C21.0078 19.25 21.3989 18.9592 21.673 18.6432C21.7991 18.4978 21.875 18.26 21.875 17.9133V3.4375C21.875 3.0578 21.5672 2.75 21.1875 2.75H6.0625C5.6828 2.75 5.375 3.0578 5.375 3.4375V18.5625C5.375 18.9453 5.68116 19.25 6.05778 19.25H20.5Z" fill="white"/>
<path d="M6.75 4.125H20.5V6.875H6.75V4.125Z" fill="white"/>
<path d="M6.75 8.25H12.25V12.375H6.75V8.25Z" fill="white"/>
<path d="M6.75 13.75H12.25V15.125H6.75V13.75Z" fill="white"/>
<path d="M6.75 16.5H12.25V17.875H6.75V16.5Z" fill="white"/>
<path d="M13.625 8.25H16.375V9.625H13.625V8.25Z" fill="white"/>
<path d="M17.75 8.25H20.5V9.625H17.75V8.25Z" fill="white"/>
<path d="M13.625 11H16.375V12.375H13.625V11Z" fill="white"/>
<path d="M17.75 11H20.5V12.375H17.75V11Z" fill="white"/>
<path d="M13.625 13.75H16.375V15.125H13.625V13.75Z" fill="white"/>
<path d="M17.75 13.75H20.5V15.125H17.75V13.75Z" fill="white"/>
<path d="M13.625 16.5H16.375V17.875H13.625V16.5Z" fill="white"/>
<path d="M17.75 16.5H20.5V17.875H17.75V16.5Z" fill="white"/>
</g>
<defs>
<filter id="filter0_d_960_5987" x="0" y="1.375" width="30" height="27.25" filterUnits="userSpaceOnUse" color-interpolation-filters="sRGB">
<feFlood flood-opacity="0" result="BackgroundImageFix"/>
<feColorMatrix in="SourceAlpha" type="matrix" values="0 0 0 0 0 0 0 0 0 0 0 0 0 0 0 0 0 0 127 0" result="hardAlpha"/>
<feOffset dy="4"/>
<feGaussianBlur stdDeviation="2"/>
<feComposite in2="hardAlpha" operator="out"/>
<feColorMatrix type="matrix" values="0 0 0 0 0 0 0 0 0 0 0 0 0 0 0 0 0 0 0.25 0"/>
<feBlend mode="normal" in2="BackgroundImageFix" result="effect1_dropShadow_960_5987"/>
<feBlend mode="normal" in="SourceGraphic" in2="effect1_dropShadow_960_5987" result="shape"/>
</filter>
</defs>
</svg>
