<svg width="22" height="22" viewBox="0 0 22 22" fill="none" xmlns="http://www.w3.org/2000/svg">
<path fill-rule="evenodd" clip-rule="evenodd" d="M13.75 17.1875C13.75 17.5672 13.4422 17.875 13.0625 17.875L2.0625 17.875C1.6828 17.875 1.375 17.5672 1.375 17.1875L1.375 4.8125C1.375 4.4328 1.6828 4.125 2.0625 4.125L13.0625 4.125C13.4422 4.125 13.75 4.4328 13.75 4.8125L13.75 7.5625C13.75 7.9422 14.0578 8.25 14.4375 8.25C14.8172 8.25 15.125 7.9422 15.125 7.5625L15.125 4.8125C15.125 3.67341 14.2016 2.75 13.0625 2.75L2.0625 2.75C0.923415 2.75 6.80874e-07 3.67341 6.31083e-07 4.8125L9.01547e-08 17.1875C4.03636e-08 18.3266 0.923412 19.25 2.0625 19.25L13.0625 19.25C14.2016 19.25 15.125 18.3266 15.125 17.1875L15.125 14.4375C15.125 14.0578 14.8172 13.75 14.4375 13.75C14.0578 13.75 13.75 14.0578 13.75 14.4375L13.75 17.1875Z" fill="#1BAEA6" fill-opacity="0.8"/>
<path fill-rule="evenodd" clip-rule="evenodd" d="M21.7986 11.4861C22.0671 11.2177 22.0671 10.7823 21.7986 10.5139L17.6736 6.38886C17.4052 6.12038 16.9699 6.12038 16.7014 6.38886C16.4329 6.65735 16.4329 7.09265 16.7014 7.36114L19.6527 10.3125L7.5625 10.3125C7.1828 10.3125 6.875 10.6203 6.875 11C6.875 11.3797 7.1828 11.6875 7.5625 11.6875L19.6527 11.6875L16.7014 14.6389C16.4329 14.9073 16.4329 15.3427 16.7014 15.6111C16.9698 15.8796 17.4052 15.8796 17.6736 15.6111L21.7986 11.4861Z" fill="#1BAEA6" fill-opacity="0.8"/>
</svg>
