<svg width="16" height="23" viewBox="0 0 16 23" fill="none" xmlns="http://www.w3.org/2000/svg">
<path fill-rule="evenodd" clip-rule="evenodd" d="M4.875 8.4375C4.52982 8.4375 4.25 8.7523 4.25 9.14062V14.7656C4.25 15.1539 4.52982 15.4688 4.875 15.4688C5.22018 15.4688 5.5 15.1539 5.5 14.7656V12.6562H5.86612L8.36612 15.4688L6.93306 17.0809C6.68898 17.3555 6.68898 17.8007 6.93306 18.0753C7.17714 18.3499 7.57286 18.3499 7.81694 18.0753L9.25 16.4631L10.6831 18.0753C10.9271 18.3499 11.3229 18.3499 11.5669 18.0753C11.811 17.8007 11.811 17.3555 11.5669 17.0809L10.1339 15.4688L11.5669 13.8566C11.811 13.582 11.811 13.1368 11.5669 12.8622C11.3229 12.5876 10.9271 12.5876 10.6831 12.8622L9.25 14.4744L7.61825 12.6387C8.53887 12.5045 9.25 11.6191 9.25 10.5469C9.25 9.3819 8.41053 8.4375 7.375 8.4375H4.875ZM5.5 9.84375V11.25H7.375C7.72018 11.25 8 10.9352 8 10.5469C8 10.1586 7.72018 9.84375 7.375 9.84375H5.5Z" fill="#1BAEA6"/>
<path fill-rule="evenodd" clip-rule="evenodd" d="M0.5 1.40625C0.5 0.6296 1.05964 0 1.75 0H14.25C14.9404 0 15.5 0.629599 15.5 1.40625V4.21875C15.5 4.9954 14.9404 5.625 14.25 5.625V20.3906C14.25 21.5556 13.4105 22.5 12.375 22.5H3.625C2.58947 22.5 1.75 21.5556 1.75 20.3906L1.75 5.625C1.05964 5.625 0.5 4.9954 0.5 4.21875V1.40625ZM3 5.625H13V20.3906C13 20.7789 12.7202 21.0938 12.375 21.0938H3.625C3.27982 21.0938 3 20.7789 3 20.3906V5.625ZM1.75 4.21875V1.40625H14.25V4.21875H1.75Z" fill="#1BAEA6"/>
</svg>
