<svg width="21" height="21" viewBox="0 0 21 21" fill="none" xmlns="http://www.w3.org/2000/svg">
<path d="M10.5 6.09133C8.14728 6.09133 6.23998 7.95322 6.23998 10.25C6.23998 12.5467 8.14728 14.4086 10.5 14.4086C12.8528 14.4086 14.7601 12.5467 14.7601 10.25C14.7601 7.95322 12.8528 6.09133 10.5 6.09133ZM7.55248 10.25C7.55248 8.66083 8.87215 7.37258 10.5 7.37258C12.1279 7.37258 13.4476 8.66083 13.4476 10.25C13.4476 11.8391 12.1279 13.1274 10.5 13.1274C8.87215 13.1274 7.55248 11.8391 7.55248 10.25Z" fill="#1BAEA6"/>
<path d="M12.8579 1.7212C12.1649 -0.573734 8.83506 -0.573732 8.14213 1.7212L8.01895 2.12917C7.8126 2.81259 7.01296 3.13592 6.37202 2.79511L5.9894 2.59166C3.83709 1.4472 1.4825 3.74573 2.65487 5.8468L2.86328 6.2203C3.21241 6.84599 2.88119 7.62659 2.1811 7.82802L1.76318 7.94827C-0.587728 8.6247 -0.587726 11.8753 1.76318 12.5517L2.1811 12.672C2.88119 12.8734 3.21241 13.654 2.86328 14.2797L2.65487 14.6532C1.48251 16.7543 3.83708 19.0528 5.9894 17.9083L6.37202 17.7049C7.01297 17.3641 7.8126 17.6874 8.01895 18.3708L8.14213 18.7788C8.83506 21.0737 12.1649 21.0737 12.8579 18.7788L12.981 18.3708C13.1874 17.6874 13.987 17.3641 14.628 17.7049L15.0106 17.9083C17.1629 19.0528 19.5175 16.7543 18.3451 14.6532L18.1367 14.2797C17.7876 13.654 18.1188 12.8734 18.8189 12.672L19.2368 12.5517C21.5877 11.8753 21.5877 8.6247 19.2368 7.94827L18.8189 7.82802C18.1188 7.62659 17.7876 6.84599 18.1367 6.2203L18.3451 5.8468C19.5175 3.74572 17.1629 1.44721 15.0106 2.59166L14.628 2.79511C13.987 3.13592 13.1874 2.81259 12.981 2.12917L12.8579 1.7212ZM9.40108 2.08344C9.72403 1.01385 11.276 1.01385 11.5989 2.08344L11.7221 2.49141C12.1648 3.95777 13.8806 4.65153 15.2558 3.92027L15.6384 3.71682C16.6415 3.18343 17.7389 4.25469 17.1925 5.23392L16.9841 5.60743C16.235 6.94992 16.9457 8.62479 18.4478 9.057L18.8657 9.17725C19.9614 9.49251 19.9614 11.0075 18.8657 11.3228L18.4478 11.443C16.9457 11.8752 16.235 13.5501 16.9841 14.8926L17.1925 15.2661C17.7389 16.2453 16.6415 17.3166 15.6384 16.7832L15.2558 16.5797C13.8806 15.8485 12.1648 16.5422 11.7221 18.0086L11.5989 18.4166C11.276 19.4861 9.72403 19.4861 9.40108 18.4166L9.2779 18.0086C8.83515 16.5422 7.11943 15.8485 5.74419 16.5797L5.36158 16.7832C4.35846 17.3166 3.26108 16.2453 3.80748 15.2661L4.01589 14.8926C4.76498 13.5501 4.05431 11.8752 2.55218 11.443L2.13425 11.3228C1.03858 11.0075 1.03858 9.49251 2.13425 9.17725L2.55218 9.057C4.0543 8.62479 4.76498 6.94992 4.01589 5.60743L3.80748 5.23392C3.26108 4.25469 4.35847 3.18343 5.36158 3.71682L5.74419 3.92027C7.11943 4.65153 8.83515 3.95778 9.2779 2.49141L9.40108 2.08344Z" fill="#1BAEA6"/>
</svg>
