<svg width="193" height="193" viewBox="0 0 193 193" fill="none" xmlns="http://www.w3.org/2000/svg">
<path d="M113.546 181.057C113.546 181.057 93.8829 185.041 75.988 181.057C65.0526 178.621 41.9968 172.843 36.5581 159.742C31.1193 146.641 57.3094 135.467 44.4402 122.181C38.8895 116.448 12.2478 108.887 13.7455 71.7033C15.2431 34.5199 54.2793 11.8501 108.528 12.8615C162.776 13.8728 194.085 63.1997 173.102 87.4907C152.119 111.782 143.09 111.855 152.601 131.626C162.112 151.397 148.907 175.394 113.546 181.057Z" fill="#60D2CE"/>
<path opacity="0.7" d="M113.546 181.057C113.546 181.057 93.8829 185.041 75.988 181.057C65.0526 178.621 41.9968 172.843 36.5581 159.742C31.1193 146.641 57.3094 135.467 44.4402 122.181C38.8895 116.448 12.2478 108.887 13.7455 71.7033C15.2431 34.5199 54.2793 11.8501 108.528 12.8615C162.776 13.8728 194.085 63.1997 173.102 87.4907C152.119 111.782 143.09 111.855 152.601 131.626C162.112 151.397 148.907 175.394 113.546 181.057Z" fill="white"/>
<path d="M128.704 119.112L156.716 117.41C156.716 117.41 157.874 144.464 164.822 158.781L133.892 163.212C133.892 163.212 129.368 139.948 128.704 119.112Z" stroke="#263238" stroke-width="1.09046" stroke-linecap="round" stroke-linejoin="round"/>
<path d="M127.901 121.841C127.901 121.841 127.816 140.207 131.977 165.702L161.618 162.722L161.232 160.727" stroke="#263238" stroke-width="1.09046" stroke-linecap="round" stroke-linejoin="round"/>
<path d="M133.143 127.156C133.143 127.156 135.459 125.612 136.806 126.102C138.153 126.593 137.474 128.604 138.806 127.515C140.137 126.427 142.469 125.369 142.967 126.396C143.465 127.423 147.464 126.396 147.464 126.396C147.464 126.396 151.613 125.747 153.867 125.666" stroke="#263238" stroke-width="1.09046" stroke-linecap="round" stroke-linejoin="round"/>
<path d="M134.579 135.05C135.699 134.598 136.781 134.055 137.814 133.429C137.632 133.856 137.61 134.334 137.752 134.776C138.227 134.517 138.701 134.259 139.18 134.004C139.205 134.173 139.295 134.325 139.432 134.428C139.569 134.531 139.74 134.575 139.91 134.552C140.296 134.479 140.682 134.066 140.994 134.266C141.091 134.324 141.156 134.425 141.257 134.467C141.423 134.537 141.604 134.425 141.747 134.317L143.221 133.232C143.191 133.703 143.689 134.066 144.159 134.097C144.633 134.079 145.1 133.976 145.537 133.792C148.17 132.977 151.231 134.05 153.643 132.757" stroke="#263238" stroke-width="1.09046" stroke-linecap="round" stroke-linejoin="round"/>
<path d="M135.285 141.446C135.885 141.138 136.542 140.959 137.215 140.921C137.281 141.141 137.35 141.365 137.42 141.589C137.762 141.507 138.088 141.368 138.385 141.18C138.559 141.373 138.875 141.257 139.099 141.133L141.712 139.701C141.504 140.554 141.438 141.436 141.515 142.311L143.503 140.381C143.631 140.828 144.302 140.871 144.661 140.581C144.792 140.477 144.928 140.334 145.094 140.35C145.26 140.365 145.298 140.689 145.132 140.662C145.41 140.35 145.904 140.496 146.321 140.558C147.606 140.747 148.772 139.863 150.003 139.443C151.466 138.937 153.068 139.095 154.612 139.257" stroke="#263238" stroke-width="1.09046" stroke-linecap="round" stroke-linejoin="round"/>
<path d="M136.798 148.923C136.931 148.947 137.068 148.933 137.194 148.884C137.319 148.834 137.428 148.75 137.509 148.641C137.666 148.422 137.874 148.243 138.115 148.12C138.369 148.031 138.728 148.216 138.674 148.479C139.516 148.129 140.292 147.64 140.971 147.031C140.912 147.837 141.089 148.641 141.481 149.347C141.897 149.517 142.318 149.127 142.573 148.761C142.828 148.394 143.137 147.946 143.584 147.966C143.773 147.966 143.951 148.066 144.144 148.089C144.599 148.135 144.982 147.757 145.41 147.595C146.109 147.329 146.954 147.634 147.606 147.263C148.463 146.781 148.598 145.333 149.567 145.171C149.502 146.383 149.432 147.595 149.367 148.807C149.836 148.115 150.424 147.512 151.104 147.024C151.358 147.41 151.964 147.317 152.358 147.066C152.752 146.815 153.103 146.449 153.562 146.406C153.824 146.409 154.083 146.447 154.334 146.518C154.844 146.614 155.37 146.557 155.848 146.356" stroke="#263238" stroke-width="1.09046" stroke-linecap="round" stroke-linejoin="round"/>
<path d="M60.6831 134.799H44.8571C43.9979 134.799 43.3015 135.495 43.3015 136.355V161.657C43.3015 162.516 43.9979 163.212 44.8571 163.212H60.6831C61.5422 163.212 62.2386 162.516 62.2386 161.657V136.355C62.2386 135.495 61.5422 134.799 60.6831 134.799Z" stroke="#263238" stroke-width="1.09046" stroke-linecap="round" stroke-linejoin="round"/>
<path d="M44.9227 133.869V127.789H60.8838V133.869H47.1692" stroke="#263238" stroke-width="1.09046" stroke-linecap="round" stroke-linejoin="round"/>
<path d="M59.5791 128.743V133.016" stroke="#263238" stroke-width="1.09046" stroke-linecap="round" stroke-linejoin="round"/>
<path d="M46.3316 128.743V133.016" stroke="#263238" stroke-width="1.09046" stroke-linecap="round" stroke-linejoin="round"/>
<path d="M48.9101 128.743V133.016" stroke="#263238" stroke-width="1.09046" stroke-linecap="round" stroke-linejoin="round"/>
<path d="M56.8694 128.793V133.016" stroke="#263238" stroke-width="1.09046" stroke-linecap="round" stroke-linejoin="round"/>
<path d="M53.2487 128.793V133.016" stroke="#263238" stroke-width="1.09046" stroke-linecap="round" stroke-linejoin="round"/>
<path d="M43.838 142.608H58.1162V154.261H43.838" stroke="#263238" stroke-width="1.09046" stroke-linecap="round" stroke-linejoin="round"/>
<path d="M61.2389 136.737V150.891" stroke="#263238" stroke-width="1.09046" stroke-linecap="round" stroke-linejoin="round"/>
<path d="M61.2389 151.934V154.261" stroke="#263238" stroke-width="1.09046" stroke-linecap="round" stroke-linejoin="round"/>
<path d="M23.1716 160.31H42.1126" stroke="#263238" stroke-width="1.09046" stroke-linecap="round" stroke-linejoin="round"/>
<path d="M62.2386 160.31H67.8318" stroke="#263238" stroke-width="1.09046" stroke-linecap="round" stroke-linejoin="round"/>
<path d="M125.817 160.31H130.858" stroke="#263238" stroke-width="1.09046" stroke-linecap="round" stroke-linejoin="round"/>
<path d="M164.37 160.31H176.178" stroke="#263238" stroke-width="1.09046" stroke-linecap="round" stroke-linejoin="round"/>
<path d="M177.367 82.1022C180.65 76.9218 182.353 70.8975 182.267 64.7653C182.182 58.633 180.313 52.6583 176.888 47.571C173.463 42.4838 168.63 38.5043 162.98 36.1188C157.33 33.7332 151.108 33.0449 145.073 34.1379C139.038 35.2309 133.453 38.0579 128.998 42.2735C124.544 46.4891 121.414 51.9108 119.991 57.8762C118.567 63.8416 118.912 70.0924 120.983 75.865C123.054 81.6376 126.762 86.682 131.653 90.3819L130.175 97.6194L136.084 93.1881C143.102 96.8559 151.241 97.752 158.888 95.6984C166.535 93.6449 173.131 88.7919 177.367 82.1022Z" fill="#60D2CE" stroke="#263238" stroke-width="1.09046" stroke-linecap="round" stroke-linejoin="round"/>
<path d="M171.304 85.8251C182.688 74.441 182.688 55.9838 171.304 44.5997C159.92 33.2157 141.463 33.2157 130.079 44.5997C118.695 55.9838 118.695 74.441 130.079 85.8251C141.463 97.2091 159.92 97.2091 171.304 85.8251Z" fill="#263238"/>
<path d="M150.509 85.0705L152.15 88.1932C152.266 88.4059 152.451 88.5731 152.675 88.668C152.836 88.7338 153.011 88.7577 153.184 88.7375L156.172 88.4017C156.32 88.3836 156.464 88.3344 156.592 88.2572C156.72 88.1801 156.831 88.0767 156.917 87.9539L158.561 85.5221C158.639 85.4055 158.691 85.274 158.715 85.1361C158.756 84.933 158.731 84.7225 158.646 84.5339L157.426 81.5231C157.354 81.3449 157.234 81.1902 157.08 81.0764C156.925 80.9625 156.742 80.894 156.55 80.8785L153.014 80.5929C152.81 80.576 152.606 80.6202 152.427 80.7199C152.248 80.8195 152.103 80.9702 152.011 81.1526L150.49 84.1016C150.413 84.2522 150.375 84.4194 150.378 84.5885C150.381 84.7575 150.426 84.9231 150.509 85.0705Z" fill="white"/>
<path opacity="0.4" d="M152.675 88.668C152.836 88.7339 153.011 88.7578 153.184 88.7375L156.172 88.4017C156.32 88.3836 156.464 88.3344 156.592 88.2572C156.72 88.1801 156.831 88.0767 156.917 87.9539L158.561 85.5221C158.639 85.4055 158.691 85.2741 158.715 85.1361H155.558C155.352 85.1357 155.15 85.188 154.97 85.288C154.79 85.388 154.639 85.5324 154.531 85.7074L152.675 88.668Z" fill="#60D2CE"/>
<path d="M150.509 85.0705L152.15 88.1932C152.266 88.4059 152.451 88.5731 152.675 88.668C152.836 88.7338 153.011 88.7577 153.184 88.7375L156.172 88.4017C156.32 88.3836 156.464 88.3344 156.592 88.2572C156.72 88.1801 156.831 88.0767 156.917 87.9539L158.561 85.5221C158.639 85.4055 158.691 85.274 158.715 85.1361C158.756 84.933 158.731 84.7225 158.646 84.5339L157.426 81.5231C157.354 81.3449 157.234 81.1902 157.08 81.0764C156.925 80.9625 156.742 80.894 156.55 80.8785L153.014 80.5929C152.81 80.576 152.606 80.6202 152.427 80.7199C152.248 80.8195 152.103 80.9702 152.011 81.1526L150.49 84.1016C150.413 84.2522 150.375 84.4194 150.378 84.5885C150.381 84.7575 150.426 84.9231 150.509 85.0705V85.0705Z" stroke="#263238" stroke-width="1.09046" stroke-linecap="round" stroke-linejoin="round"/>
<path d="M158.055 84.673H155.589C155.359 84.6739 155.133 84.6113 154.936 84.4921C154.739 84.3729 154.579 84.2018 154.473 83.9975L153.173 81.473" stroke="#263238" stroke-width="1.09046" stroke-linecap="round" stroke-linejoin="round"/>
<path d="M154.566 85.5839L153.173 87.8806" stroke="#263238" stroke-width="1.09046" stroke-linecap="round" stroke-linejoin="round"/>
<path d="M171.384 61.7599L170.674 63.0453C170.624 63.1332 170.608 63.2359 170.627 63.3348C170.642 63.4057 170.674 63.4719 170.72 63.5278L171.519 64.4928C171.56 64.5407 171.61 64.5795 171.666 64.6068C171.723 64.6341 171.784 64.6492 171.847 64.6511H173.067C173.125 64.6525 173.184 64.6406 173.237 64.6163C173.315 64.5868 173.382 64.5343 173.43 64.4658L174.202 63.3502C174.247 63.2844 174.273 63.2074 174.277 63.1277C174.281 63.048 174.263 62.9687 174.225 62.8986L173.515 61.6017C173.475 61.5269 173.413 61.4657 173.338 61.4258C173.263 61.386 173.178 61.3692 173.094 61.3778L171.72 61.5245C171.649 61.5332 171.581 61.5592 171.523 61.6003C171.464 61.6413 171.416 61.6962 171.384 61.7599Z" fill="white"/>
<path opacity="0.4" d="M170.612 63.3503C170.627 63.4211 170.659 63.4874 170.705 63.5433L171.504 64.5083C171.544 64.5562 171.594 64.595 171.651 64.6223C171.707 64.6495 171.769 64.6646 171.832 64.6665H173.052C173.11 64.668 173.168 64.6561 173.221 64.6318L172.5 63.5278C172.452 63.4574 172.387 63.4 172.312 63.3609C172.236 63.3218 172.152 63.3022 172.067 63.3039L170.612 63.3503Z" fill="#60D2CE"/>
<path d="M171.384 61.7599L170.674 63.0453C170.624 63.1332 170.608 63.2359 170.627 63.3348C170.642 63.4057 170.674 63.4719 170.72 63.5278L171.519 64.4928C171.56 64.5407 171.61 64.5795 171.666 64.6068C171.723 64.6341 171.784 64.6492 171.847 64.6511H173.067C173.125 64.6525 173.184 64.6406 173.237 64.6163C173.315 64.5868 173.382 64.5343 173.43 64.4658L174.202 63.3502C174.247 63.2844 174.273 63.2074 174.277 63.1277C174.281 63.048 174.263 62.9687 174.225 62.8986L173.515 61.6017C173.475 61.5269 173.413 61.4657 173.338 61.4258C173.263 61.386 173.178 61.3692 173.094 61.3778L171.72 61.5245C171.649 61.5332 171.581 61.5592 171.523 61.6003C171.464 61.6413 171.416 61.6962 171.384 61.7599Z" stroke="#263238" stroke-width="1.09046" stroke-linecap="round" stroke-linejoin="round"/>
<path d="M173.237 64.3114L172.673 63.4545C172.623 63.3726 172.597 63.2784 172.597 63.1824C172.597 63.0863 172.623 62.9922 172.673 62.9103L173.256 61.8796" stroke="#263238" stroke-width="1.09046" stroke-linecap="round" stroke-linejoin="round"/>
<path d="M172.121 63.304L171.002 63.3426" stroke="#263238" stroke-width="1.09046" stroke-linecap="round" stroke-linejoin="round"/>
<path d="M137.628 83.9588L138.312 85.2596C138.36 85.3499 138.437 85.4208 138.532 85.4604C138.599 85.4849 138.672 85.4941 138.744 85.4874L139.987 85.3484C140.049 85.3411 140.109 85.3204 140.162 85.2877C140.215 85.2551 140.261 85.2113 140.296 85.1593L140.983 84.148C141.014 84.0982 141.036 84.0433 141.048 83.9858C141.064 83.9042 141.056 83.8199 141.025 83.7427L140.504 82.4882C140.474 82.4142 140.424 82.35 140.36 82.3023C140.296 82.2547 140.221 82.2255 140.141 82.218L138.667 82.1022C138.582 82.0946 138.497 82.1126 138.423 82.1539C138.348 82.1952 138.288 82.2578 138.25 82.3338L137.617 83.5612C137.586 83.6234 137.571 83.6922 137.573 83.7615C137.575 83.8308 137.594 83.8985 137.628 83.9588Z" fill="white"/>
<path opacity="0.4" d="M138.532 85.4604C138.599 85.4849 138.672 85.4941 138.744 85.4874L139.987 85.3484C140.049 85.3411 140.109 85.3204 140.162 85.2877C140.215 85.2551 140.261 85.2113 140.296 85.1593L140.983 84.148C141.014 84.0983 141.036 84.0434 141.048 83.9858H139.732C139.646 83.9864 139.562 84.0087 139.487 84.0505C139.412 84.0924 139.349 84.1524 139.304 84.2252L138.532 85.4604Z" fill="#60D2CE"/>
<path d="M137.628 83.9588L138.312 85.2596C138.36 85.3499 138.437 85.4208 138.532 85.4604C138.599 85.4849 138.672 85.4941 138.744 85.4874L139.987 85.3484C140.049 85.3411 140.109 85.3204 140.162 85.2877C140.215 85.2551 140.261 85.2113 140.296 85.1593L140.983 84.148C141.014 84.0982 141.036 84.0433 141.048 83.9858C141.064 83.9042 141.056 83.8199 141.025 83.7427L140.504 82.4882C140.474 82.4142 140.424 82.35 140.36 82.3023C140.296 82.2547 140.221 82.2255 140.141 82.218L138.667 82.1022C138.582 82.0946 138.497 82.1126 138.423 82.1539C138.348 82.1952 138.288 82.2578 138.25 82.3338L137.617 83.5612C137.586 83.6234 137.571 83.6922 137.573 83.7615C137.575 83.8308 137.594 83.8985 137.628 83.9588V83.9588Z" stroke="#263238" stroke-width="1.09046" stroke-linecap="round" stroke-linejoin="round"/>
<path d="M140.77 83.7929H139.732C139.636 83.7934 139.542 83.7673 139.461 83.7175C139.379 83.6678 139.312 83.5963 139.269 83.5111L138.725 82.4612" stroke="#263238" stroke-width="1.09046" stroke-linecap="round" stroke-linejoin="round"/>
<path d="M139.319 84.175L138.736 85.1323" stroke="#263238" stroke-width="1.09046" stroke-linecap="round" stroke-linejoin="round"/>
<path d="M132.051 50.346L130.738 51.0022C130.647 51.0486 130.575 51.1249 130.534 51.2184C130.506 51.2843 130.494 51.3556 130.499 51.4268L130.615 52.6775C130.621 52.7391 130.639 52.7989 130.67 52.8527C130.701 52.9066 130.742 52.9534 130.792 52.9901L131.788 53.6965C131.837 53.7305 131.892 53.7542 131.95 53.766C132.029 53.7906 132.114 53.7906 132.193 53.766L133.459 53.2873C133.534 53.2588 133.6 53.2102 133.649 53.1468C133.698 53.0835 133.729 53.0079 133.737 52.9283L133.888 51.4577C133.897 51.3727 133.881 51.2868 133.841 51.2111C133.801 51.1354 133.74 51.0734 133.664 51.0331L132.452 50.373C132.392 50.3372 132.324 50.3161 132.255 50.3114C132.185 50.3067 132.115 50.3186 132.051 50.346Z" fill="white"/>
<path opacity="0.4" d="M130.534 51.2183C130.506 51.2842 130.494 51.3555 130.499 51.4267L130.615 52.6773C130.621 52.739 130.639 52.7988 130.67 52.8526C130.701 52.9065 130.742 52.9533 130.792 52.99L131.788 53.6964C131.837 53.7304 131.892 53.7541 131.95 53.7659L131.977 52.4457C131.979 52.3602 131.959 52.2757 131.92 52.2C131.88 52.1243 131.821 52.0601 131.75 52.0134L130.534 51.2183Z" fill="#60D2CE"/>
<path d="M132.051 50.346L130.738 51.0022C130.647 51.0486 130.575 51.1249 130.534 51.2184C130.506 51.2843 130.494 51.3556 130.499 51.4268L130.615 52.6775C130.621 52.7391 130.639 52.7989 130.67 52.8527C130.701 52.9066 130.742 52.9534 130.792 52.9901L131.788 53.6965C131.837 53.7305 131.892 53.7542 131.95 53.766C132.029 53.7906 132.114 53.7906 132.193 53.766L133.459 53.2873C133.534 53.2588 133.6 53.2102 133.649 53.1468C133.698 53.0835 133.729 53.0079 133.737 52.9283L133.888 51.4577C133.897 51.3727 133.881 51.2868 133.841 51.2111C133.801 51.1354 133.74 51.0734 133.664 51.0331L132.452 50.373C132.392 50.3372 132.324 50.3161 132.255 50.3114C132.185 50.3067 132.115 50.3186 132.051 50.346V50.346Z" stroke="#263238" stroke-width="1.09046" stroke-linecap="round" stroke-linejoin="round"/>
<path d="M132.147 53.4919L132.17 52.4651C132.172 52.3695 132.201 52.2763 132.253 52.1959C132.304 52.1155 132.377 52.051 132.464 52.0096L133.525 51.4885" stroke="#263238" stroke-width="1.09046" stroke-linecap="round" stroke-linejoin="round"/>
<path d="M131.8 52.0328L130.858 51.4307" stroke="#263238" stroke-width="1.09046" stroke-linecap="round" stroke-linejoin="round"/>
<path d="M170.701 73.1971V75.1889C170.701 75.5015 170.613 75.8078 170.446 76.0722C170.279 76.3366 170.041 76.5483 169.759 76.6827L167.871 77.586C167.623 77.705 167.348 77.7595 167.072 77.7442C166.917 77.7356 166.764 77.7057 166.617 77.6554L164.934 77.0687C164.609 76.9564 164.326 76.7455 164.126 76.4653C163.926 76.1851 163.819 75.8496 163.818 75.5054V73.4828C163.819 73.3095 163.848 73.1374 163.903 72.9733C163.985 72.7156 164.129 72.4823 164.323 72.2943C164.517 72.1063 164.755 71.9695 165.015 71.8963L167.084 71.2942C167.344 71.2154 167.621 71.2034 167.887 71.2594L169.388 71.5798C169.759 71.6584 170.092 71.8619 170.331 72.1563C170.57 72.4507 170.7 72.8181 170.701 73.1971Z" fill="white"/>
<path opacity="0.4" d="M167.161 73.6912C167.161 73.6912 167.134 76.0072 167.072 77.7403C166.917 77.7317 166.764 77.7018 166.617 77.6515L164.934 77.0648C164.609 76.9525 164.326 76.7416 164.126 76.4614C163.926 76.1812 163.819 75.8457 163.818 75.5015V73.4789C163.819 73.3056 163.848 73.1335 163.903 72.9694L167.161 73.6912Z" fill="#60D2CE"/>
<path d="M170.701 73.1971V75.1889C170.701 75.5015 170.613 75.8078 170.446 76.0722C170.279 76.3366 170.041 76.5483 169.759 76.6827L167.871 77.586C167.623 77.705 167.348 77.7595 167.072 77.7442C166.917 77.7356 166.764 77.7057 166.617 77.6554L164.934 77.0687C164.609 76.9564 164.326 76.7455 164.126 76.4653C163.926 76.1851 163.819 75.8496 163.818 75.5054V73.4828C163.819 73.3095 163.848 73.1374 163.903 72.9733C163.985 72.7156 164.129 72.4823 164.323 72.2943C164.517 72.1063 164.755 71.9695 165.015 71.8963L167.084 71.2942C167.344 71.2154 167.621 71.2034 167.887 71.2594L169.388 71.5798C169.759 71.6584 170.092 71.8619 170.331 72.1563C170.57 72.4507 170.7 72.8181 170.701 73.1971Z" stroke="#263238" stroke-width="1.09046" stroke-linecap="round" stroke-linejoin="round"/>
<path d="M165.123 73.1818L166.891 73.5253C166.998 73.5427 167.096 73.5976 167.167 73.6803C167.237 73.763 167.277 73.8681 167.277 73.9769V76.5129" stroke="#263238" stroke-width="1.09046" stroke-linecap="round" stroke-linejoin="round"/>
<path d="M169.701 72.7919L167.983 73.4596" stroke="#263238" stroke-width="1.09046" stroke-linecap="round" stroke-linejoin="round"/>
<path d="M137.914 55.6727V57.6645C137.913 57.9773 138.001 58.284 138.167 58.5486C138.334 58.8132 138.573 59.0247 138.856 59.1583L140.739 60.0577C140.99 60.1765 141.266 60.2309 141.542 60.216C141.696 60.2091 141.849 60.1792 141.994 60.1272L143.681 59.5405C144.006 59.4281 144.288 59.2172 144.488 58.937C144.688 58.6569 144.796 58.3213 144.796 57.9772V55.97C144.796 55.7966 144.767 55.6246 144.711 55.4604C144.629 55.2035 144.484 54.9708 144.29 54.783C144.096 54.5952 143.859 54.458 143.6 54.3835L141.527 53.7813C141.266 53.7024 140.99 53.6904 140.724 53.7466L139.226 54.067C138.857 54.1445 138.526 54.3461 138.287 54.6383C138.048 54.9304 137.916 55.2955 137.914 55.6727Z" fill="white"/>
<path opacity="0.4" d="M141.454 56.1668C141.454 56.1668 141.477 58.4828 141.542 60.216C141.696 60.2091 141.849 60.1792 141.994 60.1272L143.681 59.5405C144.006 59.4281 144.288 59.2172 144.488 58.9371C144.688 58.6569 144.796 58.3214 144.796 57.9772V55.97C144.796 55.7967 144.767 55.6246 144.711 55.4604L141.454 56.1668Z" fill="#60D2CE"/>
<path d="M137.914 55.6727V57.6645C137.913 57.9773 138.001 58.284 138.167 58.5486C138.334 58.8132 138.573 59.0247 138.856 59.1583L140.739 60.0577C140.99 60.1765 141.266 60.2309 141.542 60.216C141.696 60.2091 141.849 60.1792 141.994 60.1272L143.681 59.5405C144.006 59.4281 144.288 59.2172 144.488 58.937C144.688 58.6569 144.796 58.3213 144.796 57.9772V55.97C144.796 55.7966 144.767 55.6246 144.711 55.4604C144.629 55.2035 144.484 54.9708 144.29 54.783C144.096 54.5952 143.859 54.458 143.6 54.3835L141.527 53.7813C141.266 53.7024 140.99 53.6904 140.724 53.7466L139.226 54.067C138.857 54.1445 138.526 54.3461 138.287 54.6383C138.048 54.9304 137.916 55.2955 137.914 55.6727Z" stroke="#263238" stroke-width="1.09046" stroke-linecap="round" stroke-linejoin="round"/>
<path d="M143.488 55.6573L141.724 56.0009C141.616 56.0183 141.519 56.0732 141.448 56.1559C141.377 56.2386 141.338 56.3437 141.338 56.4525V58.9885" stroke="#263238" stroke-width="1.09046" stroke-linecap="round" stroke-linejoin="round"/>
<path d="M138.91 55.2675L140.631 55.9352" stroke="#263238" stroke-width="1.09046" stroke-linecap="round" stroke-linejoin="round"/>
<path d="M149.66 75.8838L148.502 77.5204C148.269 77.8487 147.925 78.0813 147.534 78.175C147.143 78.2687 146.731 78.2172 146.375 78.0299L145.051 77.3313C144.729 77.1615 144.473 76.8901 144.322 76.5593L143.854 75.5634C143.692 75.2162 143.655 74.8231 143.75 74.4517C143.802 74.2523 143.89 74.0639 144.009 73.8959L145.263 72.155C145.475 71.8576 145.779 71.6385 146.128 71.5317C146.477 71.4249 146.852 71.4364 147.193 71.5644L148.537 72.0585C148.786 72.1498 149.009 72.2994 149.189 72.4948C149.368 72.6903 149.498 72.9258 149.567 73.1818L149.919 74.4903C149.981 74.7272 149.991 74.9751 149.946 75.2161C149.901 75.4571 149.803 75.6851 149.66 75.8838Z" fill="white"/>
<path opacity="0.4" d="M147.545 78.1727C147.154 78.269 146.742 78.2181 146.387 78.0299L145.063 77.3312C144.741 77.1614 144.484 76.89 144.333 76.5592L143.866 75.5633C143.703 75.2161 143.667 74.8231 143.762 74.4517L146.649 75.3549L147.545 78.1727Z" fill="#60D2CE"/>
<path d="M149.66 75.8838L148.502 77.5204C148.269 77.8487 147.925 78.0813 147.534 78.175C147.143 78.2687 146.731 78.2172 146.375 78.0299L145.051 77.3313C144.729 77.1615 144.473 76.8901 144.322 76.5593L143.854 75.5634C143.692 75.2162 143.655 74.8231 143.75 74.4517C143.802 74.2523 143.89 74.0639 144.009 73.8959L145.263 72.155C145.475 71.8576 145.779 71.6385 146.128 71.5317C146.477 71.4249 146.852 71.4364 147.193 71.5644L148.537 72.0585C148.786 72.1498 149.009 72.2994 149.189 72.4948C149.368 72.6903 149.498 72.9258 149.567 73.1818L149.919 74.4903C149.981 74.7272 149.991 74.9751 149.946 75.2161C149.901 75.4571 149.803 75.6851 149.66 75.8838Z" stroke="#263238" stroke-width="1.09046" stroke-linecap="round" stroke-linejoin="round"/>
<path d="M144.889 74.8453L146.228 75.3162C146.4 75.3759 146.587 75.3765 146.759 75.3177C146.931 75.2589 147.079 75.1443 147.178 74.992L148.386 73.1624" stroke="#263238" stroke-width="1.09046" stroke-linecap="round" stroke-linejoin="round"/>
<path d="M146.831 76.0227L147.162 77.1344" stroke="#263238" stroke-width="1.09046" stroke-linecap="round" stroke-linejoin="round"/>
<path d="M146.68 42.1435L147.784 43.8187C148.003 44.151 148.095 44.5513 148.043 44.9459C147.992 45.3497 147.793 45.7202 147.483 45.9842L146.348 46.9646C146.074 47.1976 145.731 47.3333 145.371 47.3506L144.275 47.424C143.982 47.4449 143.688 47.3863 143.426 47.2546C143.163 47.1228 142.94 46.9226 142.781 46.6751L141.623 44.8687C141.426 44.5656 141.334 44.206 141.361 43.8454C141.388 43.4848 141.533 43.1431 141.774 42.873L142.72 41.8C142.896 41.6016 143.117 41.4483 143.365 41.3529C143.613 41.2576 143.88 41.2229 144.144 41.2518L145.491 41.4024C145.731 41.4315 145.962 41.513 146.168 41.641C146.373 41.7691 146.548 41.9406 146.68 42.1435Z" fill="white"/>
<path opacity="0.4" d="M148.05 44.9459C148 45.3497 147.8 45.7202 147.491 45.9842L146.356 46.9646C146.082 47.1976 145.738 47.3333 145.379 47.3506L144.283 47.424C143.901 47.4505 143.521 47.3426 143.21 47.119L145.101 44.7567L148.05 44.9459Z" fill="#60D2CE"/>
<path d="M146.68 42.1435L147.784 43.8187C148.003 44.151 148.095 44.5513 148.043 44.9459C147.992 45.3497 147.793 45.7202 147.483 45.9842L146.348 46.9646C146.074 47.1976 145.731 47.3333 145.371 47.3506L144.275 47.424C143.982 47.4449 143.688 47.3863 143.426 47.2546C143.163 47.1228 142.94 46.9226 142.781 46.6751L141.623 44.8687C141.426 44.5656 141.334 44.206 141.361 43.8454C141.388 43.4848 141.533 43.1431 141.774 42.873L142.72 41.8C142.896 41.6016 143.117 41.4483 143.365 41.3529C143.613 41.2576 143.88 41.2229 144.144 41.2518L145.491 41.4024C145.731 41.4315 145.962 41.513 146.168 41.641C146.373 41.7691 146.548 41.9406 146.68 42.1435V42.1435Z" stroke="#263238" stroke-width="1.09046" stroke-linecap="round" stroke-linejoin="round"/>
<path d="M143.978 46.2081L144.901 45.1311C145.019 44.9928 145.087 44.819 145.096 44.6373C145.104 44.4555 145.052 44.2761 144.947 44.1275L143.681 42.3403" stroke="#263238" stroke-width="1.09046" stroke-linecap="round" stroke-linejoin="round"/>
<path d="M145.788 44.83L146.942 44.9226" stroke="#263238" stroke-width="1.09046" stroke-linecap="round" stroke-linejoin="round"/>
<path d="M165.826 54.6383L165.71 56.6378C165.69 57.0362 165.525 57.4137 165.247 57.6993C164.965 57.9936 164.584 58.1714 164.177 58.1972L162.684 58.3053C162.323 58.3326 161.963 58.2404 161.661 58.0428L160.738 57.4484C160.416 57.2397 160.176 56.926 160.059 56.5606C159.996 56.3638 159.971 56.1568 159.985 55.9507L160.124 53.8084C160.148 53.4475 160.289 53.1041 160.526 52.8309C160.763 52.5577 161.083 52.3695 161.437 52.2953L162.838 52.0019C163.098 51.947 163.367 51.9551 163.623 52.0256C163.878 52.0961 164.114 52.227 164.309 52.4072L165.297 53.3336C165.476 53.4987 165.616 53.7013 165.707 53.9268C165.799 54.1523 165.839 54.3953 165.826 54.6383Z" fill="white"/>
<path opacity="0.4" d="M165.247 57.6993C164.965 57.9936 164.584 58.1714 164.177 58.1972L162.684 58.3053C162.323 58.3326 161.963 58.2404 161.661 58.0428L160.738 57.4484C160.416 57.2397 160.176 56.926 160.059 56.5606L162.985 55.7886L165.247 57.6993Z" fill="#60D2CE"/>
<path d="M165.826 54.6383L165.71 56.6378C165.69 57.0362 165.525 57.4137 165.247 57.6993C164.965 57.9936 164.584 58.1714 164.177 58.1972L162.684 58.3053C162.323 58.3326 161.963 58.2404 161.661 58.0428L160.738 57.4484C160.416 57.2397 160.176 56.926 160.059 56.5606C159.996 56.3638 159.971 56.1568 159.985 55.9507L160.124 53.8084C160.148 53.4475 160.289 53.1041 160.526 52.8309C160.763 52.5577 161.083 52.3695 161.437 52.2953L162.838 52.0019C163.098 51.947 163.367 51.9551 163.623 52.0256C163.878 52.0961 164.114 52.227 164.309 52.4072L165.297 53.3336C165.476 53.4987 165.616 53.7013 165.707 53.9268C165.799 54.1523 165.839 54.3953 165.826 54.6383V54.6383Z" stroke="#263238" stroke-width="1.09046" stroke-linecap="round" stroke-linejoin="round"/>
<path d="M161.228 56.2865L162.614 55.97C162.791 55.9311 162.95 55.834 163.066 55.694C163.181 55.554 163.247 55.3794 163.251 55.198L163.301 53.0055" stroke="#263238" stroke-width="1.09046" stroke-linecap="round" stroke-linejoin="round"/>
<path d="M163.502 56.2556L164.37 57.0199" stroke="#263238" stroke-width="1.09046" stroke-linecap="round" stroke-linejoin="round"/>
<path d="M135.552 66.6892L137.173 69.1518C137.499 69.6461 137.634 70.2422 137.553 70.8289C137.472 71.4155 137.181 71.9527 136.733 72.3402L135.065 73.78C134.663 74.1292 134.157 74.3367 133.625 74.3706L132.012 74.4979C131.58 74.5272 131.147 74.4398 130.76 74.2449C130.373 74.05 130.046 73.7548 129.812 73.3901L128.098 70.7383C127.807 70.2921 127.67 69.7625 127.709 69.2311C127.748 68.6997 127.961 68.1959 128.314 67.797L129.708 66.2221C129.966 65.9289 130.292 65.7022 130.657 65.5611C131.021 65.42 131.415 65.3687 131.804 65.4115L133.784 65.6315C134.138 65.6687 134.479 65.7826 134.784 65.9652C135.09 66.1479 135.352 66.395 135.552 66.6892Z" fill="white"/>
<path opacity="0.4" d="M137.555 70.8117C137.486 71.4117 137.192 71.9632 136.733 72.3557L135.065 73.7955C134.663 74.1447 134.157 74.3522 133.625 74.3861L132.012 74.498C131.45 74.5319 130.893 74.3725 130.433 74.0464L133.216 70.5724L137.555 70.8117Z" fill="#60D2CE"/>
<path d="M135.552 66.6892L137.173 69.1518C137.499 69.6461 137.634 70.2422 137.553 70.8289C137.472 71.4155 137.181 71.9527 136.733 72.3402L135.065 73.78C134.663 74.1292 134.157 74.3367 133.625 74.3706L132.012 74.4979C131.58 74.5272 131.147 74.4398 130.76 74.2449C130.373 74.05 130.046 73.7548 129.812 73.3901L128.098 70.7383C127.807 70.2921 127.67 69.7625 127.709 69.2311C127.748 68.6997 127.961 68.1959 128.314 67.797L129.708 66.2221C129.966 65.9289 130.292 65.7022 130.657 65.5611C131.021 65.42 131.415 65.3687 131.804 65.4115L133.784 65.6315C134.138 65.6687 134.479 65.7826 134.784 65.9652C135.09 66.1479 135.352 66.395 135.552 66.6892V66.6892Z" stroke="#263238" stroke-width="1.09046" stroke-linecap="round" stroke-linejoin="round"/>
<path d="M131.572 72.6722L132.935 71.0858C133.108 70.8824 133.209 70.6269 133.221 70.3598C133.233 70.0927 133.155 69.8292 133 69.6112L131.136 66.9749" stroke="#263238" stroke-width="1.09046" stroke-linecap="round" stroke-linejoin="round"/>
<path d="M134.228 70.6418L135.926 70.7769" stroke="#263238" stroke-width="1.09046" stroke-linecap="round" stroke-linejoin="round"/>
<path d="M157.202 49.435L159.051 52.0482C159.422 52.573 159.971 52.9451 160.596 53.0949C161.221 53.2448 161.88 53.1622 162.448 52.8626L164.567 51.7471C165.076 51.4764 165.483 51.0467 165.725 50.5235L166.47 48.937C166.729 48.3821 166.789 47.7553 166.64 47.1614C166.559 46.8414 166.418 46.54 166.223 46.2736L164.22 43.4906C163.884 43.0193 163.402 42.6718 162.849 42.5016C162.296 42.3314 161.702 42.3479 161.159 42.5487L159.013 43.3207C158.615 43.4675 158.258 43.7074 157.972 44.0203C157.686 44.3333 157.479 44.7102 157.368 45.1195L156.809 47.2077C156.706 47.585 156.688 47.9804 156.756 48.3655C156.824 48.7506 156.976 49.1158 157.202 49.435Z" fill="white"/>
<path opacity="0.4" d="M160.576 53.0905C161.205 53.2503 161.872 53.1691 162.444 52.8627L164.563 51.7472C165.072 51.4765 165.479 51.0468 165.721 50.5236L166.466 48.9371C166.725 48.3822 166.785 47.7553 166.636 47.1615L162.004 48.6013L160.576 53.0905Z" fill="#60D2CE"/>
<path d="M157.202 49.435L159.051 52.0482C159.422 52.573 159.971 52.9451 160.596 53.0949C161.221 53.2448 161.88 53.1622 162.448 52.8626L164.567 51.7471C165.076 51.4764 165.483 51.0467 165.725 50.5235L166.47 48.937C166.729 48.3821 166.789 47.7553 166.64 47.1614C166.559 46.8414 166.418 46.54 166.223 46.2736L164.22 43.4906C163.884 43.0193 163.402 42.6718 162.849 42.5016C162.296 42.3314 161.702 42.3479 161.159 42.5487L159.013 43.3207C158.615 43.4675 158.258 43.7074 157.972 44.0203C157.686 44.3333 157.479 44.7102 157.368 45.1195L156.809 47.2077C156.706 47.585 156.688 47.9804 156.756 48.3655C156.824 48.7506 156.976 49.1158 157.202 49.435V49.435Z" stroke="#263238" stroke-width="1.09046" stroke-linecap="round" stroke-linejoin="round"/>
<path d="M164.822 47.779L162.68 48.524C162.406 48.6192 162.108 48.6204 161.833 48.5274C161.558 48.4345 161.323 48.2526 161.163 48.0106L159.233 45.0847" stroke="#263238" stroke-width="1.09046" stroke-linecap="round" stroke-linejoin="round"/>
<path d="M161.722 49.6589L161.19 51.4307" stroke="#263238" stroke-width="1.09046" stroke-linecap="round" stroke-linejoin="round"/>
<path d="M155.759 62.2772L153.134 67.2682C152.951 67.6149 152.654 67.8877 152.292 68.0402C152.036 68.1441 151.757 68.1812 151.482 68.1483L146.703 67.6117C146.466 67.5842 146.237 67.5059 146.032 67.382C145.828 67.2581 145.652 67.0916 145.518 66.8938L142.889 63.0106C142.766 62.8249 142.68 62.6162 142.639 62.3969C142.573 62.0811 142.604 61.753 142.727 61.455L144.677 56.6416C144.791 56.3565 144.983 56.109 145.231 55.927C145.478 55.7449 145.772 55.6355 146.078 55.611L151.729 55.1555C152.055 55.1296 152.381 55.2004 152.666 55.359C152.952 55.5176 153.184 55.757 153.335 56.0472L155.763 60.7641C155.883 60.9983 155.945 61.2579 155.945 61.5211C155.944 61.7844 155.88 62.0436 155.759 62.2772Z" fill="white"/>
<path opacity="0.4" d="M152.292 68.0286C152.036 68.1325 151.757 68.1696 151.482 68.1367L146.703 67.6001C146.466 67.5726 146.237 67.4943 146.032 67.3704C145.828 67.2465 145.652 67.08 145.518 66.8822L142.889 62.999C142.766 62.8133 142.68 62.6046 142.639 62.3853H147.703C148.032 62.3858 148.355 62.4705 148.643 62.6313C148.93 62.7921 149.171 63.0236 149.343 63.3039L152.292 68.0286Z" fill="#60D2CE"/>
<path d="M155.759 62.2772L153.134 67.2682C152.951 67.6149 152.654 67.8877 152.292 68.0402C152.036 68.1441 151.757 68.1812 151.482 68.1483L146.703 67.6117C146.466 67.5842 146.237 67.5059 146.032 67.382C145.828 67.2581 145.652 67.0916 145.518 66.8938L142.889 63.0106C142.766 62.8249 142.68 62.6162 142.639 62.3969C142.573 62.0811 142.604 61.753 142.727 61.455L144.677 56.6416C144.791 56.3565 144.983 56.109 145.231 55.927C145.478 55.7449 145.772 55.6355 146.078 55.611L151.729 55.1555C152.055 55.1296 152.381 55.2004 152.666 55.359C152.952 55.5176 153.184 55.757 153.335 56.0472L155.763 60.7641C155.883 60.9983 155.945 61.2579 155.945 61.5211C155.944 61.7844 155.88 62.0436 155.759 62.2772V62.2772Z" stroke="#263238" stroke-width="1.09046" stroke-linecap="round" stroke-linejoin="round"/>
<path d="M143.696 61.6442H147.641C148.009 61.6444 148.369 61.5434 148.683 61.352C148.997 61.1606 149.252 60.8864 149.421 60.5595L151.501 56.5297" stroke="#263238" stroke-width="1.09046" stroke-linecap="round" stroke-linejoin="round"/>
<path d="M149.278 63.0956L151.501 66.7703" stroke="#263238" stroke-width="1.09046" stroke-linecap="round" stroke-linejoin="round"/>
<path d="M119.008 92.5782H74.3552C71.4666 92.5782 69.1249 94.9199 69.1249 97.8085V160.198C69.1249 163.086 71.4666 165.428 74.3552 165.428H119.008C121.896 165.428 124.238 163.086 124.238 160.198V97.8085C124.238 94.9199 121.896 92.5782 119.008 92.5782Z" fill="#60D2CE" stroke="#263238" stroke-width="1.09046" stroke-linecap="round" stroke-linejoin="round"/>
<path opacity="0.4" d="M121.636 159.53V98.4763C121.636 96.6536 120.159 95.176 118.336 95.176H75.023C73.2003 95.176 71.7227 96.6536 71.7227 98.4763V159.53C71.7227 161.353 73.2003 162.83 75.023 162.83H118.336C120.159 162.83 121.636 161.353 121.636 159.53Z" fill="white"/>
<path d="M121.636 125.18V158.376C121.634 159.555 121.165 160.684 120.332 161.518C119.498 162.351 118.368 162.82 117.19 162.823H92.64" stroke="#263238" stroke-width="1.09046" stroke-linecap="round" stroke-linejoin="round"/>
<path d="M109.674 95.176H110.952" stroke="#263238" stroke-width="1.09046" stroke-linecap="round" stroke-linejoin="round"/>
<path d="M71.7227 135.459V99.6227C71.7247 98.444 72.1938 97.3142 73.0273 96.4807C73.8608 95.6472 74.9907 95.1781 76.1694 95.176H104.606" stroke="#263238" stroke-width="1.09046" stroke-linecap="round" stroke-linejoin="round"/>
<path d="M71.7227 146.838V138.339" stroke="#263238" stroke-width="1.09046" stroke-linecap="round" stroke-linejoin="round"/>
<path d="M71.7227 151.625V150.486" stroke="#263238" stroke-width="1.09046" stroke-linecap="round" stroke-linejoin="round"/>
<path d="M91.1153 162.83H88.4519" stroke="#263238" stroke-width="1.09046" stroke-linecap="round" stroke-linejoin="round"/>
<path d="M121.636 115.194V121.478" stroke="#263238" stroke-width="1.09046" stroke-linecap="round" stroke-linejoin="round"/>
<path d="M121.636 106.382V108.041" stroke="#263238" stroke-width="1.09046" stroke-linecap="round" stroke-linejoin="round"/>
<path d="M117.143 100.144H76.2196C74.6484 100.144 73.3747 101.417 73.3747 102.989V134.907C73.3747 136.478 74.6484 137.752 76.2196 137.752H117.143C118.714 137.752 119.988 136.478 119.988 134.907V102.989C119.988 101.417 118.714 100.144 117.143 100.144Z" fill="#263238"/>
<path d="M116.418 103.394H76.9375C75.9462 103.394 75.1426 104.198 75.1426 105.189V132.711C75.1426 133.702 75.9462 134.506 76.9375 134.506H116.418C117.409 134.506 118.213 133.702 118.213 132.711V105.189C118.213 104.198 117.409 103.394 116.418 103.394Z" fill="#999999" stroke="#263238" stroke-width="1.09046" stroke-linecap="round" stroke-linejoin="round"/>
<path d="M94.3051 151.767C95.0076 148.774 93.151 145.779 90.1583 145.076C87.1655 144.374 84.17 146.231 83.4675 149.223C82.765 152.216 84.6216 155.212 87.6143 155.914C90.6071 156.617 93.6026 154.76 94.3051 151.767Z" fill="#60D2CE"/>
<path opacity="0.2" d="M88.8842 144.92C87.7823 144.919 86.7048 145.245 85.7883 145.857C84.8717 146.469 84.1572 147.339 83.7351 148.357C83.3131 149.375 83.2024 150.495 83.4172 151.576C83.632 152.656 84.1626 153.649 84.9418 154.428C85.721 155.208 86.7138 155.738 87.7947 155.953C88.8755 156.168 89.9957 156.057 91.0137 155.635C92.0316 155.213 92.9015 154.499 93.5132 153.582C94.125 152.665 94.4511 151.588 94.4503 150.486C94.4493 149.01 93.8626 147.595 92.8189 146.551C91.7753 145.508 90.3601 144.921 88.8842 144.92ZM88.2821 153.586C87.5301 153.586 86.795 153.363 86.1697 152.945C85.5445 152.527 85.0572 151.933 84.7694 151.239C84.4816 150.544 84.4063 149.779 84.553 149.042C84.6997 148.304 85.0618 147.627 85.5936 147.095C86.1253 146.563 86.8028 146.201 87.5403 146.054C88.2778 145.908 89.0423 145.983 89.7371 146.271C90.4318 146.559 91.0256 147.046 91.4434 147.671C91.8612 148.296 92.0842 149.032 92.0842 149.784C92.0842 150.792 91.6836 151.759 90.9706 152.472C90.2575 153.185 89.2904 153.586 88.2821 153.586Z" fill="black" fill-opacity="0.7"/>
<path d="M94.3051 151.767C95.0076 148.774 93.151 145.779 90.1583 145.076C87.1655 144.374 84.17 146.231 83.4675 149.223C82.765 152.216 84.6216 155.212 87.6143 155.914C90.6071 156.617 93.6026 154.76 94.3051 151.767Z" stroke="#263238" stroke-width="1.09046" stroke-linecap="round" stroke-linejoin="round"/>
<path d="M86.1822 150.486L90.544 152.667V148.305L86.1822 150.486Z" fill="#263238"/>
<path d="M108.413 154.422C110.586 152.248 110.586 148.724 108.413 146.55C106.239 144.376 102.715 144.376 100.541 146.55C98.3672 148.724 98.3672 152.248 100.541 154.422C102.715 156.595 106.239 156.595 108.413 154.422Z" fill="#60D2CE"/>
<path opacity="0.2" d="M104.479 144.92C103.377 144.919 102.299 145.245 101.383 145.857C100.466 146.469 99.7516 147.339 99.3295 148.357C98.9074 149.375 98.7968 150.495 99.0116 151.576C99.2264 152.656 99.757 153.649 100.536 154.428C101.315 155.208 102.308 155.738 103.389 155.953C104.47 156.168 105.59 156.057 106.608 155.635C107.626 155.213 108.496 154.499 109.108 153.582C109.719 152.665 110.045 151.588 110.045 150.486C110.044 149.01 109.457 147.595 108.413 146.551C107.37 145.508 105.955 144.921 104.479 144.92ZM103.876 153.586C103.126 153.583 102.393 153.357 101.77 152.938C101.147 152.519 100.662 151.926 100.376 151.231C100.09 150.537 100.016 149.774 100.164 149.038C100.311 148.302 100.673 147.626 101.203 147.095C101.734 146.564 102.41 146.202 103.146 146.055C103.882 145.908 104.646 145.982 105.34 146.268C106.034 146.554 106.628 147.039 107.047 147.662C107.466 148.284 107.691 149.017 107.694 149.768C107.696 150.27 107.599 150.767 107.408 151.231C107.216 151.695 106.935 152.117 106.58 152.472C106.226 152.827 105.804 153.108 105.34 153.299C104.876 153.49 104.378 153.588 103.876 153.586Z" fill="black" fill-opacity="0.7"/>
<path d="M108.413 154.422C110.586 152.248 110.586 148.724 108.413 146.55C106.239 144.376 102.715 144.376 100.541 146.55C98.3672 148.724 98.3672 152.248 100.541 154.422C102.715 156.595 106.239 156.595 108.413 154.422Z" stroke="#263238" stroke-width="1.09046" stroke-linecap="round" stroke-linejoin="round"/>
<path d="M107.181 150.486L102.815 148.305V152.667L107.181 150.486Z" fill="#263238"/>
<path d="M80.1066 118.313V112.075L79.3462 111.558L78.5857 112.075V118.313L79.3462 118.834L80.1066 118.313Z" fill="#263238"/>
<path d="M87.236 118.313L87.9964 118.834L88.7568 118.313V112.075L87.9964 111.558L87.236 112.075V118.313Z" fill="#263238"/>
<path d="M88.0234 119.645L87.263 120.166V126.403L88.0234 126.921L88.7839 126.403V120.166L88.0234 119.645Z" fill="#263238"/>
<path d="M86.8037 111.778L87.3248 111.017L86.8037 110.257H80.5659L80.0448 111.017L80.5659 111.778H86.8037Z" fill="#263238"/>
<path d="M80.5659 118.479L80.0448 119.239L80.5659 120H86.8037L87.3248 119.239L86.8037 118.479H80.5659Z" fill="#263238"/>
<path d="M80.5659 126.701L80.0448 127.461L80.5659 128.221H86.8037L87.3248 127.461L86.8037 126.701H80.5659Z" fill="#263238"/>
<path d="M94.1415 118.313V112.075L93.3811 111.558L92.6207 112.075V118.313L93.3811 118.834L94.1415 118.313Z" fill="#263238"/>
<path d="M102.058 119.645L101.298 120.166V126.403L102.058 126.921L102.819 126.403V120.166L102.058 119.645Z" fill="#263238"/>
<path d="M100.839 111.778L101.36 111.017L100.839 110.257H94.6009L94.0798 111.017L94.6009 111.778H100.839Z" fill="#263238"/>
<path d="M94.6009 118.479L94.0798 119.239L94.6009 120H100.839L101.36 119.239L100.839 118.479H94.6009Z" fill="#263238"/>
<path d="M94.6009 126.701L94.0798 127.461L94.6009 128.221H100.839L101.36 127.461L100.839 126.701H94.6009Z" fill="#263238"/>
<path d="M106.1 118.313V112.075L105.339 111.558L104.579 112.075V118.313L105.339 118.834L106.1 118.313Z" fill="#263238"/>
<path d="M106.127 120.166L105.366 119.645L104.606 120.166V126.403L105.366 126.921L106.127 126.403V120.166Z" fill="#263238"/>
<path d="M113.225 118.313L113.986 118.834L114.746 118.313V112.075L113.986 111.558L113.225 112.075V118.313Z" fill="#263238"/>
<path d="M114.013 119.645L113.252 120.166V126.403L114.013 126.921L114.773 126.403V120.166L114.013 119.645Z" fill="#263238"/>
<path d="M112.793 111.778L113.314 111.017L112.793 110.257H106.555L106.038 111.017L106.555 111.778H112.793Z" fill="#263238"/>
<path d="M106.555 126.701L106.038 127.461L106.555 128.221H112.793L113.314 127.461L112.793 126.701H106.555Z" fill="#263238"/>
<path d="M91.235 127.461H90.2121V128.484H91.235V127.461Z" fill="#263238"/>
<path opacity="0.4" d="M103.637 101.082L82.4573 135.941H77.586C77.1766 135.941 76.7712 135.861 76.393 135.704C76.0149 135.547 75.6713 135.317 75.382 135.028C75.0927 134.738 74.8633 134.394 74.707 134.016C74.5507 133.637 74.4705 133.232 74.471 132.823V104.459C74.4705 104.016 74.5574 103.577 74.7267 103.167C74.896 102.757 75.1444 102.385 75.4577 102.071C75.7711 101.758 76.1431 101.509 76.5527 101.339C76.9623 101.169 77.4013 101.082 77.8446 101.082H103.637Z" fill="white"/>
<path d="M101.051 81.0793V93.798H92.3119V81.0793C92.3119 80.7721 92.4339 80.4776 92.6511 80.2604C92.8682 80.0433 93.1628 79.9213 93.4699 79.9213H99.9199C100.222 79.9283 100.51 80.0534 100.721 80.2698C100.933 80.4862 101.051 80.7768 101.051 81.0793Z" fill="white"/>
<path opacity="0.4" d="M101.051 81.0793V88.7105H92.3119V81.0793C92.3119 80.7721 92.4339 80.4776 92.6511 80.2604C92.8682 80.0433 93.1628 79.9213 93.4699 79.9213H99.9199C100.222 79.9283 100.51 80.0534 100.721 80.2698C100.933 80.4862 101.051 80.7768 101.051 81.0793Z" fill="#60D2CE"/>
<path d="M101.051 81.0793V93.798H92.3119V81.0793C92.3119 80.7721 92.4339 80.4776 92.6511 80.2604C92.8682 80.0433 93.1628 79.9213 93.4699 79.9213H99.9199C100.222 79.9283 100.51 80.0534 100.721 80.2698C100.933 80.4862 101.051 80.7768 101.051 81.0793Z" stroke="#263238" stroke-width="1.09046" stroke-linecap="round" stroke-linejoin="round"/>
<path d="M88.5252 93.7826H104.834" stroke="#263238" stroke-width="1.09046" stroke-linecap="round" stroke-linejoin="round"/>
<path d="M96.6814 76.4781C96.6814 76.4781 101.344 85.0242 96.6814 85.0242C92.0186 85.0242 96.6814 76.4781 96.6814 76.4781Z" fill="#60D2CE" stroke="#263238" stroke-width="1.09046" stroke-linecap="round" stroke-linejoin="round"/>
<path d="M99.7308 72.4793C99.7308 72.4793 99.0283 75.9533 94.3037 73.3979C89.579 70.8426 87.1704 68.3799 87.1704 68.3799C84.3878 66.6782 81.7617 64.7328 79.323 62.5668L76.0845 61.2003C76.0845 61.2003 76.5052 62.4433 76.9491 63.7711C77.3351 64.9754 77.752 66.2569 77.8755 66.7433C78.1303 67.7662 75.8644 70.0668 75.0847 70.5763C75.0847 70.5763 76.289 72.4484 75.0847 74.0503C73.8804 75.6522 63.7325 74.3321 63.7325 74.3321C63.7325 74.3321 62.1885 74.4749 58.1084 73.0274C58.1084 73.0274 48.9062 73.0274 42.7688 71.41C38.9047 70.3595 35.1628 68.9026 31.6057 67.0637C31.6057 67.0637 27.6453 68.0518 24.6152 66.392C22.2289 66.3244 19.8407 66.3953 17.4626 66.6043C16.7871 66.6777 15.6909 66.7973 14.2859 66.9903C13.1279 67.1293 11.8039 67.303 10.3062 67.523L6.74728 43.618C12.2709 43.7145 17.4626 43.7763 18.5048 43.703C23.1716 43.3517 26.661 43.7609 29.3785 43.703C37.5655 43.51 57.9425 40.7887 62.0263 41.0434C66.1102 41.2982 69.6267 45.9032 69.6267 45.9032L82.3647 53.4417L91.6943 62.3892C91.6943 62.3892 97.0481 70.5608 99.7308 72.4793Z" fill="white"/>
<path opacity="0.4" d="M77.8755 66.7279C78.1303 67.7508 75.8644 70.0513 75.0847 70.5609C75.0847 70.5609 76.289 72.433 75.0847 74.0349C73.8804 75.6368 63.7325 74.3166 63.7325 74.3166C63.7325 74.3166 62.1885 74.4595 58.1084 73.012C58.1084 73.012 48.9062 73.012 42.7688 71.3946C38.9047 70.3441 35.1628 68.8872 31.6057 67.0483C31.6057 67.0483 27.6453 68.0519 24.6152 66.3921C22.2289 66.3244 19.8407 66.3953 17.4626 66.6044C16.7871 66.6777 15.6909 66.7974 14.2859 66.9904C16.1292 65.8913 18.1862 65.199 20.319 64.96C20.319 64.96 16.1232 59.0581 17.4626 54.7349C17.4626 54.7349 19.0066 61.2042 24.4647 63.47C29.9227 65.7359 42.6684 57.5141 42.6684 57.5141C42.6684 57.5141 46.2196 59.1777 47.6633 57.958C49.1069 56.7382 47.9296 60.2083 49.0336 61.5593L49.3154 60.7101C49.269 60.9456 48.8985 63.0261 49.9677 63.4662L50.3884 62.5707C50.3884 62.5707 52.0405 67.6504 53.2371 69.1327C54.4337 70.6149 60.3279 71.3908 60.8799 70.391C61.4319 69.3913 58.6025 56.495 58.5253 56.1399C58.6527 56.2982 60.7101 58.8921 60.9031 60.2354C61.0961 61.5786 62.9103 70.1247 63.3889 71.0434C63.8676 71.962 67.2142 72.4638 68.4339 71.0434C68.4339 71.0434 66.3457 58.5331 66.3187 57.4137C66.2916 56.2943 67.797 56.908 67.8318 58.8766C67.8665 60.8452 70.4257 63.7441 71.7574 66.0717C73.0891 68.3993 76.8912 68.1908 77.8755 66.7279Z" fill="#60D2CE"/>
<path opacity="0.4" d="M99.7308 72.4792C99.7308 72.4792 99.0283 75.9532 94.3037 73.3979C89.579 70.8426 87.1704 68.3799 87.1704 68.3799C84.3878 66.6781 81.7617 64.7328 79.323 62.5668L76.0845 61.2003C76.0845 61.2003 76.5052 62.4432 76.9491 63.7711C76.7975 63.6136 76.6377 63.4641 76.4705 63.3233C76.4705 63.3233 74.6987 55.5802 71.3405 52.8241C71.3405 52.8241 70.2018 51.5272 69.9123 50.4001C69.6228 49.2729 72.7494 52.0676 73.3053 53.1792C73.8611 54.2909 78.4699 58.3401 79.6627 58.865C80.8554 59.39 86.6338 64.1262 88.008 64.848C89.3822 65.5698 94.956 76.6944 99.7308 72.4792Z" fill="#60D2CE"/>
<path d="M6.74728 43.618C12.2671 43.7145 17.4626 43.7763 18.501 43.6991C23.1716 43.3556 26.661 43.7609 29.3823 43.6991C37.5655 43.51 57.9463 40.7887 62.0263 41.0434C66.1064 41.2982 69.6267 45.9032 69.6267 45.9032L82.3647 53.4417L91.6943 62.3892C91.6943 62.3892 97.0636 70.5686 99.7463 72.487C99.7463 72.487 99.0476 75.961 94.3152 73.4057C89.5829 70.8503 87.1897 68.3877 87.1897 68.3877C84.4055 66.6864 81.7781 64.741 79.3384 62.5745L76.0999 61.2119C76.0999 61.2119 77.6439 65.7281 77.8909 66.751C78.138 67.7739 75.8799 70.0745 75.0963 70.584C75.0963 70.584 76.3083 72.46 75.0963 74.058C73.8843 75.656 63.7479 74.3398 63.7479 74.3398C63.7479 74.3398 62.2039 74.4826 58.1239 73.0351C58.1239 73.0351 48.9216 73.0351 42.7842 71.4178C38.9212 70.3677 35.1805 68.9108 31.625 67.0714C31.625 67.0714 27.6453 68.0518 24.6152 66.392C22.229 66.3222 19.8407 66.3918 17.4626 66.6005C16.239 66.7317 13.6412 67.0212 10.3062 67.5114" stroke="#263238" stroke-width="1.09046" stroke-linecap="round" stroke-linejoin="round"/>
<path d="M69.6267 49.2614C69.6267 49.2614 69.6267 50.1955 70.7191 51.9016C71.8114 53.6077 74.7914 57.2786 76.0845 61.1888" stroke="#263238" stroke-width="1.09046" stroke-linecap="round" stroke-linejoin="round"/>
<path d="M66.392 54.7117C66.2987 55.7853 66.2987 56.865 66.392 57.9386C66.5618 59.2279 68.3529 68.8586 68.4378 70.1362C68.5227 71.4139 68.322 74.112 63.7325 74.3359" stroke="#263238" stroke-width="1.09046" stroke-linecap="round" stroke-linejoin="round"/>
<path d="M58.1934 53.8624C58.2875 55.0028 58.4865 56.1322 58.7878 57.2361C59.3012 59.1429 61.1038 68.156 60.8799 70.3601C60.656 72.5641 58.1084 73.0196 58.1084 73.0196" stroke="#263238" stroke-width="1.09046" stroke-linecap="round" stroke-linejoin="round"/>
<path d="M35.7822 65.62C39.2737 65.5778 42.6582 64.4094 45.4322 62.2888" stroke="#263238" stroke-width="1.09046" stroke-linecap="round" stroke-linejoin="round"/>
<path d="M44.0465 59.8301C44.0465 59.8301 44.1352 62.2156 48.9911 64.9407" stroke="#263238" stroke-width="1.09046" stroke-linecap="round" stroke-linejoin="round"/>
<path d="M51.2068 61.6134C51.2068 61.6134 48.5627 64.2575 48.9911 66.0447C49.4196 67.8319 51.2068 69.538 51.2068 69.538" stroke="#263238" stroke-width="1.09046" stroke-linecap="round" stroke-linejoin="round"/>
<path d="M46.706 63.4469C46.2955 64.1464 45.9431 64.8784 45.6522 65.6355C45.3125 66.616 44.4942 69.7927 45.6252 70.6535C46.7562 71.5143 49.8056 72.2747 54.8622 72.9695" stroke="#263238" stroke-width="1.09046" stroke-linecap="round" stroke-linejoin="round"/>
<path d="M48.9911 66.0447C48.9911 66.0447 47.5398 67.3223 47.2001 68.6" stroke="#263238" stroke-width="1.09046" stroke-linecap="round" stroke-linejoin="round"/>
<path d="M50.0758 58.8535C49.3781 60.3141 48.8696 61.8577 48.5627 63.4469" stroke="#263238" stroke-width="1.09046" stroke-linecap="round" stroke-linejoin="round"/>
<path d="M67.8318 66.3689C67.8318 66.3689 69.866 68.5151 71.9967 69.1134" stroke="#263238" stroke-width="1.09046" stroke-linecap="round" stroke-linejoin="round"/>
<path d="M75.0809 70.5608C75.0809 70.5608 72.788 71.5837 68.4301 70.5608" stroke="#263238" stroke-width="1.09046" stroke-linecap="round" stroke-linejoin="round"/>
<path d="M44.0465 65.1298C44.0465 65.1298 45.5905 63.9718 46.1617 62.9836" stroke="#263238" stroke-width="1.09046" stroke-linecap="round" stroke-linejoin="round"/>
<path d="M59.058 42.7843C62.4664 43.7223 62.8099 44.4866 63.4044 47.1307" stroke="#263238" stroke-width="1.09046" stroke-linecap="round" stroke-linejoin="round"/>
<path d="M50.0758 46.4474C53.2487 47.2194 53.1638 48.4083 53.6772 49.7708" stroke="#263238" stroke-width="1.09046" stroke-linecap="round" stroke-linejoin="round"/>
<path d="M79.323 62.5513C79.5144 62.0674 79.7428 61.5989 80.0062 61.1501" stroke="#263238" stroke-width="1.09046" stroke-linecap="round" stroke-linejoin="round"/>
<path d="M87.1742 68.3645C87.1742 68.3645 88.3554 68.2448 88.8649 67.7391" stroke="#263238" stroke-width="1.09046" stroke-linecap="round" stroke-linejoin="round"/>
<path d="M17.4626 55.9044C17.4626 55.9044 18.4006 62.231 23.16 64.5238" stroke="#263238" stroke-width="1.09046" stroke-linecap="round" stroke-linejoin="round"/>
</svg>
