<svg xmlns="http://www.w3.org/2000/svg" viewBox="0 0 750 500"><g id="freepik--background-simple--inject-7"><path d="M497.62,44.8,142.14,120.07a59.57,59.57,0,0,0-41.56,83.61L212.63,442a59.55,59.55,0,0,0,74.28,30.61L581.76,365.22a59.55,59.55,0,0,0,37.4-70.37L567.75,88.65A59.56,59.56,0,0,0,497.62,44.8Z" style="fill:#60D2CE"></path><path d="M497.62,44.8,142.14,120.07a59.57,59.57,0,0,0-41.56,83.61L212.63,442a59.55,59.55,0,0,0,74.28,30.61L581.76,365.22a59.55,59.55,0,0,0,37.4-70.37L567.75,88.65A59.56,59.56,0,0,0,497.62,44.8Z" style="fill:#fff;opacity:0.7000000000000001"></path></g><g id="freepik--Coins--inject-7"><g style="opacity:0.30000000000000004"><circle cx="584.01" cy="146.27" r="37.19" transform="translate(-12.44 64.34) rotate(-6.24)" style="fill:none;stroke:#000;stroke-linecap:round;stroke-linejoin:round"></circle><circle cx="584.01" cy="146.27" r="31.7" transform="translate(177.83 590.66) rotate(-61.63)" style="fill:none;stroke:#000;stroke-linecap:round;stroke-linejoin:round"></circle><path d="M597.51,152.63c0-10.66-15.12-10.9-15.12-15.35,0-2.34,1.23-3.05,3.75-3.05,2.17,0,4,.94,6.09,2.82l5-5.75a15.33,15.33,0,0,0-8.84-4.9v-6H581.8v6.17c-5.65,1.22-9,5.25-9,11.18,0,10.25,15.13,10.9,15.13,15.59,0,2.28-1.18,3.28-4.11,3.28-2.46,0-4.92-.94-8.09-3.28l-4.33,6.8a19.83,19.83,0,0,0,10.43,4.42v5.89h6.57v-6.3C594.49,162.7,597.51,158.28,597.51,152.63Z" style="fill:none;stroke:#000;stroke-linecap:round;stroke-linejoin:round"></path></g><g style="opacity:0.30000000000000004"><circle cx="606.17" cy="343.85" r="16.96" style="fill:none;stroke:#000;stroke-linecap:round;stroke-linejoin:round"></circle><circle cx="606.17" cy="343.85" r="14.46" transform="translate(-65.6 529.34) rotate(-45)" style="fill:none;stroke:#000;stroke-linecap:round;stroke-linejoin:round"></circle><path d="M612.32,346.75c0-4.86-6.9-5-6.9-7,0-1.07.56-1.39,1.71-1.39a4.14,4.14,0,0,1,2.79,1.28l2.27-2.62a7.09,7.09,0,0,0-4-2.24v-2.73h-3v2.81A4.9,4.9,0,0,0,601,340c0,4.68,6.9,5,6.9,7.11,0,1.05-.54,1.5-1.87,1.5a6.12,6.12,0,0,1-3.69-1.5l-2,3.11a9,9,0,0,0,4.76,2v2.69h3V352A5.08,5.08,0,0,0,612.32,346.75Z" style="fill:none;stroke:#000;stroke-linecap:round;stroke-linejoin:round"></path></g><g style="opacity:0.30000000000000004"><circle cx="297.28" cy="48.09" r="26.62" transform="translate(-3.86 47.55) rotate(-9.09)" style="fill:none;stroke:#000;stroke-linecap:round;stroke-linejoin:round"></circle><circle cx="297.28" cy="48.09" r="22.69" transform="translate(97.43 273.36) rotate(-57.61)" style="fill:none;stroke:#000;stroke-linecap:round;stroke-linejoin:round"></circle><path d="M306.93,52.64c0-7.63-10.82-7.8-10.82-11,0-1.67.88-2.18,2.69-2.18a6.39,6.39,0,0,1,4.36,2l3.56-4.11a11,11,0,0,0-6.33-3.52V29.57h-4.7V34a7.69,7.69,0,0,0-6.46,8c0,7.34,10.82,7.8,10.82,11.16,0,1.63-.83,2.35-2.93,2.35-1.76,0-3.53-.67-5.79-2.35L288.23,58a14.07,14.07,0,0,0,7.46,3.17V65.4h4.7V60.89A8,8,0,0,0,306.93,52.64Z" style="fill:none;stroke:#000;stroke-linecap:round;stroke-linejoin:round"></path></g><g style="opacity:0.30000000000000004"><circle cx="86.4" cy="348.54" r="16.96" transform="translate(-54.71 18.34) rotate(-9.22)" style="fill:none;stroke:#000;stroke-linecap:round;stroke-linejoin:round"></circle><path d="M100.86,348.54A14.46,14.46,0,1,0,86.4,363,14.46,14.46,0,0,0,100.86,348.54Z" style="fill:none;stroke:#000;stroke-linecap:round;stroke-linejoin:round"></path><path d="M92.55,351.45c0-4.87-6.89-5-6.89-7,0-1.07.56-1.39,1.71-1.39a4.1,4.1,0,0,1,2.78,1.28l2.27-2.62a7,7,0,0,0-4-2.23v-2.74h-3v2.82a4.89,4.89,0,0,0-4.12,5.1c0,4.67,6.9,5,6.9,7.11,0,1-.53,1.49-1.87,1.49a6.12,6.12,0,0,1-3.69-1.49l-2,3.1a9.1,9.1,0,0,0,4.76,2v2.68h3V356.7A5.06,5.06,0,0,0,92.55,351.45Z" style="fill:none;stroke:#000;stroke-linecap:round;stroke-linejoin:round"></path></g><g style="opacity:0.30000000000000004"><circle cx="509.09" cy="424.52" r="16.96" transform="translate(-57.44 80.38) rotate(-8.55)" style="fill:none;stroke:#000;stroke-linecap:round;stroke-linejoin:round"></circle><path d="M523.55,424.52A14.46,14.46,0,1,0,509.09,439,14.45,14.45,0,0,0,523.55,424.52Z" style="fill:none;stroke:#000;stroke-linecap:round;stroke-linejoin:round"></path><path d="M515.24,427.42c0-4.86-6.89-5-6.89-7,0-1.07.56-1.39,1.71-1.39a4.1,4.1,0,0,1,2.78,1.28l2.27-2.62a7,7,0,0,0-4-2.24v-2.73h-3v2.82a4.89,4.89,0,0,0-4.12,5.09c0,4.68,6.9,5,6.9,7.12,0,1-.53,1.49-1.87,1.49a6.12,6.12,0,0,1-3.69-1.49l-2,3.1a9.1,9.1,0,0,0,4.76,2v2.68h3v-2.87A5.07,5.07,0,0,0,515.24,427.42Z" style="fill:none;stroke:#000;stroke-linecap:round;stroke-linejoin:round"></path></g><g style="opacity:0.30000000000000004"><circle cx="173.66" cy="156.08" r="16.96" style="fill:none;stroke:#000;stroke-linecap:round;stroke-linejoin:round"></circle><circle cx="173.66" cy="156.08" r="14.46" transform="translate(-32.21 266.23) rotate(-70.1)" style="fill:none;stroke:#000;stroke-linecap:round;stroke-linejoin:round"></circle><path d="M179.82,159c0-4.87-6.9-5-6.9-7,0-1.07.56-1.39,1.71-1.39a4.07,4.07,0,0,1,2.78,1.29l2.27-2.62a7,7,0,0,0-4-2.24v-2.74h-3v2.82a4.9,4.9,0,0,0-4.12,5.1c0,4.68,6.9,5,6.9,7.11,0,1-.53,1.5-1.87,1.5a6.16,6.16,0,0,1-3.69-1.5l-2,3.1a9.1,9.1,0,0,0,4.76,2v2.69h3v-2.88A5.07,5.07,0,0,0,179.82,159Z" style="fill:none;stroke:#000;stroke-linecap:round;stroke-linejoin:round"></path></g><g style="opacity:0.30000000000000004"><circle cx="159.12" cy="361.57" r="37.19" transform="translate(-38.5 19.52) rotate(-6.26)" style="fill:none;stroke:#000;stroke-linecap:round;stroke-linejoin:round"></circle><circle cx="159.12" cy="361.57" r="31.7" transform="translate(-235.54 344.28) rotate(-63.74)" style="fill:none;stroke:#000;stroke-linecap:round;stroke-linejoin:round"></circle><path d="M172.61,367.94c0-10.67-15.12-10.9-15.12-15.36,0-2.34,1.23-3.05,3.75-3.05,2.17,0,4,.94,6.1,2.82l5-5.75a15.42,15.42,0,0,0-8.85-4.9v-6H156.9v6.18c-5.64,1.22-9,5.25-9,11.17,0,10.26,15.12,10.9,15.12,15.59,0,2.29-1.17,3.28-4.1,3.28-2.46,0-4.93-.94-8.09-3.28l-4.34,6.8a19.86,19.86,0,0,0,10.43,4.42v5.89h6.57v-6.3C169.59,378,172.61,373.58,172.61,367.94Z" style="fill:none;stroke:#000;stroke-linecap:round;stroke-linejoin:round"></path></g></g><g id="freepik--Plants--inject-7"><path d="M137.8,182.69c.24,4.77-3.78,14.69-3.78,14.7s-5.74-4.63-6.06-5c-3.76-3.94-8.72-13.75-5.82-19.11a7.22,7.22,0,0,1,10.51-2.22C136.2,173.51,137.59,178.63,137.8,182.69Z" style="fill:#60D2CE"></path><path d="M235.12,277.45l.62.37.08,4.31-2.58-1.59c-2.49-1.55-5.12-3.25-7.81-5a78.29,78.29,0,0,1-6.62,6.41c2.06,4.12,2.93,13,3,14.14,2.89-.07,5.7-.17,8.35-.3,1.82-.09,3.57-.19,5.26-.3L234,299.25c-1.21,0-2.43.09-3.7.12-2.93.08-6.06.12-9.28.12-.18,1.15-1.72,10.6-4.19,14.35-2.24,3.39-6,7.09-10.34,7.36A7.21,7.21,0,0,1,198.6,314c.23-6.1,9.49-12,14.73-13.5.31-.08,3.77-.65,5.95-1-1.31,0-2.59,0-3.94,0-2.68,0-5.35-.14-8.23-.24l-4.2-.3c-1.4-.07-2.88-.32-4.33-.48-3.37-.43-6.75-1-10.15-1.71,0,2.34-.26,10.66-2,14.37s-4.89,7.93-9.1,8.85a7.22,7.22,0,0,1-8.92-6c-.7-6.06,7.56-13.32,12.52-15.57.3-.14,4-1.35,6.11-2-2-.43-4.08-.84-6.13-1.34-5.92-1.44-11.86-3.08-17.8-4.69L157.68,289c0,.84-.05,10.74-2,14.89-1.7,3.69-4.9,7.93-9.1,8.85a7.21,7.21,0,0,1-8.92-6c-.7-6.06,7.56-13.32,12.51-15.57.38-.17,5.76-1.91,7.15-2.28-4-1.06-8-2.07-12-2.9a127.71,127.71,0,0,0-16.31-2.41c0,.39,0,10.72-2,15-1.71,3.69-4.9,7.92-9.1,8.84a7.21,7.21,0,0,1-8.93-6c-.69-6.05,7.56-13.32,12.52-15.57.39-.17,6.18-2,7.25-2.31-.32,0-.64-.08-1-.1a93.25,93.25,0,0,0-16.51.57c-3,.34-5.9.83-8.69,1.37.2,1.93,1,10.73-.34,14.76-1.29,3.86-4,8.41-8.08,9.79A7.21,7.21,0,0,1,84.73,305c-1.36-6,6-14.07,10.73-16.85.25-.15,3-1.4,5-2.29-1.26.27-2.55.52-3.75.79-4.49,1-8.55,2.24-12.13,3.35-2,.65-3.85,1.27-5.55,1.87-.79,2-4.09,10-7.08,12.87s-7.43,5.62-11.68,5-7.28-4.54-6.17-8.79c1.53-5.9,11.85-9.7,17.29-10,.47,0,7.86.4,7.82.5l0,.12c1.63-.61,3.37-1.25,5.3-1.9,3.56-1.19,7.6-2.5,12.09-3.63a126.9,126.9,0,0,1,14.66-3,94.4,94.4,0,0,1,16.7-.94h.2c-1.69-.6-6.33-2.44-6.67-2.62-4.8-2.57-12.57-10.34-11.49-16.34a7.21,7.21,0,0,1,9.29-5.38c4.14,1.19,7,5.61,8.51,9.41,1.65,4.28,1.06,14.2,1,15a128.27,128.27,0,0,1,16.91,2.11c3.25.61,6.52,1.33,9.78,2.09-1.44-.57-2.72-1.09-2.89-1.18-4.81-2.57-12.57-10.34-11.49-16.34a7.22,7.22,0,0,1,9.29-5.39c4.14,1.19,7.05,5.62,8.51,9.42s1.15,12.32,1,14.56c1.25.3,2.5.59,3.74.9,6,1.48,12,3,17.84,4.28,2.07.46,4.14.84,6.2,1.22-1.28-.51-2.35-.94-2.5-1-4.81-2.56-12.58-10.34-11.49-16.34a7.21,7.21,0,0,1,9.29-5.38c4.13,1.19,7.05,5.62,8.51,9.41s1.18,11.5,1,14.16c2.12.33,4.25.66,6.32.88,1.42.12,2.77.34,4.2.38l4.21.21c2.68,0,5.44.08,8.06.05,1.81,0,3.55-.05,5.29-.09-2.07-.43-6.11-1.36-6.44-1.48a28.09,28.09,0,0,1-11.42-8.33,8.61,8.61,0,0,1-1.45-.66,7.21,7.21,0,0,1-2.6-10.42c3.55-4.95,14.54-4.79,19.72-3.12.31.1,3.51,1.53,5.51,2.47-1.09-.73-2.16-1.43-3.28-2.2-2.22-1.5-4.39-3.06-6.73-4.73L210.62,265c-1.13-.83-2.22-1.85-3.35-2.79-2.56-2.21-5.06-4.59-7.52-7-1.31,1.94-6.09,8.76-9.57,10.91s-8.45,3.91-12.46,2.36-6.15-6-4.16-9.9c2.76-5.44,13.66-6.94,19-6.09.34.06,4.12,1.11,6.19,1.72-1.46-1.48-2.93-2.95-4.37-4.5-4.14-4.46-8.2-9.11-12.26-13.73-1.25-1.41-2.51-2.81-3.76-4.21-.46.7-6,8.93-9.86,11.34-3.45,2.14-8.45,3.9-12.46,2.35a7.22,7.22,0,0,1-4.16-9.9c2.77-5.43,13.66-6.94,19-6.08.41.07,5.86,1.58,7.22,2-2.76-3.09-5.54-6.14-8.4-9a128.07,128.07,0,0,0-12.27-11c-.21.33-5.92,8.94-9.9,11.41-3.46,2.14-8.46,3.91-12.47,2.36a7.22,7.22,0,0,1-4.15-9.91c2.76-5.43,13.65-6.93,19-6.08.43.07,6.29,1.71,7.33,2.08-.25-.2-.49-.43-.75-.62a93.88,93.88,0,0,0-14.08-8.63c-2.71-1.38-5.38-2.56-8-3.65-.9,1.72-5.1,9.5-8.43,12.12s-8,4.81-12.14,3.71a7.22,7.22,0,0,1-5.21-9.39c2.14-5.7,12.8-8.39,18.24-8.13.3,0,3.29.49,5.46.87-1.19-.47-2.41-1-3.56-1.41-4.32-1.62-8.37-2.84-12-3.9-2-.58-3.92-1.06-5.67-1.5-1.76,1.22-8.91,6.06-13,6.82s-9.3.6-12.48-2.29-3.57-7.8-.3-10.73c4.53-4.08,15.23-1.55,19.94,1.18.4.24,6.34,4.67,6.25,4.74l-.11.07c1.69.39,3.5.82,5.47,1.33,3.63,1,7.71,2.11,12.08,3.65a127.73,127.73,0,0,1,13.86,5.62,95.29,95.29,0,0,1,14.45,8.43l.15.13c-1.07-1.43-3.92-5.53-4.11-5.87-2.59-4.79-4.78-15.56-.56-20a7.21,7.21,0,0,1,10.71.64c2.8,3.27,2.78,8.57,1.91,12.54-1,4.48-7,12.43-7.43,13.06A128.08,128.08,0,0,1,171,221.26c2.38,2.31,4.71,4.7,7,7.13-.88-1.26-1.67-2.4-1.76-2.57-2.59-4.79-4.78-15.57-.56-20a7.21,7.21,0,0,1,10.71.64c2.8,3.27,2.78,8.57,1.91,12.54s-5.84,10.91-7.18,12.72c.88.94,1.76,1.87,2.63,2.81,4.17,4.54,8.31,9.08,12.51,13.41,1.48,1.53,3,3,4.5,4.44-.78-1.13-1.43-2.08-1.52-2.24-2.59-4.79-4.78-15.56-.56-20,3-3.17,8-2.56,10.71.64s2.78,8.58,1.91,12.55-5.36,10.23-6.94,12.38c1.59,1.45,3.18,2.9,4.79,4.23,1.11.88,2.13,1.81,3.3,2.63l3.39,2.49c2.22,1.51,4.49,3.08,6.69,4.49,1.52,1,3,1.92,4.47,2.85-1.49-1.5-4.35-4.51-4.56-4.79-3.29-4.34-7.08-14.65-3.58-19.65a7.22,7.22,0,0,1,10.69-1c3.25,2.81,4,8.05,3.78,12.11-.29,4.47-4.76,12.91-5.33,14C230.44,274.63,232.83,276.1,235.12,277.45Z" style="fill:#60D2CE"></path><path d="M101.7,284.75c0,.11-7.34-.7-7.8-.8-5.31-1.21-14.86-6.66-15.4-12.73a7.22,7.22,0,0,1,7.55-7.64c4.3.05,8.28,3.55,10.69,6.83C99.57,274.25,101.7,284.74,101.7,284.75Z" style="fill:#60D2CE"></path><path d="M632.92,182.69c-.24,4.77,3.77,14.69,3.77,14.7s5.74-4.63,6.07-5c3.76-3.94,8.72-13.75,5.82-19.11a7.22,7.22,0,0,0-10.51-2.22C634.51,173.51,633.12,178.63,632.92,182.69Z" style="fill:#60D2CE"></path><path d="M535.6,277.45l-.63.37-.07,4.31,2.58-1.59c2.49-1.55,5.12-3.25,7.8-5a78.29,78.29,0,0,0,6.62,6.41c-2.06,4.12-2.92,13-3,14.14-2.89-.07-5.69-.17-8.34-.3-1.83-.09-3.58-.19-5.26-.3l1.43,3.79c1.2,0,2.42.09,3.69.12,2.93.08,6.07.12,9.29.12.18,1.15,1.72,10.6,4.19,14.35,2.24,3.39,6,7.09,10.33,7.36a7.21,7.21,0,0,0,7.92-7.25c-.23-6.1-9.49-12-14.73-13.5-.31-.08-3.77-.65-6-1,1.32,0,2.59,0,4,0,2.68,0,5.35-.14,8.22-.24l4.2-.3c1.41-.07,2.88-.32,4.34-.48,3.36-.43,6.75-1,10.15-1.71,0,2.34.25,10.66,2,14.37s4.9,7.93,9.1,8.85a7.23,7.23,0,0,0,8.93-6c.69-6.06-7.56-13.32-12.52-15.57-.31-.14-4-1.35-6.11-2,2-.43,4.07-.84,6.13-1.34,5.91-1.44,11.86-3.08,17.8-4.69L613,289c0,.84.05,10.74,2,14.89,1.7,3.69,4.89,7.93,9.09,8.85s8.43-1.61,8.93-6c.69-6.06-7.56-13.32-12.52-15.57-.37-.17-5.75-1.91-7.14-2.28,4-1.06,8-2.07,12-2.9a127.56,127.56,0,0,1,16.3-2.41c0,.39,0,10.72,2,15,1.7,3.69,4.9,7.92,9.1,8.84a7.21,7.21,0,0,0,8.92-6c.7-6.05-7.55-13.32-12.51-15.57-.39-.17-6.18-2-7.26-2.31.32,0,.65-.08,1-.1a93.17,93.17,0,0,1,16.5.57c3,.34,5.91.83,8.69,1.37-.19,1.93-1,10.73.35,14.76,1.29,3.86,4,8.41,8.07,9.79A7.22,7.22,0,0,0,686,305c1.36-6-6-14.07-10.73-16.85-.25-.15-3-1.4-5-2.29,1.25.27,2.55.52,3.75.79,4.49,1,8.54,2.24,12.12,3.35,2,.65,3.86,1.27,5.56,1.87.79,2,4.09,10,7.08,12.87s7.42,5.62,11.67,5a7.23,7.23,0,0,0,6.18-8.79c-1.54-5.9-11.86-9.7-17.29-10-.47,0-7.86.4-7.82.5l0,.12c-1.62-.61-3.37-1.25-5.29-1.9-3.57-1.19-7.6-2.5-12.09-3.63a127.33,127.33,0,0,0-14.66-3,94.4,94.4,0,0,0-16.7-.94h-.2c1.68-.6,6.33-2.44,6.67-2.62,4.8-2.57,12.57-10.34,11.48-16.34a7.21,7.21,0,0,0-9.29-5.38c-4.13,1.19-7.05,5.61-8.51,9.41-1.65,4.28-1,14.2-1,15A128.06,128.06,0,0,0,625,284.27c-3.26.61-6.52,1.33-9.78,2.09,1.44-.57,2.72-1.09,2.89-1.18,4.8-2.57,12.57-10.34,11.49-16.34a7.22,7.22,0,0,0-9.29-5.39c-4.14,1.19-7.06,5.62-8.52,9.42s-1.14,12.32-1,14.56l-3.75.9c-6,1.48-11.94,3-17.83,4.28-2.08.46-4.14.84-6.2,1.22,1.27-.51,2.34-.94,2.5-1,4.8-2.56,12.57-10.34,11.49-16.34a7.21,7.21,0,0,0-9.29-5.38c-4.14,1.19-7.05,5.62-8.51,9.41S578,292,578.15,294.65c-2.12.33-4.25.66-6.32.88-1.42.12-2.78.34-4.21.38l-4.2.21c-2.68,0-5.45.08-8.06.05-1.82,0-3.55-.05-5.29-.09,2.07-.43,6.11-1.36,6.43-1.48a28,28,0,0,0,11.42-8.33,8.71,8.71,0,0,0,1.46-.66,7.22,7.22,0,0,0,2.6-10.42c-3.55-4.95-14.55-4.79-19.73-3.12-.3.1-3.5,1.53-5.51,2.47,1.1-.73,2.17-1.43,3.28-2.2,2.22-1.5,4.39-3.06,6.73-4.73l3.34-2.57c1.13-.83,2.22-1.85,3.35-2.79,2.57-2.21,5.06-4.59,7.52-7,1.32,1.94,6.1,8.76,9.57,10.91S589,270,593,268.49s6.14-6,4.15-9.9c-2.76-5.44-13.65-6.94-19-6.09-.33.06-4.12,1.11-6.19,1.72,1.47-1.48,2.94-2.95,4.37-4.5,4.15-4.46,8.2-9.11,12.27-13.73,1.24-1.41,2.5-2.81,3.75-4.21.47.7,6,8.93,9.86,11.34,3.46,2.14,8.46,3.9,12.47,2.35a7.21,7.21,0,0,0,4.15-9.9c-2.76-5.43-13.65-6.94-19-6.08-.4.07-5.85,1.58-7.22,2,2.76-3.09,5.55-6.14,8.41-9a126.78,126.78,0,0,1,12.26-11c.22.33,5.93,8.94,9.91,11.41,3.46,2.14,8.45,3.91,12.47,2.36a7.22,7.22,0,0,0,4.15-9.91c-2.76-5.43-13.65-6.93-19-6.08-.42.07-6.28,1.71-7.32,2.08.25-.2.49-.43.74-.62a94,94,0,0,1,14.09-8.63c2.71-1.38,5.38-2.56,8-3.65.9,1.72,5.09,9.5,8.43,12.12s8,4.81,12.13,3.71a7.22,7.22,0,0,0,5.22-9.39c-2.15-5.7-12.81-8.39-18.25-8.13-.29,0-3.28.49-5.45.87,1.19-.47,2.41-1,3.56-1.41,4.31-1.62,8.36-2.84,12-3.9,2-.58,3.92-1.06,5.66-1.5,1.76,1.22,8.91,6.06,13,6.82s9.29.6,12.48-2.29,3.57-7.8.3-10.73c-4.54-4.08-15.24-1.55-19.94,1.18-.41.24-6.34,4.67-6.25,4.74l.11.07c-1.7.39-3.51.82-5.47,1.33-3.63,1-7.72,2.11-12.09,3.65a127.61,127.61,0,0,0-13.85,5.62,94.33,94.33,0,0,0-14.45,8.43l-.16.13c1.07-1.43,3.93-5.53,4.11-5.87,2.59-4.79,4.78-15.56.57-20a7.22,7.22,0,0,0-10.72.64c-2.79,3.27-2.78,8.57-1.9,12.54,1,4.48,7,12.43,7.43,13.06a128.18,128.18,0,0,0-12.94,11.09c-2.38,2.31-4.7,4.7-7,7.13.88-1.26,1.66-2.4,1.76-2.57,2.59-4.79,4.77-15.57.56-20a7.22,7.22,0,0,0-10.72.64c-2.79,3.27-2.78,8.57-1.9,12.54s5.84,10.91,7.17,12.72L587,234.56c-4.17,4.54-8.32,9.08-12.52,13.41-1.47,1.53-3,3-4.5,4.44.79-1.13,1.44-2.08,1.52-2.24,2.59-4.79,4.78-15.56.57-20a7.22,7.22,0,0,0-10.72.64c-2.79,3.27-2.78,8.58-1.9,12.55s5.36,10.23,6.93,12.38c-1.59,1.45-3.17,2.9-4.78,4.23-1.12.88-2.13,1.81-3.3,2.63l-3.4,2.49c-2.21,1.51-4.49,3.08-6.69,4.49-1.52,1-3,1.92-4.46,2.85,1.49-1.5,4.35-4.51,4.56-4.79,3.28-4.34,7.08-14.65,3.58-19.65a7.22,7.22,0,0,0-10.69-1c-3.26,2.81-4,8.05-3.79,12.11.3,4.47,4.77,12.91,5.33,14C540.28,274.63,537.88,276.1,535.6,277.45Z" style="fill:#60D2CE"></path><path d="M669,284.75c0,.11,7.34-.7,7.8-.8,5.3-1.21,14.85-6.66,15.39-12.73.39-4.37-3.33-7.69-7.54-7.64s-8.28,3.55-10.69,6.83C671.15,274.25,669,284.74,669,284.75Z" style="fill:#60D2CE"></path></g><g id="freepik--Chronometer--inject-7"><rect x="242.6" y="101.77" width="21.62" height="33.51" transform="translate(-19.19 181.44) rotate(-38.06)" style="fill:#263238;stroke:#263238;stroke-linejoin:round"></rect><rect x="224.7" y="93.45" width="36.76" height="23.78" transform="translate(-13.25 172.27) rotate(-38.06)" style="fill:#60D2CE;stroke:#263238;stroke-linejoin:round"></rect><line x1="227.53" y1="103.32" x2="238.28" y2="117.05" style="fill:none;stroke:#263238;stroke-linejoin:round"></line><line x1="237.33" y1="95.65" x2="248.08" y2="109.37" style="fill:none;stroke:#263238;stroke-linejoin:round"></line><line x1="234.66" y1="103.01" x2="245.41" y2="116.73" style="fill:none;stroke:#263238;stroke-linejoin:round"></line><rect x="480.49" y="101.77" width="21.62" height="33.51" transform="translate(805.04 514.76) rotate(-141.94)" style="fill:#263238;stroke:#263238;stroke-linejoin:round"></rect><rect x="483.25" y="93.45" width="36.76" height="23.78" transform="translate(831.64 497.54) rotate(-141.94)" style="fill:#60D2CE;stroke:#263238;stroke-linejoin:round"></rect><line x1="517.18" y1="103.32" x2="506.43" y2="117.05" style="fill:none;stroke:#263238;stroke-linejoin:round"></line><line x1="507.38" y1="95.65" x2="496.63" y2="109.37" style="fill:none;stroke:#263238;stroke-linejoin:round"></line><line x1="510.05" y1="103.01" x2="499.3" y2="116.73" style="fill:none;stroke:#263238;stroke-linejoin:round"></line><rect x="353.52" y="52.33" width="35.06" height="35.11" style="fill:#263238;stroke:#263238;stroke-linejoin:round"></rect><rect x="345.68" y="32.19" width="50.74" height="35.11" style="fill:#60D2CE;stroke:#263238;stroke-linejoin:round"></rect><line x1="350.24" y1="32.07" x2="350.24" y2="61.33" style="fill:none;stroke:#263238;stroke-linejoin:round"></line><line x1="354.42" y1="62.64" x2="354.42" y2="46.96" style="fill:none;stroke:#263238;stroke-linejoin:round"></line><line x1="358.86" y1="32.86" x2="358.86" y2="55.06" style="fill:none;stroke:#263238;stroke-linejoin:round"></line><line x1="363.3" y1="43.57" x2="363.3" y2="63.95" style="fill:none;stroke:#263238;stroke-linejoin:round"></line><line x1="370.1" y1="33.12" x2="370.1" y2="56.11" style="fill:none;stroke:#263238;stroke-linejoin:round"></line><circle cx="371.05" cy="264.7" r="183.41" transform="translate(-78.5 339.9) rotate(-45)" style="fill:#263238;stroke:#263238;stroke-linejoin:round"></circle><circle cx="371.05" cy="264.7" r="161.91" transform="translate(-78.5 339.9) rotate(-45)" style="fill:#fff;stroke:#263238;stroke-linejoin:round"></circle><circle cx="371.05" cy="264.7" r="149.22" transform="translate(-78.5 339.9) rotate(-45)" style="fill:#fff;stroke:#263238;stroke-linejoin:round"></circle><line x1="371.05" y1="115.48" x2="371.05" y2="135.71" style="fill:none;stroke:#263238;stroke-linejoin:round"></line><line x1="371.05" y1="393.54" x2="371.05" y2="413.77" style="fill:none;stroke:#263238;stroke-linejoin:round"></line><line x1="520.19" y1="264.63" x2="499.96" y2="264.63" style="fill:none;stroke:#263238;stroke-linejoin:round"></line><line x1="242.13" y1="264.63" x2="221.9" y2="264.63" style="fill:none;stroke:#263238;stroke-linejoin:round"></line><line x1="476.51" y1="159.17" x2="462.2" y2="173.47" style="fill:none;stroke:#263238;stroke-linejoin:round"></line><line x1="279.89" y1="355.78" x2="265.59" y2="370.09" style="fill:none;stroke:#263238;stroke-linejoin:round"></line><line x1="265.59" y1="159.17" x2="279.89" y2="173.47" style="fill:none;stroke:#263238;stroke-linejoin:round"></line><line x1="462.2" y1="355.78" x2="476.51" y2="370.09" style="fill:none;stroke:#263238;stroke-linejoin:round"></line><polygon points="407.86 250.42 410.19 259.31 257.69 296.09 256.99 293.42 407.86 250.42" style="fill:#263238;stroke:#263238;stroke-linejoin:round"></polygon><path d="M376.9,264.7a5.85,5.85,0,1,0-5.85,5.85A5.85,5.85,0,0,0,376.9,264.7Z" style="fill:#fff;stroke:#263238;stroke-linejoin:round"></path></g></svg>
