<svg width="26" height="26" viewBox="0 0 26 26" fill="none" xmlns="http://www.w3.org/2000/svg">
<path d="M17.875 12.1875C17.875 11.7388 18.2388 11.375 18.6875 11.375H20.3125C20.7612 11.375 21.125 11.7388 21.125 12.1875V13.8125C21.125 14.2612 20.7612 14.625 20.3125 14.625H18.6875C18.2388 14.625 17.875 14.2612 17.875 13.8125V12.1875Z" fill="#1BAEA6"/>
<path d="M5.6875 0C6.13623 0 6.5 0.363769 6.5 0.8125V1.625H19.5V0.8125C19.5 0.363769 19.8638 0 20.3125 0C20.7612 0 21.125 0.363769 21.125 0.8125V1.625H22.75C24.5449 1.625 26 3.08007 26 4.875V22.75C26 24.5449 24.5449 26 22.75 26H3.25C1.45508 26 0 24.5449 0 22.75V4.875C0 3.08007 1.45507 1.625 3.25 1.625H4.875V0.8125C4.875 0.363769 5.23877 0 5.6875 0ZM3.25 3.25C2.35254 3.25 1.625 3.97754 1.625 4.875V22.75C1.625 23.6475 2.35254 24.375 3.25 24.375H22.75C23.6475 24.375 24.375 23.6475 24.375 22.75V4.875C24.375 3.97754 23.6475 3.25 22.75 3.25H3.25Z" fill="#1BAEA6"/>
<path d="M4.0625 6.5C4.0625 6.05127 4.42627 5.6875 4.875 5.6875H21.125C21.5737 5.6875 21.9375 6.05127 21.9375 6.5V8.125C21.9375 8.57373 21.5737 8.9375 21.125 8.9375H4.875C4.42627 8.9375 4.0625 8.57373 4.0625 8.125V6.5Z" fill="#1BAEA6"/>
</svg>
