<svg width="250" height="250" viewBox="0 0 250 250" fill="none" xmlns="http://www.w3.org/2000/svg">
<path d="M202.935 60.8801C215.185 85.2901 211.31 116.105 195.995 138.725C180.68 161.345 155.21 176 128.42 181.315C109.3 185.125 88.725 184.35 71.255 175.695C53.785 167.04 40.045 149.635 39 130.165C38.6 122.81 40.16 115 45.065 109.5C52.9 100.735 66.28 100.425 78.035 100.785C89.79 101.145 103.155 100.875 111.035 92.1401C117.085 85.4301 117.975 75.6951 121.165 67.2401C126.585 52.8651 139.665 41.6401 154.695 38.4651C156.774 38.0313 158.881 37.7472 161 37.6151C177.53 36.5851 193.21 45.1151 201.885 59.2051L202.935 60.8801Z" fill="#EBEBEB"/>
<path d="M239.22 214.185C239.22 214.255 188.55 214.315 126.06 214.315C63.57 214.315 12.885 214.255 12.885 214.185C12.885 214.115 63.545 214.055 126.06 214.055C188.575 214.055 239.22 214.11 239.22 214.185Z" fill="#263238"/>
<path d="M166.135 69.21H83.8651C80.6756 69.21 78.0901 71.7955 78.0901 74.985V208.245C78.0901 211.434 80.6756 214.02 83.8651 214.02H166.135C169.325 214.02 171.91 211.434 171.91 208.245V74.985C171.91 71.7955 169.325 69.21 166.135 69.21Z" fill="#455A64"/>
<path d="M127.875 207.285C127.825 207.986 127.57 208.657 127.144 209.216C126.717 209.775 126.137 210.197 125.474 210.43C124.811 210.664 124.094 210.698 123.411 210.53C122.729 210.362 122.11 209.999 121.631 209.484C121.153 208.969 120.834 208.326 120.716 207.633C120.598 206.94 120.684 206.228 120.965 205.583C121.246 204.939 121.708 204.39 122.297 204.005C122.885 203.62 123.572 203.415 124.275 203.415C125.265 203.453 126.2 203.881 126.874 204.607C127.549 205.332 127.909 206.295 127.875 207.285Z" fill="#263238"/>
<path d="M138.515 73.3799H111.48C111.143 73.3799 110.87 73.653 110.87 73.9899V74.3699C110.87 74.7068 111.143 74.9799 111.48 74.9799H138.515C138.852 74.9799 139.125 74.7068 139.125 74.3699V73.9899C139.125 73.653 138.852 73.3799 138.515 73.3799Z" fill="#263238"/>
<path d="M169.19 77.52H81.29V199.695H169.19V77.52Z" fill="#263238"/>
<path d="M146.37 187.085L146.695 187.055C147.011 187.036 147.325 186.994 147.635 186.93C148.137 186.823 148.624 186.655 149.085 186.43C149.718 186.131 150.295 185.725 150.79 185.23C151.416 184.613 151.903 183.87 152.22 183.05C152.59 182.075 152.728 181.028 152.625 179.99C152.513 178.72 152.017 177.514 151.202 176.533C150.388 175.552 149.293 174.843 148.065 174.5C147.724 174.407 147.376 174.341 147.025 174.3C146.665 174.3 146.305 174.26 145.93 174.265H143.65H138.815H128.14H103.685C102.625 174.272 101.584 174.544 100.655 175.055C99.7452 175.57 98.9795 176.306 98.4282 177.195C97.8769 178.083 97.5577 179.096 97.5 180.14C97.4188 181.162 97.5745 182.188 97.955 183.14C98.3438 184.058 98.9413 184.873 99.7 185.52C100.45 186.148 101.337 186.591 102.29 186.815C103.238 186.986 104.203 187.045 105.165 186.99H108L127.975 187.02L141.44 187.06L145.1 187.085H146.05H146.375H146.05H145.1H141.44L127.975 187.125L108 187.155H103.695C103.45 187.155 103.195 187.155 102.95 187.11C102.703 187.079 102.458 187.036 102.215 186.98C101.224 186.749 100.301 186.288 99.52 185.635C98.7294 184.962 98.1063 184.115 97.7 183.16C97.3079 182.18 97.1454 181.123 97.225 180.07C97.2906 179.003 97.6261 177.971 98.2 177.07C98.7765 176.145 99.5781 175.381 100.53 174.85C101.498 174.315 102.584 174.031 103.69 174.025H128.145H138.82H145.935C146.305 174.025 146.68 174.025 147.05 174.06C147.411 174.105 147.769 174.177 148.12 174.275C149.389 174.637 150.516 175.38 151.347 176.404C152.179 177.429 152.676 178.684 152.77 180C152.869 181.058 152.72 182.124 152.335 183.115C152.007 183.946 151.506 184.697 150.865 185.32C150.357 185.818 149.767 186.224 149.12 186.52C148.651 186.746 148.155 186.914 147.645 187.02C147.331 187.077 147.014 187.109 146.695 187.115C146.5 187.09 146.37 187.085 146.37 187.085Z" fill="white"/>
<path d="M113.965 179.79L113.655 180.18C113.544 180.057 113.409 179.958 113.259 179.89C113.109 179.821 112.946 179.783 112.78 179.78C112.628 179.77 112.476 179.791 112.333 179.842C112.19 179.893 112.059 179.973 111.948 180.077C111.837 180.18 111.748 180.306 111.687 180.445C111.627 180.585 111.596 180.735 111.596 180.887C111.596 181.039 111.627 181.19 111.687 181.329C111.748 181.469 111.837 181.594 111.948 181.698C112.059 181.802 112.19 181.882 112.333 181.933C112.476 181.984 112.628 182.005 112.78 181.995C113.108 181.988 113.421 181.855 113.655 181.625L113.97 181.975C113.642 182.291 113.206 182.469 112.75 182.475C112.534 182.487 112.317 182.455 112.113 182.38C111.909 182.306 111.723 182.19 111.565 182.041C111.407 181.892 111.282 181.713 111.196 181.513C111.11 181.314 111.066 181.099 111.066 180.882C111.066 180.665 111.11 180.451 111.196 180.251C111.282 180.052 111.407 179.872 111.565 179.723C111.723 179.574 111.909 179.459 112.113 179.384C112.317 179.31 112.534 179.278 112.75 179.29C113.205 179.291 113.641 179.471 113.965 179.79Z" fill="white"/>
<path d="M117.5 180.895C117.516 181.228 117.432 181.558 117.258 181.843C117.085 182.128 116.83 182.355 116.527 182.494C116.223 182.632 115.885 182.677 115.556 182.622C115.227 182.567 114.922 182.414 114.681 182.184C114.439 181.954 114.272 181.657 114.201 181.331C114.129 181.005 114.157 180.665 114.281 180.356C114.405 180.046 114.619 179.78 114.895 179.593C115.171 179.406 115.497 179.305 115.83 179.305C116.045 179.297 116.259 179.332 116.46 179.408C116.661 179.484 116.845 179.6 117 179.748C117.156 179.896 117.281 180.074 117.366 180.271C117.452 180.468 117.498 180.68 117.5 180.895ZM114.7 180.895C114.703 181.194 114.824 181.479 115.036 181.689C115.249 181.899 115.536 182.016 115.835 182.015C116.056 182.012 116.271 181.944 116.453 181.819C116.635 181.694 116.777 181.518 116.859 181.313C116.942 181.108 116.962 180.884 116.917 180.667C116.872 180.451 116.764 180.253 116.607 180.098C116.45 179.943 116.25 179.837 116.033 179.795C115.816 179.753 115.592 179.776 115.388 179.862C115.184 179.947 115.01 180.09 114.888 180.274C114.766 180.458 114.7 180.674 114.7 180.895Z" fill="white"/>
<path d="M120.3 182.47L118.62 180.21V182.47H118.09V179.32H118.59L120.28 181.585V179.32H120.78V182.47H120.3Z" fill="white"/>
<path d="M122.185 179.795V180.705H123.615V181.18H122.185V182.47H121.65V179.32H123.77V179.795H122.185Z" fill="white"/>
<path d="M124.24 182.47V179.32H124.77V182.47H124.24Z" fill="white"/>
<path d="M127 181.5H126.11V182.45H125.6V179.3H126.875C127.68 179.3 128.145 179.69 128.145 180.375C128.159 180.589 128.103 180.802 127.985 180.983C127.868 181.163 127.696 181.3 127.495 181.375L128.2 182.43H127.595L127 181.5ZM126.855 181.03C127.355 181.03 127.62 180.82 127.62 180.395C127.62 179.97 127.345 179.78 126.855 179.78H126.11V181.03H126.855Z" fill="white"/>
<path d="M131.69 182.47V180.115L130.69 182.115H130.34L129.34 180.115V182.47H128.84V179.32H129.5L130.54 181.41L131.575 179.32H132.205V182.47H131.69Z" fill="white"/>
<path d="M133.545 179.795V180.645H135.085V181.145H133.545V182H135.32V182.475H133V179.325H135.25V179.8L133.545 179.795Z" fill="white"/>
<path d="M137.26 179.32C137.678 179.32 138.078 179.486 138.374 179.781C138.669 180.077 138.835 180.477 138.835 180.895C138.835 181.313 138.669 181.713 138.374 182.009C138.078 182.304 137.678 182.47 137.26 182.47H135.98V179.32H137.26ZM136.5 182H137.27C137.414 182.004 137.557 181.978 137.691 181.924C137.825 181.87 137.946 181.789 138.047 181.686C138.148 181.584 138.227 181.461 138.279 181.327C138.331 181.193 138.355 181.049 138.35 180.905C138.354 180.759 138.328 180.614 138.275 180.479C138.221 180.343 138.14 180.22 138.037 180.116C137.934 180.013 137.811 179.932 137.676 179.877C137.541 179.823 137.396 179.797 137.25 179.8H136.5V182Z" fill="white"/>
<path d="M91.275 120.11L157.855 119.63L159.71 164.895L90.77 164.255L91.275 120.11Z" fill="#1BAEA6"/>
<path d="M91.2751 120.11L125.075 92.76L157.855 119.63" fill="#1BAEA6"/>
<g opacity="0.3">
<path d="M91.2751 120.11L125.075 92.76L157.855 119.63" fill="black"/>
</g>
<path d="M90.77 164.255C90.685 164.18 96.0151 158.36 102.675 151.255C109.335 144.15 114.795 138.46 114.88 138.54C114.965 138.62 109.635 144.435 102.975 151.54C96.315 158.645 90.855 164.335 90.77 164.255Z" fill="#263238"/>
<path d="M159.71 164.895C159.625 164.97 154.435 159.27 148.12 152.16C141.805 145.05 136.75 139.225 136.835 139.16C136.92 139.095 142.11 144.785 148.425 151.895C154.74 159.005 159.795 164.82 159.71 164.895Z" fill="#263238"/>
<g opacity="0.5">
<path d="M157.855 119.63L124.42 146.34L91.2751 120.11" fill="black"/>
</g>
<path d="M94.63 122.585L94.53 103.22L152.845 101.79L153.48 122.98L124.42 145.99L94.63 122.585Z" fill="#EBEBEB"/>
<path d="M125.235 139.03C123.189 139.035 121.166 138.608 119.297 137.775C117.428 136.943 115.757 135.725 114.392 134.2C113.028 132.676 112.002 130.88 111.381 128.931C110.76 126.981 110.559 124.923 110.79 122.89C111.223 119.067 113.157 115.572 116.166 113.175C119.176 110.778 123.014 109.675 126.838 110.108C130.661 110.541 134.155 112.474 136.552 115.484C138.95 118.493 140.053 122.332 139.62 126.155C139.221 129.693 137.535 132.96 134.882 135.335C132.229 137.709 128.795 139.024 125.235 139.03ZM125.195 110.53C122.494 110.533 119.852 111.317 117.587 112.788C115.322 114.258 113.53 116.352 112.428 118.818C111.326 121.284 110.961 124.016 111.377 126.684C111.792 129.353 112.971 131.844 114.77 133.858C116.57 135.872 118.913 137.322 121.518 138.035C124.123 138.747 126.879 138.69 129.453 137.872C132.026 137.053 134.308 135.508 136.024 133.422C137.739 131.336 138.814 128.798 139.12 126.115C139.329 124.287 139.175 122.435 138.668 120.667C138.16 118.898 137.309 117.247 136.163 115.807C135.017 114.367 133.599 113.168 131.988 112.277C130.378 111.386 128.609 110.821 126.78 110.615C126.254 110.547 125.725 110.509 125.195 110.5V110.53Z" fill="#1BAEA6"/>
<path d="M115.345 126.535L117.77 123.565L123.44 127.66L132.655 116.8L135.435 119.245L123.58 132.905L115.345 126.535Z" fill="#1BAEA6"/>
<path d="M187.965 146.17C187.99 146.259 188.035 146.341 188.096 146.41C188.158 146.478 188.234 146.532 188.32 146.566C188.405 146.601 188.498 146.615 188.59 146.608C188.682 146.6 188.771 146.572 188.85 146.525C189.003 146.413 189.122 146.259 189.191 146.082C189.26 145.905 189.277 145.712 189.24 145.525C189.16 145.156 189.009 144.806 188.795 144.495C188.941 144.577 189.104 144.624 189.271 144.633C189.438 144.642 189.605 144.614 189.759 144.549C189.913 144.484 190.051 144.384 190.161 144.258C190.271 144.132 190.35 143.983 190.394 143.821C190.437 143.659 190.444 143.49 190.412 143.326C190.38 143.162 190.311 143.007 190.21 142.873C190.11 142.739 189.98 142.631 189.831 142.555C189.682 142.479 189.517 142.438 189.35 142.435C189.825 142.366 190.276 142.178 190.66 141.89C190.847 141.739 190.983 141.535 191.049 141.304C191.116 141.073 191.109 140.827 191.03 140.6C190.981 140.494 190.907 140.401 190.815 140.329C190.723 140.257 190.616 140.208 190.501 140.186C190.387 140.163 190.268 140.168 190.156 140.2C190.044 140.232 189.941 140.291 189.855 140.37C190.114 140.226 190.34 140.03 190.52 139.795C190.608 139.676 190.659 139.533 190.665 139.385C190.671 139.237 190.633 139.091 190.555 138.965C190.437 138.841 190.283 138.758 190.115 138.727C189.947 138.697 189.774 138.72 189.62 138.795C189.315 138.942 189.019 139.109 188.735 139.295C188.375 139.486 187.971 139.579 187.564 139.564C187.156 139.549 186.76 139.427 186.415 139.21L184.55 140.75L187.965 146.17Z" fill="#263238"/>
<path d="M178 137.705C177.483 137.876 177.025 138.191 176.682 138.614C176.338 139.037 176.122 139.549 176.06 140.09C176.029 140.286 176.037 140.487 176.085 140.68C176.132 140.873 176.217 141.055 176.335 141.215C176.502 141.387 176.712 141.511 176.944 141.574C177.175 141.637 177.419 141.638 177.65 141.575C178.11 141.447 178.537 141.224 178.905 140.92C179.197 140.752 179.452 140.527 179.655 140.258C179.858 139.989 180.004 139.682 180.085 139.355C180.102 139.022 180.015 138.693 179.835 138.412C179.656 138.132 179.394 137.914 179.085 137.79C178.776 137.673 178.446 137.622 178.116 137.641C177.786 137.66 177.464 137.748 177.17 137.9" fill="#263238"/>
<path d="M179.615 146.94C179.452 147.604 179.172 148.233 178.79 148.8C178.598 149.083 178.349 149.321 178.058 149.501C177.768 149.681 177.443 149.799 177.105 149.845C176.766 149.883 176.424 149.808 176.132 149.633C175.839 149.458 175.612 149.192 175.485 148.875C175.429 149.069 175.323 149.246 175.177 149.386C175.031 149.526 174.851 149.626 174.655 149.675C174.457 149.718 174.25 149.696 174.065 149.613C173.88 149.531 173.726 149.391 173.625 149.215C173.535 149.034 173.515 148.827 173.568 148.632C173.622 148.437 173.745 148.269 173.915 148.16C173.515 148.385 173.015 148.615 172.62 148.38C172.45 148.273 172.326 148.108 172.27 147.915C172.065 147.285 172.455 146.625 172.89 146.125C173.325 145.625 173.835 145.125 173.94 144.485C173.971 143.954 173.891 143.423 173.705 142.925C173.542 142.356 173.518 141.756 173.635 141.175C173.695 140.884 173.815 140.608 173.987 140.365C174.159 140.122 174.38 139.918 174.635 139.765C174.89 139.615 175.184 139.545 175.479 139.562C175.775 139.578 176.059 139.682 176.295 139.86L176.38 140.71L179.63 146.94" fill="#263238"/>
<path d="M187.39 156.85C187.39 156.85 188.555 169.175 187.575 170.78C186.595 172.385 174.575 189.16 174.575 189.16H174.605C174.37 189.26 174.105 189.355 173.845 189.46C173.426 189.609 172.985 189.686 172.54 189.69C171.989 189.715 171.437 189.663 170.9 189.535C170.4 189.365 169.985 189.87 170.245 190.25C170.505 190.63 171.82 191.12 173.45 190.965C175.08 190.81 173.245 192.615 172.59 193.285C171.935 193.955 170.005 196.13 170.055 196.495C170.125 197.03 170.71 197.055 171.35 196.37C171.99 195.685 174.045 193.76 174.385 194.125C174.725 194.49 171.335 197.855 171.335 197.855C171.335 197.855 170.495 198.46 170.875 198.895C171.55 199.675 174.875 195.825 175.19 195.45C175.405 195.19 175.785 195.57 175.54 195.835C175.295 196.1 172.09 199.125 172.775 199.925C173.3 200.54 175.545 196.78 176.555 196.525C177.565 196.27 174.555 199.2 175.09 199.77C175.285 199.98 175.46 200.11 176.94 198.175C178.111 196.489 179.188 194.74 180.165 192.935C181.74 191.23 197.265 174.375 197.385 171.225C197.51 167.91 198.105 156.69 198.105 156.69L187.39 156.85Z" fill="#EB996E"/>
<path d="M168.875 211.71L168.73 207.135L177.3 206.815L177.58 213.505L177.05 213.56C174.69 213.78 165.05 214.51 163.435 214.09C161.655 213.62 168.875 211.71 168.875 211.71Z" fill="#1BAEA6"/>
<g opacity="0.4">
<path d="M165.35 212.77C165.35 212.77 162.825 213.6 163.16 214.01C163.495 214.42 173.275 214.045 177.58 213.51L177.555 213.32L166.15 213.85C166.15 213.85 165.85 212.77 165.35 212.77Z" fill="white"/>
</g>
<path d="M177.69 213.305H177.545L177.125 213.345L175.57 213.475C174.255 213.57 172.44 213.68 170.43 213.76C168.42 213.84 166.6 213.865 165.285 213.87H163.725H163.3C163.25 213.877 163.2 213.877 163.15 213.87H163.3H163.725L165.28 213.845C166.6 213.82 168.42 213.78 170.425 213.7C172.43 213.62 174.25 213.525 175.565 213.445L177.12 213.35H177.545L177.69 213.305Z" fill="#263238"/>
<path d="M166.155 214C166.079 213.744 165.973 213.497 165.84 213.265C165.677 213.054 165.491 212.861 165.285 212.69C165.552 212.773 165.78 212.951 165.925 213.19C166.104 213.42 166.187 213.71 166.155 214Z" fill="#263238"/>
<path d="M168.635 212.6C168.635 212.6 168.485 212.475 168.355 212.28C168.261 212.172 168.192 212.044 168.155 211.905C168.18 211.905 168.305 212.03 168.44 212.22C168.575 212.41 168.66 212.585 168.635 212.6Z" fill="#263238"/>
<path d="M169.315 212.205C169.315 212.205 169.16 212.145 169.005 212.015C168.85 211.885 168.745 211.77 168.765 211.745C168.785 211.72 168.92 211.81 169.075 211.935C169.23 212.06 169.335 212.185 169.315 212.205Z" fill="#263238"/>
<path d="M169.725 211.38C169.584 211.437 169.432 211.463 169.28 211.455C169.267 211.509 169.235 211.556 169.19 211.587C169.145 211.619 169.089 211.632 169.035 211.626C168.98 211.619 168.93 211.593 168.893 211.552C168.856 211.511 168.836 211.458 168.836 211.402C168.836 211.347 168.856 211.294 168.893 211.253C168.93 211.212 168.98 211.186 169.035 211.179C169.089 211.173 169.145 211.186 169.19 211.218C169.235 211.249 169.267 211.296 169.28 211.35C169.429 211.327 169.581 211.337 169.725 211.38Z" fill="#263238"/>
<path d="M169.855 210.805C169.708 210.908 169.534 210.966 169.355 210.97C169.187 210.999 169.014 210.982 168.855 210.92C169.02 210.888 169.187 210.87 169.355 210.865C169.519 210.829 169.687 210.809 169.855 210.805Z" fill="#263238"/>
<path d="M168.315 211.865C168.133 211.897 167.947 211.897 167.765 211.865C167.566 211.848 167.368 211.813 167.175 211.76C167.058 211.73 166.944 211.688 166.835 211.635C166.767 211.598 166.716 211.538 166.69 211.465C166.68 211.425 166.682 211.383 166.695 211.344C166.709 211.305 166.733 211.271 166.765 211.245C166.971 211.132 167.209 211.094 167.44 211.139C167.67 211.184 167.877 211.308 168.025 211.49C168.115 211.595 168.182 211.717 168.22 211.85C168.231 211.899 168.231 211.951 168.22 212C168.157 211.833 168.065 211.677 167.95 211.54C167.816 211.396 167.642 211.295 167.45 211.25C167.342 211.218 167.228 211.207 167.116 211.219C167.003 211.231 166.894 211.266 166.795 211.32C166.71 211.39 166.75 211.49 166.85 211.545C166.949 211.595 167.053 211.636 167.16 211.665C167.348 211.723 167.54 211.765 167.735 211.79C168.105 211.855 168.315 211.845 168.315 211.865Z" fill="#263238"/>
<path d="M168.175 211.895C168.104 211.782 168.078 211.647 168.1 211.515C168.109 211.371 168.155 211.231 168.235 211.11C168.277 211.026 168.34 210.953 168.418 210.901C168.496 210.848 168.586 210.817 168.68 210.81C168.736 210.82 168.786 210.851 168.819 210.896C168.853 210.942 168.867 210.999 168.86 211.055C168.853 211.144 168.824 211.23 168.775 211.305C168.708 211.43 168.626 211.546 168.53 211.65C168.36 211.825 168.23 211.895 168.22 211.885C168.21 211.875 168.325 211.78 168.475 211.6C168.559 211.496 168.631 211.384 168.69 211.265C168.76 211.145 168.805 210.93 168.665 210.915C168.525 210.9 168.395 211.045 168.315 211.16C168.242 211.27 168.192 211.395 168.17 211.525C168.16 211.648 168.162 211.772 168.175 211.895Z" fill="#263238"/>
<path d="M177.425 210.965C177.425 210.965 177.18 210.965 176.795 211.01C176.293 211.09 175.823 211.306 175.435 211.635C175.053 211.969 174.771 212.401 174.62 212.885C174.5 213.26 174.5 213.505 174.48 213.505C174.471 213.447 174.471 213.388 174.48 213.33C174.49 213.173 174.515 213.017 174.555 212.865C174.689 212.356 174.975 211.899 175.374 211.556C175.773 211.212 176.267 210.997 176.79 210.94C176.946 210.923 177.104 210.923 177.26 210.94C177.316 210.938 177.372 210.947 177.425 210.965Z" fill="#263238"/>
<path d="M176.405 207.435C176.486 208.017 176.533 208.603 176.545 209.19C176.593 209.777 176.605 210.367 176.58 210.955C176.502 210.371 176.455 209.784 176.44 209.195C176.392 208.61 176.38 208.022 176.405 207.435Z" fill="#263238"/>
<path d="M173.36 212.76C172.954 212.87 172.536 212.927 172.115 212.93C171.695 212.966 171.271 212.949 170.855 212.88C170.855 212.85 171.42 212.88 172.11 212.825C172.8 212.77 173.355 212.73 173.36 212.76Z" fill="#263238"/>
<path d="M175.04 212.695C175.04 212.695 174.995 212.815 174.945 212.945C174.895 213.075 174.865 213.19 174.835 213.19C174.805 213.19 174.785 213.055 174.835 212.905C174.885 212.755 175 212.675 175.04 212.695Z" fill="#263238"/>
<path d="M175.64 211.88C175.64 211.88 175.61 211.99 175.525 212.085C175.44 212.18 175.355 212.24 175.33 212.22C175.305 212.2 175.365 212.11 175.45 212.015C175.535 211.92 175.62 211.86 175.64 211.88Z" fill="#263238"/>
<path d="M176.535 211.5C176.535 211.53 176.415 211.535 176.29 211.585C176.165 211.635 176.075 211.705 176.055 211.685C176.035 211.665 176.1 211.545 176.255 211.485C176.41 211.425 176.54 211.46 176.535 211.5Z" fill="#263238"/>
<path d="M177.17 211.295C177.17 211.32 177.135 211.365 177.065 211.395C176.995 211.425 176.93 211.43 176.915 211.395C176.9 211.36 176.955 211.32 177.025 211.29C177.095 211.26 177.16 211.265 177.17 211.295Z" fill="#263238"/>
<g opacity="0.3">
<path d="M177.405 210.735L168.84 210.92L168.815 209.885L177.455 210.19L177.405 210.735Z" fill="black"/>
</g>
<path d="M201.135 180.67L174.045 180.3C174.045 180.3 166.5 181 166.5 190.82L167.455 210.155H179L178.215 191.625C178.86 191.625 187.6 191.915 187.6 191.915L201.135 180.67Z" fill="#263238"/>
<path d="M167.46 210.155C167.437 210.045 167.425 209.933 167.425 209.82C167.425 209.575 167.39 209.255 167.37 208.86L167.165 205.33C166.99 202.33 166.665 198.235 166.425 193.675C166.345 191.4 166.17 189.22 166.425 187.235C166.486 186.751 166.585 186.273 166.72 185.805C166.861 185.365 167.047 184.941 167.275 184.54C167.686 183.821 168.217 183.179 168.845 182.64C169.363 182.199 169.934 181.824 170.545 181.525C171.009 181.316 171.491 181.149 171.985 181.025L172.525 180.895L172.93 180.83C173.04 180.807 173.152 180.795 173.265 180.795C173.16 180.836 173.051 180.865 172.94 180.88L172.545 180.97L172.01 181.12C171.531 181.271 171.063 181.457 170.61 181.675C170.018 181.98 169.466 182.356 168.965 182.795C168.366 183.332 167.859 183.963 167.465 184.665C167.259 185.058 167.091 185.47 166.965 185.895C166.838 186.353 166.745 186.819 166.685 187.29C166.43 189.23 166.61 191.41 166.685 193.685C166.91 198.235 167.22 202.35 167.35 205.34C167.42 206.84 167.455 208.04 167.47 208.875C167.47 209.275 167.47 209.59 167.47 209.84C167.478 209.945 167.475 210.051 167.46 210.155Z" fill="#455A64"/>
<path d="M219.165 211.715L214.595 212.02L214 203.47L220.675 202.97L220.75 203.47C221.05 205.82 222.12 215.47 221.75 217.055C221.33 218.865 219.165 211.715 219.165 211.715Z" fill="#1BAEA6"/>
<g opacity="0.4">
<path d="M220.35 215.2C220.35 215.2 221.265 217.7 221.665 217.345C222.065 216.99 221.345 207.235 220.665 202.955H220.475L221.41 214.34C221.41 214.34 220.33 214.7 220.35 215.2Z" fill="white"/>
</g>
<path d="M220.445 202.85C220.461 202.897 220.471 202.946 220.475 202.995C220.475 203.12 220.51 203.26 220.53 203.415C220.58 203.835 220.64 204.355 220.71 204.965C220.855 206.275 221.03 208.085 221.175 210.09C221.32 212.095 221.42 213.91 221.47 215.23C221.47 215.84 221.505 216.365 221.52 216.785C221.52 216.945 221.52 217.085 221.52 217.21C221.526 217.26 221.526 217.31 221.52 217.36C221.517 217.31 221.517 217.26 221.52 217.21C221.52 217.085 221.52 216.945 221.495 216.79C221.495 216.365 221.445 215.845 221.41 215.23C221.34 213.915 221.235 212.1 221.09 210.095C220.945 208.09 220.775 206.28 220.65 204.97C220.595 204.36 220.545 203.84 220.505 203.42C220.505 203.26 220.48 203.125 220.465 202.995C220.45 202.865 220.445 202.85 220.445 202.85Z" fill="#263238"/>
<path d="M221.525 214.35C221.274 214.44 221.033 214.556 220.805 214.695C220.598 214.864 220.411 215.057 220.25 215.27C220.328 214.995 220.507 214.76 220.75 214.61C220.968 214.432 221.244 214.339 221.525 214.35Z" fill="#263238"/>
<path d="M220.06 211.92C220.06 211.945 219.94 212.075 219.755 212.215C219.57 212.355 219.4 212.45 219.38 212.425C219.36 212.4 219.505 212.27 219.69 212.13C219.798 212.036 219.924 211.964 220.06 211.92Z" fill="#263238"/>
<path d="M219.645 211.255C219.645 211.255 219.585 211.415 219.465 211.575C219.345 211.735 219.225 211.845 219.205 211.825C219.185 211.805 219.26 211.665 219.385 211.51C219.51 211.355 219.62 211.24 219.645 211.255Z" fill="#263238"/>
<path d="M218.805 210.88C218.835 210.88 218.875 211.075 218.895 211.32C218.929 211.468 218.929 211.622 218.895 211.77C218.865 211.77 218.825 211.575 218.805 211.33C218.785 211.085 218.775 210.88 218.805 210.88Z" fill="#263238"/>
<path d="M218.225 210.77C218.336 210.914 218.399 211.089 218.405 211.27C218.444 211.436 218.433 211.61 218.375 211.77C218.336 211.606 218.312 211.439 218.305 211.27C218.262 211.106 218.235 210.939 218.225 210.77Z" fill="#263238"/>
<path d="M219.335 212.265C219.382 212.444 219.396 212.631 219.375 212.815C219.364 213.016 219.334 213.215 219.285 213.41C219.261 213.528 219.224 213.644 219.175 213.755C219.142 213.822 219.085 213.876 219.015 213.905C218.975 213.917 218.931 213.917 218.891 213.905C218.85 213.894 218.814 213.871 218.785 213.84C218.664 213.638 218.619 213.4 218.656 213.168C218.694 212.935 218.812 212.724 218.99 212.57C219.092 212.477 219.213 212.407 219.345 212.365C219.391 212.344 219.44 212.336 219.49 212.34C219.324 212.406 219.171 212.503 219.04 212.625C218.902 212.761 218.808 212.935 218.77 213.125C218.741 213.234 218.734 213.348 218.75 213.46C218.767 213.572 218.806 213.679 218.865 213.775C218.935 213.86 219.035 213.82 219.085 213.715C219.131 213.614 219.168 213.508 219.195 213.4C219.246 213.21 219.281 213.016 219.3 212.82C219.335 212.5 219.32 212.27 219.335 212.265Z" fill="#263238"/>
<path d="M219.375 212.405C219.264 212.483 219.129 212.517 218.995 212.5C218.851 212.492 218.711 212.451 218.585 212.38C218.5 212.339 218.426 212.278 218.371 212.201C218.316 212.124 218.281 212.034 218.27 211.94C218.279 211.884 218.308 211.834 218.353 211.8C218.398 211.765 218.454 211.749 218.51 211.755C218.6 211.759 218.687 211.785 218.765 211.83C218.892 211.892 219.01 211.971 219.115 212.065C219.219 212.143 219.303 212.244 219.36 212.36C219.36 212.36 219.255 212.26 219.07 212.12C218.962 212.041 218.846 211.973 218.725 211.915C218.6 211.85 218.39 211.81 218.375 211.95C218.36 212.09 218.52 212.22 218.635 212.295C218.747 212.365 218.874 212.41 219.005 212.425C219.129 212.432 219.253 212.425 219.375 212.405Z" fill="#263238"/>
<path d="M218.12 203.195C218.12 203.195 218.12 203.44 218.19 203.825C218.285 204.323 218.515 204.784 218.855 205.16C219.204 205.53 219.646 205.797 220.135 205.935C220.515 206.035 220.76 206.03 220.76 206.05C220.702 206.06 220.643 206.06 220.585 206.05C220.428 206.047 220.272 206.027 220.12 205.99C219.607 205.872 219.141 205.602 218.784 205.215C218.427 204.828 218.196 204.341 218.12 203.82C218.102 203.664 218.102 203.506 218.12 203.35C218.112 203.299 218.112 203.246 218.12 203.195Z" fill="#263238"/>
<path d="M214.625 204.34C215.204 204.24 215.788 204.173 216.375 204.14C216.959 204.071 217.547 204.037 218.135 204.04C217.556 204.143 216.972 204.21 216.385 204.24C215.801 204.309 215.213 204.343 214.625 204.34Z" fill="#263238"/>
<path d="M220.055 207.195C220.18 207.597 220.252 208.014 220.27 208.435C220.328 208.853 220.328 209.277 220.27 209.695C220.24 209.695 220.235 209.135 220.175 208.445C220.115 207.755 220.025 207.205 220.055 207.195Z" fill="#263238"/>
<path d="M219.93 205.5C219.93 205.5 220.05 205.54 220.185 205.585C220.32 205.63 220.43 205.655 220.43 205.685C220.43 205.715 220.3 205.74 220.15 205.685C220 205.63 219.91 205.54 219.93 205.5Z" fill="#263238"/>
<path d="M219.095 204.945C219.095 204.945 219.21 204.975 219.305 205.055C219.4 205.135 219.465 205.22 219.445 205.245C219.425 205.27 219.335 205.215 219.235 205.135C219.135 205.055 219.08 204.97 219.095 204.945Z" fill="#263238"/>
<path d="M218.67 204.07C218.7 204.07 218.71 204.185 218.76 204.31C218.81 204.435 218.89 204.52 218.87 204.54C218.85 204.56 218.73 204.505 218.665 204.35C218.6 204.195 218.645 204.065 218.67 204.07Z" fill="#263238"/>
<path d="M218.455 203.44C218.455 203.44 218.53 203.47 218.56 203.54C218.59 203.61 218.6 203.675 218.56 203.69C218.52 203.705 218.485 203.655 218.45 203.585C218.415 203.515 218.43 203.45 218.455 203.44Z" fill="#263238"/>
<g opacity="0.3">
<path d="M217.89 203.22L218.375 211.775L217.345 211.84V203.195L217.89 203.22Z" fill="black"/>
</g>
<path d="M191.15 203.26C191.15 203.26 214.235 190.655 216.85 186.55C217.634 185.348 218.114 183.974 218.248 182.545C218.383 181.117 218.167 179.677 217.62 178.35L198.195 180.945L184.38 194.78C181.38 197.165 175.945 202.15 175.945 207.065C175.945 215.475 186.82 214.1 194.625 214.12C205.295 214.145 217.27 214.19 217.27 214.19L217.3 202.725L191.15 203.26Z" fill="#263238"/>
<path d="M185.665 205.66C186.639 205.356 187.589 204.984 188.51 204.545C189.46 204.172 190.381 203.73 191.265 203.22C190.291 203.524 189.34 203.898 188.42 204.34C187.47 204.711 186.549 205.152 185.665 205.66Z" fill="#455A64"/>
<path d="M187.5 202.85C188.158 202.98 188.829 203.039 189.5 203.025C190.176 203.082 190.857 203.067 191.53 202.98C190.871 202.851 190.201 202.79 189.53 202.8C188.854 202.739 188.173 202.756 187.5 202.85Z" fill="#455A64"/>
<path d="M196.675 182.89C196.611 182.976 196.539 183.057 196.46 183.13L195.8 183.78L193.345 186.145L185.18 193.875C183.585 195.375 182.035 196.79 180.68 198.125C179.472 199.288 178.405 200.588 177.5 202C176.899 202.956 176.456 204.003 176.19 205.1L176.075 205.6C176.075 205.75 176.04 205.875 176.02 205.99C176.014 206.097 175.993 206.203 175.96 206.305C175.948 206.199 175.948 206.091 175.96 205.985C175.96 205.87 175.96 205.74 175.99 205.59C176.02 205.44 176.045 205.26 176.08 205.06C176.312 203.937 176.737 202.863 177.335 201.885C178.227 200.444 179.289 199.116 180.5 197.93C181.845 196.575 183.39 195.17 185 193.66L193.22 186L195.72 183.7L196.415 183.08C196.497 183.01 196.584 182.946 196.675 182.89Z" fill="#455A64"/>
<path d="M189.745 157.845C189.257 158.108 188.72 158.266 188.167 158.308C187.615 158.35 187.06 158.275 186.538 158.089C186.016 157.903 185.539 157.609 185.138 157.227C184.737 156.845 184.421 156.382 184.21 155.87L183.33 153.725C183.33 153.725 180.33 154.785 178.83 152.05C177.98 150.515 176.775 147.895 175.885 145.89C175.517 145.056 175.37 144.142 175.458 143.235C175.545 142.327 175.865 141.458 176.385 140.71C178.83 137.625 180.77 138.14 184.655 138.77L185.235 138.865L191.49 152.74C191.899 153.654 191.947 154.689 191.623 155.636C191.299 156.584 190.628 157.373 189.745 157.845Z" fill="#FFBE9D"/>
<path d="M177.79 147.245C177.821 147.16 177.826 147.068 177.804 146.98C177.782 146.892 177.735 146.813 177.668 146.753C177.601 146.692 177.518 146.652 177.428 146.639C177.339 146.626 177.248 146.64 177.166 146.679C177.085 146.718 177.017 146.78 176.971 146.858C176.925 146.936 176.903 147.026 176.908 147.116C176.913 147.206 176.945 147.293 177 147.365C177.055 147.437 177.13 147.491 177.215 147.52C177.271 147.54 177.33 147.548 177.389 147.545C177.448 147.542 177.506 147.527 177.56 147.502C177.613 147.476 177.661 147.44 177.7 147.396C177.74 147.352 177.77 147.301 177.79 147.245Z" fill="#263238"/>
<path d="M176.56 146.785C176.63 146.81 176.785 146.455 177.165 146.25C177.545 146.045 177.925 146.09 177.94 146.02C177.955 145.95 177.86 145.925 177.69 145.9C177.465 145.867 177.236 145.911 177.04 146.025C176.839 146.138 176.681 146.313 176.59 146.525C176.5 146.67 176.53 146.775 176.56 146.785Z" fill="#263238"/>
<path d="M181.08 145C181.035 145.078 181.013 145.167 181.019 145.257C181.024 145.347 181.057 145.433 181.111 145.505C181.166 145.577 181.241 145.631 181.326 145.66C181.411 145.689 181.503 145.692 181.59 145.669C181.677 145.646 181.755 145.597 181.815 145.53C181.874 145.462 181.912 145.378 181.924 145.289C181.936 145.199 181.921 145.109 181.881 145.028C181.841 144.947 181.778 144.88 181.7 144.835C181.649 144.805 181.592 144.785 181.533 144.777C181.473 144.769 181.413 144.772 181.356 144.788C181.298 144.803 181.244 144.83 181.196 144.866C181.149 144.903 181.11 144.948 181.08 145Z" fill="#263238"/>
<path d="M180.7 144.91C180.77 144.935 180.925 144.58 181.305 144.375C181.685 144.17 182.065 144.215 182.08 144.145C182.095 144.075 182 144.05 181.83 144.025C181.606 143.992 181.376 144.036 181.18 144.15C180.979 144.263 180.821 144.438 180.73 144.65C180.66 144.795 180.67 144.9 180.7 144.91Z" fill="#263238"/>
<path d="M181 148.925C180.763 148.949 180.532 149.017 180.32 149.125C180.215 149.165 180.125 149.185 180.09 149.125C180.033 149.028 180.004 148.917 180.005 148.805C179.97 148.5 179.93 148.195 179.89 147.875C179.826 147.07 179.677 146.274 179.445 145.5C179.434 146.306 179.502 147.112 179.65 147.905C179.695 148.225 179.74 148.53 179.785 148.835C179.788 148.996 179.846 149.152 179.95 149.275C179.984 149.306 180.025 149.327 180.07 149.339C180.114 149.35 180.16 149.35 180.205 149.34C180.27 149.326 180.332 149.303 180.39 149.27C180.8 149.09 181.035 148.955 181 148.925Z" fill="#263238"/>
<path d="M183.305 153.69C184.588 153.029 185.645 152 186.34 150.735C186.34 150.735 186.56 153.17 183.685 154.405L183.305 153.69Z" fill="#EB996E"/>
<path d="M186.465 141.945C186.51 141.895 188.665 140.62 189.305 142.97C189.86 145.005 187.56 145.355 187.53 145.29C187.5 145.225 186.465 141.945 186.465 141.945Z" fill="#FFBE9D"/>
<path d="M187.945 144.095C187.945 144.095 187.985 144.095 188.055 144.095C188.148 144.098 188.239 144.066 188.31 144.005C188.405 143.879 188.466 143.729 188.485 143.572C188.504 143.415 188.482 143.256 188.42 143.11C188.364 142.941 188.27 142.787 188.145 142.66C188.104 142.606 188.051 142.563 187.99 142.534C187.929 142.505 187.862 142.492 187.795 142.495C187.753 142.5 187.714 142.519 187.684 142.549C187.654 142.579 187.635 142.618 187.63 142.66C187.63 142.725 187.63 142.76 187.63 142.765C187.63 142.77 187.575 142.765 187.565 142.665C187.556 142.613 187.567 142.56 187.595 142.515C187.634 142.454 187.695 142.411 187.765 142.395C187.851 142.38 187.938 142.389 188.02 142.418C188.102 142.448 188.174 142.499 188.23 142.565C188.374 142.704 188.482 142.875 188.545 143.065C188.615 143.232 188.634 143.415 188.601 143.592C188.568 143.77 188.485 143.934 188.36 144.065C188.314 144.1 188.261 144.123 188.205 144.135C188.149 144.146 188.091 144.144 188.035 144.13C187.965 144.145 187.94 144.105 187.945 144.095Z" fill="#EB996E"/>
<path d="M185.465 157.5C185.465 157.5 190.84 148.5 199.15 156.075C204.575 161.025 213.425 171.235 216.585 175.235C217.295 176.13 218.4 177.495 217.625 178.335C215.255 180.895 208.795 186.635 196.84 182.335L185.5 166.565C184.553 165.246 184.04 163.666 184.032 162.042C184.024 160.419 184.521 158.833 185.455 157.505L185.465 157.5Z" fill="#1BAEA6"/>
<path d="M192.355 153.215L190.84 150.735L183.1 156.895L184.545 159.22L192.355 153.215Z" fill="#1BAEA6"/>
<g opacity="0.3">
<path d="M192.025 153.535C192.025 153.535 185.93 158.805 185.845 158.715C185.76 158.625 183.41 156.935 183.41 156.935L185.555 158.14L192.025 153.535Z" fill="black"/>
</g>
<path d="M192.42 153.185C192.282 153.238 192.15 153.309 192.03 153.395C191.79 153.545 191.445 153.77 191.03 154.06C190.19 154.635 189.065 155.47 187.825 156.39C186.98 157.015 186.185 157.59 185.505 158.06H185.605C184.88 157.67 184.275 157.345 183.85 157.13C183.632 157.002 183.403 156.895 183.165 156.81C183.359 156.971 183.57 157.11 183.795 157.225C184.205 157.475 184.795 157.82 185.51 158.225L185.56 158.25L185.61 158.22C186.305 157.76 187.11 157.195 187.955 156.57L191.12 154.19L192.08 153.47C192.205 153.389 192.319 153.294 192.42 153.185Z" fill="#263238"/>
<path d="M159.375 176.845L157.905 176.25C157.042 176.013 156.205 175.692 155.405 175.29C155.005 175.1 154.641 174.841 154.33 174.525C153.926 174.149 153.576 173.718 153.29 173.245C153.259 173.138 153.193 173.044 153.103 172.978C153.013 172.913 152.903 172.879 152.791 172.883C152.68 172.887 152.573 172.928 152.487 173C152.402 173.072 152.343 173.171 152.32 173.28C152.235 173.735 152.82 175.015 154.055 176.065C155.29 177.115 152.735 177.065 151.8 177.065C150.865 177.065 147.96 177.215 147.73 177.505C147.395 177.925 147.79 178.36 148.73 178.335C149.67 178.31 152.485 178.435 152.46 178.93C152.435 179.425 147.665 179.37 147.665 179.37C147.665 179.37 146.665 179.195 146.6 179.765C146.52 180.8 151.6 180.475 152.1 180.43C152.435 180.4 152.43 180.93 152.065 180.955C151.7 180.98 147.305 180.795 147.21 181.845C147.14 182.65 151.395 181.62 152.285 182.16C153.175 182.7 148.98 182.615 148.945 183.385C148.945 183.675 148.945 183.885 151.38 183.59C153.815 183.295 160.425 181.37 160.425 181.37L159.315 176.765" fill="#FFBE9D"/>
<path d="M188.095 160.64C188.095 160.64 180.19 171.54 178.36 171.965C176.53 172.39 156.15 175.595 156.15 175.595L157.15 182.245C157.15 182.245 182.445 181.535 184.895 179.3C187.345 177.065 194.745 165.7 194.745 165.7L188.095 160.64Z" fill="#FFBE9D"/>
<path d="M182.53 179.11C182.53 179.11 182.585 179.2 182.74 179.295C182.969 179.42 183.23 179.474 183.49 179.45C183.686 179.433 183.876 179.372 184.045 179.271C184.214 179.169 184.358 179.03 184.465 178.865C184.603 178.663 184.683 178.426 184.694 178.182C184.705 177.937 184.649 177.694 184.53 177.48C184.406 177.246 184.199 177.068 183.95 176.98C183.714 176.904 183.457 176.924 183.235 177.035C183.143 177.084 183.061 177.151 182.996 177.232C182.931 177.314 182.883 177.408 182.855 177.509C182.827 177.609 182.821 177.715 182.835 177.818C182.85 177.921 182.886 178.021 182.94 178.11C183.022 178.222 183.138 178.304 183.271 178.343C183.403 178.383 183.545 178.378 183.675 178.33C183.85 178.255 183.895 178.145 183.885 178.14C183.875 178.135 183.805 178.205 183.645 178.245C183.539 178.271 183.427 178.264 183.326 178.224C183.224 178.185 183.136 178.115 183.075 178.025C183.039 177.955 183.016 177.879 183.009 177.801C183.003 177.723 183.011 177.644 183.035 177.569C183.059 177.495 183.097 177.425 183.148 177.365C183.198 177.305 183.26 177.256 183.33 177.22C183.503 177.14 183.7 177.129 183.88 177.19C184.074 177.26 184.236 177.398 184.335 177.58C184.422 177.746 184.467 177.93 184.468 178.117C184.469 178.304 184.426 178.488 184.341 178.655C184.256 178.822 184.133 178.966 183.982 179.075C183.83 179.185 183.655 179.257 183.47 179.285C183.146 179.317 182.82 179.256 182.53 179.11Z" fill="#EB996E"/>
<path d="M197.12 163.96L189.62 176.835L180.97 169.675C180.97 169.675 186.97 159.865 189.795 156.825L197.12 163.96Z" fill="#1BAEA6"/>
<path d="M175.61 188.54C176.305 188.79 176.912 189.235 177.361 189.821C177.81 190.407 178.08 191.109 178.14 191.845C177.688 190.492 176.798 189.329 175.61 188.54Z" fill="#455A64"/>
<path d="M184.565 143.115C184.619 143.217 184.696 143.305 184.79 143.371C184.883 143.438 184.991 143.482 185.105 143.5C185.33 143.545 185.56 143.54 185.79 143.585C186.148 143.653 186.471 143.842 186.705 144.12C186.798 144.247 186.904 144.364 187.02 144.47C187.08 144.521 187.155 144.553 187.233 144.561C187.312 144.569 187.391 144.553 187.46 144.515C187.66 144.365 187.57 144.055 187.46 143.83C186.99 142.9 186.523 141.97 186.06 141.04L183.41 141.615L184.55 142.94" fill="#263238"/>
<path d="M175.91 139.95C176.215 139.585 176.67 139.285 177.03 139.6C177.363 139.949 177.58 140.393 177.65 140.87C177.724 141.345 177.884 141.802 178.12 142.22C178.291 142.47 178.527 142.669 178.803 142.795C179.078 142.922 179.382 142.971 179.683 142.938C179.985 142.905 180.271 142.792 180.513 142.609C180.754 142.426 180.942 142.181 181.055 141.9C181.384 142.467 181.807 142.974 182.305 143.4C182.557 143.608 182.857 143.749 183.177 143.811C183.498 143.873 183.829 143.854 184.14 143.755C184.291 143.698 184.428 143.611 184.544 143.499C184.66 143.388 184.753 143.254 184.816 143.107C184.879 142.959 184.913 142.8 184.913 142.639C184.914 142.478 184.882 142.318 184.82 142.17C185.16 142.452 185.584 142.614 186.025 142.63C186.244 142.636 186.46 142.579 186.646 142.464C186.833 142.349 186.982 142.183 187.075 141.985C187.114 141.883 187.133 141.775 187.129 141.666C187.124 141.557 187.098 141.451 187.051 141.352C187.005 141.254 186.938 141.166 186.856 141.095C186.774 141.023 186.679 140.968 186.575 140.935C186.819 141.096 187.106 141.178 187.398 141.172C187.69 141.166 187.973 141.071 188.21 140.9C188.439 140.719 188.597 140.462 188.654 140.175C188.712 139.889 188.666 139.591 188.525 139.335C188.367 139.095 188.12 138.928 187.839 138.87C187.558 138.812 187.265 138.868 187.025 139.025C187.37 138.854 187.662 138.593 187.87 138.27C187.968 138.105 187.998 137.909 187.954 137.723C187.911 137.536 187.796 137.374 187.635 137.27C187.22 137.08 186.775 137.465 186.32 137.55C185.58 137.685 184.975 137.02 184.38 136.55C183.825 136.157 183.194 135.885 182.527 135.752C181.861 135.618 181.174 135.626 180.51 135.775C179.181 136.087 177.956 136.738 176.955 137.665C176.285 138.25 175.64 139.1 175.91 139.945" fill="#263238"/>
<path d="M177.5 145.34C177.5 145.555 177.295 145.74 177.045 145.84C176.939 145.897 176.82 145.922 176.7 145.913C176.581 145.904 176.466 145.862 176.37 145.79C176.225 145.635 176.37 145.29 176.76 145.115C177.15 144.94 177.5 145.125 177.5 145.34Z" fill="#263238"/>
<path d="M181.44 143.44C181.395 143.655 181.13 143.79 180.865 143.915C180.6 144.04 180.315 144.14 180.125 144.025C180.078 143.979 180.047 143.919 180.038 143.854C180.029 143.788 180.042 143.722 180.075 143.665C180.168 143.458 180.336 143.293 180.545 143.205C180.751 143.105 180.987 143.089 181.205 143.16C181.37 143.225 181.45 143.335 181.44 143.44Z" fill="#263238"/>
<path d="M182.585 148.05C182.65 148.025 182.82 148.55 182.585 149.1C182.35 149.65 181.85 149.89 181.825 149.825C181.8 149.76 182.135 149.485 182.325 148.995C182.515 148.505 182.5 148.06 182.585 148.05Z" fill="#263238"/>
<path d="M188.355 140.06C188.355 140.06 188.32 140.09 188.24 140.13C188.119 140.18 187.991 140.207 187.86 140.21C187.612 140.218 187.366 140.155 187.152 140.03C186.938 139.904 186.764 139.72 186.65 139.5L186.785 139.53C186.334 139.943 185.747 140.176 185.135 140.185C184.761 140.199 184.388 140.132 184.043 139.988C183.698 139.843 183.388 139.626 183.135 139.35L183.355 139.26C183.355 139.43 183.312 139.597 183.23 139.746C183.148 139.895 183.029 140.02 182.885 140.11C182.6 140.302 182.256 140.385 181.915 140.345C181.38 140.231 180.901 139.938 180.555 139.515C180.21 139.14 179.935 138.75 179.615 138.445C179.333 138.143 178.968 137.932 178.565 137.84C178.211 137.782 177.849 137.827 177.52 137.97C177.031 138.189 176.593 138.507 176.235 138.905C176.103 139.057 175.96 139.197 175.805 139.325C175.903 139.145 176.022 138.977 176.16 138.825C176.504 138.386 176.943 138.032 177.445 137.79C177.807 137.622 178.209 137.561 178.605 137.615C179.053 137.705 179.463 137.93 179.78 138.26C180.125 138.585 180.41 138.975 180.74 139.33C181.048 139.705 181.472 139.967 181.945 140.075C182.495 140.155 183.13 139.765 183.105 139.26V138.895L183.345 139.175C183.577 139.427 183.859 139.626 184.174 139.761C184.488 139.895 184.828 139.961 185.17 139.955C185.732 139.955 186.275 139.757 186.705 139.395L186.795 139.315L186.84 139.42C186.936 139.621 187.085 139.791 187.271 139.914C187.457 140.036 187.673 140.106 187.895 140.115C188.05 140.11 188.203 140.091 188.355 140.06Z" fill="#455A64"/>
<path d="M198.375 161.97C198.35 161.97 198.375 161.67 198.26 161.15C198.127 160.41 197.85 159.704 197.445 159.07C196.855 158.129 195.992 157.391 194.97 156.955C193.713 156.436 192.311 156.386 191.02 156.815C190.363 157.044 189.75 157.382 189.205 157.815C188.692 158.223 188.222 158.684 187.805 159.19C187.105 160.064 186.47 160.988 185.905 161.955C185.405 162.77 184.995 163.455 184.69 163.88C184.545 164.105 184.42 164.27 184.335 164.38C184.25 164.49 184.205 164.55 184.195 164.545C184.314 164.294 184.451 164.051 184.605 163.82C184.895 163.32 185.28 162.655 185.745 161.855C186.295 160.866 186.922 159.921 187.62 159.03C188.475 157.906 189.624 157.041 190.94 156.53C192.289 156.079 193.757 156.137 195.065 156.695C195.943 157.086 196.707 157.696 197.283 158.465C197.86 159.234 198.23 160.137 198.36 161.09C198.389 161.297 198.4 161.506 198.395 161.715C198.405 161.801 198.398 161.887 198.375 161.97Z" fill="#263238"/>
<path d="M196.17 166.68C196.167 166.601 196.148 166.524 196.113 166.454C196.079 166.383 196.03 166.321 195.97 166.27C195.826 166.158 195.652 166.092 195.47 166.08C195.204 166.074 194.941 166.026 194.69 165.94C194.383 165.767 194.119 165.527 193.915 165.24C193.712 164.952 193.575 164.622 193.515 164.275C193.41 163.905 193.33 163.52 193.19 163.145C193.071 162.76 192.835 162.421 192.515 162.175C192.178 161.951 191.789 161.815 191.385 161.78C190.996 161.753 190.605 161.753 190.215 161.78C189.534 161.855 188.844 161.752 188.215 161.48C188.003 161.375 187.815 161.227 187.664 161.045C187.512 160.864 187.4 160.652 187.335 160.425C187.301 160.301 187.293 160.172 187.31 160.045C187.313 160.001 187.325 159.959 187.345 159.92C187.361 160.088 187.39 160.255 187.43 160.42C187.591 160.827 187.903 161.156 188.3 161.34C188.916 161.571 189.578 161.646 190.23 161.56C190.965 161.53 191.895 161.46 192.69 162.005C193.051 162.28 193.317 162.661 193.45 163.095C193.595 163.495 193.67 163.89 193.765 164.255C193.812 164.57 193.925 164.872 194.098 165.14C194.27 165.408 194.498 165.637 194.765 165.81C194.999 165.901 195.245 165.958 195.495 165.98C195.702 166.003 195.896 166.094 196.045 166.24C196.095 166.284 196.136 166.338 196.165 166.398C196.195 166.458 196.212 166.523 196.215 166.59C196.2 166.64 196.175 166.68 196.17 166.68Z" fill="#FAFAFA"/>
<path d="M193.185 170.955C193.155 170.955 193.145 170.79 192.97 170.555C192.711 170.246 192.361 170.026 191.97 169.925C191.47 169.76 190.83 169.78 190.125 169.55C189.745 169.432 189.412 169.196 189.175 168.875C188.94 168.54 188.81 168.15 188.595 167.835C188.155 167.195 187.365 166.98 186.695 166.835C186.063 166.732 185.457 166.502 184.915 166.16C184.554 165.901 184.301 165.519 184.205 165.085C184.165 164.927 184.179 164.759 184.245 164.61C184.27 164.61 184.245 164.78 184.305 165.06C184.422 165.444 184.668 165.776 185 166C185.533 166.304 186.118 166.506 186.725 166.595C187.097 166.668 187.461 166.779 187.81 166.925C188.202 167.086 188.54 167.355 188.785 167.7C189.025 168.06 189.15 168.445 189.36 168.735C189.562 169.018 189.85 169.228 190.18 169.335C190.825 169.56 191.48 169.565 192.005 169.76C192.429 169.883 192.798 170.147 193.05 170.51C193.114 170.612 193.156 170.726 193.175 170.845C193.19 170.915 193.195 170.955 193.185 170.955Z" fill="#FAFAFA"/>
<path d="M207 164.18C207.013 164.249 207.013 164.321 207 164.39C206.955 164.586 206.881 164.775 206.78 164.95C206.374 165.574 205.788 166.061 205.1 166.345C204.68 166.54 204.205 166.715 203.715 166.93C203.193 167.142 202.717 167.451 202.31 167.84C201.46 168.68 201.045 169.98 200.445 171.255C200.17 171.898 199.777 172.483 199.285 172.98C199.165 173.1 199.033 173.208 198.89 173.3C198.757 173.402 198.615 173.491 198.465 173.565C198.175 173.703 197.869 173.807 197.555 173.875C196.34 174.135 195.235 174.07 194.37 174.345C193.674 174.512 193.072 174.947 192.695 175.555C192.572 175.787 192.486 176.037 192.44 176.295C192.44 176.295 192.44 176.22 192.44 176.085C192.461 175.884 192.518 175.689 192.61 175.51C192.79 175.182 193.034 174.894 193.328 174.663C193.621 174.432 193.959 174.262 194.32 174.165C195.22 173.86 196.345 173.905 197.505 173.64C197.801 173.574 198.088 173.473 198.36 173.34C198.498 173.271 198.628 173.189 198.75 173.095C198.883 173.009 199.005 172.908 199.115 172.795C199.581 172.316 199.954 171.755 200.215 171.14C200.805 169.895 201.215 168.56 202.145 167.67C202.578 167.262 203.088 166.944 203.645 166.735C204.145 166.52 204.62 166.36 205.035 166.175C205.704 165.917 206.285 165.473 206.71 164.895C206.837 164.67 206.934 164.43 207 164.18Z" fill="#FAFAFA"/>
<path d="M212.025 170.365C211.988 170.648 211.878 170.917 211.705 171.145C211.241 171.77 210.608 172.251 209.88 172.53C208.99 172.94 207.83 173.125 206.73 173.72C206.156 174.022 205.682 174.484 205.365 175.05C205.049 175.684 204.769 176.335 204.525 177C203.967 178.307 203.001 179.399 201.77 180.11C200.77 180.688 199.63 180.981 198.475 180.955C197.705 180.942 196.944 180.786 196.23 180.495C196.037 180.416 195.848 180.326 195.665 180.225C195.54 180.15 195.48 180.11 195.485 180.1C195.49 180.09 195.76 180.22 196.265 180.4C196.977 180.647 197.726 180.772 198.48 180.77C199.595 180.769 200.689 180.47 201.65 179.905C202.825 179.21 203.748 178.159 204.285 176.905C204.531 176.222 204.818 175.554 205.145 174.905C205.49 174.304 206 173.814 206.615 173.495C207.775 172.885 208.935 172.725 209.81 172.345C210.516 172.088 211.142 171.65 211.625 171.075C211.782 170.852 211.916 170.614 212.025 170.365Z" fill="#FAFAFA"/>
<path d="M216.56 175.255C215.844 175.575 215.172 175.985 214.56 176.475C213.91 177.024 213.372 177.693 212.975 178.445C212.745 178.86 212.585 179.34 212.375 179.835C212.18 180.374 211.832 180.845 211.375 181.19C210.888 181.484 210.338 181.655 209.77 181.69C209.235 181.75 208.73 181.765 208.27 181.845C207.43 181.978 206.614 182.236 205.85 182.61C205.146 182.973 204.476 183.4 203.85 183.885C203.979 183.713 204.131 183.558 204.3 183.425C204.747 183.039 205.235 182.704 205.755 182.425C206.529 182.019 207.363 181.737 208.225 181.59C208.725 181.5 209.225 181.48 209.725 181.415C210.255 181.382 210.769 181.222 211.225 180.95C211.642 180.632 211.959 180.202 212.14 179.71C212.345 179.21 212.52 178.74 212.76 178.305C213.18 177.532 213.752 176.852 214.44 176.305C214.896 175.938 215.401 175.637 215.94 175.41C216.135 175.335 216.285 175.285 216.39 175.255C216.495 175.225 216.555 175.245 216.56 175.255Z" fill="#FAFAFA"/>
<path d="M196.5 166C196.927 165.844 197.315 165.598 197.64 165.28C197.98 164.925 198.252 164.509 198.44 164.055C198.666 163.489 198.845 162.905 198.975 162.31C199.114 161.7 199.313 161.105 199.57 160.535C199.794 160.065 200.114 159.648 200.51 159.31C200.774 159.075 201.089 158.904 201.43 158.81C201.553 158.77 201.683 158.76 201.81 158.78C201.375 158.911 200.973 159.133 200.63 159.43C200.275 159.771 199.989 160.177 199.785 160.625C199.547 161.185 199.361 161.766 199.23 162.36C199.092 162.969 198.901 163.564 198.66 164.14C198.449 164.614 198.147 165.043 197.77 165.4C197.514 165.641 197.209 165.824 196.875 165.935C196.758 165.991 196.629 166.013 196.5 166Z" fill="#FAFAFA"/>
<path d="M195.055 157C195.157 156.468 195.404 155.975 195.77 155.575C196.135 155.175 196.604 154.884 197.125 154.735C197.155 154.805 196.525 155.12 195.96 155.735C195.395 156.35 195.125 157.045 195.055 157Z" fill="#FAFAFA"/>
<path d="M191.545 151.88C191.32 152.295 191.057 152.688 190.76 153.055C190.468 153.478 190.154 153.885 189.82 154.275C189.607 154.512 189.349 154.704 189.06 154.84C188.742 154.964 188.401 155.02 188.06 155.005C187.742 154.982 187.423 154.982 187.105 155.005C186.823 155.046 186.55 155.138 186.3 155.275C185.871 155.514 185.534 155.889 185.34 156.34C185.174 156.77 185.104 157.23 185.135 157.69C185.071 157.575 185.037 157.446 185.035 157.315C184.996 156.961 185.042 156.602 185.17 156.27C185.354 155.766 185.708 155.342 186.17 155.07C186.443 154.907 186.745 154.8 187.06 154.755C187.392 154.721 187.727 154.713 188.06 154.73C188.356 154.757 188.653 154.713 188.929 154.603C189.204 154.492 189.45 154.318 189.645 154.095C190.03 153.69 190.335 153.26 190.615 152.925C190.891 152.548 191.203 152.198 191.545 151.88Z" fill="#FAFAFA"/>
<g opacity="0.2">
<path d="M198.185 163.585L194.39 178.96L191.07 174.335L198.185 163.585Z" fill="black"/>
</g>
<path d="M214.645 214.2C214.575 214.2 214.515 211.645 214.515 208.495C214.515 205.345 214.575 202.785 214.645 202.785C214.715 202.785 214.775 205.34 214.775 208.495C214.775 211.65 214.72 214.2 214.645 214.2Z" fill="#455A64"/>
<path d="M45.5952 185.865C46.3497 185.923 47.0847 186.133 47.7559 186.483C48.427 186.833 49.0204 187.315 49.5002 187.9C50.4525 189.076 51.1229 190.455 51.4602 191.93C52.1902 194.755 51.7002 198.075 50.8702 200.87C47.8302 199.755 45.9802 196.485 45.1402 194.77C43.8202 192.055 43.0802 186.35 45.6052 185.865" fill="#1BAEA6"/>
<path d="M55.2202 204.325C54.7681 203.611 54.5128 202.79 54.4803 201.945C54.4479 201.1 54.6393 200.262 55.0352 199.515C55.4445 198.777 55.9966 198.128 56.6593 197.605C57.322 197.082 58.082 196.696 58.8952 196.47C59.2569 196.327 59.6454 196.264 60.0339 196.286C60.4223 196.307 60.8015 196.413 61.1452 196.595C61.4351 196.818 61.66 197.115 61.7963 197.454C61.9326 197.794 61.9754 198.163 61.9202 198.525C61.8004 199.248 61.4916 199.926 61.0252 200.49C59.5252 202.49 57.7102 204.14 55.2202 204.325Z" fill="#1BAEA6"/>
<path d="M55.5 213.74C55.4385 213.548 55.3933 213.35 55.365 213.15C55.29 212.735 55.19 212.195 55.065 211.545C54.683 209.773 54.5868 207.952 54.78 206.15C55.002 204.33 55.7083 202.604 56.825 201.15C57.1659 200.719 57.557 200.329 57.99 199.99C58.1056 199.897 58.2275 199.811 58.355 199.735C58.397 199.704 58.4423 199.677 58.49 199.655C57.9237 200.132 57.4046 200.663 56.94 201.24C55.885 202.689 55.2142 204.382 54.99 206.16C54.7999 207.941 54.8758 209.741 55.215 211.5C55.32 212.18 55.4 212.735 55.45 213.12C55.4861 213.325 55.5028 213.532 55.5 213.74Z" fill="#263238"/>
<path d="M46.5452 190.16C46.5922 190.233 46.6323 190.31 46.6652 190.39L46.9702 191.075C47.2352 191.665 47.6102 192.53 48.0602 193.6C48.9602 195.74 50.1602 198.715 51.4152 202.03C52.6702 205.345 53.7352 208.375 54.4752 210.58C54.8452 211.68 55.1402 212.58 55.3302 213.19C55.4202 213.485 55.4952 213.72 55.5502 213.905C55.5798 213.988 55.6016 214.073 55.6152 214.16C55.5734 214.083 55.5383 214.003 55.5102 213.92L55.2552 213.22C55.0302 212.58 54.7152 211.72 54.3352 210.625C53.5552 208.44 52.4702 205.42 51.2152 202.125C49.9602 198.83 48.7852 195.83 47.9202 193.675C47.4952 192.62 47.1502 191.75 46.9202 191.125L46.6502 190.43C46.6019 190.346 46.5665 190.255 46.5452 190.16Z" fill="#263238"/>
<path d="M51.9051 207.5C51.005 205.962 49.7512 204.661 48.2477 203.704C46.7443 202.748 45.0345 202.164 43.2601 202C42.3551 201.93 41.2601 202.07 40.8651 202.875C40.4701 203.68 40.9851 204.65 41.5901 205.32C42.8857 206.697 44.5597 207.66 46.4013 208.088C48.243 208.516 50.17 208.39 51.9401 207.725" fill="#1BAEA6"/>
<path d="M44.6101 204.425C44.7989 204.422 44.9878 204.432 45.1751 204.455C45.3951 204.466 45.614 204.493 45.8301 204.535C46.0851 204.585 46.3801 204.615 46.6951 204.705C47.0337 204.785 47.3675 204.883 47.6951 205C48.0838 205.125 48.4645 205.274 48.8351 205.445C50.5549 206.215 52.059 207.397 53.2151 208.885C53.4638 209.206 53.6957 209.54 53.9101 209.885C54.0922 210.188 54.2591 210.5 54.4101 210.82C54.5651 211.11 54.6601 211.39 54.7601 211.625C54.8479 211.83 54.9214 212.04 54.9801 212.255C55.0465 212.431 55.0935 212.614 55.1201 212.8C55.0751 212.8 54.8651 212.035 54.2751 210.89C54.1156 210.577 53.9386 210.273 53.7451 209.98C53.5305 209.634 53.2968 209.3 53.0451 208.98C52.4665 208.262 51.8109 207.61 51.0901 207.035C50.3588 206.475 49.5713 205.992 48.7401 205.595C48.3758 205.422 48.0019 205.27 47.6201 205.14C47.2924 205.018 46.9586 204.913 46.6201 204.825C45.4101 204.525 44.6051 204.5 44.6101 204.425Z" fill="#263238"/>
</svg>
