<svg xmlns="http://www.w3.org/2000/svg" viewBox="0 0 750 500"><g id="freepik--background-complete--inject-108"><path d="M418.11,61.44c-2.91-.37-5.26-.94-5.25-1.27s2.43-.63,5.36-.66,5.28.53,5.24,1.27S421,61.81,418.11,61.44Z" style="fill:#e0e0e0"></path><path d="M413,71.61c-2-2.15-3.43-4.1-3.2-4.34s2.26,1.07,4.53,2.93,3.7,3.81,3.2,4.35S415,73.76,413,71.61Z" style="fill:#e0e0e0"></path><path d="M402.54,76.13c-.14-2.93,0-5.34.35-5.38s1,2.28,1.58,5.16.38,5.29-.35,5.38S402.68,79.06,402.54,76.13Z" style="fill:#e0e0e0"></path><path d="M391.63,72.87c1.77-2.33,3.45-4.08,3.72-3.9s-.67,2.41-2.11,5-3.11,4.3-3.72,3.9S389.85,75.2,391.63,72.87Z" style="fill:#e0e0e0"></path><path d="M385.36,63.37c2.86-.65,5.27-.92,5.36-.6s-2.06,1.42-4.8,2.45-5.15,1.31-5.36.6S382.5,64,385.36,63.37Z" style="fill:#e0e0e0"></path><path d="M386.67,52.05c2.6,1.34,4.62,2.68,4.49,3s-2.49-.24-5.26-1.21-4.78-2.31-4.49-3S384.06,50.71,386.67,52.05Z" style="fill:#e0e0e0"></path><path d="M394.94,44.22c1.14,2.7,1.82,5,1.53,5.18s-1.76-1.79-3.26-4.3-2.19-4.84-1.53-5.18S393.8,41.52,394.94,44.22Z" style="fill:#e0e0e0"></path><path d="M406.31,43.54c-.86,2.8-1.83,5-2.15,5s-.2-2.5.27-5.39,1.43-5.12,2.15-5S407.17,40.74,406.31,43.54Z" style="fill:#e0e0e0"></path><path d="M415.46,50.32c-2.46,1.59-4.63,2.68-4.83,2.41s1.45-2,3.67-4,4.38-3,4.83-2.4S417.92,48.73,415.46,50.32Z" style="fill:#e0e0e0"></path><path d="M71.51,151.22c-1.9-.24-3.44-.62-3.43-.84s1.58-.41,3.51-.43,3.46.35,3.43.83S73.42,151.46,71.51,151.22Z" style="fill:#e0e0e0"></path><path d="M68.17,157.88c-1.31-1.41-2.25-2.69-2.1-2.85s1.48.71,3,1.93,2.42,2.49,2.09,2.84S69.47,159.29,68.17,157.88Z" style="fill:#e0e0e0"></path><path d="M61.32,160.84c-.1-1.92,0-3.5.22-3.53s.68,1.5,1,3.38.25,3.47-.23,3.53S61.41,162.76,61.32,160.84Z" style="fill:#e0e0e0"></path><path d="M54.16,158.71c1.17-1.53,2.26-2.68,2.45-2.56s-.44,1.58-1.39,3.25-2,2.82-2.44,2.56S53,160.23,54.16,158.71Z" style="fill:#e0e0e0"></path><path d="M50.06,152.48c1.87-.42,3.45-.6,3.51-.39s-1.35.93-3.15,1.61-3.37.85-3.51.39S48.19,152.91,50.06,152.48Z" style="fill:#e0e0e0"></path><path d="M50.92,145.07c1.7.88,3,1.75,2.94,2s-1.63-.15-3.45-.79-3.13-1.51-2.94-2S49.21,144.19,50.92,145.07Z" style="fill:#e0e0e0"></path><path d="M56.33,139.94c.75,1.77,1.2,3.29,1,3.39s-1.16-1.17-2.14-2.82-1.43-3.17-1-3.39S55.59,138.17,56.33,139.94Z" style="fill:#e0e0e0"></path><path d="M63.78,139.49c-.56,1.83-1.19,3.29-1.41,3.24s-.13-1.63.18-3.53.94-3.35,1.41-3.24S64.35,137.65,63.78,139.49Z" style="fill:#e0e0e0"></path><path d="M69.78,143.93c-1.61,1-3,1.75-3.17,1.58s1-1.34,2.41-2.59,2.87-2,3.16-1.58S71.39,142.89,69.78,143.93Z" style="fill:#e0e0e0"></path><path d="M502.25,82.37c-1.82-.23-3.3-.58-3.29-.79s1.52-.4,3.36-.42,3.32.34,3.3.8S504.08,82.61,502.25,82.37Z" style="fill:#e0e0e0"></path><path d="M499,88.77c-1.25-1.36-2.15-2.58-2-2.73s1.42.67,2.84,1.84,2.32,2.39,2,2.73S500.29,90.12,499,88.77Z" style="fill:#e0e0e0"></path><path d="M492.47,91.6c-.08-1.84,0-3.35.22-3.38s.66,1.43,1,3.24.24,3.33-.22,3.39S492.56,93.44,492.47,91.6Z" style="fill:#e0e0e0"></path><path d="M485.62,89.56c1.11-1.47,2.16-2.57,2.34-2.45s-.42,1.51-1.33,3.11-1.95,2.71-2.34,2.46S484.5,91,485.62,89.56Z" style="fill:#e0e0e0"></path><path d="M481.68,83.59c1.8-.41,3.31-.58,3.37-.38s-1.3.89-3,1.54-3.23.82-3.37.38S479.89,84,481.68,83.59Z" style="fill:#e0e0e0"></path><path d="M482.5,76.48c1.64.84,2.91,1.68,2.83,1.87s-1.57-.15-3.31-.76-3-1.45-2.82-1.87S480.87,75.64,482.5,76.48Z" style="fill:#e0e0e0"></path><path d="M487.7,71.56c.71,1.7,1.15,3.15,1,3.25s-1.11-1.12-2.05-2.7-1.37-3-1-3.25S487,69.86,487.7,71.56Z" style="fill:#e0e0e0"></path><path d="M494.84,71.13c-.54,1.76-1.15,3.15-1.35,3.11s-.13-1.57.17-3.39.9-3.21,1.35-3.11S495.38,69.37,494.84,71.13Z" style="fill:#e0e0e0"></path><path d="M500.59,75.39c-1.55,1-2.91,1.68-3,1.51s.91-1.28,2.3-2.48,2.76-1.88,3-1.51S502.13,74.39,500.59,75.39Z" style="fill:#e0e0e0"></path><path d="M268.71,123.77c-1.82-.3-3.29-.68-3.28-.86s1.53-.35,3.37-.37,3.32.36,3.28.86S270.53,124.07,268.71,123.77Z" style="fill:#e0e0e0"></path><path d="M264.68,129.69c-.9-1.61-1.52-3-1.37-3.1s1.22,1,2.39,2.4,1.78,2.82,1.37,3.1S265.58,131.29,264.68,129.69Z" style="fill:#e0e0e0"></path><path d="M257.54,130.23a9.39,9.39,0,0,1,1.57-3,9.7,9.7,0,0,1-.39,3.37c-.38,1.8-1.09,3.16-1.57,3S256.84,131.94,257.54,130.23Z" style="fill:#e0e0e0"></path><path d="M252.66,125c1.76-.52,3.26-.82,3.33-.65a9.65,9.65,0,0,1-2.88,1.8c-1.64.82-3.14,1.12-3.33.65S250.89,125.51,252.66,125Z" style="fill:#e0e0e0"></path><path d="M253.71,117.91a9.28,9.28,0,0,1,2.58,2.19c-.08.16-1.52-.35-3.19-1.13s-2.84-1.75-2.59-2.19S252.2,116.85,253.71,117.91Z" style="fill:#e0e0e0"></path><path d="M259.9,114.31a9.49,9.49,0,0,1-.1,3.39c-.18,0-.68-1.42-1.12-3.21s-.39-3.31.11-3.38S259.78,112.47,259.9,114.31Z" style="fill:#e0e0e0"></path><path d="M266.58,116.9c-1.37,1.24-2.58,2.16-2.72,2s.69-1.42,1.81-2.88,2.34-2.37,2.71-2S267.94,115.66,266.58,116.9Z" style="fill:#e0e0e0"></path><path d="M230.82,63.5c-2.44-.4-4.42-.92-4.4-1.16s2.05-.46,4.53-.5,4.45.49,4.4,1.16S233.26,63.89,230.82,63.5Z" style="fill:#e0e0e0"></path><path d="M225.41,71.45c-1.21-2.16-2-4-1.85-4.17s1.64,1.32,3.21,3.23,2.4,3.78,1.85,4.16S226.62,73.6,225.41,71.45Z" style="fill:#e0e0e0"></path><path d="M215.82,72.17c.93-2.29,1.88-4.1,2.1-4s0,2.1-.52,4.52-1.46,4.23-2.1,4S214.88,74.46,215.82,72.17Z" style="fill:#e0e0e0"></path><path d="M209.26,65.13c2.38-.7,4.39-1.09,4.47-.87s-1.65,1.3-3.86,2.41-4.22,1.51-4.47.88S206.89,65.83,209.26,65.13Z" style="fill:#e0e0e0"></path><path d="M210.68,55.62c2,1.42,3.59,2.74,3.47,3s-2.05-.48-4.3-1.51-3.8-2.37-3.47-3S208.65,54.2,210.68,55.62Z" style="fill:#e0e0e0"></path><path d="M219,50.79c.16,2.47.09,4.51-.14,4.55s-.91-1.9-1.5-4.3-.53-4.45.14-4.55S218.83,48.32,219,50.79Z" style="fill:#e0e0e0"></path><path d="M228,54.27c-1.83,1.66-3.47,2.89-3.65,2.73s.92-1.89,2.43-3.85,3.14-3.19,3.64-2.74S229.78,52.6,228,54.27Z" style="fill:#e0e0e0"></path><path d="M678.86,91.32a9.7,9.7,0,0,1-3.28-.86c0-.18,1.53-.35,3.37-.37s3.32.36,3.28.86S680.68,91.61,678.86,91.32Z" style="fill:#e0e0e0"></path><path d="M674.83,97.24c-.9-1.61-1.52-3-1.37-3.1s1.22,1,2.39,2.4,1.78,2.82,1.37,3.1S675.73,98.84,674.83,97.24Z" style="fill:#e0e0e0"></path><path d="M667.69,97.78a9.25,9.25,0,0,1,1.57-3,9.72,9.72,0,0,1-.39,3.37c-.38,1.8-1.09,3.15-1.57,3S667,99.48,667.69,97.78Z" style="fill:#e0e0e0"></path><path d="M662.81,92.54c1.77-.53,3.26-.82,3.33-.65a9.51,9.51,0,0,1-2.88,1.79c-1.64.83-3.14,1.12-3.32.65S661,93.06,662.81,92.54Z" style="fill:#e0e0e0"></path><path d="M663.86,85.45a9.74,9.74,0,0,1,2.59,2.2,9.3,9.3,0,0,1-3.2-1.13c-1.67-.77-2.83-1.76-2.58-2.19S662.35,84.4,663.86,85.45Z" style="fill:#e0e0e0"></path><path d="M670.05,81.86a9.42,9.42,0,0,1-.1,3.38c-.18,0-.68-1.41-1.12-3.2s-.39-3.31.11-3.39S669.93,80,670.05,81.86Z" style="fill:#e0e0e0"></path><path d="M676.73,84.45c-1.36,1.24-2.58,2.15-2.72,2s.69-1.41,1.81-2.87,2.34-2.37,2.71-2S678.09,83.21,676.73,84.45Z" style="fill:#e0e0e0"></path><path d="M117.21,64.58a18.55,18.55,0,0,1-3.26-.93,18.55,18.55,0,0,1,3.38-.23c1.84,0,3.31.38,3.26.93S119,65,117.21,64.58Z" style="fill:#e0e0e0"></path><path d="M112.36,68.94a18.8,18.8,0,0,1-.13-3.38,18,18,0,0,1,1.26,3.14c.61,1.74.67,3.27.13,3.39S112.52,70.78,112.36,68.94Z" style="fill:#e0e0e0"></path><path d="M106.7,65.68a18.71,18.71,0,0,1,3.18-1.17,18.59,18.59,0,0,1-2.6,2.18c-1.46,1.11-2.9,1.64-3.17,1.16S105,66.4,106.7,65.68Z" style="fill:#e0e0e0"></path><path d="M108.06,59.3A18.28,18.28,0,0,1,110.15,62a18.37,18.37,0,0,1-2.87-1.8c-1.51-1.06-2.46-2.25-2.09-2.66S106.85,57.91,108.06,59.3Z" style="fill:#e0e0e0"></path><path d="M114.55,58.61a17.94,17.94,0,0,1-1.89,2.81,18.08,18.08,0,0,1,.83-3.29c.53-1.76,1.38-3,1.88-2.81S115.5,57,114.55,58.61Z" style="fill:#e0e0e0"></path><path d="M606.19,53.9a17.92,17.92,0,0,1-3.26-.93,17.45,17.45,0,0,1,3.38-.23c1.84,0,3.31.38,3.25.92S608,54.31,606.19,53.9Z" style="fill:#f5f5f5"></path><path d="M601.34,58.26a17.77,17.77,0,0,1-.13-3.38A17.58,17.58,0,0,1,602.47,58c.61,1.74.67,3.27.13,3.38S601.49,60.1,601.34,58.26Z" style="fill:#f5f5f5"></path><path d="M595.68,55a18.71,18.71,0,0,1,3.18-1.17,18.59,18.59,0,0,1-2.6,2.18c-1.47,1.11-2.9,1.64-3.17,1.16S594,55.72,595.68,55Z" style="fill:#f5f5f5"></path><path d="M597,48.61a17.74,17.74,0,0,1,2.1,2.67,18.37,18.37,0,0,1-2.87-1.8c-1.51-1.06-2.46-2.25-2.09-2.66S595.83,47.22,597,48.61Z" style="fill:#f5f5f5"></path><path d="M603.52,47.92a18.13,18.13,0,0,1-1.88,2.82,18.08,18.08,0,0,1,.83-3.29c.53-1.76,1.38-3,1.88-2.81S604.47,46.35,603.52,47.92Z" style="fill:#f5f5f5"></path><path d="M47.85,73.65a17.46,17.46,0,0,1-3.26-.92A17,17,0,0,1,48,72.49c1.84,0,3.31.38,3.25.93S49.64,74.07,47.85,73.65Z" style="fill:#f5f5f5"></path><path d="M43,78a17.77,17.77,0,0,1-.13-3.38,17.58,17.58,0,0,1,1.26,3.14c.6,1.74.66,3.26.13,3.38S43.15,79.85,43,78Z" style="fill:#f5f5f5"></path><path d="M37.34,74.76a17.8,17.8,0,0,1,3.17-1.17,17.09,17.09,0,0,1-2.59,2.17c-1.47,1.11-2.9,1.64-3.18,1.17S35.64,75.47,37.34,74.76Z" style="fill:#f5f5f5"></path><path d="M38.69,68.37A17.48,17.48,0,0,1,40.78,71a17.33,17.33,0,0,1-2.86-1.8c-1.51-1-2.46-2.25-2.09-2.66S37.49,67,38.69,68.37Z" style="fill:#f5f5f5"></path><path d="M45.18,67.68a18,18,0,0,1-1.88,2.81,18.32,18.32,0,0,1,.82-3.28c.54-1.76,1.38-3,1.89-2.81S46.13,66.1,45.18,67.68Z" style="fill:#f5f5f5"></path><path d="M319.47,53.67a17,17,0,0,1-3.26-.93,18.44,18.44,0,0,1,3.38-.23c1.84,0,3.31.38,3.25.93S321.26,54.08,319.47,53.67Z" style="fill:#f5f5f5"></path><path d="M314.62,58a18.92,18.92,0,0,1-.13-3.39,18.3,18.3,0,0,1,1.26,3.15c.61,1.73.67,3.26.13,3.38S314.77,59.87,314.62,58Z" style="fill:#f5f5f5"></path><path d="M309,54.77a18.14,18.14,0,0,1,3.18-1.16,18.16,18.16,0,0,1-2.6,2.17c-1.47,1.11-2.9,1.64-3.17,1.17S307.27,55.49,309,54.77Z" style="fill:#f5f5f5"></path><path d="M310.32,48.39a18.28,18.28,0,0,1,2.09,2.66,17.51,17.51,0,0,1-2.87-1.8c-1.51-1-2.46-2.25-2.09-2.66S309.11,47,310.32,48.39Z" style="fill:#f5f5f5"></path><path d="M316.8,47.7a18.32,18.32,0,0,1-1.88,2.81,17.88,17.88,0,0,1,.83-3.28c.53-1.76,1.38-3,1.88-2.81S317.75,46.12,316.8,47.7Z" style="fill:#f5f5f5"></path><path d="M716,135a18,18,0,0,1-3.25-.93,17.29,17.29,0,0,1,3.37-.23c1.84,0,3.31.38,3.26.92S717.8,135.4,716,135Z" style="fill:#f5f5f5"></path><path d="M711.15,139.35A18.23,18.23,0,0,1,711,136a17.58,17.58,0,0,1,1.26,3.14c.6,1.74.66,3.27.12,3.38S711.31,141.19,711.15,139.35Z" style="fill:#f5f5f5"></path><path d="M705.5,136.09a18.46,18.46,0,0,1,3.17-1.17,18.13,18.13,0,0,1-2.59,2.18c-1.47,1.11-2.9,1.64-3.18,1.16S703.8,136.81,705.5,136.09Z" style="fill:#f5f5f5"></path><path d="M706.85,129.7a17.27,17.27,0,0,1,2.09,2.67,18.91,18.91,0,0,1-2.87-1.8c-1.5-1.06-2.45-2.26-2.09-2.66S705.64,128.31,706.85,129.7Z" style="fill:#f5f5f5"></path><path d="M713.34,129a19,19,0,0,1-1.88,2.82,18.53,18.53,0,0,1,.82-3.29c.54-1.76,1.38-3,1.88-2.81S714.29,127.44,713.34,129Z" style="fill:#f5f5f5"></path><path d="M54.62,284.63a25.58,25.58,0,0,1-4.78-1.36,26.84,26.84,0,0,1,5-.33c2.7-.05,4.86.55,4.78,1.35S57.26,285.24,54.62,284.63Z" style="fill:#f5f5f5"></path><path d="M47.5,291.05a26.28,26.28,0,0,1-.18-5,27.32,27.32,0,0,1,1.85,4.62c.88,2.55,1,4.79.18,5S47.73,293.74,47.5,291.05Z" style="fill:#f5f5f5"></path><path d="M39.19,286.26a26.51,26.51,0,0,1,4.67-1.72,26.51,26.51,0,0,1-3.81,3.19c-2.16,1.64-4.26,2.42-4.67,1.72S36.7,287.31,39.19,286.26Z" style="fill:#f5f5f5"></path><path d="M41.18,276.88a25.54,25.54,0,0,1,3.07,3.91A26.43,26.43,0,0,1,40,278.14c-2.22-1.54-3.6-3.3-3.07-3.9S39.41,274.84,41.18,276.88Z" style="fill:#f5f5f5"></path><path d="M50.71,275.86A25.86,25.86,0,0,1,48,280a26.11,26.11,0,0,1,1.21-4.82c.78-2.58,2-4.45,2.76-4.13S52.11,273.55,50.71,275.86Z" style="fill:#f5f5f5"></path><path d="M696,198.75a17.3,17.3,0,0,1-3.26-.93,18.44,18.44,0,0,1,3.38-.23c1.84,0,3.31.38,3.25.93S697.81,199.16,696,198.75Z" style="fill:#e0e0e0"></path><path d="M691.17,203.12a18.92,18.92,0,0,1-.13-3.39,18.3,18.3,0,0,1,1.26,3.15c.61,1.73.67,3.26.13,3.38S691.32,205,691.17,203.12Z" style="fill:#e0e0e0"></path><path d="M685.51,199.85a18.14,18.14,0,0,1,3.18-1.16,18.16,18.16,0,0,1-2.6,2.17c-1.46,1.11-2.9,1.64-3.17,1.17S683.82,200.57,685.51,199.85Z" style="fill:#e0e0e0"></path><path d="M686.87,193.47a18.28,18.28,0,0,1,2.09,2.66,17.51,17.51,0,0,1-2.87-1.8c-1.51-1.05-2.46-2.25-2.09-2.66S685.66,192.08,686.87,193.47Z" style="fill:#e0e0e0"></path><path d="M693.36,192.78a17.94,17.94,0,0,1-1.89,2.81,17.88,17.88,0,0,1,.83-3.28c.53-1.76,1.38-3,1.88-2.81S694.3,191.2,693.36,192.78Z" style="fill:#e0e0e0"></path><path d="M459.06,170.1a17.46,17.46,0,0,1-3.26-.92,17,17,0,0,1,3.38-.24c1.84,0,3.31.38,3.25.93S460.85,170.52,459.06,170.1Z" style="fill:#e0e0e0"></path><path d="M454.21,174.47a17.77,17.77,0,0,1-.13-3.38,17.58,17.58,0,0,1,1.26,3.14c.61,1.74.67,3.26.13,3.38S454.36,176.3,454.21,174.47Z" style="fill:#e0e0e0"></path><path d="M448.55,171.21a17.74,17.74,0,0,1,3.18-1.17,18.16,18.16,0,0,1-2.6,2.17c-1.47,1.11-2.9,1.64-3.17,1.17S446.86,171.92,448.55,171.21Z" style="fill:#e0e0e0"></path><path d="M449.9,164.82a18,18,0,0,1,2.1,2.66,16.72,16.72,0,0,1-2.87-1.8c-1.51-1.05-2.46-2.25-2.09-2.66S448.7,163.43,449.9,164.82Z" style="fill:#e0e0e0"></path><path d="M456.39,164.13a17.17,17.17,0,0,1-1.88,2.81,17.88,17.88,0,0,1,.83-3.28c.53-1.76,1.38-3,1.88-2.81S457.34,162.55,456.39,164.13Z" style="fill:#e0e0e0"></path></g><g id="freepik--Desk--inject-108"><path d="M684.78,468.86c0,.15-141.32.26-315.61.26S53.54,469,53.54,468.86s141.29-.26,315.63-.26S684.78,468.72,684.78,468.86Z" style="fill:#263238"></path></g><g id="freepik--People--inject-108"><path d="M502.71,227.31l29.68-4.61,87.22,7.42s31.19,71.69,29.33,73.68c-1,1-19.3,84.29-19.3,84.29L631.87,449s12,11.86,13.51,19.66l-180.25-.09L472.91,245Z" style="fill:#ebebeb"></path><path d="M527.28,223.49c-.72.18-14.56,1.07-24.57,3.73a169.11,169.11,0,0,0-29.8,11.69c-16.09,8.66-19.11,81.71-19.11,81.71S452.31,383.69,459,399c3.58,8.25,49.52,35.16,67.07-4.08,5.12-11.44,15.16-28.95,22.18-43.44,13.46-27.8,23.89-51.79,23.89-51.79l-40-18.27-31,51.26,5.62-73.56Z" style="fill:#ebebeb"></path><path d="M490.28,345s.07-.12.22-.34l.67-1,2.67-3.81L504,325.55,539.9,275l.11-.16.18.08,34.42,15.74.23.11-.11.23q-1.53,3.21-3.08,6.48l-1.56,3.28c-.51,1.11-1,2.24-1.46,3.37-1.93,4.5-3.9,9.08-5.89,13.7-8.39,19.41-16.74,37.76-25.24,54-4.26,8.11-8.77,15.64-14,21.9a59.3,59.3,0,0,1-17.34,14.49,39.54,39.54,0,0,1-17.94,4.89,34.18,34.18,0,0,1-13.83-2.62,28.58,28.58,0,0,1-7.55-4.71,19.48,19.48,0,0,1-1.67-1.61c-.36-.38-.54-.59-.54-.59l.58.55a22,22,0,0,0,1.7,1.57,29.41,29.41,0,0,0,7.56,4.61,34.31,34.31,0,0,0,13.74,2.51A39.5,39.5,0,0,0,506,407.86a59.29,59.29,0,0,0,17.18-14.44c5.22-6.25,9.7-13.75,13.93-21.85,8.47-16.24,16.81-34.59,25.19-54l5.9-13.71c.49-1.13,1-2.26,1.46-3.37l1.56-3.28,3.09-6.49.12.35L540,275.3l.28-.08-36.07,50.5L494,340l-2.73,3.76-.7,1C490.37,344.93,490.28,345,490.28,345Z" style="fill:#e0e0e0"></path><path d="M502.59,281.32s0-.73.07-2.05a39.37,39.37,0,0,0-.22-5.58,36.21,36.21,0,0,0-20.22-28.82,38.37,38.37,0,0,0-5.17-2.1c-1.26-.41-2-.6-2-.64a1.88,1.88,0,0,1,.53.08c.34.08.85.17,1.49.36a32.05,32.05,0,0,1,5.26,2,35.58,35.58,0,0,1,20.44,29.12,33.29,33.29,0,0,1,.05,5.62c0,.66-.13,1.17-.17,1.52A1.45,1.45,0,0,1,502.59,281.32Z" style="fill:#e0e0e0"></path><path d="M649.11,154.74c-3.21-5.31-7.35-10.55-7.56-16.75-.19-5.7,3-11.51,1.17-16.9-2.29-6.63-11-9-14.1-15.27-1.5-3-1.49-6.66-3-9.72-2.51-5.21-8.74-7.58-14.52-8s-11.59.68-17.35.07c-7.9-.83-15.5-4.8-23.39-3.88-8.71,1-15.06,7.43-21.68,13.56l-8.47,7a31,31,0,0,1-5.34,3c-3.29,1.39-6.89,2.11-9.86,4.09-6.34,4.25-7.65,14.34-2.61,20.06a15,15,0,0,0-12.51,12.73c-.41,3.5.45,7,.91,10.5s.42,7.29-1.52,10.23-6.4,4.4-9.12,2.16a15.76,15.76,0,0,0,6.65,11.85,9.41,9.41,0,0,1-6.74,1.67c3.71,16,19.55,26.83,35.7,29.75s32.68-.49,48.73-3.89L630,203.29c4-.21,6.38-4.57,7-8.5s.35-8.18,2.39-11.6c2.8-4.68,9.11-6.32,12-10.95C654.68,167,652.32,160,649.11,154.74Z" style="fill:#e0e0e0"></path><path d="M539.21,176.38c-1.43-10.39-2.8-20.84-2.42-31.31s2.6-21.07,7.93-30.09c.81-1.37,7.22-10.37,8.75-9.94,1.09.31-3.42,9-3,10,3.71,10.18,3.18,21.53.42,32a142.44,142.44,0,0,1-11.65,29.29" style="fill:#e0e0e0"></path><path d="M545.26,136.83c3.8-26,22.11-45.47,48-41l2.37.55a47,47,0,0,1,35.71,52.79c-3.42,22.53-7.49,47.38-10.43,59.2-6.08,24.48-31.54,22.52-31.54,22.52s-6.41,40.9-6.41,40.9l-54-48.56Z" style="fill:#f5f5f5"></path><path d="M543,155.48c-.38-.27-15.7-9-19.11,8s14.26,16.85,14.39,16.37S543,155.48,543,155.48Z" style="fill:#f5f5f5"></path><path d="M534.4,172.36c-.06-.07-.34.14-.88.27a3,3,0,0,1-2.21-.4c-1.66-1-2.59-4.15-2-7.22a9.78,9.78,0,0,1,1.67-4,3.46,3.46,0,0,1,2.68-1.81,1.53,1.53,0,0,1,1.57,1.15c.13.52,0,.84,0,.89s.42-.21.43-.94a1.91,1.91,0,0,0-.46-1.19,2.24,2.24,0,0,0-1.54-.76,4.22,4.22,0,0,0-3.61,2,10.2,10.2,0,0,0-2,4.51c-.58,3.42.52,7,2.82,8.17a3.21,3.21,0,0,0,2.79.09C534.29,172.76,534.45,172.4,534.4,172.36Z" style="fill:#e0e0e0"></path><path d="M625.78,119.05c3-1-3.48-11.45-9.63-15.81-9.29-6.58-24.29-12.42-34.19-11.57-11.93,1-22.4,4.84-30.06,14s-12.1,20.77-14,32.57c-.59,3.61-.94,7.42.4,10.81,1.64,4.21,5.72,7.44,4.53,12.57a7.2,7.2,0,0,0,.76,5.51c2.47,3.9,6.86,1.53,9.2-1.24,5-5.92,6.94-13.76,8.74-21.3,1.27-5.36,2.55-10.84,2-16.32-.28-3-1.1-5.91-1.22-8.9s.59-6.23,2.83-8.23a10.53,10.53,0,0,1,1.64-1.12,18,18,0,0,1,18.17,0c8.89,5.21,24.21,13.39,29.09,11,7-3.48,9.07-6.24,9.07-6.24Z" style="fill:#e0e0e0"></path><path d="M583.28,89.54c9.91-1.32,20.48.89,28.32,7.09,4.16,3.29,7.6,7.93,8,13.22s-2.89,11-8.09,12.08l-.38.14c-7.69,1-12.2-.83-18.93-4.71-5.66-3.27-10.33-8-16-11.29a35,35,0,0,0-20-4.47C564.11,95.47,573.38,90.86,583.28,89.54Z" style="fill:#e0e0e0"></path><path d="M608,167c.49-.42,3,1.85,6.82,2.22s6.84-1.27,7.21-.76c.18.23-.35,1-1.66,1.79a9.82,9.82,0,0,1-5.83,1.18,9.36,9.36,0,0,1-5.37-2.34C608.1,168.07,607.78,167.19,608,167Z" style="fill:#e0e0e0"></path><path d="M571.38,160.36c.57-.31,2.57,2.4,6.26,3.52s7,.11,7.21.68c.13.26-.54.94-2,1.43a9.82,9.82,0,0,1-5.94,0,9.39,9.39,0,0,1-4.8-3.36C571.25,161.43,571.12,160.5,571.38,160.36Z" style="fill:#e0e0e0"></path><path d="M591.79,187.06c0-.22,2.46,0,6.34.45,1,.15,1.93.19,2.26-.42s.26-1.76.08-3q-.45-3.79-1-8c-1.28-11.33-1.94-20.55-1.48-20.6s1.86,9.1,3.13,20.43c.3,2.79.58,5.45.84,8,.08,1.17.39,2.56-.46,3.86a2.47,2.47,0,0,1-1.92,1,6.82,6.82,0,0,1-1.68-.19C594.1,187.86,591.75,187.27,591.79,187.06Z" style="fill:#e0e0e0"></path><path d="M571.4,145.3c.82-.76,4,1.44,8.28,3s8.09,2.16,8.19,3.27c0,.52-1,1.1-2.76,1.33a14.54,14.54,0,0,1-6.82-.94,14.71,14.71,0,0,1-5.72-3.84C571.39,146.78,571,145.67,571.4,145.3Z" style="fill:#e0e0e0"></path><path d="M609.33,155.09c.69-1,4-.53,7.85-1s7-1.58,7.87-.78c.39.39,0,1.33-1.3,2.35a12.68,12.68,0,0,1-6.17,2.33,12.51,12.51,0,0,1-6.49-.86C609.6,156.4,609,155.57,609.33,155.09Z" style="fill:#e0e0e0"></path><path d="M590.3,154.78c0,.09.64.33,1.75.2a6,6,0,0,0,5.19-6c0-1.11-.37-1.73-.46-1.7s0,.68-.12,1.68a6.17,6.17,0,0,1-4.72,5.5C591,154.67,590.31,154.65,590.3,154.78Z" style="fill:#e0e0e0"></path><path d="M602.81,150.09c-.21-.07-.67,1.94.46,4.07s3,2.92,3.07,2.71-1.39-1.18-2.35-3.08S603.05,150.1,602.81,150.09Z" style="fill:#e0e0e0"></path><path d="M611.71,181.81c0,1,2.48,1.93,5.61,1.68s5.48-1.55,5.28-2.54-2.67-1.37-5.57-1.14S611.75,180.78,611.71,181.81Z" style="fill:#ebebeb"></path><path d="M561.42,171.79c-.39.89,3,3.82,7.94,5.64s9.15,1.75,9.27.76-3.67-2.54-8.31-4.28S561.82,170.86,561.42,171.79Z" style="fill:#ebebeb"></path><path d="M601,187.89a12.91,12.91,0,0,1,9,4.54c3.85,4.49,3.42,15.38-3.87,26.43s-4.4,52.58-4.4,52.58l-43.11-16.11-3,13.22s-8.87-4.81-14.4-13.22,2.88-19.12,4.57-25.84,19.82-30.25,24.39-37.27S582.75,179.18,601,187.89Z" style="fill:#fff"></path><path d="M573.1,290.34s12.13-25.9,13.81-30.64,8.86-20.62,7.94-23.72c-.87-2.93-5.09,0-5.09,0s8.44-16.32,5.87-19.77c-2.07-2.77-4.56-.33-4.56-.33s5.28-9.4.81-12.22c-2.31-1.45-6.23,4.19-6.23,4.19s-3.7-4.09-7.06,1.06-17.37,28.14-17.37,28.14.83-10.88-1.15-17.45c-1.33-4.43-7.77-6.94-8.16,6.51-.25,8.7-10.39,49.62-10.39,49.62Z" style="fill:#f5f5f5"></path><path d="M573.1,290.34s-.19-.11-.56-.28l-1.63-.79-6.25-2.95-23-10.78.13.28c2.59-10.49,5.66-23,8.55-37.24.69-3.56,1.43-7.19,1.83-11,.19-1.94.19-3.81.53-5.71l.31-1.39c.12-.47.31-.9.45-1.36a5.14,5.14,0,0,1,1.58-2.22,2.28,2.28,0,0,1,2.45-.13,4.72,4.72,0,0,1,1.88,2,12.35,12.35,0,0,1,.85,2.82c.21,1,.35,2,.47,3a73.83,73.83,0,0,1,.2,12.46.36.36,0,0,0,.67.22L570.34,223l6.59-10.69,1.63-2.63a7.65,7.65,0,0,1,1.86-2.25,3.11,3.11,0,0,1,2.57-.67,4.84,4.84,0,0,1,2.39,1.36.38.38,0,0,0,.53,0l0,0a14.76,14.76,0,0,1,3.69-3.78c.71-.44,1.55-.71,2.13-.24a3.56,3.56,0,0,1,1.36,1.94,9.88,9.88,0,0,1-.4,5,25.41,25.41,0,0,1-2,4.71.36.36,0,0,0,.14.48.36.36,0,0,0,.41-.06,2.71,2.71,0,0,1,2.81-.72,3,3,0,0,1,1.17,1,2.54,2.54,0,0,1,.45,1.41,18.89,18.89,0,0,1-1.27,6.4,92.1,92.1,0,0,1-5,11.66.3.3,0,0,0,.14.42.31.31,0,0,0,.32,0,6.83,6.83,0,0,1,3.15-1.26,1.33,1.33,0,0,1,1.25.59,1.66,1.66,0,0,1,.24.72l0,.38,0,.42a31.73,31.73,0,0,1-1.71,6.5c-1.46,4.18-3.06,8.07-4.53,11.73-2.72,7.42-5.67,13.63-8,18.81l-5.41,12-1.42,3.15-.35.81-.11.28a1.56,1.56,0,0,0,.15-.26l.4-.79,1.5-3.11,5.57-11.88c2.34-5.15,5.34-11.37,8.1-18.77,1.49-3.65,3.11-7.54,4.6-11.73a31.67,31.67,0,0,0,1.77-6.65,3,3,0,0,0,0-1,2.13,2.13,0,0,0-.33-.93,1.92,1.92,0,0,0-1.78-.88,7.28,7.28,0,0,0-3.49,1.36l.46.4a92.67,92.67,0,0,0,5.07-11.73,19.6,19.6,0,0,0,1.32-6.67,3.17,3.17,0,0,0-.58-1.78,3.78,3.78,0,0,0-1.46-1.18,2.88,2.88,0,0,0-1.92-.09,4.33,4.33,0,0,0-1.64,1l.55.42a26.66,26.66,0,0,0,2-4.86,10.46,10.46,0,0,0,.4-5.4,4.24,4.24,0,0,0-1.64-2.35,2,2,0,0,0-1.53-.33,3.92,3.92,0,0,0-1.38.55,15.61,15.61,0,0,0-3.91,4l.57,0a5.39,5.39,0,0,0-2.79-1.58,3.85,3.85,0,0,0-3.15.8,8.56,8.56,0,0,0-2,2.43l-1.62,2.63-6.61,10.7-8.8,14.27.68.22a74.33,74.33,0,0,0-.21-12.59c-.12-1-.27-2.06-.49-3.07a12.14,12.14,0,0,0-.92-3,5.25,5.25,0,0,0-2.18-2.32,3,3,0,0,0-3.19.18,5.56,5.56,0,0,0-1.81,2.53c-.16.48-.36,1-.48,1.43l-.33,1.46c-.33,1.93-.34,3.93-.52,5.77-.38,3.75-1.12,7.4-1.79,11-2.84,14.17-5.86,26.74-8.39,37.24a.28.28,0,0,0,.14.29c9.86,4.48,17.79,8.09,23.28,10.6l6.25,2.82,1.61.71A4.62,4.62,0,0,0,573.1,290.34Z" style="fill:#e0e0e0"></path><path d="M570.2,239.28c.19.09,3.79-6.87,8.06-15.54s7.57-15.77,7.39-15.86-3.79,6.87-8,15.54S570,239.19,570.2,239.28Z" style="fill:#e0e0e0"></path><path d="M577.38,245.79c.19.08,3.4-6.54,7.18-14.79s6.7-15,6.51-15.09-3.4,6.53-7.18,14.78S577.2,245.7,577.38,245.79Z" style="fill:#e0e0e0"></path><path d="M581.44,254.63a10.76,10.76,0,0,0,1.78-2.43,56.24,56.24,0,0,0,3.43-6.4,57.85,57.85,0,0,0,2.58-6.79,10.84,10.84,0,0,0,.66-2.94c-.21-.06-1.57,4.31-3.92,9.42S581.25,254.51,581.44,254.63Z" style="fill:#e0e0e0"></path><path d="M602.61,215.75A3.82,3.82,0,0,1,607,214c3.81,1.06,10.25,3,12,4.6,2.55,2.29,8.06,8.38,8,12.48,0,1.26,1.27,3.51,1.7,5.63a8.68,8.68,0,0,1-3.48,9.41c-1.63,1.45-7.91,16.32-7.91,16.32l-3.66,15-16.56,5.82-13.65,4.66,7.11-20.31,11.16,3.92-1.13-26-3.26-6.16.88-3.9,2.69-.83a3.3,3.3,0,0,1-.46-4.53l2.33-2c-2.88-1.06-4.1-2.94-2.59-6.17.86-.95,2.4-1.09,4.17-.95A5.68,5.68,0,0,1,602.61,215.75Z" style="fill:#f5f5f5"></path><path d="M603.37,264a2.74,2.74,0,0,0,.48-.53c.3-.36.72-.89,1.23-1.62a16,16,0,0,0,1.61-2.82,8.53,8.53,0,0,0,.7-4.26,10.68,10.68,0,0,0-2-4.84,47.39,47.39,0,0,0-3.85-4.54,15.2,15.2,0,0,1-3.37-5.36,5.14,5.14,0,0,1-.11-3.17,2.52,2.52,0,0,1,2.28-1.79c1,0,1.92.9,2.78,1.67s1.74,1.54,2.58,2.29q2.55,2.26,4.9,4.34c3.13,2.72,5.93,5.27,7.29,8.08a10,10,0,0,1,.84,7.1c-.42,1.7-.89,2.57-.82,2.6a2.54,2.54,0,0,0,.36-.62,12.38,12.38,0,0,0,.74-1.9,10.33,10.33,0,0,0,.42-3.23,10.51,10.51,0,0,0-1.07-4.18c-1.36-3-4.21-5.62-7.31-8.36l-4.86-4.37-2.58-2.3c-.85-.73-1.79-1.76-3.24-1.85a3.21,3.21,0,0,0-3,2.28,5.73,5.73,0,0,0,.11,3.62,15.46,15.46,0,0,0,3.56,5.6,49.49,49.49,0,0,1,3.84,4.44,10.22,10.22,0,0,1,2,4.55,8.13,8.13,0,0,1-.57,4,17.21,17.21,0,0,1-1.46,2.81C603.9,263.19,603.32,264,603.37,264Z" style="fill:#e0e0e0"></path><path d="M614.92,247s.07-.07.17-.22a6.19,6.19,0,0,0,.39-.73,5.24,5.24,0,0,0,.4-1.31,2.45,2.45,0,0,0-.35-1.9h0l0,0-11.42-6.41a9.46,9.46,0,0,1-3.33-2.51,3.52,3.52,0,0,1-.67-1.94,2.55,2.55,0,0,1,.85-1.86,4.55,4.55,0,0,1,4.32-.86,31,31,0,0,1,4.73,1.93L622.92,237a6.13,6.13,0,0,1,2.35,1.87,4.39,4.39,0,0,1,.69,2.68,16.32,16.32,0,0,1-1.39,5.09,60.58,60.58,0,0,1-3.33,7.06c-.9,1.61-1.44,2.48-1.39,2.51s.18-.18.47-.58.68-1,1.16-1.79a50.27,50.27,0,0,0,3.58-7,17,17,0,0,0,1.52-5.27,5.08,5.08,0,0,0-.77-3.06,6.71,6.71,0,0,0-2.58-2.11c-4-1.89-8.35-3.84-13-5.95a32.6,32.6,0,0,0-4.87-2,5.25,5.25,0,0,0-5,1.06,3.26,3.26,0,0,0-1,2.37,4.13,4.13,0,0,0,.81,2.34,10.14,10.14,0,0,0,3.58,2.66l11.56,6.16,0,0a2.28,2.28,0,0,1,.33,1.63,6.44,6.44,0,0,1-.3,1.27C615.07,246.6,614.89,246.93,614.92,247Z" style="fill:#e0e0e0"></path><path d="M627,234.79a6.51,6.51,0,0,0-.69-1.56,24.29,24.29,0,0,0-2.47-3.94,14.22,14.22,0,0,0-5.49-4.22,54.91,54.91,0,0,0-8-2.64l-4.19-1.17a10.13,10.13,0,0,0-4.11-.61,3.67,3.67,0,0,0-1.88.81,3.22,3.22,0,0,0-1,1.68,3.84,3.84,0,0,0,.75,3.25,6.09,6.09,0,0,0,4.14,2.14,4.91,4.91,0,0,0,1.71,0c0-.06-.6-.09-1.66-.3a6,6,0,0,1-3.77-2.17,3.28,3.28,0,0,1-.58-2.78,2.61,2.61,0,0,1,2.35-2A9.81,9.81,0,0,1,606,222l4.18,1.18a61.69,61.69,0,0,1,7.93,2.55,14.1,14.1,0,0,1,5.37,3.93,30.31,30.31,0,0,1,2.62,3.76A9.23,9.23,0,0,0,627,234.79Z" style="fill:#e0e0e0"></path><path d="M610.14,222.06a12,12,0,0,0-1.83-.48,8.69,8.69,0,0,1-4.41-2.24,3.92,3.92,0,0,1-1.16-3,2.79,2.79,0,0,1,2.16-2.61c1.3-.22,2.68.5,4.16,1s3,1,4.6,1.54a42.44,42.44,0,0,1,4.47,1.72,10.69,10.69,0,0,1,3.12,3c.87,1.13,1.63,2.26,2.4,3.3a17,17,0,0,1,2,2.84,13.11,13.11,0,0,1,1.18,4.89c.07,1.2,0,1.87.06,1.88a5.57,5.57,0,0,0,.23-1.89,12.24,12.24,0,0,0-1-5.11,7.43,7.43,0,0,0-.9-1.51c-.38-.48-.75-.93-1.11-1.46-.74-1-1.48-2.19-2.35-3.35a11,11,0,0,0-3.35-3.21,38.72,38.72,0,0,0-4.55-1.78l-4.59-1.53c-1.44-.46-2.9-1.27-4.53-1a3,3,0,0,0-1.93,1.23,3.81,3.81,0,0,0-.72,2,4.45,4.45,0,0,0,1.4,3.41,10.81,10.81,0,0,0,6.61,2.36Z" style="fill:#e0e0e0"></path><path d="M598.85,209.35a4.05,4.05,0,0,0,2.24-.11,8.94,8.94,0,0,0,6.78-7.79,4,4,0,0,0-.2-2.23c-.12,0-.06.86-.32,2.16a9.54,9.54,0,0,1-6.41,7.36C599.69,209.17,598.85,209.23,598.85,209.35Z" style="fill:#e0e0e0"></path><path d="M574.67,201.74a5.5,5.5,0,0,0-.87,1.13c-.53.75-1.24,1.88-2,3.3a65.8,65.8,0,0,0-8.07,24.21c-.2,1.63-.32,3-.34,3.87a5.06,5.06,0,0,0,0,1.42c.12,0,.3-2,.83-5.22a79.27,79.27,0,0,1,8-24C573.71,203.53,574.77,201.81,574.67,201.74Z" style="fill:#e0e0e0"></path><path d="M596,214.05a5.09,5.09,0,0,0,2.33,0,15.2,15.2,0,0,0,9.58-5.55,5,5,0,0,0,1.17-2c-.18-.14-2.07,2.94-5.81,5.06S596,213.82,596,214.05Z" style="fill:#e0e0e0"></path><path d="M619.61,230.12s27.5,2.65,35,20.16,34,104.11,34,104.11,3.44,21.73-6.17,33.39c-8.19,9.94-26.82,14.54-41.83,8.05-25-10.8-52-76.23-52-76.23l-11.28-29.26,40.4-14.84,21.05,37Z" style="fill:#ebebeb"></path><path d="M658.81,347.57a1.64,1.64,0,0,1-.18-.27l-.49-.81-1.84-3.13-6.69-11.58-21.9-38.29-10.15-17.87.3.11-28.25,10.33L581.46,289l-2.18.77-.57.18-.19.05.18-.09.55-.22,2.15-.84,8.1-3.06,28.19-10.51.19-.07.1.18,10.19,17.85,21.76,38.37,6.54,11.66,1.76,3.18c.19.35.33.62.45.83A1.38,1.38,0,0,1,658.81,347.57Z" style="fill:#e0e0e0"></path><path d="M660.37,398.33a1.54,1.54,0,0,1-.37.08l-1.07.2a13.51,13.51,0,0,1-1.76.21l-1.13.1h-1.29A30.91,30.91,0,0,1,640,394.76c-5.77-3.1-11.74-8.25-17.44-14.7a156.21,156.21,0,0,1-16.25-22.77,328.17,328.17,0,0,1-22.18-45.72c-2.41-6.05-4.22-11-5.42-14.43-.6-1.71-1.05-3.05-1.34-4l-.32-1c-.07-.23-.1-.35-.1-.36a2.19,2.19,0,0,1,.15.35c.09.25.21.59.37,1l1.43,3.94c1.26,3.41,3.12,8.33,5.57,14.35A343.46,343.46,0,0,0,606.76,357a158.93,158.93,0,0,0,16.17,22.73c5.66,6.43,11.57,11.57,17.26,14.69a31.26,31.26,0,0,0,14.56,4.28l1.28,0,1.13-.07a14.82,14.82,0,0,0,1.76-.16l1.07-.15A1.79,1.79,0,0,1,660.37,398.33Z" style="fill:#e0e0e0"></path><path d="M608,438.16a5.39,5.39,0,0,1-.65.33l-1.88.86c-1.63.75-4,1.78-7,3-5.94,2.46-14.24,5.61-23.57,8.62S557,456.24,550.7,457.7c-3.13.74-5.67,1.29-7.43,1.64l-2,.39a4.62,4.62,0,0,1-.72.11,3.77,3.77,0,0,1,.7-.21l2-.49c1.74-.41,4.27-1,7.38-1.8,6.23-1.55,14.79-3.88,24.12-6.87s17.63-6.1,23.59-8.46c3-1.18,5.4-2.16,7-2.84l1.92-.78A3.07,3.07,0,0,1,608,438.16Z" style="fill:#e0e0e0"></path><path d="M235,239.56c-9.18-1.06-14-2.53-23.15-2.92l-98.6,8.88L102.45,314.1s19.37,67.39,25.62,75.18c11.69,14.6-15.47,70-14.14,79.25L282.76,468s-14.4-41.31-14.44-86.73c0-36-5-67-5.35-96l1.68-36.71C257.72,244.34,247.3,241,235,239.56Z" style="fill:#ebebeb"></path><path d="M210.83,437.88s-.21-.14-.57-.46L208.73,436c-1.31-1.24-3.23-3-5.63-5.18-4.8-4.33-11.59-10.14-19.48-16.11s-15.39-10.93-20.9-14.39c-2.76-1.73-5-3.11-6.57-4l-1.79-1.1a2.69,2.69,0,0,1-.6-.42,3.34,3.34,0,0,1,.67.31l1.85,1c1.61.87,3.9,2.19,6.69,3.87A250.32,250.32,0,0,1,184,414.22a247.19,247.19,0,0,1,19.39,16.29c2.36,2.21,4.24,4,5.5,5.33l1.44,1.49A3.51,3.51,0,0,1,210.83,437.88Z" style="fill:#e0e0e0"></path><path d="M119.8,129.1A36.66,36.66,0,0,1,136,105.89c9-5.65,20.27-7,30.83-5.56S187.42,106,197,110.75c5.34,2.69,10.68,5.68,14.67,10.13,7.28,8.14,14.8,21.76,16.09,32.6,1,8.76-1,31-4.3,39.18-1.15,2.92-4.22,5.68-8,8.11a74.85,74.85,0,0,1-14.7,22q-3.57-8.67-7.15-17.36Z" style="fill:#e0e0e0"></path><path d="M238.07,228.11c2.9-16.21-.68-35.56-2.54-49.06s.64-19.6-11.55-41.42c-9.12-16.33-22.65-25.54-35.25-30.74l-48.18,9.53c.27-.89.55-1.75.84-2.57L124.23,118c-6.45-.22-10.61,3.21-13.27,8.37a19.6,19.6,0,0,0-2.35,4.15c-1.91,4.67-2.23,9.82-2.53,14.86a114.56,114.56,0,0,0,.25,14.94c0,2,0,3.72,0,5.08a23.5,23.5,0,0,0,1.11,6.4c2.53,20.83,7.21,43.63,6.18,61.2-.11,1.84-.19,3.8.75,5.38s2.95,2.54,4.79,3.23c22.46,8.37,36.65-5.25,57-17.86,4-2.46,8-5.36,12.65-5.59,4.93-.24,10.12,12.27,14.79,13.86" style="fill:#e0e0e0"></path><path d="M208.61,150.72c-1.7-13.13-10.87-23.44-23.87-26l-40.51-7.85c-17.36-.86-27.64,21-27.76,38.42-.13,19.31.28,39.65,3.36,53.88,6.21,28.61,28.54,31,28.54,31s.81,13.73,1.32,22.16l24.2,23.77,33.77-35.68,1.07-99.44C208.71,150.57,208.69,151.38,208.61,150.72Z" style="fill:#f5f5f5"></path><path d="M186.06,227.75s-8.23,20.38-37.28,19.3l-.41-6.79A72.82,72.82,0,0,0,186.06,227.75Z" style="fill:#e0e0e0"></path><path d="M122.77,128.5c1.51-4.44,6.13-7.33,10.8-7.84s9.34,1,13.54,3.1c17.77,8.94,28,32.42,45.6,41.71,4.32,2.29,9.62-.35,13.37,2.8s6.37,8.36,4.67,12.94c2.1-3.26,4.22-6.58,5.31-10.31s1-8-1.14-11.22c-1.62-2.46-4.32-4.26-5.2-7.07-.78-2.47.06-5.15-.2-7.73s-1.64-5-3.07-7.21c-7.34-11.38-17.12-21.49-29.29-27.42a49,49,0,0,0-25.72-5.08,37.47,37.47,0,0,0-23.55,11c-3.59,3.76-7.37,7.66-5.12,12.35" style="fill:#e0e0e0"></path><path d="M205.88,171.87c.25-.85,15-7.16,16.13,8.83,1.1,15.54-14.77,13.4-14.83,13S205.88,171.87,205.88,171.87Z" style="fill:#f5f5f5"></path><path d="M211.58,187.44c.06-.05.28.17.75.35a2.74,2.74,0,0,0,2-.1c1.6-.71,2.81-3.41,2.69-6.22a8.83,8.83,0,0,0-1-3.82,3.12,3.12,0,0,0-2.18-1.94,1.37,1.37,0,0,0-1.54.85c-.18.45-.06.75-.14.78s-.35-.23-.27-.88a1.71,1.71,0,0,1,.54-1,2.07,2.07,0,0,1,1.47-.5,3.81,3.81,0,0,1,3,2.22,9.32,9.32,0,0,1,1.24,4.27c.11,3.14-1.29,6.18-3.5,7a2.91,2.91,0,0,1-2.5-.24C211.63,187.81,211.53,187.47,211.58,187.44Z" style="fill:#e0e0e0"></path><path d="M211.6,163.52a6,6,0,0,1-1-.47c-.62-.34-1.57-.8-2.71-1.51a53.32,53.32,0,0,1-8.84-7.15,150.07,150.07,0,0,1-11-12.73c-4-4.93-8.33-10.39-13.77-15.23a48.39,48.39,0,0,0-8.66-6.06,40.74,40.74,0,0,0-9.18-3.54,44.32,44.32,0,0,0-16.59-1.06,42,42,0,0,0-10.91,2.81c-1.25.46-2.17.94-2.81,1.23a6.3,6.3,0,0,1-1,.42,6.55,6.55,0,0,1,.93-.55,27.07,27.07,0,0,1,2.78-1.36,40.34,40.34,0,0,1,10.95-3,44,44,0,0,1,16.81.93,40.15,40.15,0,0,1,9.35,3.55,49.12,49.12,0,0,1,8.8,6.14c5.5,4.9,9.87,10.41,13.81,15.36A160.14,160.14,0,0,0,199.44,154a58.05,58.05,0,0,0,8.63,7.27c1.11.74,2,1.23,2.62,1.61A6.16,6.16,0,0,1,211.6,163.52Z" style="fill:#fff"></path><path d="M213.51,190.09a3,3,0,1,1-.72.27" style="fill:#fff"></path><path d="M212.79,190.36a4.25,4.25,0,0,0-1.27,2.17,2.62,2.62,0,0,0,.75,2.4,2.72,2.72,0,0,0,4.69-1.8,2.66,2.66,0,0,0-1.05-2.29,4.09,4.09,0,0,0-2.4-.75s.22-.18.71-.22a3.19,3.19,0,0,1,2,.57,3.11,3.11,0,0,1,1.41,2.73,3.34,3.34,0,0,1-5.81,2.23,3.24,3.24,0,0,1,.32-4.72C212.51,190.38,212.78,190.32,212.79,190.36Z" style="fill:#e0e0e0"></path><path d="M207.94,168.15c.49,4.23.95,8.7-.79,12.59s-6.54,6.74-10.36,4.85c-3.11-1.55-4.24-5.35-4.95-8.75-2.05-9.82-3.31-19.79-5.45-29.59Z" style="fill:#e0e0e0"></path><path d="M126.17,120.88c0,.09,1.36-.34,3.84-.56a26.6,26.6,0,0,1,10.4,1.28,33.3,33.3,0,0,1,6.64,2.94,69.07,69.07,0,0,1,6.95,4.69,79.89,79.89,0,0,1,13.84,13.28c2.14,2.66,4,5.41,6.1,7.94a39.76,39.76,0,0,0,6.65,6.64,69,69,0,0,0,13.65,8c4.1,1.88,7.51,3.15,9.87,4l2.72,1a4.41,4.41,0,0,0,1,.28,4.45,4.45,0,0,0-.9-.45l-2.67-1.13c-2.31-1-5.68-2.34-9.73-4.28a72,72,0,0,1-13.42-8.09,40.16,40.16,0,0,1-6.47-6.55c-2-2.51-3.93-5.26-6.09-7.95a78.46,78.46,0,0,0-14-13.37,67.94,67.94,0,0,0-7.08-4.68,33.35,33.35,0,0,0-6.81-2.9A25.71,25.71,0,0,0,130,120a18,18,0,0,0-2.85.57A4.35,4.35,0,0,0,126.17,120.88Z" style="fill:#fff"></path><path d="M137,176.76c-.44-.43-3,1.56-6.62,1.66s-6.41-1.65-6.79-1.18c-.19.2.26,1,1.46,1.81a9.45,9.45,0,0,0,5.45,1.5,9,9,0,0,0,5.25-1.88C136.86,177.77,137.22,177,137,176.76Z" style="fill:#e0e0e0"></path><path d="M172.46,173.53c-.51-.35-2.64,2.06-6.22,2.81s-6.6-.47-6.9,0c-.14.23.44.93,1.77,1.52a9.31,9.31,0,0,0,5.63.5,9,9,0,0,0,4.83-2.78C172.49,174.54,172.7,173.68,172.46,173.53Z" style="fill:#e0e0e0"></path><path d="M150.7,196.92c0-.21-2.33-.26-6-.18-.94,0-1.84,0-2.09-.62a4.81,4.81,0,0,1,.2-2.84c.54-2.37,1.09-4.85,1.68-7.46,2.3-10.6,3.81-19.27,3.38-19.36s-2.64,8.44-4.93,19q-.81,3.92-1.56,7.48c-.19,1.11-.61,2.39.07,3.71a2.35,2.35,0,0,0,1.72,1.12,6.54,6.54,0,0,0,1.61,0C148.43,197.45,150.72,197.12,150.7,196.92Z" style="fill:#e0e0e0"></path><path d="M172.8,159.28c-.7-.8-4,.95-8.15,2s-7.87,1.2-8.08,2.24c-.09.49.81,1.15,2.47,1.55a14.59,14.59,0,0,0,12.36-3.23C172.65,160.69,173.11,159.67,172.8,159.28Z" style="fill:#e0e0e0"></path><path d="M135.49,164.39c-.65-.86-3.34-.08-6.54-.15s-5.89-.76-6.54.09c-.29.41.11,1.26,1.27,2.08A9.37,9.37,0,0,0,129,168a6.21,6.21,0,0,0,5.27-1.49C135.38,165.65,135.78,164.8,135.49,164.39Z" style="fill:#e0e0e0"></path><path d="M178,219.26a5.67,5.67,0,0,1-1.62.14,18,18,0,0,1-4.38-.52,19.44,19.44,0,0,1-6.06-2.53,18.1,18.1,0,0,1-5.71-5.66,17,17,0,0,1-2.44-7.68,16.77,16.77,0,0,1,.82-6.52,14.05,14.05,0,0,1,2-3.93,8,8,0,0,1,.78-.91c.19-.2.29-.3.31-.29a20.22,20.22,0,0,0-2.67,5.28,16.67,16.67,0,0,0-.65,6.33,16.85,16.85,0,0,0,2.38,7.36,18,18,0,0,0,5.48,5.5,20.22,20.22,0,0,0,5.84,2.6A32.71,32.71,0,0,0,178,219.26Z" style="fill:#e0e0e0"></path><path d="M152.09,165.24c0,.08-.33.3-1,.36a3.78,3.78,0,0,1-3.94-2.78c-.17-.64-.08-1,0-1.06s.39,1.58,1.85,2.61S152.08,165.06,152.09,165.24Z" style="fill:#e0e0e0"></path><path d="M141.09,167.5c-.15-.12.5-1.15.63-2.6s-.28-2.58-.1-2.67.94,1.08.76,2.74S141.21,167.63,141.09,167.5Z" style="fill:#e0e0e0"></path><path d="M143.22,165.17c-.16-.1.21-1,.18-2.17s-.39-2.06-.22-2.16.88.79.89,2.16S143.36,165.28,143.22,165.17Z" style="fill:#e0e0e0"></path><path d="M192.88,379.77h0c-.12-.12-12.3-12.15-17.43-17.42-4.53-4.65-15.4-13-20.05-16.62l-1.67-1.29c-3.22-2.51-4.49-3.85-3.12-6.08.57-.92,1.91-1.19,3.87-.78a15,15,0,0,1,2.73.85c-.62-.82-5.72-7.57-8-10.74l-.41-.56c-2.15-2.92-2.87-3.91-.41-6.17a1.27,1.27,0,0,1,.87-.31h.12c1.49.09,4,1.85,7.48,5.24,1.75,1.71,3.32,3.43,4.15,4.36-2-2.6-8.71-11.23-9.86-13.51a15.93,15.93,0,0,0-1-1.61c-.63-.95-1.17-1.77-1-2.59s.88-1.34,2.21-2c.93-.49,2.53.11,4.74,1.79a54.16,54.16,0,0,1,6.42,6c1.85,2,3.62,4,5,5.66-3.13-3.91-7.66-9.59-8.45-10.68a3.47,3.47,0,0,1-.91-2.8c.23-.84,1.08-1.56,2.58-2.18a.76.76,0,0,1,.27-.05c1.86,0,7.87,5.16,17.86,15.35,7.16,7.3,14.05,14.84,15.27,16.18-.61-1-3-4.92-4.83-8.41-.24-.46-.5-.92-.74-1.37a25.39,25.39,0,0,1-2.28-4.93c-.47-1.68-.22-2.87.76-3.74a4.89,4.89,0,0,1,5.3-.66h0c.18.21,18,21.73,21.21,26.62s3.82,15.7,3.83,16l3.06,5.92h0Z" style="fill:#f5f5f5"></path><path d="M177.33,337.85a23.87,23.87,0,0,1-1.69-2.71,65,65,0,0,0-4.38-6.29c-1.85-2.35-3.76-4.29-5-5.83a11.25,11.25,0,0,1-1.82-2.64c.07-.05.79.93,2.12,2.38s3.27,3.36,5.15,5.74a45.52,45.52,0,0,1,4.28,6.44A13.78,13.78,0,0,1,177.33,337.85Z" style="fill:#e0e0e0"></path><path d="M170.13,341.64a15,15,0,0,1-1.66-2.12c-1-1.33-2.36-3.16-4-5.11s-3.13-3.67-4.24-4.89a13.88,13.88,0,0,1-1.75-2,12,12,0,0,1,2,1.77,62.88,62.88,0,0,1,4.52,4.95,58.76,58.76,0,0,1,3.72,5.1A11.62,11.62,0,0,1,170.13,341.64Z" style="fill:#e0e0e0"></path><path d="M166.1,347.65c-.11.12-2.28-2-4.94-4.92-1.34-1.46-2.67-2.94-3.52-3.91a18.81,18.81,0,0,1-1.36-1.6c.17-.19,2.5,2.06,5.15,5A55,55,0,0,1,166.1,347.65Z" style="fill:#e0e0e0"></path><path d="M259.7,246s7.77,2.8,14.48,12.17c11,15.36,34.62,120.54,33.28,138.74-1.54,20.94-15.28,39.74-33.64,36.61-15.3-2.6-81.79-54.84-81.79-54.84l26.25-28.19,39.49,15.35-25.26-70Z" style="fill:#ebebeb"></path><path d="M280.09,433.82s-.17,0-.52.06L278,434c-.34,0-.72.08-1.15.07l-1.39-.06-1.63-.06-1.84-.26c-5.21-.68-12.57-3.1-21-7.6a184.94,184.94,0,0,1-27.94-18.9,344.9,344.9,0,0,1-31.25-28.37l-.17-.18.17-.17,16.75-18,9.5-10.2.12-.12.16.06,39.49,15.37-.31.29c-6.4-21.19-11.79-39.07-15.6-51.67-1.87-6.29-3.36-11.25-4.38-14.66-.5-1.69-.88-3-1.14-3.89-.12-.43-.22-.76-.29-1s-.08-.35-.08-.35a3.31,3.31,0,0,1,.12.33l.32,1c.28.9.69,2.19,1.21,3.87l4.51,14.63c3.85,12.58,9.31,30.44,15.78,51.61l.14.47-.45-.18-39.51-15.33.28-.06L209,360.82l-16.76,18v-.35a347.68,347.68,0,0,0,31.16,28.38,187.67,187.67,0,0,0,27.82,19c8.35,4.54,15.66,7,20.84,7.72l1.83.28,1.62.09,1.38.07c.42,0,.81,0,1.15,0l1.55-.08Z" style="fill:#e0e0e0"></path><path d="M159,237.48c3.5,2.19,8.07,1.48,12,.09,7.89-2.8,14.71-7.94,22.26-11.56s16.68-5.61,24.16-1.85c1.63.81,3.26,2.08,3.54,3.89.23,1.42-.45,2.81-.89,4.19-2.5,7.9,6.79-.8,8.45,7.32,2.35,11.53-5.27,38-15.54,43.77-5.91,3.3-15.1,7.35-21.86,7.31-13.24-.08-26.83-4.49-36.09-13.95a20.17,20.17,0,0,1-4.92-7.35,21.4,21.4,0,0,1-.45-10.1,54.11,54.11,0,0,1,9.21-23.11" style="fill:#e0e0e0"></path><path d="M219.32,230.37a2.56,2.56,0,0,1-.53.43c-.39.3-.91.68-1.55,1.15l-5.74,4.18c-4.87,3.49-11.56,8.48-19.83,12.5-2.07,1-4.15,1.85-6.18,2.61a34.73,34.73,0,0,1-6.07,1.51,55.51,55.51,0,0,1-10.54.69,30.5,30.5,0,0,1-7-1,10.24,10.24,0,0,1-2.43-1c0-.06.86.37,2.48.76a32.54,32.54,0,0,0,7,.79,58,58,0,0,0,10.45-.8,34,34,0,0,0,6-1.51c2-.76,4.07-1.6,6.12-2.6,8.22-4,14.93-8.92,19.85-12.33,2.45-1.72,4.44-3.11,5.83-4.05l1.61-1.06A4.57,4.57,0,0,1,219.32,230.37Z" style="fill:#ebebeb"></path><path d="M217.72,242.59a2.46,2.46,0,0,1-.3.61c-.22.38-.5,1-1,1.67a39.81,39.81,0,0,1-4.3,5.65,41.19,41.19,0,0,1-32.56,13.64,41.8,41.8,0,0,1-10.39-1.75,39.08,39.08,0,0,1-6.6-2.64c-.75-.36-1.3-.72-1.69-.93a2.87,2.87,0,0,1-.56-.37,4.22,4.22,0,0,1,.62.27c.4.19,1,.52,1.72.85a44.13,44.13,0,0,0,6.61,2.47,43.21,43.21,0,0,0,10.31,1.62A41,41,0,0,0,203.89,257a43.17,43.17,0,0,0,8-6.69,44.41,44.41,0,0,0,4.4-5.51c.48-.68.79-1.25,1-1.62A3.57,3.57,0,0,1,217.72,242.59Z" style="fill:#ebebeb"></path><path d="M121.75,244.23S84.17,253.39,80,290.64c-2.73,24.2-16.15,95.3-9.25,110.07,7.29,15.62,36.22,27.19,52.44,4s26.5-100.78,26.5-100.78l-36-18.53Z" style="fill:#ebebeb"></path><path d="M127.54,396.87a4.63,4.63,0,0,1,.12-.47c.09-.33.22-.77.4-1.36.36-1.21.89-3,1.58-5.23,1.37-4.55,3.35-11.17,5.68-19.46C140,353.77,146,330.48,151,303.7l.14.27-15.43-7.54-22.17-10.84.33-.11c-5.94,11.22-11.68,21.64-16.64,31.1s-9.14,18-12.29,25.25a165.36,165.36,0,0,0-6.52,17.38c-.69,2.06-1.07,3.69-1.39,4.78l-.35,1.24c-.08.28-.13.42-.13.42s0-.14.09-.43L77,364c.29-1.1.65-2.74,1.31-4.81a155.81,155.81,0,0,1,6.39-17.46c3.11-7.28,7.26-15.83,12.2-25.32s10.65-19.91,16.58-31.13l.12-.22.22.11L136,296l15.43,7.54.17.09,0,.19c-5,26.8-11.14,50.09-15.89,66.65-2.38,8.28-4.41,14.89-5.84,19.43-.72,2.25-1.28,4-1.66,5.2-.19.58-.34,1-.45,1.34S127.54,396.87,127.54,396.87Z" style="fill:#e0e0e0"></path><path d="M122.64,266s-10.08-14.93-10.27-17.95.19-9.43,1.14-9.62c0,0-1-2.45.18-3.77s3.59-3.59,3.59-3.59-.76-3.77.75-4.71S129.54,217,129.54,217s4.15-8.49,6.41-8.68,6.23-.38,7.74.75,7.92,6.59,7.92,6.59,2.08,0,3,0,4,5.67,4,5.67,3.21.38,4,2.08S161,246.18,161,246.18l-7.54,24-6.16,33.19-31-16.66Z" style="fill:#f5f5f5"></path><path d="M122.64,266a2.12,2.12,0,0,1-.08.35c-.07.25-.17.59-.29,1-.27.94-.67,2.29-1.18,4-1.06,3.57-2.6,8.74-4.54,15.29l-.09-.21,31,16.58-.39.19c1.85-10.06,3.91-21.26,6.11-33.2h0v0l7.54-24v.06c.16-1.67.35-3.47.53-5.28.36-3.78.7-7.52.94-11.22a53.08,53.08,0,0,0,.16-5.47,2,2,0,0,0-1.33-1.84,8.19,8.19,0,0,0-2.48-.75l-.16,0-.08-.14a44.71,44.71,0,0,0-2.58-4.29,7.08,7.08,0,0,0-.75-.93,1.08,1.08,0,0,0-.2-.18.45.45,0,0,0-.14-.1,4.45,4.45,0,0,0-.56,0H151.5l-.09-.07-5.89-4.9-1.44-1.2a3.7,3.7,0,0,0-1.49-.92,12.8,12.8,0,0,0-3.56-.4c-.6,0-1.21,0-1.8.05a5,5,0,0,0-1.66.23,8.72,8.72,0,0,0-2.33,2.46,47.83,47.83,0,0,0-3.45,5.91l0,.05,0,0q-4.12,3.49-8,6.65c-1.27,1-2.6,2.09-3.81,3a3.34,3.34,0,0,0-.6,2,10.33,10.33,0,0,0,.17,2.23l0,.13-.09.09c-1.16,1.08-2.28,2.14-3.29,3.23s-.85,2.63-.45,3.87l.09.26-.24,0c-.07,0-.26.33-.32.57a5.93,5.93,0,0,0-.21.83c-.12.57-.19,1.14-.26,1.7-.12,1.12-.19,2.22-.22,3.29a26.54,26.54,0,0,0,0,3.1,11,11,0,0,0,1,2.67c1.68,3.36,3.39,6.1,4.76,8.34l3.21,5.09.83,1.31a3.43,3.43,0,0,1,.27.46s-.11-.14-.32-.42-.5-.74-.88-1.28c-.77-1.14-1.9-2.82-3.31-5s-3.14-4.94-4.86-8.31a11.14,11.14,0,0,1-1-2.79,27.16,27.16,0,0,1-.06-3.14c0-1.08.08-2.19.2-3.33.07-.57.14-1.14.25-1.73.06-.29.13-.58.22-.88a3.14,3.14,0,0,1,.18-.44.78.78,0,0,1,.45-.42l-.15.29a6.24,6.24,0,0,1-.39-2.19,3.61,3.61,0,0,1,.22-1.16,3.3,3.3,0,0,1,.68-1c1-1.12,2.14-2.19,3.3-3.28l-.07.22a11.38,11.38,0,0,1-.19-2.34,3.69,3.69,0,0,1,.72-2.36c1.34-1,2.55-2,3.84-3,2.56-2.11,5.2-4.34,7.94-6.66l-.07.08a50,50,0,0,1,3.48-6,9.12,9.12,0,0,1,2.54-2.65,5.23,5.23,0,0,1,1.88-.29c.61,0,1.22-.06,1.84-.06a13.4,13.4,0,0,1,3.74.43,3.93,3.93,0,0,1,.92.41,7.51,7.51,0,0,1,.75.59l1.45,1.2,5.92,4.91-.2-.07h2.48a3.21,3.21,0,0,1,.67,0,.93.93,0,0,1,.4.2,3.08,3.08,0,0,1,.26.24,8.63,8.63,0,0,1,.82,1,46.68,46.68,0,0,1,2.63,4.36l-.24-.17a8.61,8.61,0,0,1,2.69.81,3.9,3.9,0,0,1,1.17.91,2.2,2.2,0,0,1,.5,1.44,54.26,54.26,0,0,1-.16,5.56c-.24,3.71-.57,7.46-.94,11.25-.18,1.81-.36,3.61-.53,5.28v.06c-2.61,8.26-5.14,16.3-7.56,24v0c-2.23,11.92-4.32,23.12-6.19,33.18l-.07.36-.33-.17-30.92-16.74-.13-.07,0-.14c2-6.5,3.6-11.64,4.7-15.18.55-1.74,1-3.09,1.27-4,.14-.44.26-.78.34-1A2.47,2.47,0,0,1,122.64,266Z" style="fill:#e0e0e0"></path><path d="M156.56,231.3c.06.07-1.24.42-2.87-.61a8.9,8.9,0,0,1-2.28-2.3,17.41,17.41,0,0,1-2-3.37,9.31,9.31,0,0,1-.4-3.94,9,9,0,0,1,.53-3.19,3.87,3.87,0,0,1,1.34-1.74c.45-.29.74-.33.75-.3a4.49,4.49,0,0,0-1.67,2.2,9.69,9.69,0,0,0-.37,3,9.81,9.81,0,0,0,.41,3.7,19.91,19.91,0,0,0,1.94,3.26,9,9,0,0,0,2.05,2.26A5.6,5.6,0,0,0,156.56,231.3Z" style="fill:#e0e0e0"></path><path d="M159.63,243.74a6.4,6.4,0,0,1-2.44-.59,10.09,10.09,0,0,1-2.44-1.3,7.23,7.23,0,0,1-2.24-2.59,10,10,0,0,1-.79-6,6.88,6.88,0,0,1,.67-2.43,17,17,0,0,1-.22,2.48,10.68,10.68,0,0,0,.91,5.7,8.65,8.65,0,0,0,4.28,3.76A19.41,19.41,0,0,1,159.63,243.74Z" style="fill:#e0e0e0"></path><path d="M150.15,263.89c-.19.1-1.75-3.52-4.86-7.15s-6.4-5.79-6.28-6a8.15,8.15,0,0,1,2.21,1.31,26.45,26.45,0,0,1,4.55,4.23,25.85,25.85,0,0,1,3.44,5.18A8,8,0,0,1,150.15,263.89Z" style="fill:#e0e0e0"></path><path d="M151.88,260.82c-.1,0-.22-.89-.83-2.18a12.42,12.42,0,0,0-3.48-4.27,29.28,29.28,0,0,0-4.77-3,9,9,0,0,1-2.05-1.19A8.46,8.46,0,0,1,143,251a21.26,21.26,0,0,1,5,2.88,11.23,11.23,0,0,1,3.5,4.59A4.34,4.34,0,0,1,151.88,260.82Z" style="fill:#e0e0e0"></path><path d="M147.34,270.59c.06,0-.28.73-1.19,1.57a8.31,8.31,0,0,1-9,1.49c-1.12-.51-1.67-1-1.63-1.11s.69.32,1.8.69a9.31,9.31,0,0,0,4.47.4,9.41,9.41,0,0,0,4.1-1.81C146.79,271.11,147.26,270.52,147.34,270.59Z" style="fill:#e0e0e0"></path><path d="M128.61,217.85a29.41,29.41,0,0,1,4.74-3,6.61,6.61,0,0,1,2.25-.61,6.52,6.52,0,0,1,2.68.65A31.29,31.29,0,0,1,148.7,222a8.7,8.7,0,0,1,2.25,3.36,10,10,0,0,1,.26,3.09l-.12,7.27a6.47,6.47,0,0,1-.39,2.52,3.32,3.32,0,0,1-5.2.87" style="fill:#f5f5f5"></path><path d="M145.5,239.12a3.87,3.87,0,0,0,1.61.72,3.67,3.67,0,0,0,2-.3,2.75,2.75,0,0,0,1.58-2,19.91,19.91,0,0,0,.15-3.38c0-1.25,0-2.57,0-4a24.68,24.68,0,0,0-.13-4.29,7.86,7.86,0,0,0-2.38-3.76,31.64,31.64,0,0,0-7.1-5.45,32.25,32.25,0,0,0-3.52-1.71,4.62,4.62,0,0,0-3.21-.31,15.81,15.81,0,0,0-4.36,2.23,8.64,8.64,0,0,1-1.58.95A13.27,13.27,0,0,1,130,216.7a14.61,14.61,0,0,1,4.39-2.46,4.41,4.41,0,0,1,1.72-.2,6.79,6.79,0,0,1,1.8.45,30.94,30.94,0,0,1,10.88,7.2,8.4,8.4,0,0,1,2.54,4.08,23.81,23.81,0,0,1,.11,4.43l-.1,4a20.39,20.39,0,0,1-.24,3.48,3.11,3.11,0,0,1-1.88,2.22,3.68,3.68,0,0,1-2.19.22,2.83,2.83,0,0,1-1.26-.6C145.58,239.27,145.48,239.13,145.5,239.12Z" style="fill:#e0e0e0"></path><path d="M137.9,246.13a6,6,0,0,0,6.83,1.21c.2-2.44.39-4.88.59-7.32a9,9,0,0,0-.22-3.66,8.78,8.78,0,0,0-1.36-2.3,68.1,68.1,0,0,0-6.7-8,8,8,0,0,0-4.46-2.64,8,8,0,0,0-3.92.85,39.51,39.51,0,0,0-12.29,8.22" style="fill:#f5f5f5"></path><path d="M116.37,232.52a1.88,1.88,0,0,1,.37-.44c.25-.27.64-.66,1.16-1.15a36.18,36.18,0,0,1,4.72-3.69,37.31,37.31,0,0,1,3.58-2.09,24.67,24.67,0,0,1,4.43-1.84,5.51,5.51,0,0,1,2.68,0,7,7,0,0,1,2.46,1.27,32.39,32.39,0,0,1,4,4c1.34,1.55,2.55,3.12,3.7,4.65a18.11,18.11,0,0,1,1.6,2.36,5.76,5.76,0,0,1,.6,2.72c-.19,3.52-.53,6.55-.74,9.07v.12l-.11.05a6.06,6.06,0,0,1-5.4-.13,5.56,5.56,0,0,1-1.2-.87c-.23-.24-.34-.38-.33-.4a10.27,10.27,0,0,0,1.64,1.06,6,6,0,0,0,5.1,0l-.12.17c.14-2.5.44-5.61.59-9a5.21,5.21,0,0,0-.56-2.45,17.28,17.28,0,0,0-1.56-2.26c-1.15-1.52-2.36-3.08-3.68-4.61a33.78,33.78,0,0,0-3.91-3.93,6.41,6.41,0,0,0-2.25-1.18,5,5,0,0,0-2.39,0,24.66,24.66,0,0,0-4.32,1.74,38.82,38.82,0,0,0-3.58,2,42.59,42.59,0,0,0-4.8,3.5A20.5,20.5,0,0,1,116.37,232.52Z" style="fill:#e0e0e0"></path><path d="M128.45,245.75c.1,0,.08.77-.68,1.55a12.46,12.46,0,0,1-3.2,2.47c-2.81,1.57-5.48,1.63-5.47,1.47s2.49-.53,5.17-2a18.64,18.64,0,0,0,3.18-2.24A5.5,5.5,0,0,0,128.45,245.75Z" style="fill:#e0e0e0"></path><path d="M127.25,243.26a3.38,3.38,0,0,0,2.68,2.18,5.82,5.82,0,0,0,1.93,4.63,2.94,2.94,0,0,0,1.78.82c1.33,0,2.3-1.2,3-2.34.8-1.35,1.55-2.73,2.23-4.14a3,3,0,0,0,.4-2.3,2.91,2.91,0,0,0-.8-1.05l-5-4.92a7.91,7.91,0,0,0-2.53-1.9,8,8,0,0,0-4.3,0c-4.67.82-8.94,1.88-12.92,4.45" style="fill:#f5f5f5"></path><path d="M113.69,238.65s.13-.13.41-.33.71-.47,1.28-.8a25.19,25.19,0,0,1,5.11-2.17,47.65,47.65,0,0,1,8.06-1.7A5.69,5.69,0,0,1,131,234a6.61,6.61,0,0,1,2.12,1.45l3.73,3.63c.42.41.84.83,1.26,1.23a12,12,0,0,1,1.23,1.31,2.23,2.23,0,0,1,.22,1.89,7.67,7.67,0,0,1-.69,1.56l-1.53,2.8a9.13,9.13,0,0,1-1.74,2.49,3.24,3.24,0,0,1-1.32.76,2.34,2.34,0,0,1-1.46-.11,4.81,4.81,0,0,1-2-1.66,6,6,0,0,1-1.1-3.88l.14.17a3.45,3.45,0,0,1-2.29-1.46,2.87,2.87,0,0,1-.32-.64.53.53,0,0,1,0-.24s.14.3.51.78a3.35,3.35,0,0,0,2.19,1.24l.15,0v.15a5.77,5.77,0,0,0,1.15,3.6A4.35,4.35,0,0,0,133,250.5a2,2,0,0,0,2.22-.58,8.88,8.88,0,0,0,1.61-2.38l1.49-2.78c.5-.93,1-2,.49-2.83a9.78,9.78,0,0,0-1.15-1.2l-1.26-1.24-3.7-3.63a6.42,6.42,0,0,0-1.92-1.34,5.31,5.31,0,0,0-2.2-.29,52.68,52.68,0,0,0-8,1.55,29.48,29.48,0,0,0-5.13,2A19.91,19.91,0,0,1,113.69,238.65Z" style="fill:#e0e0e0"></path><path d="M128.06,246c0,.07-.34.35-1.06.5a5.69,5.69,0,0,1-2.81-.18,7.25,7.25,0,0,1-3.36-2c.1-.19,1.61.72,3.55,1.36a7.51,7.51,0,0,0,2.56.34C127.61,246,128,245.93,128.06,246Z" style="fill:#e0e0e0"></path><path d="M98.64,217.41a11.15,11.15,0,0,1-1.86.11c-1.2,0-2.93,0-5.07,0-4.28,0-10.18-.19-16.7-.41l-16.69-.6-5.06-.19a9.28,9.28,0,0,1-1.86-.15,11,11,0,0,1,1.86-.11c1.2,0,2.93,0,5.07,0,4.27,0,10.18.19,16.7.41l16.69.6,5.06.19A9.28,9.28,0,0,1,98.64,217.41Z" style="fill:#e0e0e0"></path><path d="M97.33,211.22c-.07.17-7.44-2.77-16.46-6.58s-16.27-7-16.2-7.2,7.44,2.78,16.46,6.58S97.4,211.06,97.33,211.22Z" style="fill:#e0e0e0"></path><path d="M98,224.34c.08.16-3.9,2.51-8.9,5.24s-9.12,4.83-9.21,4.66,3.89-2.51,8.89-5.24S97.89,224.18,98,224.34Z" style="fill:#e0e0e0"></path></g><g id="freepik--Character--inject-108"><path d="M472.3,339.25a6.38,6.38,0,0,0-3-5c-26.7-17.67-46.82-56.84-48.85-90-.05-1.89-.11-3.81-.17-5.74v0h0c-1.55-47.41-8.53-104.9-14.79-120.23-11.58-28.3-50.78-31-50.78-31-52.05-3.73-61.34,36.26-66.6,72.69-3.26,22.65-15.85,103.56-15.85,103.56l9.57,3.71c11.27,33.39,36.64,60.4,69.63,72.82,9.59,3.61,17.71,5.06,21.53,1.95a130.86,130.86,0,0,0,54.76,33.25c8.41,2.56,17.22,4.27,26,3.45,5.68-.53,11.67-2.41,15.06-7A13,13,0,0,0,457.57,351C459.54,344.57,472.52,346.45,472.3,339.25Z" style="fill:#263238"></path><path d="M361.62,102l-3.25-3.11-35.19,14.18a9.83,9.83,0,0,0-9.27,9.51l.3,114.65c0,7.77,1.52,14.5,6.21,20.7l4.94,6.53c11.27,14.87,34.45,13.65,43.37-2.74a12.28,12.28,0,0,0,1.24-3,23.47,23.47,0,0,0,.53-2.56c1-9.23,1.1-17.22,1.1-17.22.63-10.13.84-14.28.84-14.19s21.55-2.48,27.38-30.14c2.89-13.76,2.35-32.69,1.53-51.31C400.23,117.59,382.34,102,361.62,102Z" style="fill:#ffbf9d"></path><path d="M354.41,158.81a3.59,3.59,0,0,1-3.63,3.44,3.44,3.44,0,0,1-3.53-3.41,3.59,3.59,0,0,1,3.63-3.44A3.42,3.42,0,0,1,354.41,158.81Z" style="fill:#263238"></path><path d="M390.78,159.79a3.59,3.59,0,0,1-3.63,3.44,3.43,3.43,0,0,1-3.52-3.41,3.58,3.58,0,0,1,3.62-3.44A3.42,3.42,0,0,1,390.78,159.79Z" style="fill:#263238"></path><path d="M397.67,150.73c-.46.45-3.07-1.69-6.92-1.88s-6.77,1.61-7.16,1.11c-.2-.22.3-1,1.57-1.87a9.86,9.86,0,0,1,5.76-1.46,9.39,9.39,0,0,1,5.49,2.08C397.54,149.67,397.9,150.54,397.67,150.73Z" style="fill:#263238"></path><path d="M358.62,151.13c-.51.4-2.89-2-6.7-2.58s-6.89.9-7.23.37c-.17-.24.4-1,1.76-1.7a9.84,9.84,0,0,1,5.88-.87,9.45,9.45,0,0,1,5.24,2.63C358.6,150.06,358.87,151,358.62,151.13Z" style="fill:#263238"></path><path d="M372.06,179.15c0-.22,2.41-.52,6.31-.82,1-.05,1.93-.2,2.13-.86s-.09-1.78-.51-2.95q-1.22-3.63-2.53-7.62c-3.5-10.86-6-19.77-5.55-19.9s3.63,8.55,7.14,19.4c.83,2.68,1.64,5.23,2.4,7.67.32,1.13.89,2.43.32,3.88a2.48,2.48,0,0,1-1.69,1.36,7,7,0,0,1-1.68.15C374.49,179.47,372.07,179.37,372.06,179.15Z" style="fill:#263238"></path><path d="M372.44,224.82A71.06,71.06,0,0,1,335.59,213s8.42,19.77,36.47,18.56Z" style="fill:#ff9a6c"></path><path d="M370,188.34a6.94,6.94,0,0,0-6.09-2.89,6.39,6.39,0,0,0-4.49,2.13,4,4,0,0,0-.53,4.57c1,1.51,3.12,2,5,1.53a14.7,14.7,0,0,0,5.07-2.69,4.24,4.24,0,0,0,1.15-1.08,1.29,1.29,0,0,0,.07-1.44" style="fill:#ff9a6c"></path><path d="M362.3,136.13c-.53,1-4.26-.09-8.81-.24s-8.35.52-8.8-.5c-.2-.49.58-1.37,2.19-2.15a15.36,15.36,0,0,1,13.42.57C361.84,134.72,362.54,135.66,362.3,136.13Z" style="fill:#263238"></path><path d="M397.12,134.2c-.72.84-3.33-.2-6.51-.4s-5.92.29-6.5-.66c-.25-.45.22-1.31,1.44-2.08a9.48,9.48,0,0,1,10.48.85C397.11,132.87,397.44,133.79,397.12,134.2Z" style="fill:#263238"></path><path d="M314.61,171.55s19.71,6.13,30.86-42.51c3.82-16.64,19.24-30.11,19.24-30.11l-6.26-1.88s-38.87,11-39.52,11.44-9.81,20.11-9.81,20.11Z" style="fill:#263238"></path><path d="M319.47,169.74c.09-2.08-2.06-7.09-4.1-7.52-5.43-1.13-15.32-1.18-16.11,12.72-1.08,19,18.22,16.17,18.29,15.63S319.12,176.91,319.47,169.74Z" style="fill:#ffbf9d"></path><path d="M312.15,183c-.08-.07-.34.21-.92.44a3.4,3.4,0,0,1-2.48-.09c-2-.85-3.47-4.14-3.37-7.57a11,11,0,0,1,1.2-4.69,3.82,3.82,0,0,1,2.63-2.4,1.69,1.69,0,0,1,1.9,1c.23.55.09.92.19,1s.42-.3.31-1.09a2.1,2.1,0,0,0-.68-1.24,2.49,2.49,0,0,0-1.8-.58c-1.47,0-2.87,1.29-3.63,2.75a11.31,11.31,0,0,0-1.45,5.23c-.09,3.84,1.67,7.53,4.37,8.48a3.53,3.53,0,0,0,3.06-.33C312.09,183.5,312.22,183.08,312.15,183Z" style="fill:#ff9a6c"></path><path d="M328,162.25c0-.07,1-.07,2.84-.58a17.12,17.12,0,0,0,6.77-3.93,22.86,22.86,0,0,0,3.53-4.13,31.19,31.19,0,0,0,2.87-5.56c1.69-4.09,2.77-8.86,4.1-13.82a142.63,142.63,0,0,1,4.37-13.8,80.32,80.32,0,0,1,5-10.74,57.84,57.84,0,0,1,4.36-6.68c.56-.75,1.05-1.3,1.36-1.68a3.59,3.59,0,0,1,.51-.56,6,6,0,0,1-.43.62c-.29.41-.75,1-1.29,1.74a65.09,65.09,0,0,0-4.19,6.74,80.87,80.87,0,0,0-4.83,10.73c-1.56,4.15-3,8.82-4.32,13.76s-2.43,9.74-4.15,13.87a31.54,31.54,0,0,1-3,5.61,23.26,23.26,0,0,1-3.64,4.17,16.88,16.88,0,0,1-6.95,3.85A10.48,10.48,0,0,1,328,162.25Z" style="fill:#263238"></path><path d="M302,243.34a5.19,5.19,0,0,1-.21-.91c-.12-.67-.27-1.57-.48-2.71-.4-2.44-1-5.91-1.71-10.32l.46-.06c.1.69.21,1.45.32,2.24l0-.07.4.86-.47.17a182.48,182.48,0,0,1-6.1-30.6A185.61,185.61,0,0,1,293,182.15c.07-6.94,0-14.32,1.88-21.69a33.67,33.67,0,0,1,3.46-8.63,47.09,47.09,0,0,1,5.25-7.32c3.87-4.47,8-8.31,11.83-12.12l20.41-20.07,13.81-13.49,3.78-3.63,1-.93c.23-.21.35-.31.37-.29a2.39,2.39,0,0,1-.3.35l-.94,1-3.67,3.75-13.62,13.68L316,133c-3.79,3.83-7.95,7.69-11.75,12.1a37.5,37.5,0,0,0-8.52,15.61c-1.83,7.21-1.8,14.56-1.88,21.48A187.51,187.51,0,0,0,295,201.86a190.6,190.6,0,0,0,5.82,30.54l-.48.18-.39-.86v-.07c-.1-.79-.19-1.56-.28-2.25l.46-.07c.64,4.42,1.14,7.91,1.5,10.36l.36,2.72A5.88,5.88,0,0,1,302,243.34Z" style="fill:#455a64"></path><path d="M287,155.48a2.77,2.77,0,0,1,.33-.81l1.11-2.23c1-1.94,2.48-4.68,4.47-8s4.53-7.18,7.52-11.33S307,124.58,311,120.18s8-8.34,11.76-11.8,7.37-6.36,10.46-8.68,5.65-4.14,7.48-5.3l2.1-1.34a3.37,3.37,0,0,1,.76-.42s-.21.22-.67.57l-2,1.47c-1.76,1.24-4.26,3.12-7.29,5.5s-6.54,5.35-10.3,8.79-7.71,7.42-11.65,11.79-7.43,8.75-10.48,12.83-5.6,7.91-7.64,11.18-3.65,5.95-4.71,7.83c-.5.86-.91,1.58-1.25,2.15A4,4,0,0,1,287,155.48Z" style="fill:#455a64"></path><path d="M371.32,192.45c-.16.4-3.48-.55-7.41-2.11s-7-3.17-6.82-3.57,3.47.55,7.4,2.11S371.48,192.05,371.32,192.45Z" style="fill:#263238"></path><path d="M449.7,429.79s-5.18-49.49-1.46-78.1-24.55-101.95-24.55-101.95l-31.58-5.32-20.54-3.68c-25.9,33-57.19.88-57.19.88L294,249.33l-28.88,13.43L296.62,403s-7.22,46.45-13.91,65.77H412.8l40.84-.15Z" style="fill:#1BAEA6"></path><path d="M485.37,412.33s17.09-7.8,17.09-23-10.4-36.78-12.63-45-35.07-78.36-55.4-90.6c-4.55-2.74-11.66-4-11.66-4l30.65,119.12L417,377.78l15.53,44.7Z" style="fill:#1BAEA6"></path><path d="M433.23,374.39l7.51-24.27L442,333.59l17.66-11.75s4.73.55,3.26,4.22-8.62,10.28-8.62,10.28l-4.23,11.78,6.87-12,10-5,9.91.74s1.83,4.4-2.76,4.58h-4.95l-7.52,6.06L457,354,464,343l10.46-3.72,6.61,1.7s1.83,2.93-1.47,3.3a54.93,54.93,0,0,1-5.51.37l-6.05,3.52-5.32,11.16,9.35-7.71,12.11-1.45s2,2.92-1.1,4a100.8,100.8,0,0,0-9.35,4.4L467,366.8Z" style="fill:#ffbf9d"></path><path d="M486.63,411.68a5.88,5.88,0,0,1-1,.29l-3.06.7L471,415.19l-40.25,8.55-.35.07-.12-.34c-3.38-10-7.1-20.94-11-32.43-1.39-4.09-2.75-8.12-4-12l-.15-.44.46-.11,30.29-7.12,13.05-3.05,5.88-1.37a28.1,28.1,0,0,1,5.52-.94,20.75,20.75,0,0,1,9.34,1.9,23.32,23.32,0,0,1,6,3.92,21.44,21.44,0,0,1,3,3.34l.64,1a1.59,1.59,0,0,1,.19.34,28.21,28.21,0,0,0-4.06-4.42,23.93,23.93,0,0,0-6-3.74,20.38,20.38,0,0,0-9.13-1.74,27.29,27.29,0,0,0-5.4,1L459.07,369l-13,3.13-30.27,7.21.3-.55,4.05,11.95c3.87,11.49,7.57,22.45,10.94,32.44l-.47-.26,40.32-8.24,11.57-2.29,3.08-.58A8.18,8.18,0,0,1,486.63,411.68Z" style="fill:#263238"></path><g style="opacity:0.30000000000000004"><path d="M296,411.89s9.1,19.07,20.92,24.65c16.12,7.61,102.79-7.05,102.79-7.05l-10.37-20.73-82.6,21.5Z"></path></g><path d="M267.27,261.85S250.92,263,250.55,305.7s49.79,114.43,58.33,121.49,18.32,11.81,44.07,8c32.3-4.78,54.77-9.1,54.77-9.1l-4.46-39-57.59-2.61-46.82-96.23S283.25,260,267.27,261.85Z" style="fill:#1BAEA6"></path><g style="opacity:0.30000000000000004"><path d="M417.3,403.46c-6.33-2.64-13.4-2.7-20.25-2.72l-27.27-.07c-5.88,0-11.84,0-17.53,1.45s-11.19,4.6-14.28,9.6l-14.25,11.77a94.22,94.22,0,0,0,54.95-3.22c4.41-1.64,8.75-3.63,13.4-4.36,12.31-1.93,24.78,5.21,37,2.93C429.11,412,423.63,406.09,417.3,403.46Z"></path></g><path d="M324.94,363.75s11.06,4.38,16.35,5.3,11.75,3,20.27,6.45a136.75,136.75,0,0,1,13.51,6.21l8.6,29.94s-14.28,9-30.4,8.52-30.4,4.75-32.47,3.3-2.3-4,0-5.14,12.07-2.53,12.07-2.53l8.42-3.46s-28.78,2.53-31.08,1.38-4.61-2.76-3.69-5.29a3.62,3.62,0,0,1,3.23-2.54s-6.22.23-6-2.3a7.94,7.94,0,0,1,3.45-5.3c.92-.46,13-5.37,13-5.37l15.53-3.08-14.92-.6-13,3.63s-5.2.59-4-3.79,17.05-9.21,17.05-9.21l20.26-1.39s-15.66-2.29-17.27-7.13S324.94,363.75,324.94,363.75Z" style="fill:#ffbf9d"></path><polygon points="375.07 381.71 376.07 381.71 415.62 379.97 427.45 414.5 383.67 411.65 375.07 381.71" style="fill:#ffbf9d"></polygon><path d="M340.55,401.35a33.58,33.58,0,0,1-4.83.38c-3,.18-7.09.52-11.59,1.2s-8.53,1.57-11.43,2.28a34,34,0,0,1-4.73,1.08,22.6,22.6,0,0,1,4.57-1.67A86.11,86.11,0,0,1,324,402.07a87.09,87.09,0,0,1,11.7-1A23.05,23.05,0,0,1,340.55,401.35Z" style="fill:#ff9a6c"></path><path d="M311,310a11,11,0,0,1-1.31-1.9c-.8-1.24-1.94-3.05-3.41-5.25A192.37,192.37,0,0,0,294,286.31a94,94,0,0,0-14.58-14.45,76.22,76.22,0,0,0-7.15-4.62,10.88,10.88,0,0,1,2.14.87,20.39,20.39,0,0,1,2.38,1.29,31.68,31.68,0,0,1,3,2c4.37,3.05,9.69,8.18,14.89,14.39a152.92,152.92,0,0,1,12.1,16.78c1.41,2.25,2.47,4.11,3.18,5.41A11.39,11.39,0,0,1,311,310Z" style="fill:#263238"></path><path d="M428.79,265.71l.19-.13c1,3.73,4,15.92,7.39,30.39,2.06,8.81,3.87,16.8,5.14,22.6l1.46,6.87a15.18,15.18,0,0,1,.42,2.55,13.93,13.93,0,0,1-.75-2.47c-.45-1.76-1-4-1.73-6.81-1.42-5.76-3.33-13.73-5.38-22.55-3.37-14.46-6.09-26.71-6.79-30.53l-.06-.3.24.17" style="fill:#263238"></path><path d="M377.82,431.11a5.13,5.13,0,0,1-1,.34l-3,.8c-2.6.67-6.38,1.56-11.11,2.43a136.69,136.69,0,0,1-16.76,2,77.81,77.81,0,0,1-20.63-1.38,41.62,41.62,0,0,1-10.15-3.55,33.94,33.94,0,0,1-4.41-2.66,30.62,30.62,0,0,1-3.62-3.35,133.75,133.75,0,0,1-10.44-13.28c-2.76-3.92-4.89-7.17-6.34-9.43-.66-1.08-1.21-1.95-1.63-2.63a5.32,5.32,0,0,1-.51-.95,4.69,4.69,0,0,1,.66.86l1.77,2.53c1.53,2.2,3.73,5.39,6.55,9.27a142.83,142.83,0,0,0,10.52,13.08,30.2,30.2,0,0,0,3.53,3.23,35.15,35.15,0,0,0,4.3,2.57,41.14,41.14,0,0,0,10,3.46,79,79,0,0,0,20.4,1.43,151,151,0,0,0,16.7-1.83c4.72-.8,8.52-1.59,11.13-2.16l3-.64A5,5,0,0,1,377.82,431.11Z" style="fill:#263238"></path><path d="M331.44,317.4l3.26-.53,5,14.89-2.4.39-.93-3v.05l-2.73.45.06,3.06-2.23.36Zm4.3,9.8-2.31-7.39h0l.19,7.73Z" style="fill:#fff"></path><path d="M341.14,330.72a4.11,4.11,0,0,1-1.36-2.7l-.15-.88,2.28-.37.17,1.05c.16,1,.66,1.42,1.49,1.28a1.16,1.16,0,0,0,.87-.51,1.78,1.78,0,0,0,.12-1.22,3.24,3.24,0,0,0-.71-1.62,8.29,8.29,0,0,0-1.91-1.5,9.87,9.87,0,0,1-2.46-2,4.84,4.84,0,0,1-1-2.29,4,4,0,0,1,.46-3,3.45,3.45,0,0,1,2.5-1.43,3.37,3.37,0,0,1,2.77.56,4.25,4.25,0,0,1,1.36,2.71l.1.63-2.27.38-.13-.79a1.77,1.77,0,0,0-.5-1.1,1.09,1.09,0,0,0-1-.21c-.8.13-1.12.68-1,1.66a2.91,2.91,0,0,0,.7,1.48,8.85,8.85,0,0,0,1.91,1.48,9.23,9.23,0,0,1,2.47,2,5.45,5.45,0,0,1,1,2.42,4.19,4.19,0,0,1-.46,3,3.52,3.52,0,0,1-2.53,1.44A3.41,3.41,0,0,1,341.14,330.72Z" style="fill:#fff"></path><path d="M349.92,323.39l-4.34-8.3,2.56-.42L350.7,320h0l.72-5.88,2.34-.39L352.33,323l1.06,6.51-2.4.4Z" style="fill:#fff"></path><path d="M354.89,313.56l3.43-.56,3.32,10.7h.05l-.27-11.2,3.43-.56,2.51,15.3-2.27.37L363.19,316h0l.14,11.86-2,.33-3.64-11.29h0l1.89,11.58-2.1.35Z" style="fill:#fff"></path><path d="M366.65,311.64l3.54-.58a3.53,3.53,0,0,1,2.84.52,4.07,4.07,0,0,1,1.36,2.67l.24,1.51a4,4,0,0,1-.43,3,3.57,3.57,0,0,1-2.53,1.41l-1.14.18,1,6.23-2.4.39Zm4.66,6.3a1.11,1.11,0,0,0,.83-.47,1.71,1.71,0,0,0,.12-1.16l-.3-1.82a1.69,1.69,0,0,0-.48-1.06,1.14,1.14,0,0,0-.94-.19l-1.13.19.77,4.7Z" style="fill:#fff"></path><path d="M377.36,312.13l-2.51.41-.36-2.19,7.43-1.21.36,2.18-2.52.41,2.15,13.12-2.4.39Z" style="fill:#fff"></path><path d="M386.13,323.35a4.06,4.06,0,0,1-1.41-2.69l-1.31-8a4.11,4.11,0,0,1,.47-3,3.58,3.58,0,0,1,2.55-1.44,3.53,3.53,0,0,1,2.87.56,4,4,0,0,1,1.41,2.68l1.31,8.05a4,4,0,0,1-.47,3,4.21,4.21,0,0,1-5.42.89Zm3.51-3.34-1.36-8.35c-.17-1-.66-1.44-1.49-1.3s-1.17.71-1,1.71l1.36,8.35c.17,1,.67,1.44,1.5,1.3S389.81,321,389.64,320Z" style="fill:#fff"></path><path d="M391.73,307.53l3.43-.56,3.32,10.7h0l-.27-11.2,3.43-.56,2.51,15.3-2.28.37L400,310h0l.14,11.87-2,.33-3.64-11.29h0l1.89,11.58-2.1.35Z" style="fill:#fff"></path><path d="M405.34,305.3l3.26-.53,5,14.89-2.4.39-.93-3v0l-2.73.45.05,3.06-2.22.37Zm4.3,9.8-2.31-7.38h0l.19,7.73Z" style="fill:#fff"></path><path d="M413.48,306.22l-2.51.41-.36-2.19,7.43-1.21.36,2.18-2.52.41L418,318.93l-2.4.4Z" style="fill:#fff"></path><path d="M419.2,303l2.4-.4,2.5,15.3-2.4.39Z" style="fill:#fff"></path><path d="M426.52,316.76a4.05,4.05,0,0,1-1.36-2.63l-1.34-8.22a4,4,0,0,1,.45-2.92,4.08,4.08,0,0,1,5.27-.86,4,4,0,0,1,1.36,2.63l.26,1.61-2.27.37L428.6,305c-.16-.94-.63-1.35-1.43-1.22s-1.13.67-1,1.62l1.4,8.54c.15.93.63,1.33,1.43,1.2s1.12-.66,1-1.59l-.38-2.34,2.27-.37.35,2.16a3.94,3.94,0,0,1-.45,2.92,3.44,3.44,0,0,1-2.47,1.42A3.49,3.49,0,0,1,426.52,316.76Z" style="fill:#fff"></path><path d="M392.42,362.08a2.06,2.06,0,0,1,.14-.48c.13-.37.3-.82.49-1.35.12-.3.24-.62.37-1s.23-.76.36-1.18a29.15,29.15,0,0,0,.8-2.89c.12-.55.25-1.11.39-1.7s.2-1.22.31-1.87c.24-1.28.32-2.68.46-4.14a51.23,51.23,0,0,0-.41-9.52,50.43,50.43,0,0,0-2.38-9.24c-.55-1.36-1-2.67-1.64-3.83-.3-.58-.55-1.16-.84-1.69l-.87-1.52c-.52-1-1.12-1.79-1.6-2.53-.25-.37-.47-.72-.69-1l-.63-.82-.87-1.15c-.19-.27-.29-.41-.27-.42s.13.11.35.35l.95,1.09c.2.25.43.51.67.8s.46.64.73,1c.5.73,1.13,1.53,1.68,2.51l.9,1.52c.31.52.57,1.11.87,1.69.63,1.17,1.14,2.48,1.71,3.85a44.43,44.43,0,0,1,2.81,19,38.86,38.86,0,0,1-.51,4.18c-.12.65-.2,1.28-.34,1.88s-.29,1.16-.42,1.71c-.24,1.09-.61,2-.88,2.89-.15.42-.27.82-.41,1.17s-.28.67-.41,1l-.58,1.32C392.52,361.94,392.44,362.09,392.42,362.08Z" style="fill:#263238"></path><g style="opacity:0.30000000000000004"><path d="M380.23,310.5C397.61,326.28,398,343,392.42,362.08c7.68-7.57,10.34-20.19,7.93-31.56s-10.29-17.46-20.12-20"></path></g><path d="M333.15,366.75c-.13.05-3.89-9.09-8.4-20.41s-8.05-20.55-7.92-20.61,3.9,9.09,8.41,20.42S333.29,366.7,333.15,366.75Z" style="fill:#263238"></path></g></svg>