<svg width="14" height="12" viewBox="0 0 14 12" fill="none" xmlns="http://www.w3.org/2000/svg">
<path d="M6.13218 0.248224C6.30294 -0.0827418 6.79634 -0.0827408 6.9671 0.248225L8.6304 3.47193C8.69821 3.60335 8.82929 3.69445 8.98092 3.71552L12.7002 4.23247C13.082 4.28554 13.2345 4.73439 12.9582 4.99201L10.2669 7.50131C10.1572 7.60361 10.1071 7.75101 10.133 7.89546L10.7683 11.4386C10.8336 11.8024 10.4344 12.0798 10.0929 11.9081L6.76627 10.2352C6.63065 10.167 6.46863 10.167 6.33301 10.2352L3.0064 11.9081C2.66487 12.0798 2.26571 11.8024 2.33094 11.4386L2.96626 7.89546C2.99216 7.751 2.94209 7.60361 2.83237 7.50131L0.141095 4.99201C-0.135209 4.73439 0.0172599 4.28554 0.399102 4.23247L4.11836 3.71552C4.26999 3.69445 4.40106 3.60335 4.46888 3.47193L6.13218 0.248224Z" fill="#60D2CE"/>
</svg>
