<svg width="14" height="12" viewBox="0 0 14 12" fill="none" xmlns="http://www.w3.org/2000/svg">
<path d="M6.92026 0.248224C7.09103 -0.0827418 7.58442 -0.0827408 7.75519 0.248225L9.41849 3.47193C9.4863 3.60335 9.61738 3.69445 9.76901 3.71552L13.4883 4.23247C13.8701 4.28554 14.0226 4.73439 13.7463 4.99201L11.055 7.50131C10.9453 7.60361 10.8952 7.75101 10.9211 7.89546L11.5564 11.4386C11.6217 11.8024 11.2225 12.0798 10.881 11.9081L7.55436 10.2352C7.41874 10.167 7.25671 10.167 7.12109 10.2352L3.79449 11.9081C3.45296 12.0798 3.0538 11.8024 3.11902 11.4386L3.75435 7.89546C3.78025 7.751 3.73018 7.60361 3.62046 7.50131L0.929181 4.99201C0.652877 4.73439 0.805346 4.28554 1.18719 4.23247L4.90644 3.71552C5.05807 3.69445 5.18915 3.60335 5.25696 3.47193L6.92026 0.248224Z" fill="black" fill-opacity="0.2"/>
</svg>
