<svg width="26" height="26" viewBox="0 0 26 26" fill="none" xmlns="http://www.w3.org/2000/svg">
<path fill-rule="evenodd" clip-rule="evenodd" d="M22.75 7.3125V22.75C22.75 24.5449 21.2949 26 19.5 26H17.875V24.375H19.5C20.3975 24.375 21.125 23.6475 21.125 22.75V7.3125H17.875C16.5288 7.3125 15.4375 6.22119 15.4375 4.875V1.625H6.5C5.60254 1.625 4.875 2.35254 4.875 3.25V17.875H3.25V3.25C3.25 1.45507 4.70508 0 6.5 0H15.4375L22.75 7.3125ZM2.59937 19.2563H0V25.7547H1.2854V23.5743H2.58984C3.0564 23.5743 3.45312 23.4806 3.78003 23.2934C4.11011 23.1029 4.36084 22.8459 4.53223 22.5221C4.70679 22.1952 4.79407 21.8286 4.79407 21.4224C4.79407 21.0161 4.70837 20.6496 4.53699 20.3227C4.3656 19.9958 4.11646 19.7371 3.78955 19.5467C3.46582 19.3531 3.06909 19.2563 2.59937 19.2563ZM3.48486 21.4224C3.48486 21.6636 3.43884 21.8699 3.3468 22.0413C3.25793 22.2095 3.12939 22.3396 2.96118 22.4317C2.79297 22.5205 2.58984 22.565 2.35181 22.565H1.28064V20.2798H2.35181C2.70728 20.2798 2.98499 20.3782 3.18494 20.575C3.38489 20.7718 3.48486 21.0542 3.48486 21.4224ZM5.46343 19.2563V25.7547H7.83428C8.48809 25.7547 9.02922 25.6261 9.45769 25.3691C9.88933 25.112 10.2115 24.739 10.4241 24.2503C10.6368 23.7615 10.7431 23.1744 10.7431 22.4888C10.7431 21.8064 10.6368 21.224 10.4241 20.7416C10.2146 20.2592 9.89568 19.891 9.46721 19.6371C9.03874 19.3832 8.49443 19.2563 7.83428 19.2563H5.46343ZM6.74883 20.3036H7.66289C8.06597 20.3036 8.39604 20.3861 8.65312 20.5512C8.91338 20.7162 9.1054 20.9622 9.22917 21.2891C9.35613 21.616 9.4196 22.0238 9.4196 22.5126C9.4196 22.8808 9.38311 23.2013 9.31011 23.4743C9.24028 23.7472 9.13396 23.9757 8.99114 24.1598C8.85149 24.3407 8.67058 24.4772 8.44841 24.5692C8.22624 24.6581 7.9644 24.7025 7.66289 24.7025H6.74883V20.3036ZM12.8312 23.1696V25.7547H11.5458V19.2563H15.6876V20.3179H12.8312V22.1317H15.44V23.1696H12.8312Z" fill="#FE4848"/>
</svg>
