<svg width="48" height="48" viewBox="0 0 48 48" fill="none" xmlns="http://www.w3.org/2000/svg">
<g filter="url(#filter0_d_1992_1781)">
<rect x="4" y="4" width="40" height="40" rx="10" fill="white" fill-opacity="0.9"/>
<path d="M19.6539 17.3285C19.4034 17.0065 18.9274 16.9769 18.639 17.2653L17.6051 18.2992C17.1216 18.7827 16.9439 19.4677 17.1551 20.0685C18.0034 22.4812 19.3922 24.7467 21.3227 26.6773C23.2533 28.6078 25.5188 29.9966 27.9315 30.8449C28.5323 31.0561 29.2173 30.8784 29.7008 30.3949L30.7347 29.361C31.0231 29.0726 30.9935 28.5966 30.6715 28.3461L28.3653 26.5524C28.2008 26.4245 27.9866 26.3793 27.7845 26.4298L25.5954 26.9771C25.0008 27.1257 24.3718 26.9515 23.9384 26.5181L21.4819 24.0616C21.0485 23.6282 20.8743 22.9992 21.0229 22.4046L21.5702 20.2155C21.6207 20.0134 21.5755 19.7992 21.4476 19.6347L19.6539 17.3285ZM17.8848 16.5111C18.6269 15.769 19.8515 15.8452 20.4958 16.6736L22.2895 18.9798C22.6187 19.403 22.735 19.9541 22.605 20.4742L22.0577 22.6633C21.9999 22.8944 22.0677 23.1389 22.2361 23.3073L24.6927 25.7639C24.8611 25.9323 25.1056 26.0001 25.3367 25.9423L27.5258 25.395C28.0459 25.265 28.597 25.3813 29.0202 25.7105L31.3264 27.5042C32.1548 28.1485 32.231 29.3731 31.4889 30.1152L30.455 31.1492C29.7153 31.8889 28.6089 32.2137 27.5778 31.8512C25.0175 30.9511 22.6144 29.4774 20.5685 27.4315C18.5226 25.3856 17.0489 22.9825 16.1488 20.4222C15.7863 19.3911 16.1111 18.2847 16.8508 17.545L17.8848 16.5111Z" fill="#4DC6E1"/>
</g>
<defs>
<filter id="filter0_d_1992_1781" x="0" y="0" width="48" height="48" filterUnits="userSpaceOnUse" color-interpolation-filters="sRGB">
<feFlood flood-opacity="0" result="BackgroundImageFix"/>
<feColorMatrix in="SourceAlpha" type="matrix" values="0 0 0 0 0 0 0 0 0 0 0 0 0 0 0 0 0 0 127 0" result="hardAlpha"/>
<feOffset/>
<feGaussianBlur stdDeviation="2"/>
<feComposite in2="hardAlpha" operator="out"/>
<feColorMatrix type="matrix" values="0 0 0 0 0 0 0 0 0 0 0 0 0 0 0 0 0 0 0.1 0"/>
<feBlend mode="normal" in2="BackgroundImageFix" result="effect1_dropShadow_1992_1781"/>
<feBlend mode="normal" in="SourceGraphic" in2="effect1_dropShadow_1992_1781" result="shape"/>
</filter>
</defs>
</svg>
