<svg xmlns="http://www.w3.org/2000/svg" viewBox="0 0 500 500"><g id="freepik--Floor--inject-19"><ellipse id="freepik--floor--inject-19" cx="245.71" cy="348.35" rx="223.4" ry="128.98" style="fill:#f0f0f0"></ellipse></g><g id="freepik--Shadows--inject-19"><ellipse id="freepik--Shadow--inject-19" cx="278.62" cy="395.45" rx="52.63" ry="30.39" style="fill:#e0e0e0"></ellipse><path id="freepik--shadow--inject-19" d="M121.9,412.18l-8.68-5.1a5.4,5.4,0,0,0-4.89,0l-13.47,7.77a5.4,5.4,0,0,1-4.89,0l-45.6-26.32c-1.35-.78-1.35-2,0-2.83l151.16-87.27a5.42,5.42,0,0,1,4.9,0L246,324.75c1.35.78,1.35,2.06,0,2.85l-13.49,7.93c-1.35.79-1.34,2.05,0,2.82l8.66,4.95c1.36.77,1.36,2,0,2.81L126.79,412.18A5.4,5.4,0,0,1,121.9,412.18Z" style="fill:#e0e0e0"></path><path id="freepik--shadow--inject-19" d="M261,343.93l96.79-56a5.83,5.83,0,0,1,5.27,0l89.49,51.67c1.46.84,1.46,2.2,0,3l-96.79,56a5.76,5.76,0,0,1-5.27,0l-7.29-4.2-48.65-28.09L261,347C259.54,346.13,259.54,344.77,261,343.93Z" style="fill:#e0e0e0"></path></g><g id="freepik--Plants--inject-19"><g id="freepik--plants--inject-19"><path d="M435,327.8l-4.37-12.32s-1.09-15.52,2.58-29.42c5.16-19.54,21.84-41.36,36.23-33.27s-11.19,24.69-18.88,40.73S435,327.8,435,327.8Z" style="fill:#1BAEA6"></path><path d="M435,327.8l-4.37-12.32s-1.09-15.52,2.58-29.42c5.16-19.54,21.84-41.36,36.23-33.27s-11.19,24.69-18.88,40.73S435,327.8,435,327.8Z" style="opacity:0.15"></path><path d="M432.25,322h0a.52.52,0,0,0,.58-.46c5.64-44.35,31.18-63,31.44-63.18a.52.52,0,0,0-.61-.85c-.26.19-26.17,19.1-31.86,63.9A.52.52,0,0,0,432.25,322Z" style="fill:#fff"></path><path d="M436.31,336.94l-4-10.2s.85-7.41,8.09-21.18c6.73-12.8,22.52-21.22,28.81-17.83s5.37,8.08,1.32,12.52S444.78,313.31,436.31,336.94Z" style="fill:#1BAEA6"></path><path d="M434.45,329.91c.71.14.94-1.59,1.09-2,.26-.82.54-1.63.85-2.44a49.87,49.87,0,0,1,2-4.62,56.11,56.11,0,0,1,5.13-8.24,65.75,65.75,0,0,1,5.94-6.87,77,77,0,0,1,6.06-5.51c1.78-1.44,3.62-2.82,5.51-4.11q2.07-1.43,4.25-2.71c.76-.44,1.52-.88,2.3-1.29l.23-.11a.53.53,0,0,0,.24-.7.52.52,0,0,0-.7-.24c-.49.24-1,.5-1.42.77-1.23.68-2.43,1.41-3.61,2.18-1.75,1.12-3.46,2.32-5.12,3.58-2.06,1.56-4.05,3.22-5.95,5a70.43,70.43,0,0,0-6.11,6.35,60.3,60.3,0,0,0-5.59,7.71,51.56,51.56,0,0,0-4.4,9.06c-.22.6-.43,1.21-.62,1.82a5.41,5.41,0,0,0-.53,1.92.57.57,0,0,0,.36.49Z" style="fill:#fff"></path></g><g id="freepik--plants--inject-19"><path d="M86.63,347.16s1.64-18.48-4.46-34.34-16.62-27.13-27.92-30.41-22.75,5.41-11.94,15.22,31.13,21.72,35.62,51Z" style="fill:#1BAEA6"></path><path d="M86.63,347.16s1.64-18.48-4.46-34.34-16.62-27.13-27.92-30.41-22.75,5.41-11.94,15.22,31.13,21.72,35.62,51Z" style="opacity:0.15"></path><path d="M84.22,341.78h.13a.64.64,0,0,0,.5-.74c-6-32.42-26.54-49.66-36.55-54.25a.62.62,0,0,0-.83.31.61.61,0,0,0,.31.83c9.81,4.5,29.92,21.43,35.84,53.34A.64.64,0,0,0,84.22,341.78Z" style="fill:#fff"></path><path d="M87.61,377.23c0-.92,0-1.85,0-2.77a31.29,31.29,0,0,1,1.07-7.7c.71-2.45,2.38-4.4,3-6.84s-.43-5.76-1.91-7.85-3.77-3.88-4.6-6.39c-1-3.16.92-6.33.08-9.24s-4.07-4.71-6.71-5.42c-3.52-.95-7.26-.71-10.82-1.54-4.59-1.08-8.56-3.87-12.73-6.09s-9-3.92-13.57-2.58a10.94,10.94,0,0,0-7,14.68c1,2.45,2.87,4.44,4.24,6.72s2.09,4.88,1.06,7.36c-.76,1.84-2.13,3.25-2.76,5.15-1.62,4.91-.72,9.32,4.17,11.83,5.11,2.62,13.17.65,15.7,7.08,1,2.44,1,5.13,1.52,7.71a20.78,20.78,0,0,0,8.41,12.78c4.68,3.25,12.05,5.15,17.41,2.55,4.36-2.13,3.47-5.54,3.61-9.83C87.87,383.64,87.66,380.43,87.61,377.23Z" style="fill:#1BAEA6"></path><path d="M50.22,355.65a.53.53,0,0,0,.35,0c.12-.05,12.39-5.72,26.61,1.93a.59.59,0,0,0,.55-1c-14.76-7.94-27.54-2-27.67-1.94a.6.6,0,0,0-.28.78A.61.61,0,0,0,50.22,355.65Z" style="fill:#fff"></path><path d="M88.43,386.92a.55.55,0,0,1-.56-.53c-1-24.73-25.84-50.88-42.49-58a.55.55,0,1,1,.43-1c16.91,7.25,42.13,33.84,43.16,59a.54.54,0,0,1-.52.57Z" style="fill:#fff"></path></g></g><g id="freepik--Device--inject-19"><g id="freepik--Mobile--inject-19"><path d="M225.49,33.49,101.62,105a9.3,9.3,0,0,0-4.18,7.26V404c0,2.67,1.88,3.75,4.18,2.41l123.87-71.51a9.28,9.28,0,0,0,4.18-7.26V35.9C229.67,33.24,227.8,32.15,225.49,33.49ZM223.64,306c0,2.28-1.6,3.74-3.59,4.88L106.64,376.4c-2,1.15-3.59.22-3.59-2.07V131.77h0a7.15,7.15,0,0,1,3.58-6.2L220.05,60.06a2.39,2.39,0,0,1,3.59,2.07h0Z" style="fill:#1BAEA6"></path><path d="M225.49,33.49,101.62,105a9.3,9.3,0,0,0-4.18,7.26V404c0,2.67,1.88,3.75,4.18,2.41l123.87-71.51a9.28,9.28,0,0,0,4.18-7.26V35.9C229.67,33.24,227.8,32.15,225.49,33.49ZM223.64,306c0,2.28-1.6,3.74-3.59,4.88L106.64,376.4c-2,1.15-3.59.22-3.59-2.07V131.77h0a7.15,7.15,0,0,1,3.58-6.2L220.05,60.06a2.39,2.39,0,0,1,3.59,2.07h0Z" style="opacity:0.30000000000000004"></path><path d="M223.64,306c0,2.28-1.6,3.74-3.59,4.88L106.64,376.4c-2,1.15-3.59.22-3.59-2.07V131.77h0a7.15,7.15,0,0,1,3.58-6.2L220.05,60.06a2.39,2.39,0,0,1,3.59,2.07h0Z" style="fill:#1BAEA6"></path><path d="M223.64,306c0,2.28-1.6,3.74-3.59,4.88L106.64,376.4c-2,1.15-3.59.22-3.59-2.07V131.77h0a7.15,7.15,0,0,1,3.58-6.2L220.05,60.06a2.39,2.39,0,0,1,3.59,2.07h0Z" style="opacity:0.5"></path><path d="M106.64,376.4l113.41-65.48a10.43,10.43,0,0,0,2.15-1.59L103.05,242.21V374.33C103.05,376.62,104.67,377.55,106.64,376.4Z" style="fill:#1BAEA6"></path><path d="M106.64,376.4l113.41-65.48a10.43,10.43,0,0,0,2.15-1.59L103.05,242.21V374.33C103.05,376.62,104.67,377.55,106.64,376.4Z" style="opacity:0.4"></path><path d="M214.46,301.76V63.28L106.63,125.57a7.15,7.15,0,0,0-3.58,6.2V368.9l107.82-62.26C212.86,305.5,214.46,304,214.46,301.76Z" style="fill:#37474f"></path><path d="M101.1,406.67a9.38,9.38,0,0,1-7.86-.26l-4.79-2.77a9.24,9.24,0,0,1-4.2-7.26V104.67a7.8,7.8,0,0,1,.73-3.13,8.61,8.61,0,0,1,.5-1,0,0,0,0,0,0,0l13.18,7.61h0a12,12,0,0,0-.73,1.54,7.64,7.64,0,0,0-.51,2.59V404C97.44,406.45,99,407.57,101.1,406.67Z" style="fill:#1BAEA6"></path><path d="M101.1,406.67a9.38,9.38,0,0,1-7.86-.26l-4.79-2.77a9.24,9.24,0,0,1-4.2-7.26V104.67a7.8,7.8,0,0,1,.73-3.13,8.61,8.61,0,0,1,.5-1,0,0,0,0,0,0,0l13.18,7.61h0a12,12,0,0,0-.73,1.54,7.64,7.64,0,0,0-.51,2.59V404C97.44,406.45,99,407.57,101.1,406.67Z" style="opacity:0.5"></path><path d="M167.25,347.93h0c2.69,0,3,3,3,4.3,0,4.67-3.43,10.6-7.48,12.94a5.93,5.93,0,0,1-2.89.91c-2.68,0-3-3-3-4.3,0-4.67,3.42-10.6,7.47-12.94a6,6,0,0,1,2.89-.91" style="fill:#1BAEA6"></path><path d="M163.46,73.91c1.14-.65,2-.12,2,1.18a4.51,4.51,0,0,1-2,3.55c-1.13.65-2,.12-2-1.18A4.52,4.52,0,0,1,163.46,73.91Z" style="fill:#263238"></path><path d="M150.25,91.2c1-.58,1.82-.11,1.82,1a4,4,0,0,1-1.82,3.15c-1,.58-1.82.11-1.82-1A4,4,0,0,1,150.25,91.2Z" style="fill:#263238"></path><path d="M156.33,87.6l20.33-11.74c1.12-.64,2-.19,2,1a4.3,4.3,0,0,1-2,3.35L156.33,92c-1.12.65-2,.19-2-1A4.33,4.33,0,0,1,156.33,87.6Z" style="fill:#263238"></path><path d="M229.63,35.24c-.3-2.18-2-3-4.14-1.75L101.62,105a8.5,8.5,0,0,0-3,3.13l-13.18-7.61a8.38,8.38,0,0,1,3-3.11L212.3,25.89a9.24,9.24,0,0,1,8.38,0l4.81,2.75A9.4,9.4,0,0,1,229.63,35.24Z" style="fill:#1BAEA6"></path><path d="M229.63,35.24c-.3-2.18-2-3-4.14-1.75L101.62,105a8.5,8.5,0,0,0-3,3.13l-13.18-7.61a8.38,8.38,0,0,1,3-3.11L212.3,25.89a9.24,9.24,0,0,1,8.38,0l4.81,2.75A9.4,9.4,0,0,1,229.63,35.24Z" style="opacity:0.4"></path><g id="freepik--device--inject-19"><g id="freepik--mobile--inject-19"><path d="M197.14,44.1a4.65,4.65,0,0,1-4.19.08,1.38,1.38,0,0,1-.8-1.15c0-.3,0-1.45,0-1.76a1.57,1.57,0,0,1,.93-1.26l13.28-7.67a4.64,4.64,0,0,1,4.2-.07,1.37,1.37,0,0,1,.79,1.09c0,.31,0,1.5,0,1.81a1.58,1.58,0,0,1-.94,1.26Z" style="fill:#1BAEA6"></path><path d="M197.14,44.1a4.65,4.65,0,0,1-4.19.08,1.38,1.38,0,0,1-.8-1.15c0-.3,0-1.45,0-1.76a1.57,1.57,0,0,1,.93-1.26l13.28-7.67a4.64,4.64,0,0,1,4.2-.07,1.37,1.37,0,0,1,.79,1.09c0,.31,0,1.5,0,1.81a1.58,1.58,0,0,1-.94,1.26Z" style="opacity:0.25"></path><path d="M197.14,42.35l13.28-7.66c1.2-.69,1.26-1.78.14-2.42a4.64,4.64,0,0,0-4.2.07L193.08,40c-1.19.69-1.25,1.77-.13,2.42A4.62,4.62,0,0,0,197.14,42.35Z" style="fill:#1BAEA6"></path><path d="M197.14,42.35l13.28-7.66c1.2-.69,1.26-1.78.14-2.42a4.64,4.64,0,0,0-4.2.07L193.08,40c-1.19.69-1.25,1.77-.13,2.42A4.62,4.62,0,0,0,197.14,42.35Z" style="opacity:0.30000000000000004"></path></g></g><g id="freepik--device--inject-19"><g id="freepik--mobile--inject-19"><path d="M92.55,148.62a4.63,4.63,0,0,0-2-3.67,1.34,1.34,0,0,0-1.4-.12l-1.52.87a1.58,1.58,0,0,0-.63,1.44v32.53a4.65,4.65,0,0,0,2,3.67,1.38,1.38,0,0,0,1.35.14c.28-.14,1.3-.74,1.57-.89a1.63,1.63,0,0,0,.63-1.45Z" style="fill:#1BAEA6"></path><path d="M92.55,148.62a4.63,4.63,0,0,0-2-3.67,1.34,1.34,0,0,0-1.4-.12l-1.52.87a1.58,1.58,0,0,0-.63,1.44v32.53a4.65,4.65,0,0,0,2,3.67,1.38,1.38,0,0,0,1.35.14c.28-.14,1.3-.74,1.57-.89a1.63,1.63,0,0,0,.63-1.45Z" style="opacity:0.30000000000000004"></path><path d="M91,149.49V182c0,1.38-.91,2-2,1.33a4.65,4.65,0,0,1-2-3.67V147.14c0-1.38.91-2,2-1.32A4.61,4.61,0,0,1,91,149.49Z" style="fill:#1BAEA6"></path><path d="M91,149.49V182c0,1.38-.91,2-2,1.33a4.65,4.65,0,0,1-2-3.67V147.14c0-1.38.91-2,2-1.32A4.61,4.61,0,0,1,91,149.49Z" style="opacity:0.4"></path><path d="M92.55,192.15a4.65,4.65,0,0,0-2-3.67,1.36,1.36,0,0,0-1.4-.11l-1.52.87a1.58,1.58,0,0,0-.63,1.44V206a4.63,4.63,0,0,0,2,3.67,1.41,1.41,0,0,0,1.35.15c.28-.15,1.3-.74,1.57-.9a1.6,1.6,0,0,0,.63-1.44Z" style="fill:#1BAEA6"></path><path d="M92.55,192.15a4.65,4.65,0,0,0-2-3.67,1.36,1.36,0,0,0-1.4-.11l-1.52.87a1.58,1.58,0,0,0-.63,1.44V206a4.63,4.63,0,0,0,2,3.67,1.41,1.41,0,0,0,1.35.15c.28-.15,1.3-.74,1.57-.9a1.6,1.6,0,0,0,.63-1.44Z" style="opacity:0.30000000000000004"></path><path d="M91,193v15.34c0,1.38-.91,2-2,1.32A4.63,4.63,0,0,1,87,206V190.68c0-1.38.91-2,2-1.33A4.63,4.63,0,0,1,91,193Z" style="fill:#1BAEA6"></path><path d="M91,193v15.34c0,1.38-.91,2-2,1.32A4.63,4.63,0,0,1,87,206V190.68c0-1.38.91-2,2-1.33A4.63,4.63,0,0,1,91,193Z" style="opacity:0.4"></path></g></g></g></g><g id="freepik--Screen--inject-19"><g id="freepik--Window--inject-19"><path d="M234,68.36l-114.45,66a5.7,5.7,0,0,0-2.58,4.47V380.94a5.67,5.67,0,0,0,2.58,4.45l1.61.92a5.69,5.69,0,0,0,5.16,0l114.46-66.09a5.71,5.71,0,0,0,2.57-4.47v-242a5.66,5.66,0,0,0-2.58-4.45l-1.61-.92A5.72,5.72,0,0,0,234,68.36Z" style="fill:#e0e0e0"></path><path d="M243.3,315.93c0,2.26-1.59,3.71-3.56,4.84l-112.49,65c-2,1.13-3.56.22-3.56-2.06V143.81h0a7.09,7.09,0,0,1,3.55-6.14l112.5-65a2.38,2.38,0,0,1,3.56,2.06h0Z" style="fill:#fafafa"></path><path d="M123.67,181.85l0,201.81c0,2.28,1.6,3.19,3.56,2.06l112.49-65c2-1.13,3.56-2.58,3.56-4.84l0-203.14Z" style="fill:#f0f0f0"></path><path d="M240.92,73.35a1.39,1.39,0,0,1,1.39,1.39V315.93c0,1.53-.94,2.76-3.06,4L126.76,384.86a2.29,2.29,0,0,1-1.09.35c-.89,0-1-1.08-1-1.55V143.81a6.11,6.11,0,0,1,3-5.28l112.51-65a1.37,1.37,0,0,1,.68-.19m0-1a2.36,2.36,0,0,0-1.18.32l-112.5,65a7.09,7.09,0,0,0-3.55,6.14V383.66c0,1.62.81,2.55,2,2.55a3.22,3.22,0,0,0,1.58-.49l112.49-65c2-1.13,3.56-2.58,3.56-4.84V74.74a2.37,2.37,0,0,0-2.38-2.38Z" style="fill:#e0e0e0"></path><path d="M243.31,73.73v1a2.38,2.38,0,0,0-3.57-2.06l-112.5,65a6.92,6.92,0,0,0-2.59,2.59.3.3,0,0,0,0,.08l-7-4a5.3,5.3,0,0,1,1.85-2L234,68.36a5.75,5.75,0,0,1,5.16,0l1.61.92A5.67,5.67,0,0,1,243.31,73.73Z" style="fill:#f0f0f0"></path><path d="M145.66,141.27a.34.34,0,0,1,0-.17v-.83l-1.3.75c-.07,0-.11,0-.11-.12v-.3a.7.7,0,0,1,0-.16.73.73,0,0,1,0-.16l1.38-3.77a1.13,1.13,0,0,1,.07-.15.24.24,0,0,1,.09-.08l.18-.1c.05,0,.09,0,.12,0a.38.38,0,0,1,0,.19v2.9l.29-.17c.06,0,.09,0,.12,0a.36.36,0,0,1,0,.18v.2a.56.56,0,0,1,0,.2.3.3,0,0,1-.12.13l-.29.16v.83a.58.58,0,0,1,0,.21.25.25,0,0,1-.12.13l-.22.13A.11.11,0,0,1,145.66,141.27Zm.06-1.76v-2.07l-.95,2.61Z" style="fill:#455a64"></path><path d="M147.21,139.87a2.67,2.67,0,0,1-.38-1.69,5.35,5.35,0,0,1,.38-2.14,2.58,2.58,0,0,1,1.07-1.29,1.39,1.39,0,0,1,.53-.2.53.53,0,0,1,.4.06.08.08,0,0,1,0,.07.38.38,0,0,1,0,.1l-.12.43s0,.09-.05.1H149a.74.74,0,0,0-.67.11,1.79,1.79,0,0,0-.73.89,4,4,0,0,0-.27,1.58,2.2,2.2,0,0,0,.26,1.28c.17.21.41.23.71.05a2.13,2.13,0,0,0,.32-.23,1.29,1.29,0,0,0,.25-.28v-1.35l-.54.31c-.05,0-.09,0-.11,0a.34.34,0,0,1,0-.18v-.19a.56.56,0,0,1,0-.21.33.33,0,0,1,.11-.13l.87-.49c.06,0,.1,0,.13,0a.48.48,0,0,1,0,.21v1.93a.81.81,0,0,1,0,.17.43.43,0,0,1-.05.13,2.77,2.77,0,0,1-1,1C147.82,140.19,147.46,140.17,147.21,139.87Z" style="fill:#455a64"></path><path d="M158.15,133.25a2,2,0,0,1-.75,1.59c-.42.24-.75-.08-.75-.72a2,2,0,0,1,.75-1.6C157.82,132.28,158.15,132.61,158.15,133.25Z" style="fill:#455a64"></path><path d="M157.4,130.62a4.54,4.54,0,0,0-1.75,2.63c-.07.24,0,.46.08.53h0c.14.09.35-.09.44-.39a3.15,3.15,0,0,1,1.23-1.86.8.8,0,0,1,1.23.44c.09.2.3.14.44-.12h0a.74.74,0,0,0,.08-.62A1.13,1.13,0,0,0,157.4,130.62Z" style="fill:#455a64"></path><path d="M157.4,128.76a7.09,7.09,0,0,0-2.69,3.84c-.09.24-.06.5.06.57h0c.14.08.34-.09.43-.37a5.73,5.73,0,0,1,2.2-3.13,1.46,1.46,0,0,1,2.2.59c.09.18.29.12.43-.13h0a.77.77,0,0,0,.06-.65A1.79,1.79,0,0,0,157.4,128.76Z" style="fill:#455a64"></path><path d="M177.09,120.15a.26.26,0,0,1,0-.14.58.58,0,0,1,.06-.17l1.08-1.94.08-.13a.3.3,0,0,1,.09-.1l.39-.22a.08.08,0,0,1,.1,0,.17.17,0,0,1,0,.12v5a.59.59,0,0,1,0,.17.27.27,0,0,1-.1.11l-.4.24a.08.08,0,0,1-.1,0,.21.21,0,0,1,0-.12v-3.8l-.71,1.27a.16.16,0,0,1-.09.09.08.08,0,0,1-.1,0Z" style="fill:#455a64"></path><path d="M179.61,118.69a.2.2,0,0,1,0-.14.3.3,0,0,1,0-.16l1.08-1.94a1,1,0,0,0,.08-.14.28.28,0,0,1,.1-.09l.38-.23a.08.08,0,0,1,.1,0,.16.16,0,0,1,0,.12v5a.35.35,0,0,1,0,.17.25.25,0,0,1-.1.12l-.4.23s-.07,0-.09,0,0-.06,0-.12v-3.79l-.71,1.26a.24.24,0,0,1-.1.1.08.08,0,0,1-.09,0Z" style="fill:#455a64"></path><path d="M182.92,116.57a.08.08,0,0,1,.1,0,.16.16,0,0,1,0,.12v.76a.38.38,0,0,1,0,.17.27.27,0,0,1-.1.11l-.46.27s-.07,0-.09,0,0-.06,0-.12v-.75a.35.35,0,0,1,0-.17.19.19,0,0,1,.09-.12Zm0,2.68a.08.08,0,0,1,.1,0,.16.16,0,0,1,0,.12v.75a.33.33,0,0,1,0,.17.25.25,0,0,1-.1.12l-.46.27s-.07,0-.09,0a.15.15,0,0,1,0-.12v-.75a.33.33,0,0,1,0-.17.19.19,0,0,1,.09-.12Z" style="fill:#455a64"></path><path d="M185.59,118.88a.09.09,0,0,1-.1,0,.22.22,0,0,1,0-.13v-.93l-1.54.9a.09.09,0,0,1-.1,0,.21.21,0,0,1,0-.12V118a.76.76,0,0,1,0-.21c0-.06,0-.13.08-.21l1.53-3.82a.68.68,0,0,1,.2-.31l.38-.22a.09.09,0,0,1,.1,0,.21.21,0,0,1,0,.12v3.08l.43-.25a.07.07,0,0,1,.09,0,.17.17,0,0,1,0,.13v.54a.33.33,0,0,1,0,.17.31.31,0,0,1-.09.12l-.43.24v.93a.47.47,0,0,1,0,.17.25.25,0,0,1-.1.12Zm-.14-2v-1.64l-.85,2.14Z" style="fill:#455a64"></path><path d="M187.59,112.56a.35.35,0,0,1,0-.17.25.25,0,0,1,.1-.12l1.87-1.08a.08.08,0,0,1,.1,0,.17.17,0,0,1,0,.12v.55a.47.47,0,0,1,0,.16.25.25,0,0,1-.1.12l-1.4.81,0,1a1.22,1.22,0,0,1,.26-.25l.22-.14a1.16,1.16,0,0,1,.52-.18.52.52,0,0,1,.41.1.78.78,0,0,1,.28.4,2.25,2.25,0,0,1,.09.7,3.59,3.59,0,0,1-.1.9,3.25,3.25,0,0,1-.28.74,2.58,2.58,0,0,1-.41.57,2.31,2.31,0,0,1-.51.39,1.35,1.35,0,0,1-.59.22.6.6,0,0,1-.41-.1.66.66,0,0,1-.24-.34,1.6,1.6,0,0,1-.1-.52.35.35,0,0,1,0-.17.27.27,0,0,1,.1-.11l.4-.24a.07.07,0,0,1,.09,0,.14.14,0,0,1,.06.1.55.55,0,0,0,.09.24.24.24,0,0,0,.15.09.43.43,0,0,0,.19,0,1.5,1.5,0,0,0,.22-.11,1.18,1.18,0,0,0,.46-.5,1.72,1.72,0,0,0,.17-.75.59.59,0,0,0-.17-.48.41.41,0,0,0-.46,0,1.24,1.24,0,0,0-.24.17l-.14.16-.1.14a.35.35,0,0,1-.11.1l-.46.27a.08.08,0,0,1-.1,0,.16.16,0,0,1,0-.12Z" style="fill:#455a64"></path><polygon points="131.32 150.17 131.32 148.57 132.7 147.77 132.7 149.37 131.32 150.17" style="fill:#455a64"></polygon><polygon points="133.4 148.97 133.4 145.77 134.78 144.97 134.78 148.17 133.4 148.97" style="fill:#455a64"></polygon><polygon points="135.48 147.77 135.48 142.97 136.86 142.16 136.86 146.97 135.48 147.77" style="fill:#455a64"></polygon><polygon points="137.56 146.56 137.56 140.16 138.94 139.36 138.94 145.76 137.56 146.56" style="fill:#455a64"></polygon><path d="M234.89,85.18c-.15-.22-.33-.28-.52-.17l-5.17,3a2,2,0,0,0-.6,1.57v2.91a1.62,1.62,0,0,0,.23.92.45.45,0,0,0,.2.19.31.31,0,0,0,.31,0l5.18-3a2,2,0,0,0,.59-1.57V86.1A1.71,1.71,0,0,0,234.89,85.18ZM229,93a.76.76,0,0,1-.09-.43v-2.9a1.54,1.54,0,0,1,.46-1.2l5.18-3a.19.19,0,0,1,.16,0,.13.13,0,0,1,.07.06.86.86,0,0,1,.08.42v2.91a1.54,1.54,0,0,1-.46,1.2l-5.17,3C229.1,93.11,229,93.1,229,93Z" style="fill:#455a64"></path><path d="M230.32,88.43v3.44l-.81.46a.11.11,0,0,1-.16-.09V89.69a1.21,1.21,0,0,1,.34-.9Z" style="fill:#455a64"></path><polygon points="230.7 88.22 231.67 87.65 231.67 91.09 230.7 91.65 230.7 88.22" style="fill:#455a64"></polygon><polygon points="232.05 87.44 233.02 86.88 233.02 90.33 232.05 90.89 232.05 87.44" style="fill:#455a64"></polygon><path d="M234.37,86.33v2.48a1.27,1.27,0,0,1-.65,1.11l-.32.19V86.67l.77-.45A.13.13,0,0,1,234.37,86.33Z" style="fill:#455a64"></path><path d="M235.31,86c.14-.08.26.33.26.93v.54a2.1,2.1,0,0,1-.27,1.26l-.26.18V86.16Z" style="fill:#455a64"></path><polygon points="220.74 94.81 225.77 90.34 224.22 96.89 223.49 94.16 220.74 94.81" style="fill:#455a64"></polygon><path d="M177.12,135.34c.09-.05.15-.05.2,0a.72.72,0,0,1,.11.26l2,6.92a.19.19,0,0,1,0,.08.62.62,0,0,1-.07.29.38.38,0,0,1-.16.19l-.59.35c-.12.06-.19.07-.24,0a.51.51,0,0,1-.09-.16l-.36-1.21-2.62,1.51-.36,1.63a2.13,2.13,0,0,1-.09.27.61.61,0,0,1-.24.24l-.59.35c-.07,0-.12,0-.16,0a.24.24,0,0,1-.07-.2.34.34,0,0,1,0-.1l2-9.26a2,2,0,0,1,.11-.4.53.53,0,0,1,.2-.22Zm.45,5.36-.91-3.12-.92,4.17Z" style="fill:#455a64"></path><path d="M181.45,141.46a.61.61,0,0,1-.07.28.34.34,0,0,1-.16.19l-.63.37a.12.12,0,0,1-.16,0,.28.28,0,0,1-.06-.2v-8.4a.71.71,0,0,1,.06-.28.45.45,0,0,1,.16-.19l.63-.37c.07,0,.12,0,.16,0a.27.27,0,0,1,.07.21Z" style="fill:#455a64"></path><path d="M182.59,137.82a7.81,7.81,0,0,1,.14-1.44,6.25,6.25,0,0,1,.41-1.33,4.61,4.61,0,0,1,.64-1.11,2.88,2.88,0,0,1,.85-.76,1.36,1.36,0,0,1,.84-.22,1,1,0,0,1,.65.33,2.07,2.07,0,0,1,.41.8,4.55,4.55,0,0,1,.14,1.16v.58a.71.71,0,0,1-.06.28.39.39,0,0,1-.16.19l-2.78,1.61a1.21,1.21,0,0,0,.08.47.51.51,0,0,0,.21.26.46.46,0,0,0,.31.05,1.12,1.12,0,0,0,.36-.13,1.87,1.87,0,0,0,.43-.33,2.17,2.17,0,0,0,.27-.37,1.53,1.53,0,0,1,.15-.23.53.53,0,0,1,.16-.13l.67-.38a.12.12,0,0,1,.16,0,.28.28,0,0,1,.06.21,2,2,0,0,1-.13.54,4.27,4.27,0,0,1-.36.76,5.3,5.3,0,0,1-.59.8,3.54,3.54,0,0,1-.82.67,1.4,1.4,0,0,1-.85.23.92.92,0,0,1-.64-.33,2.09,2.09,0,0,1-.41-.86A5.62,5.62,0,0,1,182.59,137.82Zm2-3.1a1.57,1.57,0,0,0-.42.35,2.2,2.2,0,0,0-.28.44,2.43,2.43,0,0,0-.18.49,2.67,2.67,0,0,0-.08.45l1.88-1.09a2.25,2.25,0,0,0-.06-.36.65.65,0,0,0-.15-.3.35.35,0,0,0-.28-.12A.79.79,0,0,0,184.63,134.72Z" style="fill:#455a64"></path><path d="M189.51,135l-1,2.43a1.26,1.26,0,0,1-.17.3,1,1,0,0,1-.2.16l-.64.37a.11.11,0,0,1-.15,0,.26.26,0,0,1-.07-.22.79.79,0,0,1,0-.2l1.49-3.71-1.43-1.91a.31.31,0,0,1,0-.15.77.77,0,0,1,.06-.3.44.44,0,0,1,.16-.19l.64-.37a.56.56,0,0,1,.19-.07.21.21,0,0,1,.17.1l.94,1.25.93-2.33a1.38,1.38,0,0,1,.17-.29.74.74,0,0,1,.2-.16l.64-.37a.11.11,0,0,1,.15,0,.34.34,0,0,1,.07.22.65.65,0,0,1,0,.2l-1.44,3.61,1.48,1.95a.38.38,0,0,1,0,.16.77.77,0,0,1-.06.3.44.44,0,0,1-.16.19l-.64.37a.56.56,0,0,1-.19.07.21.21,0,0,1-.17-.1Z" style="fill:#455a64"></path><path d="M192.92,128.75a.51.51,0,0,1-.18-.13.35.35,0,0,1-.09-.27v-1.09a.54.54,0,0,1,0-.22.28.28,0,0,1,.13-.15l0,0h.06l2.91,1.34a.93.93,0,0,1,.18.12.48.48,0,0,1,.06.28v.54a.91.91,0,0,1-.06.35c0,.1-.1.2-.18.33l-2.91,4.7a.17.17,0,0,1-.06.06l0,0a.09.09,0,0,1-.13,0,.22.22,0,0,1,0-.16v-1.09a.92.92,0,0,1,.09-.38,2.45,2.45,0,0,1,.18-.33l1.88-3Z" style="fill:#455a64"></path><path d="M134.35,161.51l1.88.86a.86.86,0,0,1,.17.13.38.38,0,0,1,.09.28v1.09a.54.54,0,0,1-.05.22.31.31,0,0,1-.12.15h-.09l-2.92-1.34a.43.43,0,0,1-.17-.12.39.39,0,0,1-.07-.28V162a.73.73,0,0,1,.07-.35,2.62,2.62,0,0,1,.17-.33l2.92-4.7.05-.07,0,0q.08,0,.12,0a.23.23,0,0,1,.05.16v1.09a.92.92,0,0,1-.09.39c-.06.13-.12.24-.17.33Z" style="fill:#1BAEA6"></path><path d="M139.19,158.83a9.39,9.39,0,0,1,4.31-7.23l3.57-2.1c2.38-1.4,4.31-.4,4.31,2.23a9.35,9.35,0,0,1-4.33,7.25l-3.53,2C141.13,162.4,139.19,161.42,139.19,158.83Z" style="fill:#1BAEA6"></path><path d="M141.8,156.27a.35.35,0,0,1,0-.16.44.44,0,0,1,.07-.19l1.23-2.17a2.19,2.19,0,0,1,.11-.19.46.46,0,0,1,.15-.16l.7-.4a.09.09,0,0,1,.11,0,.2.2,0,0,1,0,.14v5.69a.48.48,0,0,1,0,.2.29.29,0,0,1-.11.13l-.75.43a.08.08,0,0,1-.11,0,.21.21,0,0,1,0-.15V155.6l-.68,1.19a.19.19,0,0,1-.11.11.07.07,0,0,1-.1,0Z" style="fill:#fff"></path><path d="M146.11,156.14a.44.44,0,0,0,.09.11.35.35,0,0,0,.11.1.47.47,0,0,0,.17,0,.53.53,0,0,0,.23-.08.76.76,0,0,0,.23-.18,1.34,1.34,0,0,0,.19-.26,1.09,1.09,0,0,0,.14-.31,1.42,1.42,0,0,0,0-.36.44.44,0,0,0-.16-.41c-.1-.07-.24-.05-.41.05a.58.58,0,0,0-.15.13l-.13.15-.12.14-.08.08-.9.52a.09.09,0,0,1-.11,0,.18.18,0,0,1,0-.14l.17-3.25a.59.59,0,0,1,.05-.19.27.27,0,0,1,.11-.14l2.45-1.41a.09.09,0,0,1,.11,0,.18.18,0,0,1,0,.14v.93a.48.48,0,0,1,0,.2.29.29,0,0,1-.11.13l-1.67,1,0,.81a2.09,2.09,0,0,1,.24-.28,1.54,1.54,0,0,1,.29-.23,1.38,1.38,0,0,1,.62-.21.68.68,0,0,1,.49.12.92.92,0,0,1,.33.46,2.39,2.39,0,0,1,.11.82,3.73,3.73,0,0,1-.48,1.9,3.53,3.53,0,0,1-.53.72,2.86,2.86,0,0,1-.65.52,1.75,1.75,0,0,1-.7.25.82.82,0,0,1-.52-.12.79.79,0,0,1-.32-.41,1.54,1.54,0,0,1-.12-.63.34.34,0,0,1,0-.16.31.31,0,0,1,.08-.11l.73-.42c.06,0,.11,0,.14,0A.13.13,0,0,1,146.11,156.14Z" style="fill:#fff"></path><polygon points="123.69 294.42 243.31 225.36 243.31 244.11 123.67 313.18 123.69 294.42" style="fill:#e0e0e0"></polygon><path d="M139.19,293.26a4.31,4.31,0,0,0-1.63,3.46c0,1.39.73,2.09,1.63,1.57a4.32,4.32,0,0,0,1.64-3.46C140.83,293.44,140.09,292.73,139.19,293.26Z" style="fill:#455a64"></path><path d="M142.7,289l-1.25.72v-.65c0-.42-.21-.63-.48-.48l-3.55,2a1.3,1.3,0,0,0-.49,1v.65l-1.25.72a2.68,2.68,0,0,0-1,2.15v6.35c0,.87.46,1.3,1,1l7-4.05a2.7,2.7,0,0,0,1-2.15V290C143.72,289.12,143.26,288.68,142.7,289Zm-3.51,10.53c-1.35.78-2.45-.27-2.45-2.35s1.1-4.41,2.45-5.19,2.45.28,2.45,2.36S140.54,298.76,139.19,299.54Z" style="fill:#455a64"></path><path d="M155.44,279.86a10.76,10.76,0,0,0-4.86,8.42c0,3.1,2.18,4.35,4.86,2.8a10.74,10.74,0,0,0,4.86-8.41C160.3,279.57,158.12,278.31,155.44,279.86Zm2.64,5.05-2,1.17v2.52a.61.61,0,0,1-1.22,0v-1.81l-1.42.81a.55.55,0,0,1-.3.09.61.61,0,0,1-.31-1.14l2-1.17v-2.74a.61.61,0,1,1,1.22,0v2l1.42-.82a.61.61,0,0,1,.61,1.06Z" style="fill:#455a64"></path><path d="M172,271.25l60.39-34.87c2.39-1.38,4.33-.4,4.33,2.19a9.29,9.29,0,0,1-4.33,7.19L172,280.63c-2.4,1.38-4.33.4-4.33-2.19A9.29,9.29,0,0,1,172,271.25Z" style="fill:#fafafa"></path><path d="M232.62,237.65c1.56-.91,2.83-.17,2.83,1.63a6.26,6.26,0,0,1-2.83,4.9c-1.56.9-2.83.17-2.83-1.63A6.25,6.25,0,0,1,232.62,237.65Z" style="fill:#1BAEA6"></path><path d="M234.22,240.1l-1.33-1.28,0,0a.41.41,0,0,0-.11-.07h-.2l0,0-.1,0,0,0-.08.1,0,0-1.33,2.82a.4.4,0,0,0,.18.52.45.45,0,0,0,.16,0,.37.37,0,0,0,.35-.22l.6-1.27v1.94a.39.39,0,0,0,.39.38.38.38,0,0,0,.38-.38V240l.69.65a.37.37,0,0,0,.54,0A.38.38,0,0,0,234.22,240.1Z" style="fill:#fafafa"></path><g id="freepik--Keyboard--inject-19"><path d="M130,315.49v11.57c0,.69.48,1,1.08.63l6-3.44a2.4,2.4,0,0,0,1.08-1.88V310.8c0-.69-.48-1-1.08-.63l-6,3.44A2.4,2.4,0,0,0,130,315.49Z" style="fill:#e0e0e0"></path><path d="M141.06,309.1v11.57c0,.69.48,1,1.08.62l6-3.44a2.37,2.37,0,0,0,1.08-1.87V304.41c0-.69-.48-1-1.08-.63l-6,3.44A2.4,2.4,0,0,0,141.06,309.1Z" style="fill:#e0e0e0"></path><path d="M152.13,302.7v11.58c0,.69.48,1,1.08.62l6-3.44a2.4,2.4,0,0,0,1.09-1.88V298c0-.69-.49-1-1.09-.62l-6,3.44A2.37,2.37,0,0,0,152.13,302.7Z" style="fill:#e0e0e0"></path><path d="M163.2,296.31v11.57c0,.69.49,1,1.09.63l6-3.44a2.41,2.41,0,0,0,1.09-1.88V291.62c0-.69-.49-1-1.09-.62l-6,3.44A2.38,2.38,0,0,0,163.2,296.31Z" style="fill:#e0e0e0"></path><path d="M174.28,289.92v11.57c0,.69.48,1,1.08.63l6-3.45a2.37,2.37,0,0,0,1.08-1.87V285.23c0-.69-.48-1-1.08-.63l-6,3.44A2.4,2.4,0,0,0,174.28,289.92Z" style="fill:#e0e0e0"></path><path d="M185.35,283.53V295.1c0,.69.48,1,1.08.62l6-3.44a2.37,2.37,0,0,0,1.08-1.87V278.84c0-.69-.48-1-1.08-.63l-6,3.44A2.4,2.4,0,0,0,185.35,283.53Z" style="fill:#e0e0e0"></path><path d="M196.42,277.13V288.7c0,.7.49,1,1.08.63l6-3.44a2.41,2.41,0,0,0,1.09-1.88V272.44c0-.69-.49-1-1.09-.62l-6,3.44A2.39,2.39,0,0,0,196.42,277.13Z" style="fill:#e0e0e0"></path><path d="M207.49,270.74v11.57c0,.69.49,1,1.09.63l6-3.44a2.43,2.43,0,0,0,1.08-1.88V266.05c0-.69-.49-1-1.08-.63l-6,3.45A2.38,2.38,0,0,0,207.49,270.74Z" style="fill:#e0e0e0"></path><path d="M218.57,264.35v11.57c0,.69.48,1,1.08.62l6-3.44a2.37,2.37,0,0,0,1.08-1.87V259.66c0-.69-.48-1-1.08-.63l-6,3.44A2.4,2.4,0,0,0,218.57,264.35Z" style="fill:#e0e0e0"></path><path d="M229.64,258v11.57c0,.69.48,1,1.08.62l6-3.44a2.37,2.37,0,0,0,1.08-1.87V253.26c0-.69-.48-1-1.08-.62l-6,3.44A2.39,2.39,0,0,0,229.64,258Z" style="fill:#e0e0e0"></path><path d="M135.13,328.94v11.57c0,.69.48,1,1.08.62l6-3.44a2.37,2.37,0,0,0,1.08-1.87V324.25c0-.69-.48-1-1.08-.63l-6,3.44A2.4,2.4,0,0,0,135.13,328.94Z" style="fill:#e0e0e0"></path><path d="M146.3,322.49v11.57c0,.69.48,1,1.08.62l6-3.44a2.37,2.37,0,0,0,1.08-1.87V317.8c0-.69-.48-1-1.08-.63l-6,3.44A2.4,2.4,0,0,0,146.3,322.49Z" style="fill:#e0e0e0"></path><path d="M157.47,316v11.57c0,.69.49,1,1.08.62l6-3.44a2.38,2.38,0,0,0,1.09-1.87V311.35c0-.69-.49-1-1.09-.63l-6,3.44A2.43,2.43,0,0,0,157.47,316Z" style="fill:#e0e0e0"></path><path d="M168.64,309.59v11.57c0,.69.49,1,1.08.62l6-3.44a2.38,2.38,0,0,0,1.09-1.87V304.9c0-.69-.49-1-1.09-.63l-6,3.44A2.43,2.43,0,0,0,168.64,309.59Z" style="fill:#e0e0e0"></path><path d="M179.81,303.14v11.57c0,.69.49,1,1.08.63l6-3.45a2.38,2.38,0,0,0,1.09-1.87V298.45c0-.69-.49-1-1.09-.63l-6,3.44A2.43,2.43,0,0,0,179.81,303.14Z" style="fill:#e0e0e0"></path><path d="M191,296.69v11.57c0,.69.49,1,1.08.63l6-3.44a2.41,2.41,0,0,0,1.09-1.88V292c0-.69-.49-1-1.09-.63l-6,3.44A2.43,2.43,0,0,0,191,296.69Z" style="fill:#e0e0e0"></path><path d="M202.15,290.24v11.57c0,.69.49,1,1.09.63l6-3.44a2.43,2.43,0,0,0,1.08-1.88V285.55c0-.69-.49-1-1.08-.63l-6,3.45A2.38,2.38,0,0,0,202.15,290.24Z" style="fill:#e0e0e0"></path><path d="M213.32,283.79v11.57c0,.69.49,1,1.09.63l6-3.44a2.43,2.43,0,0,0,1.08-1.88V279.1c0-.69-.49-1-1.08-.62l-6,3.44A2.38,2.38,0,0,0,213.32,283.79Z" style="fill:#e0e0e0"></path><path d="M224.49,277.34v11.57c0,.69.49,1,1.09.63l6-3.44a2.43,2.43,0,0,0,1.08-1.88V272.65c0-.69-.49-1-1.08-.62l-6,3.44A2.38,2.38,0,0,0,224.49,277.34Z" style="fill:#e0e0e0"></path><path d="M130,364.74v11.57c0,.69.48,1,1.08.63l8.61-5a2.39,2.39,0,0,0,1.08-1.87V358.51c0-.69-.49-1-1.08-.63l-8.61,5A2.4,2.4,0,0,0,130,364.74Z" style="fill:#1BAEA6"></path><path d="M143.43,357v11.57c0,.69.48,1,1.08.63l8.61-5a2.37,2.37,0,0,0,1.08-1.87V350.77c0-.69-.48-1-1.08-.62l-8.61,5A2.4,2.4,0,0,0,143.43,357Z" style="fill:#1BAEA6"></path><path d="M156.87,349.28v11.57c0,.69.49,1,1.08.62l8.61-5a2.38,2.38,0,0,0,1.08-1.87V343c0-.69-.48-1-1.08-.62l-8.61,5A2.43,2.43,0,0,0,156.87,349.28Z" style="fill:#e0e0e0"></path><path d="M171.15,341v11.57c0,.69.48,1,1.08.62l31.5-18.14a2.38,2.38,0,0,0,1.09-1.87V321.61c0-.69-.49-1-1.09-.62l-31.5,18.14A2.4,2.4,0,0,0,171.15,341Z" style="fill:#e0e0e0"></path><path d="M207.7,319.83V331.4c0,.69.49,1,1.09.62L236.68,316a2.37,2.37,0,0,0,1.08-1.87V302.51c0-.69-.48-1-1.08-.62L208.79,318A2.41,2.41,0,0,0,207.7,319.83Z" style="fill:#1BAEA6"></path><path d="M131.07,347.69v11.58c0,.69.49,1,1.09.62l10-5.78a2.37,2.37,0,0,0,1.08-1.87V340.67c0-.69-.48-1-1.08-.63l-10,5.78A2.38,2.38,0,0,0,131.07,347.69Z" style="fill:#e0e0e0"></path><path d="M146.3,338.91v11.57c0,.69.48,1,1.08.62l6-3.44a2.37,2.37,0,0,0,1.08-1.87V334.22c0-.69-.48-1-1.08-.63l-6,3.44A2.4,2.4,0,0,0,146.3,338.91Z" style="fill:#e0e0e0"></path><path d="M157.47,332.46V344c0,.69.49,1,1.08.62l6-3.44a2.38,2.38,0,0,0,1.09-1.87V327.77c0-.69-.49-1-1.09-.63l-6,3.44A2.43,2.43,0,0,0,157.47,332.46Z" style="fill:#e0e0e0"></path><path d="M168.64,326v11.57c0,.69.49,1,1.08.63l6-3.45a2.38,2.38,0,0,0,1.09-1.87V321.32c0-.69-.49-1-1.09-.63l-6,3.44A2.43,2.43,0,0,0,168.64,326Z" style="fill:#e0e0e0"></path><path d="M179.81,319.56v11.57c0,.69.49,1,1.08.63l6-3.44a2.41,2.41,0,0,0,1.09-1.88V314.87c0-.69-.49-1-1.09-.63l-6,3.44A2.43,2.43,0,0,0,179.81,319.56Z" style="fill:#e0e0e0"></path><path d="M191,313.11v11.57c0,.69.49,1,1.08.63l6-3.44a2.41,2.41,0,0,0,1.09-1.88V308.42c0-.69-.49-1-1.09-.63l-6,3.45A2.39,2.39,0,0,0,191,313.11Z" style="fill:#e0e0e0"></path><path d="M202.15,306.66v11.57c0,.69.49,1,1.09.63l6-3.44a2.43,2.43,0,0,0,1.08-1.88V302c0-.69-.49-1-1.08-.62l-6,3.44A2.38,2.38,0,0,0,202.15,306.66Z" style="fill:#e0e0e0"></path><path d="M213.32,300.21v11.57c0,.69.49,1,1.09.63l6-3.44a2.43,2.43,0,0,0,1.08-1.88V295.52c0-.69-.49-1-1.08-.62l-6,3.44A2.38,2.38,0,0,0,213.32,300.21Z" style="fill:#e0e0e0"></path><path d="M224.49,293.76v11.57c0,.69.49,1,1.09.63l10-5.77a2.37,2.37,0,0,0,1.08-1.87V286.74c0-.69-.48-1-1.08-.62l-10,5.77A2.38,2.38,0,0,0,224.49,293.76Z" style="fill:#1BAEA6"></path><path d="M229.09,300.89a.36.36,0,0,1-.27-.12l-2.1-2.52a.36.36,0,0,1-.05-.36l2.1-4.94a.36.36,0,0,1,.14-.16l5.07-2.92a.3.3,0,0,1,.34,0,.32.32,0,0,1,.17.29v7.47a.32.32,0,0,1-.17.29l-5.06,2.93A.38.38,0,0,1,229.09,300.89Zm-1.7-2.92,1.77,2.13,4.64-2.67v-6.67l-4.44,2.57Zm6.76-.34h0Z" style="fill:#455a64"></path><path d="M232.74,297.1a.55.55,0,0,1-.37-.15L230,294.62a.52.52,0,0,1,.73-.75l2.42,2.33a.52.52,0,0,1,0,.74A.54.54,0,0,1,232.74,297.1Z" style="fill:#455a64"></path><path d="M230.31,298.5a.59.59,0,0,1-.22-.05.53.53,0,0,1-.25-.7l2.42-5.13a.53.53,0,1,1,1,.45l-2.42,5.13A.53.53,0,0,1,230.31,298.5Z" style="fill:#455a64"></path><path d="M135.42,356.14a.39.39,0,0,1-.21-.06.42.42,0,0,1-.22-.37v-3.49l-1.19.69a.43.43,0,0,1-.59-.57l3.66-7a.44.44,0,0,1,.29-.22.41.41,0,0,1,.35.08l3.66,2.81a.41.41,0,0,1,.17.37.43.43,0,0,1-.21.34l-1.62.93v4a.44.44,0,0,1-.21.38l-3.67,2.11A.39.39,0,0,1,135.42,356.14Zm0-5.09a.39.39,0,0,1,.21.06.42.42,0,0,1,.22.37V355l2.8-1.62v-4a.42.42,0,0,1,.22-.37l1.28-.74-2.76-2.11-2.75,5.29.57-.33A.39.39,0,0,1,135.42,351.05Z" style="fill:#455a64"></path><path d="M162.21,354.43h0c-.78.45-1.41,0-1.41-1.07v-3.27a3.38,3.38,0,0,1,1.41-2.7h0c.78-.45,1.41,0,1.41,1.07v3.27A3.38,3.38,0,0,1,162.21,354.43Z" style="fill:#455a64"></path><path d="M161.54,355.86a1.64,1.64,0,0,1-.89-.25,2.42,2.42,0,0,1-.94-2.13.34.34,0,0,1,.67,0,1.81,1.81,0,0,0,.63,1.57,1.1,1.1,0,0,0,1.06,0c1.94-.89,2.09-3.18,2.07-4.12a.33.33,0,0,1,.32-.34h0a.33.33,0,0,1,.33.32c.06,2.24-.86,4-2.45,4.74A2,2,0,0,1,161.54,355.86Z" style="fill:#455a64"></path><path d="M161.37,357.42a.32.32,0,0,1-.28-.17.33.33,0,0,1,.12-.45l1.67-1a.32.32,0,0,1,.45.12.33.33,0,0,1-.12.45l-1.67,1A.34.34,0,0,1,161.37,357.42Z" style="fill:#455a64"></path><path d="M131.1,373.19a1,1,0,0,1,0-.3v-.14a1.56,1.56,0,0,1,0-.35.33.33,0,0,1,.13-.17l.74-.42v-4.7l-.77.63c-.06,0-.11,0-.14-.16a2.19,2.19,0,0,1,0-.46.39.39,0,0,1,.15-.32l1.36-1.2a.18.18,0,0,1,.16,0,.1.1,0,0,1,.08.11v5.66l.59-.35c.06,0,.11,0,.13,0a.68.68,0,0,1,0,.3v.15a1,1,0,0,1,0,.34.28.28,0,0,1-.13.18l-2.13,1.23C131.17,373.25,131.13,373.24,131.1,373.19Z" style="fill:#455a64"></path><path d="M134.08,371.32a2.12,2.12,0,0,1,0-.44.63.63,0,0,1,0-.16l1.42-4c.11-.32.18-.57.23-.75a2.58,2.58,0,0,0,.07-.53.59.59,0,0,0-.16-.49c-.1-.08-.24-.07-.42,0a1,1,0,0,0-.33.28,3.64,3.64,0,0,0-.3.41.79.79,0,0,1-.15.21c-.07,0-.14,0-.21-.1a.7.7,0,0,1-.1-.34,1,1,0,0,1,.18-.54,2.69,2.69,0,0,1,.46-.56,3.22,3.22,0,0,1,.55-.42c.4-.23.72-.26.95-.07a1.33,1.33,0,0,1,.34,1.06,3.69,3.69,0,0,1-.12.92,12.22,12.22,0,0,1-.42,1.27l-1,2.89,1.39-.81c.06,0,.1,0,.13,0a.6.6,0,0,1,0,.29v.15a1.08,1.08,0,0,1,0,.35.29.29,0,0,1-.13.17l-2.24,1.3S134.12,371.47,134.08,371.32Z" style="fill:#455a64"></path><path d="M137.5,369.48c-.27,0-.4-.07-.4-.29a1.57,1.57,0,0,1,.1-.47.79.79,0,0,1,.18-.35s.07,0,.15,0l.31,0a.71.71,0,0,0,.32-.11,1.24,1.24,0,0,0,.49-.56,2.06,2.06,0,0,0,.2-.93,1,1,0,0,0-.19-.72c-.13-.11-.32-.08-.58.07l-.24.13c-.06,0-.1,0-.13,0a.88.88,0,0,1,0-.3v-.15a1.44,1.44,0,0,1,0-.34.29.29,0,0,1,.13-.17l.19-.11a1.3,1.3,0,0,0,.5-.58,1.93,1.93,0,0,0,.18-.79.82.82,0,0,0-.14-.53c-.09-.1-.23-.1-.41,0a1.11,1.11,0,0,0-.31.24,2.78,2.78,0,0,0-.21.27.69.69,0,0,1-.13.16s-.1,0-.17-.13a.73.73,0,0,1-.1-.36,1,1,0,0,1,.33-.66,2.71,2.71,0,0,1,.74-.61c.37-.21.66-.23.88-.05a1.32,1.32,0,0,1,.32,1.05,2.86,2.86,0,0,1-.6,1.78v0a.62.62,0,0,1,.55.34,2.05,2.05,0,0,1,.2,1,4.3,4.3,0,0,1-.17,1.2,3.56,3.56,0,0,1-.47,1,2.43,2.43,0,0,1-.69.64A2.12,2.12,0,0,1,137.5,369.48Z" style="fill:#455a64"></path><path d="M152.28,357.68c0-3-1.55-4.48-3.47-3.37s-3.46,4.41-3.46,7.37,1.42,4.33,3.21,3.5a1.74,1.74,0,0,0,.25-.11,1.5,1.5,0,0,0,.23-.17C150.85,363.68,152.28,360.52,152.28,357.68Zm-.44-.08-.87.5a8.66,8.66,0,0,0-.36-2.43,5.93,5.93,0,0,0,.34-.56A3.64,3.64,0,0,1,151.84,357.6Zm-.89,4.18a1.29,1.29,0,0,0-.33-.17,13.62,13.62,0,0,0,.35-2.84l.87-.5A9.24,9.24,0,0,1,151,361.78Zm-5.16,0,.85-.49a9.11,9.11,0,0,0,.35,2.45c-.11.17-.21.35-.31.53A3.64,3.64,0,0,1,145.79,361.76Zm.89-4.18a1.37,1.37,0,0,0,.32.16,13.81,13.81,0,0,0-.36,2.86l-.85.49A9.24,9.24,0,0,1,146.68,357.58Zm2.13,4.95a2.3,2.3,0,0,1,.32-.15,10,10,0,0,1-.32,2,4.69,4.69,0,0,1-.33-1.62A3.29,3.29,0,0,1,148.81,362.53Zm0-.66a3.69,3.69,0,0,0-.38.26c0-.52-.06-1.14-.07-1.86l.89-.51c0,.73,0,1.37-.07,1.93Zm.32-5.25a2.92,2.92,0,0,1-.32.21l-.33.16a8.8,8.8,0,0,1,.33-2A5,5,0,0,1,149.13,356.62Zm-.32.87a2.92,2.92,0,0,0,.37-.24c0,.52.06,1.13.07,1.85l-.89.51c0-.73,0-1.37.07-1.93A1.93,1.93,0,0,0,148.81,357.49Zm-.8.32c-.06.83-.07,1.6-.08,2.05l-.86.5a12.5,12.5,0,0,1,.31-2.52A2.26,2.26,0,0,0,148,357.81Zm1.67,1c0-.44,0-1.19-.08-2a6.27,6.27,0,0,0,.64-.7,8.51,8.51,0,0,1,.3,2.16ZM147.07,361l.86-.5c0,.43,0,1.19.08,2a6.19,6.19,0,0,0-.64.7A8.46,8.46,0,0,1,147.07,361Zm2.53.54c.06-.84.07-1.61.08-2l.86-.5a12.4,12.4,0,0,1-.3,2.5A2,2,0,0,0,149.6,361.56Zm.45-5.86a5.51,5.51,0,0,1-.5.56,8.45,8.45,0,0,0-.22-1.35A1.29,1.29,0,0,1,150.05,355.7Zm-2,1.41a1.69,1.69,0,0,1-.5,0,5.65,5.65,0,0,1,.72-1.61A13.57,13.57,0,0,0,148.06,357.11Zm2.36-1.93a2.26,2.26,0,0,0-.29-.49,1.43,1.43,0,0,1,.49.17A3.45,3.45,0,0,1,150.42,355.18ZM147.19,357,147,357a5.64,5.64,0,0,1,.46-.7C147.37,356.5,147.28,356.76,147.19,357Zm.36,6.66a5.72,5.72,0,0,1,.51-.57,8.54,8.54,0,0,0,.22,1.37A1.33,1.33,0,0,1,147.55,363.69Zm2-1.44a1.77,1.77,0,0,1,.51,0,5.81,5.81,0,0,1-.73,1.65A14.32,14.32,0,0,0,149.55,362.25Zm-2.36,2a2.12,2.12,0,0,0,.25.45,1.31,1.31,0,0,1-.43-.16Zm3.24-1.88.19.08a7.21,7.21,0,0,1-.46.71C150.26,362.87,150.35,362.6,150.43,362.33Z" style="fill:#455a64"></path><path d="M181.17,343.69c-.19,0-.28-.1-.28-.27a1.56,1.56,0,0,1,.11-.51.77.77,0,0,1,.19-.37s.05,0,.11,0a.61.61,0,0,0,.18.05.49.49,0,0,0,.22-.06.65.65,0,0,0,.25-.27.94.94,0,0,0,.09-.43.46.46,0,0,0-.12-.36.76.76,0,0,0-.35-.17.77.77,0,0,1-.46-.29,1.36,1.36,0,0,1-.17-.78,2.92,2.92,0,0,1,.28-1.27,1.88,1.88,0,0,1,.73-.83,1.09,1.09,0,0,1,.53-.17c.17,0,.25.07.25.24a1.8,1.8,0,0,1-.08.48c-.05.21-.1.33-.15.35s-.06,0-.15,0a.37.37,0,0,0-.28.06.59.59,0,0,0-.23.24.72.72,0,0,0-.09.37.51.51,0,0,0,.06.28.33.33,0,0,0,.14.13l.28.1a.76.76,0,0,1,.45.31,1.58,1.58,0,0,1,.16.79,3,3,0,0,1-.29,1.32,2,2,0,0,1-.77.88A1,1,0,0,1,181.17,343.69Z" style="fill:#455a64"></path><path d="M183.52,344.18V339c0-.44,0-.76,0-.94a2.78,2.78,0,0,1,0-.36c0-.09.07-.2.22-.33A2.39,2.39,0,0,1,184,337c.08,0,.13,0,.16.07a1.82,1.82,0,0,1,.08.41,2.84,2.84,0,0,1,.3-.68,1.25,1.25,0,0,1,.4-.42.42.42,0,0,1,.51,0,1.34,1.34,0,0,1,.34.72,6.23,6.23,0,0,1,.12,1.35,6.54,6.54,0,0,1-.28,2.08,2,2,0,0,1-.77,1.13.43.43,0,0,1-.57,0v2a.55.55,0,0,1-.34.47l-.14.09C183.63,344.4,183.52,344.37,183.52,344.18Zm1.5-3.92a5.43,5.43,0,0,0,.11-1.3c0-1.07-.13-1.53-.4-1.38a1.23,1.23,0,0,0-.4.72v2.5a.25.25,0,0,0,.35,0A.85.85,0,0,0,185,340.26Z" style="fill:#455a64"></path><path d="M186.87,340.17a1.51,1.51,0,0,1-.23-1,3.11,3.11,0,0,1,.38-1.54,3,3,0,0,1,1.17-1.17v-.26c0-.44-.15-.58-.44-.41a1,1,0,0,0-.3.24l-.27.32a.58.58,0,0,1-.12.15c-.06,0-.12,0-.19-.16a.86.86,0,0,1-.11-.35.84.84,0,0,1,.15-.39,2.61,2.61,0,0,1,.39-.45,2.87,2.87,0,0,1,.5-.38q.62-.35.9-.09a1.35,1.35,0,0,1,.29,1v1.94a9.35,9.35,0,0,0,0,.95,2.78,2.78,0,0,1,0,.36.52.52,0,0,1-.21.33,3.23,3.23,0,0,1-.37.29c-.07,0-.12,0-.14,0a1.68,1.68,0,0,1-.09-.35,2.73,2.73,0,0,1-.3.59,1.43,1.43,0,0,1-.43.42Q187.1,340.44,186.87,340.17Zm1.13-1.3a1.55,1.55,0,0,0,.19-.41v-1.18a1.53,1.53,0,0,0-.81,1.4.74.74,0,0,0,.09.43c.06.08.16.08.28,0A.74.74,0,0,0,188,338.87Z" style="fill:#455a64"></path><path d="M190.15,338a3.27,3.27,0,0,1-.33-1.78,5.85,5.85,0,0,1,.34-2.19,2.37,2.37,0,0,1,1-1.22,1,1,0,0,1,.61-.17c.18,0,.27.1.27.26a1.88,1.88,0,0,1-.09.46.72.72,0,0,1-.17.35s0,0-.1,0l-.21,0a.52.52,0,0,0-.24.08,1.09,1.09,0,0,0-.45.64,4.54,4.54,0,0,0-.15,1.33,3.31,3.31,0,0,0,.14,1.18.28.28,0,0,0,.45.13,1.09,1.09,0,0,0,.26-.21l.22-.27.06-.08s0-.05,0-.06.11,0,.17.15a1.12,1.12,0,0,1,.08.37.74.74,0,0,1-.15.38,2.16,2.16,0,0,1-.37.44,2,2,0,0,1-.39.31C190.71,338.36,190.37,338.34,190.15,338Z" style="fill:#455a64"></path><path d="M192.84,336.48a3.16,3.16,0,0,1-.34-1.74c0-1.78.43-2.91,1.3-3.41s1.15.2,1.15,1.93a1.07,1.07,0,0,1-.11.38.68.68,0,0,1-.17.3l-1.34.77a1.48,1.48,0,0,0,.17.78c.1.13.24.13.42,0a1.76,1.76,0,0,0,.3-.24,3.55,3.55,0,0,0,.23-.31,1.18,1.18,0,0,1,.13-.16s.12,0,.19.15a.71.71,0,0,1,.1.33.77.77,0,0,1-.16.43,2.32,2.32,0,0,1-.38.46,2.74,2.74,0,0,1-.43.34C193.42,336.8,193.07,336.78,192.84,336.48Zm1.36-3.07a3.51,3.51,0,0,0-.1-1c-.07-.19-.17-.24-.32-.15a.84.84,0,0,0-.33.51,4.71,4.71,0,0,0-.14,1.14Z" style="fill:#455a64"></path><path d="M214.67,324.3v-3.22a7,7,0,0,0,0-.94,2.53,2.53,0,0,1,0-.35.52.52,0,0,1,.21-.33,2.56,2.56,0,0,1,.38-.29c.06,0,.11,0,.14.06a1.38,1.38,0,0,1,.07.26,1.46,1.46,0,0,0,0,.2,1.73,1.73,0,0,1,.56-1.06c.12-.07.21-.07.26,0a.48.48,0,0,1,.07.29,3.41,3.41,0,0,1,0,.5c0,.21-.07.32-.11.35l-.13,0a.64.64,0,0,0-.18.06.78.78,0,0,0-.24.3,1.66,1.66,0,0,0-.14.45v3.24a.57.57,0,0,1-.35.48l-.12.07Q214.67,324.58,214.67,324.3Z" style="fill:#455a64"></path><path d="M217.06,322.6a3.16,3.16,0,0,1-.34-1.74c0-1.77.44-2.91,1.3-3.41s1.15.2,1.15,1.94a1,1,0,0,1-.11.37.83.83,0,0,1-.17.31l-1.33.77a1.41,1.41,0,0,0,.16.78c.1.12.24.13.43,0a1.09,1.09,0,0,0,.29-.24l.23-.3a1,1,0,0,1,.13-.17c.06,0,.12,0,.19.15a.75.75,0,0,1,.1.34.89.89,0,0,1-.15.43,3.28,3.28,0,0,1-.39.46,2.15,2.15,0,0,1-.43.33C217.64,322.92,217.29,322.91,217.06,322.6Zm1.36-3.07a3.17,3.17,0,0,0-.1-1c-.06-.18-.17-.23-.31-.15a.87.87,0,0,0-.34.51,4.86,4.86,0,0,0-.14,1.14Z" style="fill:#455a64"></path><path d="M220.17,321.12a1.4,1.4,0,0,1-.22-.94v-2.79l-.11.07c-.06,0-.1,0-.13,0a.68.68,0,0,1,0-.3V317a1.08,1.08,0,0,1,0-.35.29.29,0,0,1,.13-.17l.11-.07.09-1a.52.52,0,0,1,.29-.45l.15-.09c.18-.11.28-.06.28.12v1l.29-.17c.06,0,.11,0,.13,0a.68.68,0,0,1,0,.3v.15a1.12,1.12,0,0,1,0,.35.28.28,0,0,1-.13.17l-.29.17v2.76a.79.79,0,0,0,0,.32c0,.05.08.05.14,0l.11-.08a.23.23,0,0,1,.08-.07c.05,0,.09,0,.12.17a1.93,1.93,0,0,1,.05.35.62.62,0,0,1-.19.42,1.66,1.66,0,0,1-.39.32C220.49,321.27,220.31,321.27,220.17,321.12Z" style="fill:#455a64"></path><path d="M222.11,320a1.55,1.55,0,0,1-.2-.91v-3.55a.54.54,0,0,1,.32-.47l.16-.09a.4.4,0,0,1,.25-.08c.05,0,.08.08.08.17v3.3a.79.79,0,0,0,.07.41c.05.07.13.08.24,0a.63.63,0,0,0,.23-.25,2.65,2.65,0,0,0,.18-.42v-3.46a.54.54,0,0,1,.32-.47l.17-.1c.21-.12.32-.09.32.1v3.24c0,.44,0,.75,0,.94s0,.3,0,.34a.52.52,0,0,1-.22.35,2.56,2.56,0,0,1-.38.29c-.08,0-.12,0-.15,0a.73.73,0,0,1-.05-.25c0-.1,0-.18,0-.24a4,4,0,0,1-.34.72,1.38,1.38,0,0,1-.46.47C222.43,320.17,222.24,320.16,222.11,320Z" style="fill:#455a64"></path><path d="M225.2,318.23V315a7,7,0,0,0,0-.94,2.53,2.53,0,0,1,0-.35.52.52,0,0,1,.21-.33,3.23,3.23,0,0,1,.37-.29c.07,0,.12,0,.15.06a1.38,1.38,0,0,1,.07.26,1.46,1.46,0,0,0,0,.2,1.73,1.73,0,0,1,.56-1.06c.12-.07.2-.07.26,0a.45.45,0,0,1,.07.28,3.41,3.41,0,0,1,0,.5c0,.21-.07.32-.11.35l-.13,0-.18.06a.78.78,0,0,0-.24.3,1.66,1.66,0,0,0-.14.45v3.24a.57.57,0,0,1-.35.48l-.12.07C225.31,318.44,225.2,318.41,225.2,318.23Z" style="fill:#455a64"></path><path d="M227.46,316.92v-3.23c0-.45,0-.76,0-.95s0-.29,0-.32a.53.53,0,0,1,.22-.36,2.4,2.4,0,0,1,.38-.29q.1-.06.15,0a1.11,1.11,0,0,1,0,.24c0,.11,0,.19,0,.25a3.29,3.29,0,0,1,.35-.73,1.54,1.54,0,0,1,.47-.48c.25-.14.43-.12.56,0a1.67,1.67,0,0,1,.19.95v3.5a.55.55,0,0,1-.32.47l-.16.09q-.33.19-.33-.09v-3.26a.83.83,0,0,0-.08-.43c0-.08-.12-.09-.23,0a.63.63,0,0,0-.23.25,2,2,0,0,0-.18.42v3.45a.45.45,0,0,1-.08.26.63.63,0,0,1-.24.21l-.17.1C227.57,317.14,227.46,317.11,227.46,316.92Z" style="fill:#455a64"></path><path d="M134.45,323.22v-2.29a1.71,1.71,0,0,1-.64.78.57.57,0,0,1-.88-.26,4.37,4.37,0,0,1-.32-2,8.5,8.5,0,0,1,.14-1.66,4.5,4.5,0,0,1,.39-1.25,1.57,1.57,0,0,1,.58-.69.55.55,0,0,1,.46-.06.62.62,0,0,1,.34.38l.07-.54a.53.53,0,0,1,.11-.24.82.82,0,0,1,.22-.18l.07,0c.25-.14.37-.1.37.11v7.41a.65.65,0,0,1-.38.54l-.16.09C134.57,323.46,134.45,323.43,134.45,323.22Zm0-3.28v-2.86c-.14-.26-.29-.34-.45-.25a1,1,0,0,0-.35.65,6.75,6.75,0,0,0-.12,1.45,4.82,4.82,0,0,0,.12,1.33c.09.22.22.29.39.19A1,1,0,0,0,134.45,319.94Z" style="fill:#455a64"></path><path d="M138,336a1.77,1.77,0,0,1-.26-1.11,3.66,3.66,0,0,1,.43-1.73,3.26,3.26,0,0,1,1.32-1.31v-.3c0-.5-.16-.65-.5-.46a1.44,1.44,0,0,0-.33.27,3.17,3.17,0,0,0-.31.37.66.66,0,0,1-.13.16c-.07,0-.14,0-.22-.18a1.05,1.05,0,0,1-.11-.4.85.85,0,0,1,.16-.43,3.33,3.33,0,0,1,.44-.51,3,3,0,0,1,.56-.42c.46-.27.8-.3,1-.1a1.54,1.54,0,0,1,.32,1.14v2.19a8.68,8.68,0,0,0,0,1.07,3.43,3.43,0,0,1,0,.39c0,.11-.08.23-.24.38a2.13,2.13,0,0,1-.42.32c-.07,0-.12,0-.15-.05a2,2,0,0,1-.11-.39,2.91,2.91,0,0,1-.33.66,1.46,1.46,0,0,1-.49.47C138.39,336.19,138.15,336.19,138,336Zm1.28-1.46a2.15,2.15,0,0,0,.21-.46v-1.33a1.7,1.7,0,0,0-.91,1.57.83.83,0,0,0,.1.49c.07.09.17.09.31,0A1,1,0,0,0,139.25,334.52Z" style="fill:#455a64"></path><path d="M149.6,329.54c-.21,0-.31-.12-.31-.31a2.06,2.06,0,0,1,.12-.57.87.87,0,0,1,.22-.42s.05,0,.12,0a.83.83,0,0,0,.21.06.41.41,0,0,0,.24-.07.74.74,0,0,0,.28-.3,1.06,1.06,0,0,0,.1-.48.52.52,0,0,0-.13-.41.88.88,0,0,0-.39-.19.82.82,0,0,1-.52-.33,1.45,1.45,0,0,1-.19-.88,3.32,3.32,0,0,1,.31-1.42,2.14,2.14,0,0,1,.83-.94,1.23,1.23,0,0,1,.59-.19.24.24,0,0,1,.29.27,2.63,2.63,0,0,1-.1.54c-.06.24-.12.37-.17.4s-.07,0-.17,0a.42.42,0,0,0-.31.07.64.64,0,0,0-.27.27.93.93,0,0,0-.09.42.56.56,0,0,0,.07.32.39.39,0,0,0,.15.14l.31.11a.86.86,0,0,1,.51.36,1.63,1.63,0,0,1,.18.88,3.31,3.31,0,0,1-.33,1.48,2.14,2.14,0,0,1-.86,1A1.19,1.19,0,0,1,149.6,329.54Z" style="fill:#455a64"></path><path d="M160.59,323a1.45,1.45,0,0,1-.39-.8,7,7,0,0,1-.14-1.52,7.58,7.58,0,0,1,.32-2.35,2.15,2.15,0,0,1,.87-1.26.51.51,0,0,1,.65,0v-2.54a.6.6,0,0,1,.37-.52l.16-.09c.24-.15.37-.12.37.09v6.15a9.21,9.21,0,0,0,0,1.07c0,.23,0,.36,0,.4a.61.61,0,0,1-.24.38,3.6,3.6,0,0,1-.43.32c-.08.05-.14,0-.18-.08a3.59,3.59,0,0,1-.09-.47,3.11,3.11,0,0,1-.33.76,1.38,1.38,0,0,1-.46.47A.45.45,0,0,1,160.59,323Zm1.1-1.57a2.55,2.55,0,0,0,.21-.52v-2.82a.31.31,0,0,0-.4,0,1,1,0,0,0-.39.66,6,6,0,0,0-.13,1.46,4.81,4.81,0,0,0,.12,1.3c.07.26.19.34.34.25A.67.67,0,0,0,161.69,321.46Z" style="fill:#455a64"></path><path d="M172.22,316.33V312l-.12.07q-.1.06-.15,0a.88.88,0,0,1,0-.34v-.16a1.29,1.29,0,0,1,0-.38.32.32,0,0,1,.15-.2l.12-.07v-.95a3.3,3.3,0,0,1,.26-1.4,1.64,1.64,0,0,1,.69-.79.76.76,0,0,1,.41-.13c.14,0,.21.08.21.25a2.77,2.77,0,0,1-.06.45c0,.21-.08.33-.14.36l-.1,0-.12,0a.49.49,0,0,0-.19.23,1.34,1.34,0,0,0-.06.46v.93l.33-.19c.06,0,.11,0,.14,0a.88.88,0,0,1,0,.34v.16a1.29,1.29,0,0,1,0,.38.34.34,0,0,1-.14.2l-.33.19v4.34a.62.62,0,0,1-.37.54l-.15.08C172.35,316.58,172.22,316.54,172.22,316.33Z" style="fill:#455a64"></path><path d="M182.84,312.52c-.23-.1-.35-.4-.35-.88A2.77,2.77,0,0,1,183,310v0a.46.46,0,0,1-.2-.23,1.35,1.35,0,0,1-.07-.44,2.27,2.27,0,0,1,.35-1.17c-.35-.12-.53-.57-.53-1.34a3.81,3.81,0,0,1,.34-1.64,2.38,2.38,0,0,1,.92-1,1.16,1.16,0,0,1,.42-.16l1-.57c.06,0,.11,0,.13,0a.68.68,0,0,1,0,.3v.17a1.52,1.52,0,0,1,0,.34.37.37,0,0,1-.12.17,1.57,1.57,0,0,1-.3.13v0a1.76,1.76,0,0,1,.13.79,3.66,3.66,0,0,1-.3,1.53,2.3,2.3,0,0,1-.84,1,1,1,0,0,0-.31.32.82.82,0,0,0-.11.42c0,.18.05.27.15.28a1,1,0,0,0,.46-.08l.23-.07a.75.75,0,0,1,.67.08c.16.12.24.4.24.85a3.12,3.12,0,0,1-.38,1.52,2.94,2.94,0,0,1-1.08,1.08A1.14,1.14,0,0,1,182.84,312.52Zm1.68-2.28c0-.21-.06-.33-.16-.34a1.19,1.19,0,0,0-.5.08l-.29.08a1.85,1.85,0,0,0-.23.44,1.49,1.49,0,0,0-.07.47c0,.23,0,.36.17.39a.6.6,0,0,0,.46-.12A1.1,1.1,0,0,0,184.52,310.24Zm-.32-3.63a2.23,2.23,0,0,0,.13-.84,1.24,1.24,0,0,0-.13-.69q-.13-.13-.36,0a.8.8,0,0,0-.35.41,2.11,2.11,0,0,0-.13.84,1.22,1.22,0,0,0,.12.69c.09.09.21.09.36,0A.94.94,0,0,0,184.2,306.61Z" style="fill:#455a64"></path><path d="M193.75,303.86v-7.68a.6.6,0,0,1,.36-.51l.19-.12c.24-.13.36-.1.36.11v2.88a4.15,4.15,0,0,1,.38-.76,1.57,1.57,0,0,1,.51-.49c.26-.15.47-.14.62,0a1.81,1.81,0,0,1,.22,1.07v3.94a.59.59,0,0,1-.36.52l-.18.11c-.13.07-.22.1-.28.08s-.09-.08-.09-.19V299.2q0-.72-.36-.51a.75.75,0,0,0-.28.32,2,2,0,0,0-.18.44v3.88a.53.53,0,0,1-.09.3.9.9,0,0,1-.27.23l-.19.11C193.87,304.11,193.75,304.07,193.75,303.86Z" style="fill:#455a64"></path><path d="M205.32,299.69c-.11,0-.17-.1-.17-.28a2.23,2.23,0,0,1,.06-.47c0-.18.08-.29.14-.32a.13.13,0,0,1,.1,0,.43.43,0,0,0,.13,0,.34.34,0,0,0,.15-.22,1.49,1.49,0,0,0,.05-.47v-6.11a.62.62,0,0,1,.38-.53l.14-.09c.26-.14.38-.11.38.1v6.12a3.46,3.46,0,0,1-.25,1.41,1.77,1.77,0,0,1-.64.78A1,1,0,0,1,205.32,299.69Zm.49-9.29v-.62c0-.21.14-.4.43-.57s.44-.14.44.07v.62c0,.21-.15.4-.43.56S205.81,290.61,205.81,290.4Z" style="fill:#455a64"></path><path d="M219,289.45q0,.17-.33.36l-.32.18a.38.38,0,0,1-.18.07s-.06,0-.08-.1l-.8-2.13-.07.05v2.45a.59.59,0,0,1-.36.52l-.18.11c-.24.14-.36.1-.36-.11v-7.68a.6.6,0,0,1,.36-.52l.18-.1c.24-.14.36-.11.36.1v4.7l0,0,.76-2.75a.51.51,0,0,1,.1-.21.54.54,0,0,1,.19-.14l.29-.17c.22-.13.33-.14.33,0a.86.86,0,0,1,0,.26l-.8,2.82.89,2.15A.54.54,0,0,1,219,289.45Z" style="fill:#455a64"></path><path d="M149.18,346.3a1.72,1.72,0,0,1-.06-.44.77.77,0,0,1,0-.15l1.35-4.54-1.1.63c-.12.07-.18-.05-.18-.37v-.16c0-.32.06-.51.18-.58l2-1.17s.07.05.11.21a1.85,1.85,0,0,1,.06.44,1,1,0,0,1,0,.16l-1.35,4.52,1.21-.7c.07,0,.11,0,.14,0a.88.88,0,0,1,0,.34v.17q0,.46-.18.57l-2.14,1.24S149.22,346.45,149.18,346.3Z" style="fill:#455a64"></path><path d="M160.1,340.08a1.08,1.08,0,0,1,.06-.28l.87-3-.82-1.92a.66.66,0,0,1-.06-.22c0-.13.13-.27.37-.42l.21-.12A1.47,1.47,0,0,1,161,334c.06,0,.09,0,.11.1l.34,1.27c0,.08,0,.2.08.34l0-.19a2,2,0,0,1,.05-.24l.35-1.66a.45.45,0,0,1,.11-.24,1.91,1.91,0,0,1,.24-.17l.2-.11c.25-.15.38-.15.38,0a1.32,1.32,0,0,1-.06.29l-.84,2.88.87,2a.58.58,0,0,1,.06.2.31.31,0,0,1-.05.17.7.7,0,0,1-.18.14l-.37.21a1.52,1.52,0,0,1-.25.13c-.05,0-.08,0-.1-.09l-.37-1.4c0-.07,0-.14-.05-.19a.66.66,0,0,0,0-.15c0,.18-.05.32-.07.43l-.39,1.84a.34.34,0,0,1-.1.2,1.73,1.73,0,0,1-.25.17l-.4.23C160.16,340.22,160.1,340.19,160.1,340.08Z" style="fill:#455a64"></path><path d="M171.89,332.84a3.7,3.7,0,0,1-.37-2,6.55,6.55,0,0,1,.38-2.46A2.64,2.64,0,0,1,173,327a1.2,1.2,0,0,1,.68-.19c.2,0,.3.12.3.29a1.9,1.9,0,0,1-.1.52.77.77,0,0,1-.18.4s-.06,0-.12,0l-.23,0a.56.56,0,0,0-.27.1,1.2,1.2,0,0,0-.51.71,5.29,5.29,0,0,0-.16,1.5,3.86,3.86,0,0,0,.15,1.33.32.32,0,0,0,.51.15,1.37,1.37,0,0,0,.29-.24l.25-.31.06-.09a.17.17,0,0,1,.06-.06c.06,0,.12,0,.19.17a1.13,1.13,0,0,1,.09.41.82.82,0,0,1-.16.43,2.73,2.73,0,0,1-.42.49,2.49,2.49,0,0,1-.44.36C172.52,333.2,172.14,333.18,171.89,332.84Z" style="fill:#455a64"></path><path d="M183.39,326.69l-.86-4.68c0-.08,0-.14,0-.18s.11-.28.34-.41l.24-.14c.2-.12.32-.11.34,0l.33,2.52q0,.38.09.87l.05.57h0l.07-.76c0-.37.05-.66.07-.85l.34-2.9c0-.15.13-.29.34-.41l.21-.12q.33-.19.33,0a1.09,1.09,0,0,1,0,.19l-.86,5.68a.62.62,0,0,1-.33.4l-.37.21C183.52,326.83,183.41,326.82,183.39,326.69Z" style="fill:#455a64"></path><path d="M194.93,320a.67.67,0,0,1-.35-.37l-.06.53a.53.53,0,0,1-.11.24.71.71,0,0,1-.23.18l-.07,0c-.24.14-.36.1-.36-.11v-7.68a.61.61,0,0,1,.37-.52l.16-.09c.25-.14.37-.11.37.09v2.56a1.7,1.7,0,0,1,.65-.79.56.56,0,0,1,.87.27,4.48,4.48,0,0,1,.32,2,9.35,9.35,0,0,1-.14,1.66,4.79,4.79,0,0,1-.38,1.24,1.58,1.58,0,0,1-.58.69A.55.55,0,0,1,194.93,320Zm.53-1.68a7.54,7.54,0,0,0,.11-1.45,4.62,4.62,0,0,0-.13-1.32c-.08-.24-.21-.3-.38-.2a1.05,1.05,0,0,0-.41.51v2.86c.14.25.29.33.46.24A1,1,0,0,0,195.46,318.33Z" style="fill:#455a64"></path><path d="M204.92,314.06v-3.63c0-.5,0-.86,0-1.07a3.2,3.2,0,0,1,0-.36.58.58,0,0,1,.25-.4,2.48,2.48,0,0,1,.43-.33c.08,0,.13,0,.16,0a.9.9,0,0,1,.06.28c0,.11,0,.21,0,.28a3.53,3.53,0,0,1,.39-.83,1.67,1.67,0,0,1,.53-.53c.27-.16.48-.15.63,0a1.93,1.93,0,0,1,.21,1.07v3.93a.6.6,0,0,1-.36.53l-.18.11c-.25.14-.37.1-.37-.11v-3.66a.91.91,0,0,0-.09-.49c-.05-.09-.14-.1-.26,0a.71.71,0,0,0-.26.28,2.1,2.1,0,0,0-.2.48v3.88a.48.48,0,0,1-.09.29.8.8,0,0,1-.27.24l-.19.11C205,314.31,204.92,314.28,204.92,314.06Z" style="fill:#455a64"></path><path d="M219.39,300.59a1.93,1.93,0,0,1,.22,1.08v3.92a.63.63,0,0,1-.37.53l-.18.1c-.24.14-.36.1-.36-.11v-3.64a1.13,1.13,0,0,0-.08-.5.17.17,0,0,0-.26,0,.68.68,0,0,0-.26.27,2.43,2.43,0,0,0-.19.43v3.94a.63.63,0,0,1-.37.53l-.19.11c-.24.14-.36.1-.36-.11v-3.64a1.22,1.22,0,0,0-.08-.51c-.06-.09-.14-.1-.26,0a.64.64,0,0,0-.27.31,2,2,0,0,0-.18.44v3.89a.5.5,0,0,1-.09.29.86.86,0,0,1-.28.24l-.18.1c-.24.14-.36.1-.36-.11v-3.63a8.88,8.88,0,0,0,0-1.07c0-.2,0-.33,0-.36a.58.58,0,0,1,.25-.4,2.74,2.74,0,0,1,.43-.34c.08,0,.13,0,.16,0a.83.83,0,0,1,.06.27c0,.12,0,.21,0,.28a4.78,4.78,0,0,1,.39-.82,1.57,1.57,0,0,1,.53-.53.53.53,0,0,1,.47-.08.58.58,0,0,1,.29.43,3.52,3.52,0,0,1,.4-.8,1.87,1.87,0,0,1,.55-.54C219,300.38,219.24,300.4,219.39,300.59Z" style="fill:#455a64"></path><path d="M228.31,283.91a1.63,1.63,0,0,1-.23-1v-6.5a.62.62,0,0,1,.38-.53l.14-.08c.25-.15.38-.12.38.09v6.49a.66.66,0,0,0,.05.31c0,.05.08.06.15,0l.1-.08.09-.07s.09,0,.13.18a2.18,2.18,0,0,1,.05.42.68.68,0,0,1-.19.45,1.57,1.57,0,0,1-.42.35C228.68,284.07,228.47,284.07,228.31,283.91Z" style="fill:#455a64"></path><path d="M144,315.84s-.07,0-.08-.11l-.76-4.71v-.18c0-.17.13-.33.38-.47s.45-.19.45-.06l.27,2.84.09,1.15,0,0c0-.26,0-.69.12-1.3l.35-3.15a.52.52,0,0,1,.33-.41l.16-.1c.21-.12.32-.11.34,0l.35,2.76c.05.36.08.75.11,1.15l0,0,.09-1.25.27-3.15q0-.22.42-.45c.26-.15.38-.14.38,0a1,1,0,0,1,0,.18l-.75,5.59a.47.47,0,0,1-.28.38l-.23.13a.36.36,0,0,1-.21.07s-.07,0-.07-.12l-.45-2.75c0-.18,0-.36,0-.55l0-.31,0,0,0,.38c0,.31,0,.5,0,.56l-.44,3.27a.4.4,0,0,1-.08.2.58.58,0,0,1-.2.17l-.24.14A.31.31,0,0,1,144,315.84Z" style="fill:#455a64"></path><path d="M154.91,308.83a3.61,3.61,0,0,1-.38-2c0-2,.48-3.27,1.46-3.83s1.29.22,1.29,2.17a1.41,1.41,0,0,1-.12.43.79.79,0,0,1-.2.34l-1.5.87a1.72,1.72,0,0,0,.19.88c.11.14.27.14.48,0a1.4,1.4,0,0,0,.33-.27c.09-.11.18-.22.26-.34a1.73,1.73,0,0,1,.14-.19c.07,0,.14,0,.21.17a.86.86,0,0,1,.12.38,1,1,0,0,1-.17.48,2.64,2.64,0,0,1-.44.52,2.48,2.48,0,0,1-.48.38C155.56,309.18,155.16,309.17,154.91,308.83Zm1.53-3.47a3.51,3.51,0,0,0-.12-1.11c-.07-.21-.19-.26-.35-.17a1,1,0,0,0-.38.58,5.67,5.67,0,0,0-.16,1.28Z" style="fill:#455a64"></path><path d="M166.52,302.45v-3.63a9,9,0,0,0,0-1.06c0-.21,0-.34,0-.39a.58.58,0,0,1,.24-.37,2.47,2.47,0,0,1,.42-.33.11.11,0,0,1,.17.06,1.77,1.77,0,0,1,.07.29,1.58,1.58,0,0,1,0,.23,2,2,0,0,1,.64-1.19c.13-.08.23-.08.28,0a.51.51,0,0,1,.09.32,4.72,4.72,0,0,1-.05.57q0,.35-.12.39a.39.39,0,0,1-.15,0,.33.33,0,0,0-.19.06.83.83,0,0,0-.28.34,2,2,0,0,0-.16.51v3.65a.64.64,0,0,1-.39.54l-.13.08C166.65,302.69,166.52,302.66,166.52,302.45Z" style="fill:#455a64"></path><path d="M177.93,295.93a1.58,1.58,0,0,1-.24-1.06v-3.14l-.13.08q-.1.06-.15,0a.84.84,0,0,1,0-.34v-.16a1.33,1.33,0,0,1,0-.39.35.35,0,0,1,.15-.2l.13-.07.09-1.13a.59.59,0,0,1,.33-.51l.17-.1c.2-.12.31-.07.31.14v1.08l.33-.19c.07,0,.12,0,.15,0a.83.83,0,0,1,.05.34v.16a1.27,1.27,0,0,1-.05.39.35.35,0,0,1-.15.2l-.33.19v3.11a.68.68,0,0,0,0,.35.1.1,0,0,0,.15,0l.13-.09.09-.08c.05,0,.1,0,.13.2a1.69,1.69,0,0,1,.06.38.71.71,0,0,1-.21.48,2,2,0,0,1-.44.36A.46.46,0,0,1,177.93,295.93Z" style="fill:#455a64"></path><path d="M190.69,283.24s0,.09,0,.21l-1.28,8.14a.72.72,0,0,1-.36.44l-.14.08c-.23.13-.35.12-.35,0s0-.09,0-.2l.45-2.67a.17.17,0,0,1-.13,0s0-.05-.07-.11l-.86-4.07a.88.88,0,0,1,0-.21q0-.24.33-.42l.24-.14a.42.42,0,0,1,.22-.08c.06,0,.09,0,.1.13l.36,2.27q0,.38.12,1.05l0,0c0-.11,0-.28,0-.51s0-.34.07-.67l.38-2.72c0-.15.12-.28.33-.4l.16-.1C190.57,283.09,190.69,283.1,190.69,283.24Z" style="fill:#455a64"></path><path d="M199.25,283.46a1.67,1.67,0,0,1-.22-1v-4a.62.62,0,0,1,.36-.53l.18-.1c.13-.07.22-.1.28-.08s.09.08.09.19v3.71a.85.85,0,0,0,.08.46c0,.08.14.09.27,0a.94.94,0,0,0,.26-.29,2.1,2.1,0,0,0,.2-.48v-3.89a.61.61,0,0,1,.37-.53l.18-.11q.36-.21.36.12v3.64c0,.49,0,.85,0,1.06a3.58,3.58,0,0,1,0,.38.57.57,0,0,1-.24.39,2.18,2.18,0,0,1-.44.33c-.08,0-.13,0-.16,0a.9.9,0,0,1-.06-.28c0-.12,0-.21,0-.28a3.87,3.87,0,0,1-.38.82,1.55,1.55,0,0,1-.52.53C199.61,283.65,199.4,283.64,199.25,283.46Z" style="fill:#455a64"></path><path d="M211,276.74v-5.16a.63.63,0,0,1,.37-.54l.15-.08c.25-.15.38-.11.38.1v5.16a.65.65,0,0,1-.38.54l-.15.08C211.1,277,211,277,211,276.74Zm0-6.51v-.61c0-.22.15-.4.43-.57s.44-.14.44.07v.61c0,.22-.14.41-.43.57S211,270.45,211,270.23Z" style="fill:#455a64"></path><path d="M221.43,270.23a3.76,3.76,0,0,1-.37-2,7,7,0,0,1,.36-2.41,2.53,2.53,0,0,1,1.07-1.37c.47-.28.83-.23,1.07.14a3.91,3.91,0,0,1,.36,2,7,7,0,0,1-.36,2.41,2.51,2.51,0,0,1-1.07,1.36C222,270.64,221.67,270.6,221.43,270.23Zm1.45-1.62a6.85,6.85,0,0,0,.12-1.49,4.85,4.85,0,0,0-.12-1.34c-.08-.24-.21-.31-.39-.2a1,1,0,0,0-.39.65,6.74,6.74,0,0,0-.12,1.48,5,5,0,0,0,.12,1.35c.08.24.21.31.39.2A1,1,0,0,0,222.88,268.61Z" style="fill:#455a64"></path><path d="M232.21,266.83V261c0-.5,0-.85,0-1.07a3.43,3.43,0,0,1,0-.39.61.61,0,0,1,.24-.38,1.94,1.94,0,0,1,.42-.32c.09-.05.15,0,.18.07a3.37,3.37,0,0,1,.09.46,3.12,3.12,0,0,1,.34-.76,1.2,1.2,0,0,1,.45-.47.45.45,0,0,1,.57,0,1.49,1.49,0,0,1,.39.81,7.1,7.1,0,0,1,.13,1.52,7.49,7.49,0,0,1-.31,2.34,2.27,2.27,0,0,1-.87,1.27.5.5,0,0,1-.65,0v2.28a.63.63,0,0,1-.37.54l-.16.09C232.33,267.08,232.21,267.05,232.21,266.83Zm1.69-4.41A6.72,6.72,0,0,0,234,261q0-1.81-.45-1.56a1.38,1.38,0,0,0-.46.82V263a.29.29,0,0,0,.4.05A1,1,0,0,0,233.9,262.42Z" style="fill:#455a64"></path></g><g id="freepik--Mesages--inject-19"><path d="M177.29,179.05l-36.81,21.26c-3.08,1.78-5.58,5.93-5.59,9.27,0,.13,0,.25,0,.37h0c0,2.8-.33,7.12-2.84,8.27,0,0,1.66.49,3.45-1.38a8.72,8.72,0,0,0,1.88-3.66,4.87,4.87,0,0,0,3.09-.77l36.81-21.27c3.09-1.78,5.59-5.93,5.58-9.27S180.37,177.27,177.29,179.05Z" style="fill:#455a64"></path><path d="M146.3,203.22a7.33,7.33,0,0,1-3,5.82c-1.69,1-3-.06-3-2.3a7.28,7.28,0,0,1,3-5.82C144.93,200,146.3,201,146.3,203.22Z" style="fill:#1BAEA6"></path><path d="M141.18,206.44a2.23,2.23,0,0,0,.44,1.46,1.19,1.19,0,0,0,1.63.18,4.39,4.39,0,0,0,1.64-2.08,5,5,0,0,0,.44-2Z" style="fill:#455a64"></path><path d="M141.62,207.9a1.19,1.19,0,0,0,1.63.18,4.39,4.39,0,0,0,1.64-2.08,1.45,1.45,0,0,0-1.64.06A4.49,4.49,0,0,0,141.62,207.9Z" style="fill:#f28f8f"></path><path d="M141.33,205.49a.21.21,0,0,0,.12-.05l1.08-1a.15.15,0,0,0,0-.18.17.17,0,0,0-.15-.12l-.83-.07a.18.18,0,0,0,0,.35l.44,0-.79.75a.18.18,0,0,0,0,.25A.16.16,0,0,0,141.33,205.49Z" style="fill:#455a64"></path><path d="M144.06,203.51h0l1.08-.22a.18.18,0,0,0,.14-.21.18.18,0,0,0-.21-.14l-.6.13.52-.66a.16.16,0,0,0,0-.24.18.18,0,0,0-.25,0l-.83,1a.18.18,0,0,0,0,.2A.2.2,0,0,0,144.06,203.51Z" style="fill:#455a64"></path><path d="M154.42,198.53a7.3,7.3,0,0,1-3,5.82c-1.68,1-3-.06-3-2.3a7.3,7.3,0,0,1,3-5.82C153.06,195.26,154.42,196.29,154.42,198.53Z" style="fill:#1BAEA6"></path><path d="M149.3,201.75a2.29,2.29,0,0,0,.44,1.46,1.21,1.21,0,0,0,1.64.18,4.44,4.44,0,0,0,1.64-2.08,5.24,5.24,0,0,0,.44-2Z" style="fill:#455a64"></path><path d="M149.74,203.21a1.21,1.21,0,0,0,1.64.18,4.44,4.44,0,0,0,1.64-2.08,1.45,1.45,0,0,0-1.64.06A4.51,4.51,0,0,0,149.74,203.21Z" style="fill:#f28f8f"></path><path d="M149.45,200.8a.18.18,0,0,0,.12-.05l1.08-1a.17.17,0,0,0-.1-.3l-.84-.07a.18.18,0,0,0-.19.16.18.18,0,0,0,.16.19l.45,0-.8.75a.18.18,0,0,0,0,.25A.18.18,0,0,0,149.45,200.8Z" style="fill:#455a64"></path><path d="M152.19,198.82h0l1.09-.22a.18.18,0,0,0,.13-.21.17.17,0,0,0-.21-.14l-.6.13.53-.66a.17.17,0,0,0-.27-.22l-.84,1a.17.17,0,0,0,0,.2A.19.19,0,0,0,152.19,198.82Z" style="fill:#455a64"></path><path d="M162.55,193.84a7.31,7.31,0,0,1-3.05,5.82c-1.68,1-3-.06-3-2.3a7.3,7.3,0,0,1,3-5.82C161.18,190.57,162.55,191.6,162.55,193.84Z" style="fill:#1BAEA6"></path><path d="M157.43,197.06a2.29,2.29,0,0,0,.43,1.46,1.22,1.22,0,0,0,1.64.18,4.44,4.44,0,0,0,1.64-2.08,5,5,0,0,0,.44-2Z" style="fill:#455a64"></path><path d="M157.86,198.52a1.22,1.22,0,0,0,1.64.18,4.44,4.44,0,0,0,1.64-2.08,1.45,1.45,0,0,0-1.64.06A4.58,4.58,0,0,0,157.86,198.52Z" style="fill:#f28f8f"></path><path d="M157.57,196.11a.17.17,0,0,0,.12-.05l1.09-1a.17.17,0,0,0,0-.18.17.17,0,0,0-.15-.12l-.83-.07a.18.18,0,0,0,0,.35l.44,0-.8.75a.18.18,0,0,0,0,.25A.16.16,0,0,0,157.57,196.11Z" style="fill:#455a64"></path><path d="M160.31,194.13h0l1.08-.22a.19.19,0,0,0,.14-.21.18.18,0,0,0-.21-.14l-.6.13.52-.66a.17.17,0,1,0-.27-.22l-.84,1a.18.18,0,0,0,0,.2A.19.19,0,0,0,160.31,194.13Z" style="fill:#455a64"></path><path d="M170.67,189.15a7.28,7.28,0,0,1-3,5.81c-1.68,1-3-.05-3-2.29a7.3,7.3,0,0,1,3-5.82C169.31,185.88,170.67,186.91,170.67,189.15Z" style="fill:#1BAEA6"></path><path d="M165.55,192.37a2.25,2.25,0,0,0,.44,1.46,1.21,1.21,0,0,0,1.64.18,4.5,4.5,0,0,0,1.64-2.08,5.22,5.22,0,0,0,.43-2Z" style="fill:#455a64"></path><path d="M166,193.83a1.21,1.21,0,0,0,1.64.18,4.5,4.5,0,0,0,1.64-2.08,1.45,1.45,0,0,0-1.64.06A4.44,4.44,0,0,0,166,193.83Z" style="fill:#f28f8f"></path><path d="M165.7,191.41a.19.19,0,0,0,.12,0l1.08-1a.17.17,0,0,0,0-.18.2.2,0,0,0-.15-.12L166,190a.18.18,0,0,0-.19.15.18.18,0,0,0,.16.2l.45,0-.8.75a.18.18,0,0,0,0,.25A.15.15,0,0,0,165.7,191.41Z" style="fill:#455a64"></path><path d="M168.44,189.43h0l1.08-.22a.18.18,0,0,0,.14-.21.17.17,0,0,0-.21-.14l-.6.13.53-.66a.18.18,0,0,0,0-.25.19.19,0,0,0-.25,0l-.83,1a.17.17,0,0,0,0,.2A.18.18,0,0,0,168.44,189.43Z" style="fill:#455a64"></path><path d="M178.79,184.46a7.28,7.28,0,0,1-3,5.81c-1.68,1-3-.06-3-2.3a7.28,7.28,0,0,1,3-5.81C177.43,181.19,178.79,182.22,178.79,184.46Z" style="fill:#1BAEA6"></path><path d="M173.67,187.68a2.31,2.31,0,0,0,.44,1.46,1.22,1.22,0,0,0,1.64.18,4.44,4.44,0,0,0,1.64-2.08,5,5,0,0,0,.44-2Z" style="fill:#455a64"></path><path d="M174.11,189.14a1.22,1.22,0,0,0,1.64.18,4.44,4.44,0,0,0,1.64-2.08,1.46,1.46,0,0,0-1.64,0A4.68,4.68,0,0,0,174.11,189.14Z" style="fill:#f28f8f"></path><path d="M173.82,186.72a.16.16,0,0,0,.12,0l1.08-1a.18.18,0,0,0,0-.18.17.17,0,0,0-.15-.12l-.83-.07a.17.17,0,1,0,0,.34l.45,0-.8.76a.18.18,0,0,0,0,.25A.18.18,0,0,0,173.82,186.72Z" style="fill:#455a64"></path><path d="M176.56,184.74h0l1.08-.22a.18.18,0,0,0,.13-.21.17.17,0,0,0-.2-.14l-.61.13.53-.66a.18.18,0,0,0,0-.25.17.17,0,0,0-.24,0l-.84,1a.18.18,0,0,0,0,.2A.18.18,0,0,0,176.56,184.74Z" style="fill:#455a64"></path><path d="M232.62,134.29h0c0-3.27-2.52-4.5-5.58-2.74l-39.09,22.58c-3.09,1.78-5.59,5.93-5.59,9.27s2.5,4.61,5.58,2.83L227,143.66a11.37,11.37,0,0,0,3.69-3.65,4.05,4.05,0,0,0,1.9,1.09,2.79,2.79,0,0,0,2.66-.95C232.92,140.29,232.62,137.09,232.62,134.29Z" style="fill:#1BAEA6"></path><path d="M232.62,189.32l0,0c0-.11,0-.24,0-.35V175.56c0-2.77-1.94-3.88-4.33-2.5L176,203.23a9.59,9.59,0,0,0-4.33,7.5v13.46c0,2.76,1.94,3.88,4.33,2.5l52.27-30.18a7.93,7.93,0,0,0,2.07-1.84,4.45,4.45,0,0,0,2.26,1.45,2.77,2.77,0,0,0,2.66-.94C232.93,195.31,232.62,192.12,232.62,189.32Z" style="fill:#1BAEA6"></path><path d="M187.94,234.19c0-2.76-1.94-3.88-4.33-2.5l-44.15,25.48a9.59,9.59,0,0,0-4.33,7.5v8.77c0,.11,0,.21,0,.31h0c0,2.8-.33,7.12-2.84,8.27,0,0,1.66.49,3.45-1.38a9.27,9.27,0,0,0,2-4.12,4.12,4.12,0,0,0,1.72-.58l44.15-25.49a9.58,9.58,0,0,0,4.33-7.5Z" style="fill:#455a64"></path></g></g></g><g id="freepik--Character--inject-19"><g id="freepik--character--inject-19"><path d="M277.23,301.47h0a11.57,11.57,0,0,0,5.63,11.94l65.87,34.34.19,3.8,3,1.74-3.86,2.22-72.83-42.15Z" style="fill:#37474f"></path><path d="M346,372.26h0c.42-5.06-1.38-10.15-5.78-12.69l-59.37-34.28a5.57,5.57,0,0,0-8.28,3.91h0l4-23.63h0a11.35,11.35,0,0,0,5.51,11.7l61.46,35.52a2.94,2.94,0,0,0,4.61-2.41l.31-3.26Z" style="fill:#455a64"></path><path d="M344.72,210.1l16.83,9.72-71.79,45.39a19.1,19.1,0,0,0-8.63,13l-10.46,67.7a1.17,1.17,0,0,1-1.74.82h0c-.39-.23-.62-.66-.48-2.31l6-71.93c.34-4.07,2.93-8.91,7.06-12.19Z" style="fill:#455a64"></path><path d="M422.65,299.41l.42,1a7.34,7.34,0,0,1-3.07,9.27l-66.2,38.22,1.66-9.91L353,352.8l74.2-43Z" style="fill:#263238"></path><path d="M422.65,299.41l.17.69a5.54,5.54,0,0,1-7.88,7l-2.82-1.62-3.76,2.17,15.43,8.91,4.88-3.26Z" style="fill:#263238"></path><path d="M352.17,348.8l63.47-36.67a8.87,8.87,0,0,0,4-6.95v-3.74a8.86,8.86,0,0,0-4-6.95l-63.46-36.64a8.86,8.86,0,0,0-8,0l-63.47,36.64a8.88,8.88,0,0,0-4,6.95v3.79a8.85,8.85,0,0,0,4,6.94l63.47,36.63A8.86,8.86,0,0,0,352.17,348.8Z" style="fill:#1BAEA6"></path><path d="M352.17,348.8l63.47-36.67a8.87,8.87,0,0,0,4-6.95v-3.74a8.86,8.86,0,0,0-4-6.95l-63.46-36.64a8.86,8.86,0,0,0-8,0l-63.47,36.64a8.88,8.88,0,0,0-4,6.95v3.79a8.85,8.85,0,0,0,4,6.94l63.47,36.63A8.86,8.86,0,0,0,352.17,348.8Z" style="opacity:0.2"></path><path d="M351,349.3a6.47,6.47,0,0,0,1.17-.51l63.47-36.67a8.85,8.85,0,0,0,4-6.94v-3.74a9,9,0,0,0-3.25-6.41c1.42,1.27,1.17,3-.75,4.09l-63.17,36.47Z" style="opacity:0.3"></path><path d="M276.67,301.44v3.79a8.85,8.85,0,0,0,4,6.94l63.46,36.63a8.94,8.94,0,0,0,6.85.5l1.47-13.71-.3.17a8.79,8.79,0,0,1-8,0l-63.46-36.64c-1.94-1.11-2.19-2.83-.76-4.1A9,9,0,0,0,276.67,301.44Z" style="fill:#1BAEA6"></path><path d="M329.59,270.88l63.47,36.64a8.32,8.32,0,0,0,4.7.93c.24,0,.48,0,.71-.07l.14,0,.42-.07.06,0a4.85,4.85,0,0,0,.63-.16,6.12,6.12,0,0,0,1.36-.58l3.27-1.88a11.29,11.29,0,0,0,4.82-6.88l9.44-51.95a6.63,6.63,0,0,0,.08-1c0-.13,0-.27,0-.4a7.19,7.19,0,0,0-.44-2,7.31,7.31,0,0,0-2.12-3l-.28-.21-.42-.27L352,203.29a8.86,8.86,0,0,0-8,0l-3.26,1.88a8.93,8.93,0,0,0-1.93,1.57l-.32.36a12,12,0,0,0-1.17,1.58,3.61,3.61,0,0,0-.23.36l-.18.32q-.13.24-.24.48a4,4,0,0,0-.22.47l-.16.4a1.07,1.07,0,0,0-.07.19c0,.12-.08.23-.11.35s-.09.31-.13.46-.05.23-.07.34l-9.44,52A7.07,7.07,0,0,0,329.59,270.88Z" style="fill:#1BAEA6"></path><path d="M329.59,270.88l63.47,36.64a8.32,8.32,0,0,0,4.7.93c.24,0,.48,0,.71-.07l.14,0,.42-.07.06,0a4.85,4.85,0,0,0,.63-.16,6.12,6.12,0,0,0,1.36-.58l3.27-1.88a11.29,11.29,0,0,0,4.82-6.88l9.44-51.95a6.63,6.63,0,0,0,.08-1c0-.13,0-.27,0-.4a7.19,7.19,0,0,0-.44-2,7.31,7.31,0,0,0-2.12-3l-.28-.21-.42-.27L352,203.29a8.86,8.86,0,0,0-8,0l-3.26,1.88a8.93,8.93,0,0,0-1.93,1.57l-.32.36a12,12,0,0,0-1.17,1.58,3.61,3.61,0,0,0-.23.36l-.18.32q-.13.24-.24.48a4,4,0,0,0-.22.47l-.16.4a1.07,1.07,0,0,0-.07.19c0,.12-.08.23-.11.35s-.09.31-.13.46-.05.23-.07.34l-9.44,52A7.07,7.07,0,0,0,329.59,270.88Z" style="opacity:0.2"></path><path d="M407.32,253.32l-9.43,52a3,3,0,0,1-4.83,2.25l-63.47-36.65A7.06,7.06,0,0,1,326.4,264l9.44-52a3,3,0,0,1,4.83-2.24l63.46,36.64A7.08,7.08,0,0,1,407.32,253.32Z" style="fill:#1BAEA6"></path><path d="M394.7,308.17a9.46,9.46,0,0,0,3.06.28c.24,0,.48,0,.71-.07l.56-.1.06,0a4.85,4.85,0,0,0,.63-.16,6.12,6.12,0,0,0,1.36-.58l3.27-1.88a11.29,11.29,0,0,0,4.82-6.88l9.44-51.95a6.63,6.63,0,0,0,.08-1c0-.13,0-.27,0-.4a7.19,7.19,0,0,0-.44-2l-11.32,6.44a6.45,6.45,0,0,1,.4,3.45l-9.43,51.95c-.34,1.88-1.62,2.92-3.18,2.79C394.71,308.11,394.7,308.14,394.7,308.17Z" style="opacity:0.3"></path><g id="freepik--character--inject-19"><path d="M315.92,353.75c.89.86,1.92,1.86,1.86,3a11.51,11.51,0,0,1-2.77,6.55c-2.26,2.66-3.59,7.61-3.89,10.95s-.22,11.8-4.27,15.31-14.18,5.63-14.46-.53,10.86-30.42,10.86-30.42Z" style="fill:#263238"></path><path d="M310.44,358a92.11,92.11,0,0,0-3.53,13.43c-.82,5-2.13,8.54-4.59,10s-6.25,1.37-5-2.05,5.91-20.73,5.91-20.73Z" style="fill:#f28f8f"></path><path d="M339.32,272.3S319.68,282.36,310.16,288s-18.56,11.2-20.31,15.5c-1.85,4.55-.86,15.15.66,25.32s4.56,28.43,4.56,28.43l26.66-44L349.58,293Z" style="fill:#ffa8a7"></path><path d="M325.13,310.05l24.68-14.58L339.32,272.3s-18.17,8.92-31.66,16.72c-10.94,6.33-18.78,11.28-19.14,15.85s.36,20.4,2.55,27.09c0,0,10.1,4.06,19.43.63Z" style="fill:#1BAEA6"></path><path d="M325.13,310.05l24.68-14.58L339.32,272.3s-18.17,8.92-31.66,16.72c-10.94,6.33-18.78,11.28-19.14,15.85s.36,20.4,2.55,27.09c0,0,10.1,4.06,19.43.63Z" style="fill:#fff;opacity:0.7000000000000001"></path><path d="M303.8,318.06c2.53-6.67,8.95-10.43,14.55-14.25,4.45-3,15.12-9.82,19.49-12.61a11.09,11.09,0,0,1-.3-6.66c1.85,6,3.28,7.45,3.28,7.45l-28.15,23-18.53,36.94S301.27,324.74,303.8,318.06Z" style="opacity:0.15"></path><path d="M294.05,389.41c.85.51.82,2.56.81,4s1.15,3.42-.92,5.82-5.73,2.77-8.55,6.05-7.12,9.3-15.25,10.08-13.88-2.54-15.1-5.07.37-4.62,5.78-6.94c5.75-2.47,7.38-3.2,7.38-3.2Z" style="fill:#263238"></path><path d="M287.37,372.11s-5.06,10.17-7.94,14.78a56.23,56.23,0,0,1-11.68,12.63c-1,.84-3.2,2.34-4,3a1.54,1.54,0,0,0-.22,2.37c1.45,1.92,8.66,3.48,13.23,1.08s9.51-7.57,12.34-9.63c1.42-1,2.75-2,3.73-2.76a3.36,3.36,0,0,0,1.33-3c0-.33-.07-.72-.1-1.17-.19-2.44,4.47-11.59,4.47-11.59Z" style="fill:#ffa8a7"></path><path d="M383.67,280.72c.66,6.55,2.3,13.32-2.11,21-4.27,7.45-15.42,13.05-27.55,17.73-10,3.87-24.8,9.41-27.74,10.18s-3.49,2.39-3.94,7.69-3.64,13.56-11.18,23.34A253,253,0,0,0,296,383.31s-8.31.36-11.73-5c0,0,20.73-55.6,24.16-62.06s32.7-24.43,32.7-24.43a37,37,0,0,1-1.76-19.48Z" style="fill:#ffa8a7"></path><path d="M334.83,327.65S356.7,320.06,370,313c18.24-9.73,15.61-20.36,14.57-31.77l-45.24-8.89c-3.49,12,1.26,19.55,1.26,19.55l-17.09,11.24c-8.91,6-14.9,9.25-17,14.54s-8.92,25.23-8.92,25.23a32.84,32.84,0,0,0,19.72,8.55s4.39-6.18,5.34-10.82.16-8.4,2.14-9.29S329.34,329.63,334.83,327.65Z" style="fill:#1BAEA6"></path><path d="M334.83,327.65S356.7,320.06,370,313c18.24-9.73,15.61-20.36,14.57-31.77l-45.24-8.89c-3.49,12,1.26,19.55,1.26,19.55l-17.09,11.24c-8.91,6-14.9,9.25-17,14.54s-8.92,25.23-8.92,25.23a32.84,32.84,0,0,0,19.72,8.55s4.39-6.18,5.34-10.82.16-8.4,2.14-9.29S329.34,329.63,334.83,327.65Z" style="fill:#fff;opacity:0.7000000000000001"></path><path d="M363.59,210.71c-5.38-.44-13.09.22-16.29,4.31-4.25,5.43-12.92,27.5-15.71,38.52-.76,3,6.07,14.89,11.6,7.82C353.22,248.54,363.59,210.71,363.59,210.71Z" style="fill:#f28f8f"></path><path d="M335.46,268.82l6.26-6.38,3.53-6.05,1.81-8.88c-5.83-5.23-7-13.52-3.43-19.25a41.27,41.27,0,0,1,9-10.26c6-5.09,8.87-6.65,10.95-7.29,2.71.21,4.69.55,4.69.55l15.45,4,6.74,3c-4.25,4.35-6.37,12.68-5.05,20.57s5.22,9.31,5.22,9.31l.34,4.34a53.75,53.75,0,0,1-.75,13.34c-2,8.79-2,15.15-4.84,25-11,2.2-29.54-.1-40.28-8.13C334.55,274.77,335.46,268.82,335.46,268.82Z" style="fill:#455a64"></path><path d="M356,248a17.06,17.06,0,0,0,19.33,2.34,11.69,11.69,0,0,1-10.37,4.43C356.75,253.79,356,248,356,248Z" style="fill:#37474f"></path><path d="M312.85,241.44h0l1.23-.93h0a1.33,1.33,0,0,1,1.21-.06l12.42,4.2a4.65,4.65,0,0,1,2.67,2.82l7.5,26.77a1.21,1.21,0,0,1-.25,1.33h0l-1.26,1v0a1.32,1.32,0,0,1-1.22.07l-12.42-4.2a4.67,4.67,0,0,1-2.68-2.82l-7.49-26.77C312.35,242.15,312.49,241.67,312.85,241.44Z" style="fill:#455a64"></path><path d="M327.78,246.41a4.57,4.57,0,0,1,1.34,2l7.51,26.76a1.26,1.26,0,0,1-.21,1.31l1.19-.9h0a1.21,1.21,0,0,0,.25-1.33l-7.5-26.77a4.5,4.5,0,0,0-1.24-1.91Z" style="fill:#263238"></path><path d="M336.62,275.19l-7.5-26.77a4.62,4.62,0,0,0-2.68-2.82L314,241.4c-1.15-.39-1.82.24-1.49,1.41L320,269.58a4.67,4.67,0,0,0,2.68,2.82l12.42,4.2C336.28,277,337,276.36,336.62,275.19Z" style="fill:#37474f"></path><path d="M315,251.47c-2.18-.66-3.55,1.67-3.42,5.78s2.47,11.74,8.82,9.89c2.47-.72,4.28-4.8,1.72-6.65a42.39,42.39,0,0,1-6-4.88Z" style="fill:#f28f8f"></path><path d="M392.63,277.27c2.63-5.25,7.23-18,8.92-30.81,2.28-17.26,1.22-24.18-11.08-28.21-9.12,7.87-6.63,27.32-6.63,27.32-1.64,7.22-4.39,19.51-6.23,24.06-11.63-.12-32.86-7-35.22-8.27-1.22-.67-2.55-2.63-3.32-3.67a9,9,0,0,0-3.16-2.94c-1.61-.88-2.94-1.41-4.1-2.05l1.56,5.58c-.13.33-.87.39-1.21.5a20.22,20.22,0,0,1-7.69.86c-5.42-.46-10.44-4.45-9.45.36.4,1.92,1.15,5.52,4,8s13.37,3.65,16.33,5.07c0,0,27,11.79,38.1,13.27C385.32,287.9,387.52,287.51,392.63,277.27Z" style="fill:#ffa8a7"></path><path d="M363.39,159.84a5.93,5.93,0,0,0,1.91-.21,35.57,35.57,0,0,1,7.52-1.37,27.12,27.12,0,0,1,12.62,2A23.69,23.69,0,0,1,399,176.34c2,8.18-1.29,17-6.12,22.91a47.41,47.41,0,0,1-5.49,6.16c-2,1.72-3.87,3.15-5.17,3.31l.36-5.48a18.91,18.91,0,0,1-9.29,1.74c-3.08-.17-6.19.15-9.06-1.2a12.38,12.38,0,0,1-6.73-7.94,15,15,0,0,0-1-3.41,11.76,11.76,0,0,0-2.66-2.89,20.66,20.66,0,0,1-6.43-12.73,7.84,7.84,0,0,1,.49-4.3,3.56,3.56,0,0,1,3.51-2.11,15.51,15.51,0,0,1-1.77-5.09,5.33,5.33,0,0,1,1.83-4.85,7.54,7.54,0,0,1,4.48-1h.37c1.58,0,3.15.07,4.72.17C361.88,159.7,362.64,159.81,363.39,159.84Z" style="fill:#263238"></path><path d="M360.07,168.76c-2.93,1.47-7.23,6.3-7.47,21.17-.19,12.32,3.63,16.37,5.61,17.4s5.06,1,8.94.58l.12,5.28c-9.59,6.56-12.18,14.79-3.47,14.21,11.05-.74,19.9-10.12,19.95-11.1l.73-16.52a5.31,5.31,0,0,0,6.25-1.1c2.9-3.18,3.92-8,1.62-10.63s-6.31-1.85-8.32.73c0,0-5.1-.25-12.95-5.28S361.57,174.66,360.07,168.76Z" style="fill:#ffa8a7"></path><path d="M384,188.78l-.08,6h0a4.23,4.23,0,0,1-4.17-4.29l.1-7.11Z" style="fill:#263238"></path><path d="M355.26,182.57l3.62-1.44a1.86,1.86,0,0,0-2.47-1.13A2,2,0,0,0,355.26,182.57Z" style="fill:#263238"></path><path d="M369.11,197.8l-7.62,1.61a3.74,3.74,0,0,0,4.48,3.06A4.09,4.09,0,0,0,369.11,197.8Z" style="fill:#b16668"></path><polygon points="363.37 185.95 363.58 196.28 358.54 194.78 363.37 185.95" style="fill:#f28f8f"></polygon><path d="M367.72,189.1a1.63,1.63,0,1,0,1.56-1.69A1.62,1.62,0,0,0,367.72,189.1Z" style="fill:#263238"></path><path d="M355.63,187.23a1.63,1.63,0,1,0,1.56-1.69A1.62,1.62,0,0,0,355.63,187.23Z" style="fill:#263238"></path><path d="M367.15,207.91c4.08-.26,12.56-2.09,14.08-5.29a8.51,8.51,0,0,1-3.2,4c-2.63,2-10.82,4.2-10.82,4.2Z" style="fill:#f28f8f"></path><path d="M368.68,200.37A3.25,3.25,0,0,0,363.3,202a3.7,3.7,0,0,0,2.67.44A4,4,0,0,0,368.68,200.37Z" style="fill:#f28f8f"></path></g><path d="M437,336l-15-68.24L414.68,274l19.65,63a1.42,1.42,0,0,0,.6.68h0A1.44,1.44,0,0,0,437,336Z" style="fill:#37474f"></path><path d="M416.35,258.69l-58,46a19,19,0,0,0-7.16,13.38l-6.88,71.2a1.17,1.17,0,0,0,.59,1.11h0a1.16,1.16,0,0,0,1.73-.82l11.35-67a19.11,19.11,0,0,1,8.64-13l49.44-31.26a16,16,0,0,0,1.39-26Z" style="fill:#455a64"></path><path d="M423.68,302.89h0c1.72,4,.67,8.58-3.07,10.74l-59.17,34.16a4.64,4.64,0,0,1-6.87-4.77h0L350,369.83h0a16.32,16.32,0,0,1,7.81-11.27l65.78-38a6.75,6.75,0,0,1,9.57,3.16h0Z" style="fill:#37474f"></path></g></g><g id="freepik--speech-bubble--inject-19"><g id="freepik--speech-bubble--inject-19"><g id="freepik--speech-bubble--inject-19"><path d="M374.86,136.42l3.63-6.83-2.92-8.43V116l8.94,5.16v5.16L380.67,133a.6.6,0,0,1-.27.23h0Z" style="fill:#1BAEA6"></path><path d="M374.86,136.42l3.63-6.83-2.92-8.43V116l8.94,5.16v5.16L380.67,133a.6.6,0,0,1-.27.23h0Z" style="opacity:0.2"></path><path d="M347.71,82.4a5.93,5.93,0,0,1,2.68-4.64l2.18-1.26a6,6,0,0,1,5.36,0l50.53,29.2a5.91,5.91,0,0,1,2.68,4.64v26.13a5.91,5.91,0,0,1-2.68,4.64l-2.18,1.26a5.89,5.89,0,0,1-5.36,0l-22-12.8-3.84,6.65a.57.57,0,0,1-1-.1L370,124.42l-19.58-11.24a5.94,5.94,0,0,1-2.68-4.64Z" style="fill:#1BAEA6"></path><path d="M411.14,136.47a5.91,5.91,0,0,1-2.68,4.64l-2.18,1.26a6,6,0,0,1-4.9.22c1.26.47,2.22-.24,2.22-1.77V114.69a5.53,5.53,0,0,0-.78-2.64l7.54-4.35a5.5,5.5,0,0,1,.78,2.64Z" style="opacity:0.2"></path><path d="M347.8,81.64c.31-1.14,1.35-1.5,2.59-.79l50.53,29.2a5.29,5.29,0,0,1,1.89,2l7.54-4.35a5.45,5.45,0,0,0-1.89-2L357.94,76.5a6,6,0,0,0-5.37,0l-2.18,1.27A5.87,5.87,0,0,0,347.8,81.64Z" style="fill:#fff;opacity:0.2"></path></g><path d="M388.84,115.11a7.9,7.9,0,0,1,3.57,6.19c0,2.28-1.6,3.21-3.57,2.07a7.89,7.89,0,0,1-3.58-6.19C385.26,114.89,386.86,114,388.84,115.11Z" style="fill:#fff"></path><path d="M375.66,107.48a7.92,7.92,0,0,1,3.57,6.2c0,2.28-1.6,3.2-3.57,2.06a7.89,7.89,0,0,1-3.58-6.19C372.08,107.27,373.68,106.34,375.66,107.48Z" style="fill:#fff"></path><path d="M362.47,99.86a7.89,7.89,0,0,1,3.58,6.19c0,2.28-1.6,3.21-3.58,2.07a7.92,7.92,0,0,1-3.57-6.2C358.9,99.64,360.5,98.72,362.47,99.86Z" style="fill:#fff"></path></g></g></svg>