<svg width="77" height="87" viewBox="0 0 77 87" fill="none" xmlns="http://www.w3.org/2000/svg">
<path d="M76.5922 43.8624C76.5922 55.4687 76.5833 67.075 76.5997 78.6813C76.5997 83.3864 72.3812 86.7342 68.0885 86.7283C53.643 86.7089 39.4993 86.7715 24.978 86.7253C20.2897 86.6746 16.7612 83.7097 16.6482 79.1059C16.5545 75.2501 16.611 71.3912 16.6021 67.5339C16.6006 66.9141 16.9843 66.3211 17.585 66.1677C18.3909 65.9606 19.0541 66.4671 19.1225 67.376C19.1834 68.176 19.1448 68.9836 19.1462 69.7881C19.1477 70.9368 19.2488 71.0366 20.4265 71.0515C20.6733 71.0545 20.9202 71.053 21.1685 71.053C38.3113 71.059 55.4541 71.0649 72.5969 71.0694C74.0511 71.0694 74.1165 70.9934 74.1165 69.5706C74.1135 52.2386 74.115 34.9066 74.1165 17.5746C74.1165 16.4006 74.0273 16.2903 72.866 16.2903C55.4139 16.2888 37.9618 16.2888 20.5098 16.2933C19.2488 16.2933 19.1433 16.4244 19.1418 17.6759C19.1418 18.1065 19.2295 18.9393 19.0332 19.2671C18.721 19.9093 17.5746 19.9957 17.2266 19.7469C16.7359 19.4519 16.5947 18.7606 16.6155 18.1765C16.6125 14.8645 16.5768 11.5524 16.6304 8.24187C16.6913 4.43518 19.1537 1.76081 22.4814 0.802804C23.207 0.594218 24.01 0.601667 24.7758 0.601667C39.2926 0.591238 53.811 0.606137 68.3279 0.583788C70.7159 0.579319 72.7753 1.34513 74.4317 3.01828C75.651 4.25043 76.3216 5.82972 76.5298 7.56099C76.6249 8.3551 76.5878 9.1671 76.5878 9.97164C76.5922 21.2695 76.5922 32.566 76.5922 43.8624ZM73.1143 13.6547C73.8132 13.6591 74.1239 13.3105 74.118 12.6222C74.1061 11.3543 74.121 10.0849 74.1016 8.81697C74.0615 6.19326 72.9255 4.13571 69.9204 3.28497C69.4267 3.14492 68.9108 3.07937 68.3978 3.08086C54.9321 3.11662 41.4665 3.09874 28.0009 3.10321C26.7043 3.10321 25.4092 3.14195 24.1126 3.16578C21.1685 3.21793 18.9782 6.35119 19.1269 8.42215C19.2176 9.68409 19.1477 10.958 19.1492 12.2273C19.1507 13.5236 19.2756 13.6457 20.5901 13.6457C25.088 13.6457 71.9411 13.6472 73.1143 13.6547ZM46.7377 73.6887C46.7377 73.6916 46.7377 73.6946 46.7377 73.6976C45.5333 73.6976 44.3289 73.6976 43.1259 73.6976C35.5932 73.6961 28.0589 73.6931 20.5261 73.6946C19.3113 73.6946 19.1537 73.8585 19.1492 75.0981C19.1462 76.1217 19.179 77.1467 19.1448 78.1688C19.0318 81.5091 21.7573 84.2506 25.0925 84.255C38.6785 84.2729 54.9173 84.2699 68.5033 84.2655C72.0868 84.2684 73.8607 82.2511 73.9738 79.4725C74.0585 78.0243 74.0793 76.5701 74.1076 75.119C74.1328 73.8406 73.9678 73.6902 72.6727 73.6887C64.0277 73.6887 55.3827 73.6887 46.7377 73.6887Z" fill="#1BAEA6"/>
<path d="M67.5026 32.5034H55.1596C54.4444 32.5034 53.866 33.0844 53.866 33.7996C53.866 34.5162 54.4459 35.0958 55.1596 35.0958H67.5026C68.2178 35.0958 68.7962 34.5147 68.7962 33.7996C68.7962 33.0844 68.2163 32.5034 67.5026 32.5034Z" fill="#1BAEA6"/>
<path d="M67.0551 22.5956H51.2936C50.5784 22.5956 50 23.1766 50 23.8918C50 24.6084 50.5799 25.188 51.2936 25.188H67.0551C67.7703 25.188 68.3487 24.6069 68.3487 23.8918C68.3502 23.1751 67.7703 22.5956 67.0551 22.5956Z" fill="#1BAEA6"/>
<path d="M67.049 42.371H53.8823C53.167 42.371 52.5886 42.952 52.5886 43.6672C52.5886 44.3838 53.1685 44.9634 53.8823 44.9634H67.049C67.7642 44.9634 68.3426 44.3824 68.3426 43.6672C68.3426 42.952 67.7627 42.371 67.049 42.371Z" fill="#1BAEA6"/>
<path d="M67.2081 52.2609H61.7585C61.0433 52.2609 60.4648 52.842 60.4648 53.5571C60.4648 54.2738 61.0447 54.8534 61.7585 54.8534H67.2081C67.9233 54.8534 68.5017 54.2723 68.5017 53.5571C68.5032 52.842 67.9233 52.2609 67.2081 52.2609Z" fill="#1BAEA6"/>
<path d="M55.4093 52.2609H48.6215C47.9063 52.2609 47.3279 52.842 47.3279 53.5571C47.3279 54.2738 47.9078 54.8534 48.6215 54.8534H55.4093C56.1245 54.8534 56.703 54.2723 56.703 53.5571C56.7045 52.842 56.1245 52.2609 55.4093 52.2609Z" fill="#1BAEA6"/>
<path d="M61.9027 62.1926H53.9535C53.2383 62.1926 52.6599 62.7737 52.6599 63.4888C52.6599 64.2055 53.2398 64.785 53.9535 64.785H61.9027C62.6179 64.785 63.1963 64.204 63.1963 63.4888C63.1963 62.7737 62.6179 62.1926 61.9027 62.1926Z" fill="#1BAEA6"/>
<path d="M47.4722 62.1926H38.341C37.6258 62.1926 37.0474 62.7737 37.0474 63.4888C37.0474 64.2055 37.6273 64.785 38.341 64.785H47.4722C48.1874 64.785 48.7658 64.204 48.7658 63.4888C48.7658 62.7737 48.1859 62.1926 47.4722 62.1926Z" fill="#1BAEA6"/>
<path d="M53.0066 7.08124H40.2785C39.5633 7.08124 38.9849 7.6623 38.9849 8.37745C38.9849 9.09409 39.5648 9.67366 40.2785 9.67366H53.0066C53.7218 9.67366 54.3002 9.0926 54.3002 8.37745C54.3002 7.66081 53.7203 7.08124 53.0066 7.08124Z" fill="#1BAEA6"/>
<path d="M58.92 9.67366C59.5934 9.67366 60.1392 9.12668 60.1392 8.45195C60.1392 7.77721 59.5934 7.23023 58.92 7.23023C58.2466 7.23023 57.7007 7.77721 57.7007 8.45195C57.7007 9.12668 58.2466 9.67366 58.92 9.67366Z" fill="#1BAEA6"/>
<path d="M59.641 80.1206C60.3103 80.1206 60.8529 79.5769 60.8529 78.9063C60.8529 78.2357 60.3103 77.692 59.641 77.692C58.9718 77.692 58.4292 78.2357 58.4292 78.9063C58.4292 79.5769 58.9718 80.1206 59.641 80.1206Z" fill="#1BAEA6"/>
<path d="M46.6127 80.1116C47.282 80.1116 47.8246 79.568 47.8246 78.8974C47.8246 78.2267 47.282 77.6831 46.6127 77.6831C45.9434 77.6831 45.4009 78.2267 45.4009 78.8974C45.4009 79.568 45.9434 80.1116 46.6127 80.1116Z" fill="#1BAEA6"/>
<path d="M33.5856 80.1116C34.2549 80.1116 34.7975 79.568 34.7975 78.8974C34.7975 78.2267 34.2549 77.6831 33.5856 77.6831C32.9163 77.6831 32.3738 78.2267 32.3738 78.8974C32.3738 79.568 32.9163 80.1116 33.5856 80.1116Z" fill="#1BAEA6"/>
<path d="M47.8021 35.0928C47.6742 32.268 46.6468 29.7247 44.7836 27.4854C42.1473 24.3179 38.7378 22.8161 34.7632 22.7088C31.1753 22.6119 28.0215 23.9439 25.4283 26.5021C24.4053 27.5122 24.4008 27.4869 23.3362 26.4529C20.6211 23.8158 17.3216 22.5464 13.5864 22.7088C9.86016 22.8712 6.64393 24.3775 4.18901 27.247C2.05081 29.7471 0.974274 32.6896 0.94751 35.9927C0.98617 39.3659 2.14151 42.4082 3.73847 45.2927C5.54509 48.5541 7.88998 51.437 10.4921 54.0786C13.9894 57.6276 17.8227 60.7966 22.0574 63.4382C24.7681 65.1292 26.8022 63.4098 26.9554 63.307C30.2727 61.1005 33.4146 58.6794 36.326 55.944C41.0589 51.4981 45.2178 46.65 47.1508 40.3015C47.6549 38.6447 47.8794 36.8196 47.8021 35.0928ZM45.1955 36.5619C44.8669 41.5143 42.4536 45.5325 39.3608 49.1783C36.8613 52.1239 34.1209 54.8504 30.9909 57.1493C29.0058 58.6064 27.052 60.1052 25.0462 61.5326C24.777 61.7233 24.0901 61.7218 23.8462 61.5445C21.5043 59.84 19.1549 58.2667 17.0034 56.3403C14.2734 53.8968 11.7129 51.2538 9.20442 48.5794C8.10112 47.4039 7.30859 45.9348 6.36736 44.6043C6.0328 44.1306 6.12053 43.8877 6.60973 43.5033C7.24019 43.0087 9.16725 39.9812 9.31892 40.2002C9.46612 40.1063 9.77986 41.8391 9.82447 42.1386C10.0624 43.7581 10.3315 45.2659 10.4921 46.8958C10.6274 48.2606 11.0854 49.0636 11.8482 49.0398C13.0422 49.0025 13.066 47.9954 13.2474 47.167C13.4719 46.1434 13.6667 45.1124 13.8466 44.0799C13.9537 43.4705 14.1946 42.0387 14.4696 40.8274C14.5514 40.4639 15.0748 40.4833 15.1283 40.8528C15.3648 42.4872 15.5893 44.7489 15.7008 45.6949C15.848 46.9509 15.967 48.2099 16.1276 49.4644C16.2108 50.1229 16.5082 50.707 17.2338 50.7666C17.9937 50.8306 18.5319 50.3792 18.7728 49.673C18.9914 49.0308 19.6888 44.436 19.8181 44.4702C20.0649 43.4944 20.6136 47.3726 20.7266 47.8151C20.8902 48.4602 21.366 48.9712 21.7749 49.0368C22.1823 49.1023 22.8277 48.6107 23.128 48.192C23.6068 47.5245 23.9161 46.726 24.2447 45.9616C24.7116 44.874 25.2781 44.661 26.4602 44.5447C26.7189 44.5194 27.1799 44.5239 27.6052 44.5239C28.5464 44.4971 29.0594 44.734 29.6541 45.2614C30.2623 45.8007 30.9582 45.8112 31.6808 45.5474C31.8593 45.4819 32.0332 45.3985 32.1879 45.2882C32.8823 44.7936 33.2257 44.2512 33.2005 43.4303C33.1737 42.5393 32.6577 41.7571 31.837 41.4443C30.9255 41.0971 30.0214 41.2863 29.2824 41.9732C29.0029 42.2324 28.5077 42.3457 28.1033 42.365C27.0267 42.4172 25.9383 42.3144 24.8677 42.4142C24.3309 42.4648 23.7674 42.7435 23.3169 43.0623C22.5868 43.5778 22.2448 43.5167 22.05 42.6079C21.8626 41.7318 21.7467 40.8409 21.6009 39.9573C21.4701 39.1603 21.134 38.5017 20.2449 38.4466C19.3319 38.39 19.1118 39.1066 18.8903 39.8203C18.5914 40.7842 18.2331 41.7303 17.9 42.6839C17.7781 42.9342 17.6903 42.9148 17.6308 42.6675C17.5253 41.9955 17.3989 41.3266 17.3186 40.6531C16.9989 37.9519 16.6911 35.2493 16.3818 32.5466C16.2986 31.821 15.9595 31.2817 15.1923 31.2385C14.4473 31.1967 14.0934 31.7212 13.9522 32.3827C13.3485 35.2224 12.7612 38.0652 12.156 40.9049C12.0772 41.2744 11.9285 41.6275 11.8125 41.9896C11.7069 42.2518 11.6162 42.219 11.5359 41.9881C11.2653 40.8975 11.0125 39.8009 10.7181 38.7163C10.3211 37.2591 9.55682 37.0535 8.53977 38.1859C7.92715 38.8697 7.44985 39.6743 6.91307 40.4252C6.69895 40.7246 6.52349 41.0673 6.26328 41.3191C5.48561 42.0745 4.9414 41.8868 4.56818 40.8841C3.83364 38.9159 3.337 36.912 3.62695 34.8038C4.10723 31.301 5.75624 28.579 8.63939 26.8269C10.956 25.4189 13.6949 24.9049 16.3491 25.4487C18.9884 25.9895 21.1816 27.399 22.8128 29.5802C23.0537 29.902 23.2722 30.2477 23.5518 30.5308C24.0886 31.0716 24.6938 31.1371 25.2692 30.5948C25.6275 30.2581 25.9472 29.8767 26.2535 29.4893C27.733 27.6195 29.5976 26.1534 31.8622 25.5873C35.5483 24.6665 39.0262 25.2908 41.9555 27.9622C44.4907 30.2834 45.4186 33.2066 45.1955 36.5619Z" fill="#EB4592"/>
</svg>
